<?xml version="1.0" encoding="UTF-8" standalone="no"?>
<svg
   xmlns:dc="http://purl.org/dc/elements/1.1/"
   xmlns:cc="http://creativecommons.org/ns#"
   xmlns:rdf="http://www.w3.org/1999/02/22-rdf-syntax-ns#"
   xmlns:svg="http://www.w3.org/2000/svg"
   xmlns="http://www.w3.org/2000/svg"
   xmlns:xlink="http://www.w3.org/1999/xlink"
   xmlns:sodipodi="http://sodipodi.sourceforge.net/DTD/sodipodi-0.dtd"
   xmlns:inkscape="http://www.inkscape.org/namespaces/inkscape"
   height="6526px"
   version="1.1"
   width="4909px"
   id="svg6"
   sodipodi:docname="atkin_2009_afm_13266_f4b_solid.svg"
   inkscape:version="0.92.2 (5c3e80d, 2017-08-06)">
  <metadata
     id="metadata32">
    <rdf:RDF>
      <cc:Work
         rdf:about="">
        <dc:format>image/svg+xml</dc:format>
        <dc:type
           rdf:resource="http://purl.org/dc/dcmitype/StillImage" />
      </cc:Work>
    </rdf:RDF>
  </metadata>
  <sodipodi:namedview
     id="namedview8"
     pagecolor="#ffffff"
     bordercolor="#666666"
     borderopacity="1.0"
     inkscape:pageshadow="2"
     inkscape:pageopacity="0.0"
     inkscape:pagecheckerboard="0"
     showgrid="false"
     inkscape:snap-text-baseline="true"
     inkscape:zoom="0.50996014"
     inkscape:cx="1690.7341"
     inkscape:cy="5677.0498"
     inkscape:window-width="1920"
     inkscape:window-height="1027"
     inkscape:window-x="-8"
     inkscape:window-y="22"
     inkscape:window-maximized="1"
     inkscape:current-layer="svg6" />
  <defs
     id="defs2" />
  <image
     sodipodi:absref="E:\1-cloud\IL Water Influence\digitize-literature\ionic_liquid_CVs\literature\atkin_2009_afm_13266\atkin_2009_afm_13266_p4.png"
     xlink:href="atkin_2009_afm_13266_p4.png"
     height="6526px"
     sodipodi:insensitive="true"
     width="4909px"
     x="0"
     y="0"
     id="image4" />
  <g
     id="g7569">
    <path
       style="fill:#000000;fill-opacity:1;stroke:#000000;stroke-width:1px;stroke-linecap:butt;stroke-linejoin:miter;stroke-opacity:1"
       d="m 1902.8447,2009.7158 163.003,56.1319"
       id="path15150"
       sodipodi:nodetypes="cc" />
    <path
       style="fill:#000000;fill-opacity:1;stroke:#000000;stroke-width:1px;stroke-linecap:butt;stroke-linejoin:miter;stroke-opacity:1"
       d="m 1901.6191,2164.3848 164.2286,-98.5371"
       id="path15152"
       sodipodi:nodetypes="cc" />
    <text
       xml:space="preserve"
       style="font-size:53.3333px;line-height:1.25;font-family:sans-serif;-inkscape-font-specification:sans-serif;letter-spacing:0px;word-spacing:0px;fill:#000000;fill-opacity:1;stroke:#000000;stroke-opacity:1"
       x="2065.8477"
       y="2065.8477"
       id="text7113"><tspan
         sodipodi:role="line"
         id="tspan7111"
         x="2065.8477"
         y="2065.8477">j_scale_bar: 5 mA / cm2</tspan></text>
  </g>
  <g
     id="g2756">
    <path
       style="fill:none;fill-opacity:1;stroke:#ff0000;stroke-width:1px;stroke-linecap:butt;stroke-linejoin:miter;stroke-opacity:1"
       d="m 1450.1133,1681.0137 c -33.4176,0.3351 -66.8567,-0.2593 -100.2529,0.9804 -55.8008,2.0713 -108.8803,9.7705 -164.7188,10.0498 -21.0293,0.1053 -47.1881,-5.9686 -67.8728,-2.1762 -76.1861,13.968 -46.9766,19.9104 -65.6031,24.5967 -14.8599,3.7386 -30.3205,64.7566 -131.49578,445.5083 0,0 76.01194,-381.1574 104.88038,-455.3335 11.5364,-29.642 63.6279,-13.146 94.645,-20.1939 38.3154,-8.7063 47.4115,-3.7495 86.2813,-6.373 7.8021,-0.5266 6.7706,-8.3289 21.08,-10.295 5.9987,-0.8242 12.3272,0.7198 18.1387,-0.9804 14.9597,-4.3767 28.6937,-20.9358 40.6895,-23.041 5.5951,-0.9819 18.2829,22.9412 44.1211,26.4726 15.055,2.0576 31.0249,2.4509 46.5722,2.9414 42.6292,1.3448 68.8533,0.927 127.9512,0 10.8836,-0.1707 19.1487,-4.1516 30.0269,-4.5347 7.5282,-0.2651 16.6562,4.5217 24.0215,2.9414 8.8628,-1.9016 14.7368,-13.299 23.7763,-13.9716 5.8756,-0.4372 9.295,7.056 17.771,5.7602 32.1283,-4.9116 34.7523,-23.5093 44.6113,-23.5312 5.9482,-0.013 11.2306,5.397 17.1582,4.9023 9.0511,-0.7554 38.2053,-16.6877 43.2632,-20.835 24.5244,-20.1093 67.6983,-170.397 85.6685,-210.8007 2.9476,-6.6273 -38.6869,165.8561 -80.3985,237.5185 -4.869,8.3651 -27.4476,13.217 -42.1601,16.668 -11.3359,2.659 -23.3045,1.1324 -34.8067,2.9414 -13.5877,2.137 -26.4447,9.2337 -40.1992,9.3145 -46.2783,0.2717 -95.4321,0.9923 -143.1484,1.4707 z"
       id="path19468"
       sodipodi:nodetypes="ssssscssssssssssssssssssssss"
       inkscape:connector-curvature="0" />
    <text
       xml:space="preserve"
       style="font-size:53.33330154px;line-height:1.25;font-family:sans-serif;-inkscape-font-specification:sans-serif;letter-spacing:0px;word-spacing:0px"
       x="1307.5564"
       y="1496.1331"
       id="text6159"><tspan
         sodipodi:role="line"
         id="tspan6157"
         x="1307.5564"
         y="1496.1331">curve: solid</tspan></text>
  </g>
  <g
     id="g13387">
    <path
       style="fill:#000000;fill-opacity:1;stroke:#000000;stroke-width:1px;stroke-linecap:butt;stroke-linejoin:miter;stroke-opacity:1"
       d="m 812.31836,2214.6338 -277.71088,81.563"
       id="path11301"
       sodipodi:nodetypes="cc"
       inkscape:connector-curvature="0" />
    <text
       xml:space="preserve"
       style="font-size:53.33330154px;line-height:1.25;font-family:sans-serif;-inkscape-font-specification:sans-serif;letter-spacing:0px;word-spacing:0px"
       x="102.60782"
       y="2296.1968"
       id="text1918"><tspan
         sodipodi:role="line"
         id="tspan1916"
         x="102.60782"
         y="2296.1968">E1: -4 V vs. Fc/Fc+</tspan></text>
  </g>
  <g
     id="g4017">
    <path
       style="fill:#000000;fill-opacity:1;stroke:#000000;stroke-width:1px;stroke-linecap:butt;stroke-linejoin:miter;stroke-opacity:1"
       d="m 1937.0386,2214.6338 72.6554,172.4392"
       id="path11303"
       sodipodi:nodetypes="cc"
       inkscape:connector-curvature="0" />
    <text
       xml:space="preserve"
       style="font-size:53.33330154px;line-height:1.25;font-family:sans-serif;-inkscape-font-specification:sans-serif;letter-spacing:0px;word-spacing:0px"
       x="2009.694"
       y="2387.073"
       id="text1918-7"><tspan
         sodipodi:role="line"
         id="tspan1916-1"
         x="2009.694"
         y="2387.073">E2: 4 V vs. Fc/Fc+</tspan></text>
  </g>
  <text
     xml:space="preserve"
     style="font-size:53.3333px;line-height:1.25;font-family:sans-serif;-inkscape-font-specification:sans-serif;letter-spacing:0px;word-spacing:0px"
     x="-95.674866"
     y="1539.1174"
     id="text8299"><tspan
       sodipodi:role="line"
       id="tspan8297"
       x="-95.674866"
       y="1539.1174">figure: 4b</tspan></text>
  <text
     xml:space="preserve"
     style="font-size:53.3333px;line-height:1.25;font-family:sans-serif;-inkscape-font-specification:sans-serif;letter-spacing:0px;word-spacing:0px"
     x="-71.4095"
     y="1439.976"
     id="text9563"><tspan
       sodipodi:role="line"
       id="tspan9561"
       x="-71.4095"
       y="1439.976">scan rate: 10 mV / s</tspan></text>
  <g
     id="g850">
    <text
       xml:space="preserve"
       style="font-size:53.33330154px;line-height:1.25;font-family:sans-serif;-inkscape-font-specification:sans-serif;letter-spacing:0px;word-spacing:0px"
       x="310.45175"
       y="1692.7803"
       id="text4739"><tspan
         sodipodi:role="line"
         id="tspan4737"
         x="310.45175"
         y="1692.7803">j1: 0 mA / cm2</tspan></text>
    <path
       sodipodi:nodetypes="cc"
       id="path15273"
       d="M 727.75293,1677.4594 H 1994.5185"
       style="fill:#000000;fill-opacity:1;stroke:#000000;stroke-width:1px;stroke-linecap:butt;stroke-linejoin:miter;stroke-opacity:1"
       inkscape:connector-curvature="0" />
  </g>
</svg>
