<?xml version="1.0" encoding="UTF-8" standalone="no"?>
<svg
   xmlns:dc="http://purl.org/dc/elements/1.1/"
   xmlns:cc="http://creativecommons.org/ns#"
   xmlns:rdf="http://www.w3.org/1999/02/22-rdf-syntax-ns#"
   xmlns:svg="http://www.w3.org/2000/svg"
   xmlns="http://www.w3.org/2000/svg"
   xmlns:xlink="http://www.w3.org/1999/xlink"
   xmlns:sodipodi="http://sodipodi.sourceforge.net/DTD/sodipodi-0.dtd"
   xmlns:inkscape="http://www.inkscape.org/namespaces/inkscape"
   height="6526px"
   version="1.1"
   width="4909px"
   id="svg6"
   sodipodi:docname="atkin_2009_afm_13266_f4a_solid.svg"
   inkscape:version="0.92.2 (5c3e80d, 2017-08-06)">
  <metadata
     id="metadata34">
    <rdf:RDF>
      <cc:Work
         rdf:about="">
        <dc:format>image/svg+xml</dc:format>
        <dc:type
           rdf:resource="http://purl.org/dc/dcmitype/StillImage" />
      </cc:Work>
    </rdf:RDF>
  </metadata>
  <sodipodi:namedview
     id="namedview8"
     pagecolor="#ffffff"
     bordercolor="#666666"
     borderopacity="1.0"
     inkscape:pageshadow="2"
     inkscape:pageopacity="0.0"
     inkscape:pagecheckerboard="0"
     showgrid="false"
     inkscape:snap-text-baseline="true"
     inkscape:zoom="1.0199203"
     inkscape:cx="1006.3267"
     inkscape:cy="5402.7701"
     inkscape:window-width="1920"
     inkscape:window-height="1027"
     inkscape:window-x="-8"
     inkscape:window-y="22"
     inkscape:window-maximized="1"
     inkscape:current-layer="svg6" />
  <defs
     id="defs2" />
  <image
     sodipodi:absref="E:\1-cloud\IL Water Influence\digitize-literature\ionic_liquid_CVs\literature\atkin_2009_afm_13266\atkin_2009_afm_13266_p4.png"
     xlink:href="atkin_2009_afm_13266_p4.png"
     height="6526px"
     sodipodi:insensitive="true"
     width="4909px"
     x="0"
     y="0"
     id="image4" />
  <text
     xml:space="preserve"
     style="font-size:40px;line-height:1.25;font-family:sans-serif;word-spacing:0px"
     x="-251"
     y="431.40625"
     id="text1090"><tspan
       sodipodi:role="line"
       id="tspan1088"
       x="-251"
       y="431.40625">figure: 4a</tspan></text>
  <text
     xml:space="preserve"
     style="font-size:40px;line-height:1.25;font-family:sans-serif;word-spacing:0px"
     x="-129.42188"
     y="576.51562"
     id="text2084"><tspan
       sodipodi:role="line"
       id="tspan2082"
       x="-129.42188"
       y="576.51562">scan rate: 10 mV / s</tspan></text>
  <g
     id="g5654">
    <text
       xml:space="preserve"
       style="font-size:40px;line-height:1.25;font-family:sans-serif;word-spacing:0px"
       x="63.725517"
       y="2326.7034"
       id="text11262"><tspan
         sodipodi:role="line"
         id="tspan11260"
         x="63.725517"
         y="2326.7034">E1: -4 V vs. Fc/Fc+</tspan></text>
    <path
       style="fill:none;stroke:#000000;stroke-width:1px;stroke-linecap:butt;stroke-linejoin:miter;stroke-opacity:1"
       d="M 812.1958,2214.5112 387.72546,2326.7034"
       id="path21123"
       sodipodi:nodetypes="cc"
       inkscape:connector-curvature="0" />
  </g>
  <g
     id="g5659">
    <text
       xml:space="preserve"
       style="font-size:40px;line-height:1.25;font-family:sans-serif;word-spacing:0px"
       x="2081.5706"
       y="2339.9062"
       id="text16216"><tspan
         sodipodi:role="line"
         id="tspan16214"
         x="2081.5706"
         y="2339.9062">E2: 4 V vs. Fc/Fc+</tspan></text>
    <path
       style="fill:none;stroke:#000000;stroke-width:1px;stroke-linecap:butt;stroke-linejoin:miter;stroke-opacity:1"
       d="m 1936.6709,2214.3887 144.8997,125.5176"
       id="path21125"
       sodipodi:nodetypes="cc"
       inkscape:connector-curvature="0" />
  </g>
  <g
     id="g37719">
    <text
       xml:space="preserve"
       style="font-size:40px;line-height:1.25;font-family:sans-serif;word-spacing:0px"
       x="2047.2188"
       y="1164.7969"
       id="text30246"><tspan
         sodipodi:role="line"
         id="tspan30244"
         x="2047.2188"
         y="1164.7969">j_scale_bar: 0.5 mA / cm2</tspan></text>
    <path
       style="fill:none;stroke:#000000;stroke-width:1px;stroke-linecap:butt;stroke-linejoin:miter;stroke-opacity:1"
       d="m 1902.1094,1097.1445 145.1094,67.6524"
       id="path37631"
       sodipodi:nodetypes="cc"
       inkscape:connector-curvature="0" />
    <path
       style="fill:none;stroke:#000000;stroke-width:1px;stroke-linecap:butt;stroke-linejoin:miter;stroke-opacity:1"
       d="m 1902.1094,1264.3145 145.1094,-99.5176"
       id="path37633"
       sodipodi:nodetypes="cc"
       inkscape:connector-curvature="0" />
  </g>
  <g
     id="g5693">
    <text
       xml:space="preserve"
       style="font-size:53.33330154px;line-height:1.25;font-family:sans-serif;-inkscape-font-specification:sans-serif;letter-spacing:0px;word-spacing:0px"
       x="1067.676"
       y="682.20337"
       id="text3354"><tspan
         sodipodi:role="line"
         id="tspan3352"
         x="1067.676"
         y="682.20337">curve: solid</tspan></text>
    <path
       style="fill:none;stroke:#ff0000;stroke-width:1px;stroke-linecap:butt;stroke-linejoin:miter;stroke-opacity:1"
       d="m 1348.4368,785.36779 c 0,0 -45.648,-2.11178 -53.7278,-1.72814 -40.1538,1.90656 -35.0321,8.46746 -53.0294,12.50098 -9.7678,2.18912 -24.3273,-5.07547 -40.8505,-4.90235 -29.5728,0.30984 -64.1907,49.85008 -73.29,50.00391 -17.012,0.28759 -16.8138,-13.54024 -49.0235,-14.2168 -29.4444,-0.61848 -35.1218,21.80469 -44.6113,21.08008 -10.8985,-0.8322 -17.7071,-14.08819 -28.6367,-14.21169 -4.5401,-0.0513 -7.16462,1.60485 -11.07229,3.91677 -7.3806,4.36664 -13.60934,11.78099 -22.06054,13.23633 -12.41641,2.13818 -13.61984,5.00703 -23.75895,5.1054 -6.41426,0.0622 -36.68248,39.41895 -40.95199,51.27155 -27.63502,76.71773 -50.98438,286.29687 -50.98438,286.29687 0,0 22.03763,-205.44165 46.08203,-306.39648 8.75761,-36.77043 22.44338,-74.01393 63.24024,-94.125 15.55289,-7.6669 28.57146,-7.33142 76.47658,-10.29492 15.0938,-0.93373 1.5406,3.37657 121.9978,0.17332 34.5171,-0.91789 103.2208,-7.02232 190.2815,-11.44871 12.5636,-0.63876 21.2328,-11.89841 39.0896,-12.39945 26.6391,-0.74747 32.6708,-51.92796 53.6539,-65.11196 3.1376,-1.97137 21.5638,-3.36382 36.2128,-2.57012 3.7952,0.20563 10.6609,2.7628 14.4546,2.99578 8.2525,0.50681 16.8558,-5.28382 25.0913,-4.55059 14.2762,1.27106 20.282,17.24142 34.4548,19.37657 28.282,4.2607 43.964,16.04999 65.6914,14.70703 16.4691,-1.01794 36.4805,3.85773 49.0235,-6.86328 17.7437,-15.1662 15.803,-9.47755 21.7487,-14.85061 10.802,-9.76156 21.0118,-18.7066 26.725,-32.09804 18.4408,-43.22491 25.8517,-83.25193 46.1415,-165.81307 0,0 -21.7659,136.83872 -43.8637,201.7735 -8.0628,23.6927 -24.6487,46.95393 -47.9834,56.00057 -30.7138,11.90741 -65.904,14.38471 -99.3443,17.73765 -46.212,4.63351 -93.0847,2.81653 -139.4866,4.78595 -21.247,0.90178 -47.56,-4.65882 -63.4704,3.54804 -19.4845,10.0504 -27.9434,23.04101 -27.9434,23.04101"
       id="path61"
       sodipodi:nodetypes="cssssssssssscsssssssssssssssssssssc"
       inkscape:connector-curvature="0" />
  </g>
  <text
     xml:space="preserve"
     style="font-size:53.3333px;line-height:1.25;font-family:sans-serif;-inkscape-font-specification:sans-serif;letter-spacing:0px;word-spacing:0px"
     x="-684.36719"
     y="101.96875"
     id="text3190"><tspan
       sodipodi:role="line"
       x="-684.36719"
       y="101.96875"
       id="tspan3407">comment: A baseline for zero current was not available and hence was chosen by the curator. The actual data has more noise than the digitized data.</tspan></text>
  <g
     id="g852">
    <text
       xml:space="preserve"
       style="font-size:40px;line-height:1.25;font-family:sans-serif;word-spacing:0px"
       x="407.76947"
       y="792.05054"
       id="text26444"><tspan
         sodipodi:role="line"
         id="tspan26442"
         x="407.76947"
         y="792.05054">j1: 0 mA / cm2</tspan></text>
    <path
       id="path21322"
       d="M 734.37114,780.45313 H 1838.3789"
       style="fill:none;stroke:#000000;stroke-width:1.34009004px;stroke-linecap:butt;stroke-linejoin:miter;stroke-opacity:1"
       inkscape:connector-curvature="0" />
  </g>
</svg>
