<?xml version="1.0" encoding="UTF-8" standalone="no"?>
<svg
   height="7016px"
   version="1.1"
   width="4961px"
   id="svg1"
   sodipodi:docname="schuett_2021_electrodepositionsi_20461_p2.svg"
   inkscape:version="1.1.2 (b8e25be833, 2022-02-05)"
   xmlns:inkscape="http://www.inkscape.org/namespaces/inkscape"
   xmlns:sodipodi="http://sodipodi.sourceforge.net/DTD/sodipodi-0.dtd"
   xmlns:xlink="http://www.w3.org/1999/xlink"
   xmlns="http://www.w3.org/2000/svg"
   xmlns:svg="http://www.w3.org/2000/svg">
  <sodipodi:namedview
     id="namedview1"
     pagecolor="#ffffff"
     bordercolor="#000000"
     borderopacity="0.25"
     inkscape:showpageshadow="2"
     inkscape:pageopacity="0.0"
     inkscape:pagecheckerboard="0"
     inkscape:deskcolor="#d1d1d1"
     inkscape:zoom="0.32775245"
     inkscape:cx="3913.0142"
     inkscape:cy="2170.8457"
     inkscape:window-width="1920"
     inkscape:window-height="991"
     inkscape:window-x="-9"
     inkscape:window-y="-9"
     inkscape:window-maximized="1"
     inkscape:current-layer="svg1"
     inkscape:pageshadow="2"
     showgrid="false" />
  <defs
     id="defs1">
    <inkscape:path-effect
       effect="bspline"
       id="path-effect39867"
       is_visible="true"
       lpeversion="1"
       weight="33.333333"
       steps="2"
       helper_size="0"
       apply_no_weight="true"
       apply_with_weight="true"
       only_selected="false" />
    <inkscape:path-effect
       effect="bspline"
       id="path-effect35243"
       is_visible="true"
       lpeversion="1"
       weight="33.333333"
       steps="2"
       helper_size="0"
       apply_no_weight="true"
       apply_with_weight="true"
       only_selected="false" />
    <inkscape:path-effect
       effect="bspline"
       id="path-effect34631"
       is_visible="true"
       lpeversion="1"
       weight="33.333333"
       steps="2"
       helper_size="0"
       apply_no_weight="true"
       apply_with_weight="true"
       only_selected="false" />
    <inkscape:path-effect
       effect="bspline"
       id="path-effect34509"
       is_visible="true"
       lpeversion="1"
       weight="33.333333"
       steps="2"
       helper_size="0"
       apply_no_weight="true"
       apply_with_weight="true"
       only_selected="false" />
    <inkscape:path-effect
       effect="bspline"
       id="path-effect2081"
       is_visible="true"
       lpeversion="1"
       weight="33.333333"
       steps="2"
       helper_size="0"
       apply_no_weight="true"
       apply_with_weight="true"
       only_selected="false" />
    <inkscape:path-effect
       effect="bspline"
       id="path-effect1404"
       is_visible="true"
       lpeversion="1"
       weight="33.333333"
       steps="2"
       helper_size="0"
       apply_no_weight="true"
       apply_with_weight="true"
       only_selected="false" />
    <inkscape:path-effect
       effect="bspline"
       id="path-effect2"
       is_visible="true"
       lpeversion="1.3"
       weight="33.333333"
       steps="2"
       helper_size="0"
       apply_no_weight="true"
       apply_with_weight="true"
       only_selected="false"
       uniform="false" />
    <inkscape:path-effect
       effect="spiro"
       id="path-effect1"
       is_visible="true"
       lpeversion="1" />
  </defs>
  <image
     height="7016px"
     sodipodi:insensitive="true"
     width="4961px"
     x="0"
     xlink:href="schuett_2021_electrodepositionsi_20461_p2.png"
     y="0"
     id="image1" />
  <g
     id="g39957">
    <path
       style="fill:none;stroke:#ff0000;stroke-width:1px;stroke-linecap:butt;stroke-linejoin:miter;stroke-opacity:1"
       d="m 2690.6729,2192.2163 c -98.2171,8.7642 -165.2234,26.866 -248.8315,98.4178 -71.791,61.4388 -157.3308,134.2651 -242.9389,106.4869 -106.9138,-34.6915 -168.3753,16.5002 -204.5312,168.7686 -47.8483,201.5104 -54.1605,252.0319 -112.7923,126.9468 -46.5837,-99.3817 -187.0191,-218.2524 -484.1551,-241.2754 -133.9861,-10.3816 -204.235,-49.2554 -278.6776,47.9299 -53.8526,70.3051 -48.5865,82.1508 -69.7247,118.7161 14.4596,-51.8898 7.9151,-113.1136 144.5719,-167.2619 96.5174,-38.2436 221.2831,-119.7009 383.2397,-130.4714 159.5764,-10.6122 283.4582,-24.5305 431.7987,-71.994 136.2205,-43.5855 173.7553,-24.2994 240.2408,-41.8363 107.0274,-28.2305 206.2038,-30.1162 269.8751,-40.0926 113.8385,-17.8369 111.8676,-27.71 142.1973,-31.2096 66.108,-7.6279 126.7471,10.4699 180.9863,-149.7706 62.3386,-184.1692 91.423,-281.7405 153.5284,-169.512 32.9648,59.5695 82.0646,110.2104 127.4186,124.2156 46.2137,14.2706 87.3205,32.9754 138.681,49.1708 49.6719,15.663 142.7525,12.0448 211.3115,-9.5089 89.8285,-28.2405 153.0172,-12.3894 281.1344,9.447 109.3748,18.6419 275.9795,18.3681 382.6355,2.2756 54.1297,-8.1672 118.0645,-16.1426 169.2105,-21.0743 35.1725,-3.3915 51.8247,-25.5502 60.1272,-22.054 4.2209,27.5538 -51.9022,127.934 -134.8021,156.3363 -82.8998,28.4023 -256.0478,37.9807 -424.6144,47.1491 -164.9693,8.9727 -330.7762,8.7549 -406.1908,46.3214 -86.8535,43.2645 -123.0855,26.644 -186.8906,-12.4348 -70.791,-43.3574 -171.1778,-23.0825 -261.0342,-9.4629 -100.6532,15.256 -192.7739,9.6197 -261.7735,15.7768 z"
       id="path1402"
       sodipodi:nodetypes="ssssssscsssssssssssssscssssss" />
    <text
       xml:space="preserve"
       style="font-size:74.6667px;line-height:1.25;font-family:sans-serif;letter-spacing:0px;word-spacing:0px;white-space:pre;inline-size:0"
       x="1993.4761"
       y="1592.1919"
       id="text9612"
       transform="translate(-107.87208,280.46741)"><tspan
         id="tspan9610"
         x="1993.4761"
         y="1592.1919"
         style="font-size:74.6667px">curve: blue</tspan></text>
  </g>
  <text
     xml:space="preserve"
     style="font-size:32px;line-height:1.25;font-family:sans-serif;letter-spacing:0px;word-spacing:0px"
     x="1022.6273"
     y="2994.5291"
     id="text20037"><tspan
       sodipodi:role="line"
       id="tspan20035"
       x="1022.6273"
       y="2994.5291">Figure: S1</tspan><tspan
       sodipodi:role="line"
       x="1022.6273"
       y="3034.5291"
       id="tspan20303">tags: BCV</tspan></text>
  <text
     xml:space="preserve"
     style="font-size:32px;line-height:1.25;font-family:sans-serif;letter-spacing:0px;word-spacing:0px"
     x="1406.6519"
     y="2968.6396"
     id="text22243"><tspan
       sodipodi:role="line"
       id="tspan22241"
       x="1406.6519"
       y="2968.6396">scan rate: 50 mV / s</tspan></text>
  <g
     id="g34594">
    <text
       xml:space="preserve"
       style="font-size:32px;line-height:1.25;font-family:sans-serif;letter-spacing:0px;word-spacing:0px"
       x="245.94835"
       y="1665.5449"
       id="text26071"><tspan
         sodipodi:role="line"
         id="tspan26069"
         x="245.94835"
         y="1665.5449">j1: 20 uA / cm2</tspan></text>
    <path
       style="fill:none;stroke:#000000;stroke-width:1px;stroke-linecap:butt;stroke-linejoin:miter;stroke-opacity:1"
       d="m 808.50125,1645.0492 c -113.62429,3.5957 -227.24955,7.1915 -340.87578,10.7873"
       id="path34507"
       inkscape:path-effect="#path-effect34509"
       inkscape:original-d="m 808.50125,1645.0492 c -113.62426,3.5968 -227.24952,7.1925 -340.87578,10.7873" />
  </g>
  <g
     id="g34716">
    <text
       xml:space="preserve"
       style="font-size:32px;line-height:1.25;font-family:sans-serif;letter-spacing:0px;word-spacing:0px"
       x="345.19067"
       y="2886.657"
       id="text27351"><tspan
         sodipodi:role="line"
         id="tspan27349"
         x="345.19067"
         y="2886.657">j1: -30 uA / cm2</tspan></text>
    <path
       style="fill:none;stroke:#000000;stroke-width:1px;stroke-linecap:butt;stroke-linejoin:miter;stroke-opacity:1"
       d="m 807.96189,2972.4152 c -72.27307,-30.9228 -144.54736,-61.8461 -216.82288,-92.77"
       id="path34629"
       inkscape:path-effect="#path-effect34631"
       inkscape:original-d="m 807.96189,2972.4152 c -72.27329,-30.9223 -144.54759,-61.8456 -216.82288,-92.77" />
  </g>
  <g
     id="g35328">
    <text
       xml:space="preserve"
       style="font-size:32px;line-height:1.25;font-family:sans-serif;letter-spacing:0px;word-spacing:0px"
       x="785.30878"
       y="4936.2266"
       id="text30317"><tspan
         sodipodi:role="line"
         id="tspan30315"
         x="785.30878"
         y="4936.2266">E1: -1.5 V vs. Zn/Zn2+</tspan></text>
    <path
       style="fill:none;stroke:#000000;stroke-width:1px;stroke-linecap:butt;stroke-linejoin:miter;stroke-opacity:1"
       d="m 1085.7325,4699.4472 c -37.7554,75.3311 -75.5107,150.6618 -113.26568,225.9921"
       id="path35241"
       inkscape:path-effect="#path-effect35243"
       inkscape:original-d="m 1085.7325,4699.4472 c -37.7542,75.3317 -75.5095,150.6624 -113.26568,225.9921" />
  </g>
  <g
     id="g39952">
    <text
       xml:space="preserve"
       style="font-size:32px;line-height:1.25;font-family:sans-serif;letter-spacing:0px;word-spacing:0px"
       x="3249.3862"
       y="5006.416"
       id="text30317-6"><tspan
         sodipodi:role="line"
         id="tspan30315-8"
         x="3249.3862"
         y="5006.416">E1: 2.5 V vs. Zn/Zn2+</tspan></text>
    <path
       style="fill:none;stroke:#000000;stroke-width:1px;stroke-linecap:butt;stroke-linejoin:miter;stroke-opacity:1"
       d="m 4249.6207,4698.3685 c -228.149,99.4219 -456.2984,198.844 -684.4484,298.2663"
       id="path39865"
       inkscape:path-effect="#path-effect39867"
       inkscape:original-d="m 4249.6207,4698.3685 c -228.1485,99.4231 -456.2979,198.8452 -684.4484,298.2663" />
  </g>
</svg>
