<?xml version="1.0" encoding="UTF-8" standalone="no"?>
<svg
   height="6615px"
   version="1.1"
   width="4961px"
   id="svg1"
   sodipodi:docname="pajkossy_2007_voltammetry_113_f3a_solid.svg"
   inkscape:version="1.4.2 (f4327f4, 2025-05-13)"
   xmlns:inkscape="http://www.inkscape.org/namespaces/inkscape"
   xmlns:sodipodi="http://sodipodi.sourceforge.net/DTD/sodipodi-0.dtd"
   xmlns:xlink="http://www.w3.org/1999/xlink"
   xmlns="http://www.w3.org/2000/svg"
   xmlns:svg="http://www.w3.org/2000/svg">
  <sodipodi:namedview
     id="namedview1"
     pagecolor="#ffffff"
     bordercolor="#000000"
     borderopacity="0.25"
     inkscape:showpageshadow="2"
     inkscape:pageopacity="0.0"
     inkscape:pagecheckerboard="0"
     inkscape:deskcolor="#d1d1d1"
     inkscape:zoom="0.46318973"
     inkscape:cx="4391.2891"
     inkscape:cy="3217.9038"
     inkscape:window-width="2880"
     inkscape:window-height="1694"
     inkscape:window-x="-11"
     inkscape:window-y="-11"
     inkscape:window-maximized="1"
     inkscape:current-layer="g14" />
  <defs
     id="defs1" />
  <image
     height="6615"
     sodipodi:insensitive="true"
     width="4961"
     x="0"
     xlink:href="pajkossy_2005_voltammetry_113_p2.png"
     y="0"
     id="image1" />
  <g
     id="g14"
     transform="translate(2492.0162,1322.8765)"
     inkscape:label="j2">
    <text
       xml:space="preserve"
       style="font-style:normal;font-variant:normal;font-weight:normal;font-stretch:normal;font-size:42.6667px;line-height:0;font-family:sans-serif;-inkscape-font-specification:sans-serif;text-align:start;writing-mode:lr-tb;direction:ltr;text-anchor:start;fill:#000000;stroke-width:2"
       x="229.81119"
       y="705.38873"
       id="text2"><tspan
         sodipodi:role="line"
         id="tspan2"
         x="229.81119"
         y="705.38873">j2: 150 uA / cm2</tspan></text>
    <path
       style="fill:#000000;fill-opacity:1;stroke:#000000;stroke-width:2;stroke-opacity:1"
       d="m 536.96987,692.10429 40.86853,85.22198"
       id="path7"
       sodipodi:nodetypes="cc" />
  </g>
  <g
     id="g13"
     transform="translate(2534.1123,1667.0113)"
     inkscape:label="j1">
    <text
       xml:space="preserve"
       style="font-style:normal;font-variant:normal;font-weight:normal;font-stretch:normal;font-size:42.6667px;line-height:0;font-family:sans-serif;-inkscape-font-specification:sans-serif;text-align:start;writing-mode:lr-tb;direction:ltr;text-anchor:start;fill:#000000;stroke-width:2"
       x="101.67587"
       y="1842.6377"
       id="text1"><tspan
         id="tspan1"
         x="101.67587"
         y="1842.6377"
         sodipodi:role="line"
         style="font-size:42.6667px">j1: -50 uA / cm2</tspan></text>
    <path
       style="fill:#000000;fill-opacity:1;stroke:#000000;stroke-width:2;stroke-opacity:1"
       d="m 429.59483,1832.7478 105.81465,54.4914"
       id="path8" />
  </g>
  <g
     id="g11"
     transform="translate(2472.0321,1656.6113)"
     inkscape:label="E1">
    <text
       xml:space="preserve"
       style="font-style:normal;font-variant:normal;font-weight:normal;font-stretch:normal;font-size:42.6667px;line-height:0;font-family:sans-serif;-inkscape-font-specification:sans-serif;text-align:start;writing-mode:lr-tb;direction:ltr;text-anchor:start;fill:#000000;stroke-width:2"
       x="319.00269"
       y="2013.4805"
       id="text5"><tspan
         sodipodi:role="line"
         id="tspan5"
         x="319.00269"
         y="2013.4805">E1: 0.0 V vs RHE</tspan></text>
    <path
       style="fill:#000000;fill-opacity:1;stroke:#000000;stroke-width:2;stroke-opacity:1"
       d="m 597.45799,1899.0069 88.03937,98.1202"
       id="path9" />
  </g>
  <g
     id="g3"
     transform="translate(3297.5917,1786.8605)"
     inkscape:label="E2">
    <text
       xml:space="preserve"
       style="font-style:normal;font-variant:normal;font-weight:normal;font-stretch:normal;font-size:42.6667px;line-height:0;font-family:sans-serif;-inkscape-font-specification:sans-serif;text-align:start;writing-mode:lr-tb;direction:ltr;text-anchor:start;fill:#000000;stroke-width:2"
       x="1142.7289"
       y="1879.9631"
       id="text6"><tspan
         sodipodi:role="line"
         id="tspan6"
         x="1142.7289"
         y="1879.9631">E2: 1.4 V vs RHE</tspan></text>
    <path
       style="fill:#000000;fill-opacity:1;stroke:#000000;stroke-width:2;stroke-opacity:1"
       d="m 1146.8694,1864.3338 75.7177,-93.9343"
       id="path10" />
  </g>
  <text
     xml:space="preserve"
     style="font-size:42.6667px;line-height:0;font-family:sans-serif;-inkscape-font-specification:sans-serif;text-align:start;writing-mode:lr-tb;direction:ltr;text-anchor:start;fill:#000000;stroke:#000000;stroke-width:2"
     x="4525.3237"
     y="2365.5037"
     id="text8"
     inkscape:label="scan rate"><tspan
       sodipodi:role="line"
       id="tspan8"
       x="4525.3237"
       y="2365.5037"
       style="stroke:none">scan rate: 10 mV / s </tspan></text>
  <text
     xml:space="preserve"
     style="font-size:42.6667px;line-height:0;font-family:sans-serif;-inkscape-font-specification:sans-serif;text-align:start;writing-mode:lr-tb;direction:ltr;text-anchor:start;fill:#000000;stroke:none;stroke-width:2"
     x="4613.4922"
     y="2437.8716"
     id="text10"
     inkscape:label="figure"><tspan
       sodipodi:role="line"
       id="tspan10"
       x="4613.4922"
       y="2437.8716">figure: 3a</tspan></text>
  <text
     xml:space="preserve"
     style="font-size:42.6667px;line-height:0;font-family:sans-serif;-inkscape-font-specification:sans-serif;text-align:start;writing-mode:lr-tb;direction:ltr;text-anchor:start;fill:none;stroke:#000000;stroke-width:0.5;stroke-dasharray:none;stroke-opacity:1"
     x="4601.3799"
     y="2502.0771"
     id="text15"
     inkscape:label="tags"><tspan
       sodipodi:role="line"
       id="tspan15"
       x="4601.3799"
       y="2502.0771"
       style="fill:#000000;fill-opacity:1;stroke:#000000;stroke-opacity:1">tags: BCV</tspan></text>
  <g
     id="g1">
    <text
       xml:space="preserve"
       style="font-size:42.6667px;line-height:0;font-family:sans-serif;-inkscape-font-specification:sans-serif;text-align:start;writing-mode:lr-tb;direction:ltr;text-anchor:start;fill:#000000;stroke:#000000;stroke-width:2"
       x="196.8125"
       y="895.41669"
       id="text7"
       inkscape:label="curve"
       transform="translate(4402.8537,1387.7145)"><tspan
         sodipodi:role="line"
         id="tspan7"
         x="196.8125"
         y="895.41669"
         style="stroke:none">curve: solid</tspan></text>
    <path
       style="fill:none;stroke:#e82a2a"
       d="m 3130.2993,3270.7468 c -0.8458,-2.2636 -0.7594,-90.421 -0.7633,-94.6494 -0.01,-9.6038 15.9595,-27.988 23.6623,-28.2422 42.2872,-1.3953 49.0141,16.7959 92.3595,17.1744 32.0125,0.2794 47.2075,-16.8866 51.1412,-16.6019 2.9594,0.2142 4.6716,4.7642 7.633,4.5798 2.9845,-0.1858 5.2165,-3.5415 8.2056,-3.6256 9.4543,-0.266 10.7836,14.9393 24.4256,14.6935 64.1563,-1.1561 55.472,-433.9524 67.3613,-433.7461 8.327,0.1445 6.9684,236.85 16.0294,354.9352 7.4013,96.4551 35.3229,94.0071 75.9485,95.4127 88.8205,3.0731 67.5915,-35.249 78.62,-34.3486 6.8156,0.5565 8.0632,25.3885 64.1173,24.4257 104.1628,-1.7891 129.4695,-47.5631 145.7906,-46.9431 23.4883,0.8922 44.047,20.2392 67.5522,20.2275 56.568,-0.028 47.9759,8.2328 92.0331,11.0822 44.0572,2.8494 118.6281,6.7754 119.4014,8.3821 1.9504,4.0526 1.8562,14.3105 -0.3817,16.7925 -32.3141,35.8384 -137.7755,25.5276 -198.0767,43.5082 -32.5692,9.7115 -58.7837,43.7629 -92.7411,42.3633 -31.0085,-1.2781 -17.3346,-42.6233 -145.7906,-42.3633 -73.8995,0.1496 -64.6477,24.8942 -72.132,24.8073 -5.1144,-0.059 -9.1263,-19.506 -17.8778,-25.3305 -18.5411,-12.3401 -51.5058,-11.645 -61.5055,-12.8345 -121.201,-14.4173 -86.858,219.9525 -121.7466,220.9757 -29.1381,0.8545 -34.8905,-178.6392 -56.4843,-192.3519 -1.4002,-0.8892 -81.6291,-1.1731 -86.2531,-0.7633 -48.4307,4.2918 -78.4437,38.0192 -80.5283,32.4403 z"
       id="path1"
       sodipodi:nodetypes="ssssssssssssssssssssssssssss" />
  </g>
</svg>
