<?xml version="1.0" encoding="UTF-8" standalone="no"?>
<svg
   height="6615px"
   version="1.1"
   width="4961px"
   id="svg1"
   sodipodi:docname="pajkossy_2007_voltammetry_113_f1a_solid.svg"
   inkscape:version="1.4.2 (f4327f4, 2025-05-13)"
   xmlns:inkscape="http://www.inkscape.org/namespaces/inkscape"
   xmlns:sodipodi="http://sodipodi.sourceforge.net/DTD/sodipodi-0.dtd"
   xmlns:xlink="http://www.w3.org/1999/xlink"
   xmlns="http://www.w3.org/2000/svg"
   xmlns:svg="http://www.w3.org/2000/svg">
  <sodipodi:namedview
     id="namedview1"
     pagecolor="#ffffff"
     bordercolor="#000000"
     borderopacity="0.25"
     inkscape:showpageshadow="2"
     inkscape:pageopacity="0.0"
     inkscape:pagecheckerboard="0"
     inkscape:deskcolor="#d1d1d1"
     inkscape:zoom="0.46318972"
     inkscape:cx="4611.5013"
     inkscape:cy="1300.7629"
     inkscape:window-width="2880"
     inkscape:window-height="1694"
     inkscape:window-x="-11"
     inkscape:window-y="-11"
     inkscape:window-maximized="1"
     inkscape:current-layer="g14" />
  <defs
     id="defs1" />
  <image
     height="6615"
     sodipodi:insensitive="true"
     width="4961"
     x="0"
     xlink:href="pajkossy_2005_voltammetry_113_p1.png"
     y="0"
     id="image1" />
  <g
     id="g14"
     transform="translate(2448.3954,-156.58306)"
     inkscape:label="j2">
    <text
       xml:space="preserve"
       style="font-style:normal;font-variant:normal;font-weight:normal;font-stretch:normal;font-size:42.6667px;line-height:0;font-family:sans-serif;-inkscape-font-specification:sans-serif;text-align:start;writing-mode:lr-tb;direction:ltr;text-anchor:start;fill:#000000;stroke-width:2"
       x="229.81119"
       y="705.38873"
       id="text2"><tspan
         sodipodi:role="line"
         id="tspan2"
         x="229.81119"
         y="705.38873">j2: 100 uA / cm2</tspan></text>
    <path
       style="fill:#000000;fill-opacity:1;stroke:#000000;stroke-width:2;stroke-opacity:1"
       d="m 536.96987,692.10429 40.86853,85.22198"
       id="path7"
       sodipodi:nodetypes="cc" />
  </g>
  <g
     id="g13"
     transform="translate(2490.8705,-178.9311)"
     inkscape:label="j1">
    <text
       xml:space="preserve"
       style="font-style:normal;font-variant:normal;font-weight:normal;font-stretch:normal;font-size:42.6667px;line-height:0;font-family:sans-serif;-inkscape-font-specification:sans-serif;text-align:start;writing-mode:lr-tb;direction:ltr;text-anchor:start;fill:#000000;stroke-width:2"
       x="101.67587"
       y="1842.6377"
       id="text1"><tspan
         id="tspan1"
         x="101.67587"
         y="1842.6377"
         sodipodi:role="line"
         style="font-size:42.6667px">j1: -100 uA / cm2</tspan></text>
    <path
       style="fill:#000000;fill-opacity:1;stroke:#000000;stroke-width:2;stroke-opacity:1"
       d="m 429.59483,1832.7478 105.81465,54.4914"
       id="path8" />
  </g>
  <g
     id="g11"
     transform="translate(2560.0863,140.15867)"
     inkscape:label="E1">
    <text
       xml:space="preserve"
       style="font-style:normal;font-variant:normal;font-weight:normal;font-stretch:normal;font-size:42.6667px;line-height:0;font-family:sans-serif;-inkscape-font-specification:sans-serif;text-align:start;writing-mode:lr-tb;direction:ltr;text-anchor:start;fill:#000000;stroke-width:2"
       x="319.00269"
       y="2013.4805"
       id="text5"><tspan
         sodipodi:role="line"
         id="tspan5"
         x="319.00269"
         y="2013.4805">E1: -0.2 V vs SCE</tspan></text>
    <path
       style="fill:#000000;fill-opacity:1;stroke:#000000;stroke-width:2;stroke-opacity:1"
       d="m 597.45799,1899.0069 88.03937,98.1202"
       id="path9" />
  </g>
  <g
     id="g3"
     transform="translate(3220.7673,268.47252)"
     inkscape:label="E2">
    <text
       xml:space="preserve"
       style="font-style:normal;font-variant:normal;font-weight:normal;font-stretch:normal;font-size:42.6667px;line-height:0;font-family:sans-serif;-inkscape-font-specification:sans-serif;text-align:start;writing-mode:lr-tb;direction:ltr;text-anchor:start;fill:#000000;stroke-width:2"
       x="1142.7289"
       y="1879.9631"
       id="text6"><tspan
         sodipodi:role="line"
         id="tspan6"
         x="1142.7289"
         y="1879.9631">E2: 0.8 V vs SCE</tspan></text>
    <path
       style="fill:#000000;fill-opacity:1;stroke:#000000;stroke-width:2;stroke-opacity:1"
       d="m 1146.8694,1864.3338 75.7177,-93.9343"
       id="path10" />
  </g>
  <text
     xml:space="preserve"
     style="font-size:42.6667px;line-height:0;font-family:sans-serif;-inkscape-font-specification:sans-serif;text-align:start;writing-mode:lr-tb;direction:ltr;text-anchor:start;fill:#000000;stroke:#000000;stroke-width:2"
     x="4482.0845"
     y="837.19263"
     id="text8"
     inkscape:label="scan rate"><tspan
       sodipodi:role="line"
       id="tspan8"
       x="4482.0845"
       y="837.19263"
       style="stroke:none">scan rate: 10 mV / s </tspan></text>
  <text
     xml:space="preserve"
     style="font-size:42.6667px;line-height:0;font-family:sans-serif;-inkscape-font-specification:sans-serif;text-align:start;writing-mode:lr-tb;direction:ltr;text-anchor:start;fill:#000000;stroke:none;stroke-width:2"
     x="4570.2529"
     y="909.56061"
     id="text10"
     inkscape:label="figure"><tspan
       sodipodi:role="line"
       id="tspan10"
       x="4570.2529"
       y="909.56061">figure: 1a</tspan></text>
  <text
     xml:space="preserve"
     style="font-size:42.6667px;line-height:0;font-family:sans-serif;-inkscape-font-specification:sans-serif;text-align:start;writing-mode:lr-tb;direction:ltr;text-anchor:start;fill:none;stroke:#000000;stroke-width:0.5;stroke-dasharray:none;stroke-opacity:1"
     x="4558.1406"
     y="973.76617"
     id="text15"
     inkscape:label="tags"><tspan
       sodipodi:role="line"
       id="tspan15"
       x="4558.1406"
       y="973.76617"
       style="fill:#000000;fill-opacity:1;stroke:#000000;stroke-opacity:1">tags: BCV</tspan></text>
  <g
     id="g1">
    <text
       xml:space="preserve"
       style="font-size:42.6667px;line-height:0;font-family:sans-serif;-inkscape-font-specification:sans-serif;text-align:start;writing-mode:lr-tb;direction:ltr;text-anchor:start;fill:#000000;stroke:#000000;stroke-width:2"
       x="196.8125"
       y="895.41669"
       id="text7"
       inkscape:label="curve"
       transform="translate(4356.5613,-128.38358)"><tspan
         sodipodi:role="line"
         id="tspan7"
         x="196.8125"
         y="895.41669"
         style="stroke:none">curve: solid</tspan></text>
    <path
       style="fill:none;stroke:#e82a2a;stroke-opacity:1"
       d="m 3090.9893,1240.7465 c -0.064,-6.1658 -0.091,-94.0285 0.3816,-102.664 0.7169,-13.1134 15.0361,-25.4119 30.9137,-24.4257 22.9746,1.427 34.0335,13.8417 67.1706,16.0294 9.0644,0.5984 26.843,22.9333 80.5283,20.6091 75.028,-3.2481 86.0113,-6.7729 105.7172,-116.4035 18.1832,-101.15955 19.7923,-317.51866 24.044,-317.91503 6.8563,-0.63919 9.932,203.52446 14.1211,305.32063 6.5535,159.2492 41.3282,137.6992 95.4127,137.7759 109.6924,0.1556 126.708,-20.2275 126.708,-20.2275 31.2617,1.138 16.8377,8.6037 93.5045,8.0146 138.6159,-1.0651 135.2041,-37.7233 174.0327,-37.7834 49.9035,-0.077 0.9986,22.1692 193.1153,27.8605 52.325,1.5501 156.8584,7.633 156.8584,7.633 -0.8803,5.9798 3.1672,17.1547 0.3817,18.1285 -66.6995,23.3184 -114.8384,18.0319 -169.453,20.4183 -146.0543,6.3819 -112.7823,42.9505 -171.7428,42.3632 -52.7294,-0.5253 -28.7331,-42.5332 -174.796,-39.6917 -109.1001,2.1224 -90.2603,12.0022 -104.8614,13.832 -5.5262,0.6925 -7.3674,-19.8408 -97.7952,-20.32 -97.0048,-0.5141 -115.4657,41.1239 -121.3649,116.7851 -6.8761,88.1897 -16.7826,337.4097 -18.7009,337.3792 -1.3263,-0.021 -6.3068,-171.0325 -14.121,-267.5371 -6.0112,-74.2369 -8.2198,-110.7295 -34.3175,-135.2904 -30.0577,-28.2875 -84.7734,-45.3067 -109.5649,-45.2304 -43.9841,0.1354 -72.015,31.9734 -77.0934,33.2036 -63.0983,15.2848 -69.0162,28.1234 -69.0788,22.1357 z"
       id="path1"
       sodipodi:nodetypes="sssssssssssssssssssssssssss" />
  </g>
</svg>
