<?xml version="1.0" encoding="UTF-8" standalone="no"?>
<svg
   height="5642px"
   version="1.1"
   width="3842px"
   id="svg1"
   sodipodi:docname="beden_1985_a_822_f2c_solid.svg"
   inkscape:version="1.4.3 (0d15f75, 2025-12-25)"
   xmlns:inkscape="http://www.inkscape.org/namespaces/inkscape"
   xmlns:sodipodi="http://sodipodi.sourceforge.net/DTD/sodipodi-0.dtd"
   xmlns:xlink="http://www.w3.org/1999/xlink"
   xmlns="http://www.w3.org/2000/svg"
   xmlns:svg="http://www.w3.org/2000/svg">
  <sodipodi:namedview
     id="namedview1"
     pagecolor="#ffffff"
     bordercolor="#000000"
     borderopacity="0.25"
     inkscape:showpageshadow="2"
     inkscape:pageopacity="0.0"
     inkscape:pagecheckerboard="0"
     inkscape:deskcolor="#d1d1d1"
     inkscape:zoom="0.54306984"
     inkscape:cx="1413.2621"
     inkscape:cy="3393.6703"
     inkscape:window-width="1728"
     inkscape:window-height="1010"
     inkscape:window-x="-6"
     inkscape:window-y="-6"
     inkscape:window-maximized="1"
     inkscape:current-layer="svg1" />
  <defs
     id="defs1" />
  <image
     height="5642"
     sodipodi:insensitive="true"
     width="3842"
     x="0"
     xlink:href="beden_1985_a_822_p3.png"
     y="0"
     id="image1" />
  <g
     id="g14"
     transform="translate(217.06755,2328.8146)"
     inkscape:label="j2">
    <text
       xml:space="preserve"
       style="font-style:normal;font-variant:normal;font-weight:normal;font-stretch:normal;font-size:42.6667px;line-height:0;font-family:sans-serif;-inkscape-font-specification:sans-serif;text-align:start;writing-mode:lr-tb;direction:ltr;text-anchor:start;fill:#000000;stroke-width:2"
       x="187.69908"
       y="521.82312"
       id="text2"><tspan
         sodipodi:role="line"
         id="tspan2"
         x="187.69908"
         y="521.82312">j2: 1.0 A / m2</tspan></text>
    <path
       style="fill:#000000;fill-opacity:1;stroke:#000000;stroke-width:2;stroke-opacity:1"
       d="m 494.85776,510.69828 40.86853,85.22198"
       id="path7"
       sodipodi:nodetypes="cc" />
  </g>
  <g
     id="g13"
     transform="translate(215.57328,1505.841)"
     inkscape:label="j1">
    <text
       xml:space="preserve"
       style="font-style:normal;font-variant:normal;font-weight:normal;font-stretch:normal;font-size:42.6667px;line-height:0;font-family:sans-serif;-inkscape-font-specification:sans-serif;text-align:start;writing-mode:lr-tb;direction:ltr;text-anchor:start;fill:#000000;stroke-width:2"
       x="101.67587"
       y="1842.6377"
       id="text1"><tspan
         id="tspan1"
         x="101.67587"
         y="1842.6377"
         sodipodi:role="line"
         style="font-size:42.6667px">j1: -2.0 A / m2</tspan></text>
    <path
       style="fill:#000000;fill-opacity:1;stroke:#000000;stroke-width:2;stroke-opacity:1"
       d="m 429.59483,1832.7478 105.81465,54.4914"
       id="path8" />
  </g>
  <g
     id="g11"
     transform="translate(410.68978,1747.7225)"
     inkscape:label="E1">
    <text
       xml:space="preserve"
       style="font-style:normal;font-variant:normal;font-weight:normal;font-stretch:normal;font-size:42.6667px;line-height:0;font-family:sans-serif;-inkscape-font-specification:sans-serif;text-align:start;writing-mode:lr-tb;direction:ltr;text-anchor:start;fill:#000000;stroke-width:2"
       x="319.00269"
       y="2013.4805"
       id="text5"><tspan
         sodipodi:role="line"
         id="tspan5"
         x="319.00269"
         y="2013.4805">E1: 0.0 V vs RHE</tspan></text>
    <path
       style="fill:#000000;fill-opacity:1;stroke:#000000;stroke-width:2;stroke-opacity:1"
       d="m 597.45799,1899.0069 88.03937,98.1202"
       id="path9" />
  </g>
  <g
     id="g3"
     transform="translate(282.68432,1743.2415)"
     inkscape:label="E2">
    <text
       xml:space="preserve"
       style="font-style:normal;font-variant:normal;font-weight:normal;font-stretch:normal;font-size:42.6667px;line-height:0;font-family:sans-serif;-inkscape-font-specification:sans-serif;text-align:start;writing-mode:lr-tb;direction:ltr;text-anchor:start;fill:#000000;stroke-width:2"
       x="1138.9113"
       y="2009.0001"
       id="text6"><tspan
         sodipodi:role="line"
         id="tspan6"
         x="1138.9113"
         y="2009.0001">E2: 0.4 V vs RHE</tspan></text>
    <path
       style="fill:#000000;fill-opacity:1;stroke:#000000;stroke-width:2;stroke-opacity:1"
       d="m 1143.0517,1993.3707 75.7177,-93.9343"
       id="path10" />
  </g>
  <text
     xml:space="preserve"
     style="font-size:42.6667px;line-height:0;font-family:sans-serif;-inkscape-font-specification:sans-serif;text-align:start;writing-mode:lr-tb;direction:ltr;text-anchor:start;fill:#000000;stroke:#000000;stroke-width:2"
     x="2048.2947"
     y="3084.7939"
     id="text8"
     inkscape:label="scan rate"><tspan
       sodipodi:role="line"
       id="tspan8"
       x="2048.2947"
       y="3084.7939"
       style="stroke:none">scan rate: 50 mV / s </tspan></text>
  <text
     xml:space="preserve"
     style="font-size:42.6667px;line-height:0;font-family:sans-serif;-inkscape-font-specification:sans-serif;text-align:start;writing-mode:lr-tb;direction:ltr;text-anchor:start;fill:#000000;stroke:none;stroke-width:2"
     x="2177.6316"
     y="3149.1262"
     id="text10"
     inkscape:label="figure"><tspan
       sodipodi:role="line"
       id="tspan10"
       x="2177.6316"
       y="3149.1262">figure: 2a</tspan></text>
  <text
     xml:space="preserve"
     style="font-size:42.6667px;line-height:0;font-family:sans-serif;-inkscape-font-specification:sans-serif;text-align:start;writing-mode:lr-tb;direction:ltr;text-anchor:start;fill:none;stroke:#000000;stroke-width:0.5;stroke-dasharray:none;stroke-opacity:1"
     x="2194.179"
     y="3203.9756"
     id="text15"
     inkscape:label="tags"><tspan
       sodipodi:role="line"
       id="tspan15"
       x="2194.179"
       y="3203.9756"
       style="fill:#000000;fill-opacity:1;stroke:#000000;stroke-opacity:1">tags: BCV</tspan></text>
  <g
     id="g2">
    <text
       xml:space="preserve"
       style="font-size:42.6667px;line-height:0;font-family:sans-serif;-inkscape-font-specification:sans-serif;text-align:start;writing-mode:lr-tb;direction:ltr;text-anchor:start;fill:#000000;stroke:#000000;stroke-width:2"
       x="2151.6951"
       y="3032.2561"
       id="text7"
       inkscape:label="curve"><tspan
         sodipodi:role="line"
         id="tspan7"
         x="2151.6951"
         y="3032.2561"
         style="stroke:none">curve: solid</tspan></text>
    <path
       style="fill:none;stroke:#ea2424"
       d="m 949.46352,3125.5188 c 0,0 61.53118,-36.2708 95.29158,-46.9553 19.3112,-6.1116 103.5637,-27.2342 124.7538,-31.7638 62.2891,-13.3149 99.0616,-40.3313 143.3978,-68.5916 12.5929,-8.0268 50.0229,-51.22 81.0689,-95.7549 23.3374,-33.4771 43.0547,-61.4823 63.4797,-59.6118 38.0174,3.4816 46.5147,41.5348 79.87,65.8294 2.7642,2.0133 -10.567,122.7122 -50.1777,156.978 -48.6377,42.0747 -80.5828,38.2383 -90.6882,40.9708 -60.8075,16.4418 -84.1224,8.3642 -183.678,43.2725 -45.536,15.9668 -112.0643,53.8391 -128.5783,90.9077 -24.1654,54.2434 -50.9537,119.6783 -69.6006,120.1609 -28.351,0.7338 -48.72214,-102.0626 -84.47351,-98.7442 -66.2142,6.1459 -118.04012,147.708 -120.15029,148.0012 -8.69627,1.2085 20.017,-180.1868 78.48898,-229.2522 31.69249,-26.594 67.50718,-49.1132 105.6494,-65.139 35.45772,-14.8978 91.15882,-28.6519 126.82532,-36.8277 46.5181,-10.6632 88.9442,-20.1453 136.9529,-44.4234 41.0249,-20.7464 85.0756,-52.4551 113.2451,-78.7191 22.0516,-20.5599 45.9522,-71.7332 108.8718,-76.6476 21.4155,-1.6727 56.8042,27.6122 57.3131,29.4621 4.3434,15.789 -13.5785,95.1688 -29.9225,127.2857 -16.0381,31.5158 -39.971,52.566 -83.5528,65.3691 -24.9714,7.3359 -99.4514,17.4106 -145.009,29.232 -85.6004,22.2118 -118.6233,39.4839 -163.4228,74.576 -56.0243,43.8848 -49.2945,116.2302 -94.1407,119.2296 -39.22597,2.6235 -55.02628,-84.6824 -98.97439,-81.4812 -56.79274,4.1369 -92.43964,105.0913 -94.37092,103.5778 -7.79229,-6.1065 12.54476,-101.2673 39.58975,-142.477 19.00681,-28.9616 80.79071,-65.3692 80.79071,-65.3692"
       id="path2"
       sodipodi:nodetypes="cssssssssssssssssssssssssssssc" />
  </g>
  <text
     xml:space="preserve"
     style="font-size:37.3333px;writing-mode:lr-tb;direction:ltr;fill:#000000"
     x="2021.8395"
     y="3294.2356"
     id="text3"><tspan
       sodipodi:role="line"
       id="tspan3"
       x="2021.8395"
       y="3294.2356">comment: End of the measurement was unclear.</tspan></text>
</svg>
