<?xml version="1.0" encoding="UTF-8" standalone="no"?>
<svg
   height="5642px"
   version="1.1"
   width="3842px"
   id="svg1"
   sodipodi:docname="beden_1985_a_822_f2b_solid.svg"
   inkscape:version="1.4.3 (0d15f75, 2025-12-25)"
   xmlns:inkscape="http://www.inkscape.org/namespaces/inkscape"
   xmlns:sodipodi="http://sodipodi.sourceforge.net/DTD/sodipodi-0.dtd"
   xmlns:xlink="http://www.w3.org/1999/xlink"
   xmlns="http://www.w3.org/2000/svg"
   xmlns:svg="http://www.w3.org/2000/svg">
  <sodipodi:namedview
     id="namedview1"
     pagecolor="#ffffff"
     bordercolor="#000000"
     borderopacity="0.25"
     inkscape:showpageshadow="2"
     inkscape:pageopacity="0.0"
     inkscape:pagecheckerboard="0"
     inkscape:deskcolor="#d1d1d1"
     inkscape:zoom="0.76801673"
     inkscape:cx="1448.5362"
     inkscape:cy="3884.03"
     inkscape:window-width="1728"
     inkscape:window-height="1010"
     inkscape:window-x="-6"
     inkscape:window-y="-6"
     inkscape:window-maximized="1"
     inkscape:current-layer="svg1" />
  <defs
     id="defs1" />
  <image
     height="5642"
     sodipodi:insensitive="true"
     width="3842"
     x="0"
     xlink:href="beden_1985_a_822_p3.png"
     y="0"
     id="image1" />
  <g
     id="g14"
     transform="translate(211.91517,318.56277)"
     inkscape:label="j2">
    <text
       xml:space="preserve"
       style="font-style:normal;font-variant:normal;font-weight:normal;font-stretch:normal;font-size:42.6667px;line-height:0;font-family:sans-serif;-inkscape-font-specification:sans-serif;text-align:start;writing-mode:lr-tb;direction:ltr;text-anchor:start;fill:#000000;stroke-width:2"
       x="191.93077"
       y="1529.6136"
       id="text2"><tspan
         sodipodi:role="line"
         id="tspan2"
         x="191.93077"
         y="1529.6136">j2: 1.0 A / m2</tspan></text>
    <path
       style="fill:#000000;fill-opacity:1;stroke:#000000;stroke-width:2;stroke-opacity:1"
       d="m 499.08944,1518.4888 40.86853,85.222"
       id="path7"
       sodipodi:nodetypes="cc" />
  </g>
  <g
     id="g13"
     transform="translate(215.99878,504.60077)"
     inkscape:label="j1">
    <text
       xml:space="preserve"
       style="font-style:normal;font-variant:normal;font-weight:normal;font-stretch:normal;font-size:42.6667px;line-height:0;font-family:sans-serif;-inkscape-font-specification:sans-serif;text-align:start;writing-mode:lr-tb;direction:ltr;text-anchor:start;fill:#000000;stroke-width:2"
       x="101.67587"
       y="1842.6377"
       id="text1"><tspan
         id="tspan1"
         x="101.67587"
         y="1842.6377"
         sodipodi:role="line"
         style="font-size:42.6667px">j1: -2.0 A / m2</tspan></text>
    <path
       style="fill:#000000;fill-opacity:1;stroke:#000000;stroke-width:2;stroke-opacity:1"
       d="m 429.59483,1832.7478 105.81465,54.4914"
       id="path8" />
  </g>
  <g
     id="g11"
     transform="translate(410.68978,1747.7225)"
     inkscape:label="E1">
    <text
       xml:space="preserve"
       style="font-style:normal;font-variant:normal;font-weight:normal;font-stretch:normal;font-size:42.6667px;line-height:0;font-family:sans-serif;-inkscape-font-specification:sans-serif;text-align:start;writing-mode:lr-tb;direction:ltr;text-anchor:start;fill:#000000;stroke-width:2"
       x="319.00269"
       y="2013.4805"
       id="text5"><tspan
         sodipodi:role="line"
         id="tspan5"
         x="319.00269"
         y="2013.4805">E1: 0.0 V vs RHE</tspan></text>
    <path
       style="fill:#000000;fill-opacity:1;stroke:#000000;stroke-width:2;stroke-opacity:1"
       d="m 597.45799,1899.0069 88.03937,98.1202"
       id="path9" />
  </g>
  <g
     id="g3"
     transform="translate(282.68432,1743.2415)"
     inkscape:label="E2">
    <text
       xml:space="preserve"
       style="font-style:normal;font-variant:normal;font-weight:normal;font-stretch:normal;font-size:42.6667px;line-height:0;font-family:sans-serif;-inkscape-font-specification:sans-serif;text-align:start;writing-mode:lr-tb;direction:ltr;text-anchor:start;fill:#000000;stroke-width:2"
       x="1138.9113"
       y="2009.0001"
       id="text6"><tspan
         sodipodi:role="line"
         id="tspan6"
         x="1138.9113"
         y="2009.0001">E2: 0.4 V vs RHE</tspan></text>
    <path
       style="fill:#000000;fill-opacity:1;stroke:#000000;stroke-width:2;stroke-opacity:1"
       d="m 1143.0517,1993.3707 75.7177,-93.9343"
       id="path10" />
  </g>
  <text
     xml:space="preserve"
     style="font-size:42.6667px;line-height:0;font-family:sans-serif;-inkscape-font-specification:sans-serif;text-align:start;writing-mode:lr-tb;direction:ltr;text-anchor:start;fill:#000000;stroke:#000000;stroke-width:2"
     x="2077.7568"
     y="2182.5159"
     id="text8"
     inkscape:label="scan rate"><tspan
       sodipodi:role="line"
       id="tspan8"
       x="2077.7568"
       y="2182.5159"
       style="stroke:none">scan rate: 50 mV / s </tspan></text>
  <text
     xml:space="preserve"
     style="font-size:42.6667px;line-height:0;font-family:sans-serif;-inkscape-font-specification:sans-serif;text-align:start;writing-mode:lr-tb;direction:ltr;text-anchor:start;fill:#000000;stroke:none;stroke-width:2"
     x="2207.0938"
     y="2239.4827"
     id="text10"
     inkscape:label="figure"><tspan
       sodipodi:role="line"
       id="tspan10"
       x="2207.0938"
       y="2239.4827">figure: 2a</tspan></text>
  <text
     xml:space="preserve"
     style="font-size:42.6667px;line-height:0;font-family:sans-serif;-inkscape-font-specification:sans-serif;text-align:start;writing-mode:lr-tb;direction:ltr;text-anchor:start;fill:none;stroke:#000000;stroke-width:0.5;stroke-dasharray:none;stroke-opacity:1"
     x="2223.6411"
     y="2294.332"
     id="text15"
     inkscape:label="tags"><tspan
       sodipodi:role="line"
       id="tspan15"
       x="2223.6411"
       y="2294.332"
       style="fill:#000000;fill-opacity:1;stroke:#000000;stroke-opacity:1">tags: BCV</tspan></text>
  <g
     id="g1">
    <text
       xml:space="preserve"
       style="font-size:42.6667px;line-height:0;font-family:sans-serif;-inkscape-font-specification:sans-serif;text-align:start;writing-mode:lr-tb;direction:ltr;text-anchor:start;fill:#000000;stroke:#000000;stroke-width:2"
       x="2181.1572"
       y="2122.6125"
       id="text7"
       inkscape:label="curve"><tspan
         sodipodi:role="line"
         id="tspan7"
         x="2181.1572"
         y="2122.6125"
         style="stroke:none">curve: solid</tspan></text>
    <path
       style="fill:none;stroke:#ea2424"
       d="m 1168.5943,2080.0328 c 0,0 22.2007,-11.5958 33.2024,-17.5777 36.5723,-19.8852 73.9188,-38.5338 109.0471,-60.8711 15.6784,-9.9695 26.6983,-31.4696 45.2464,-32.5514 21.0006,-1.2249 26.2872,-1.6926 31.2039,-1.1755 194.834,20.4918 271.5127,19.4958 271.8494,21.3574 1.5453,8.5424 0.2775,23.5368 -0.3255,26.0411 -11.4271,47.4534 -53.9025,54.2379 -88.8652,66.0793 -18.2341,6.1757 -48.7536,-4.6133 -84.6336,5.5337 -49.9645,14.1301 -164.1874,0.094 -303.3788,64.1262 -46.3078,21.303 -94.6538,62.608 -111.6512,104.4899 -20.4716,50.4425 -59.2328,119.285 -65.4283,122.7187 -77.62037,43.0188 -132.47581,299.9738 -136.39024,301.4257 -6.06992,2.2514 -18.90508,9.7053 -18.87979,4.5572 0.0253,-5.151 25.77337,-200.9295 47.19949,-299.7981 17.79152,-82.0971 52.50356,-217.5205 67.38134,-242.8333 31.98923,-54.4259 80.2522,-79.8209 127.6014,-110.0236 44.0206,-28.0795 147.9575,-48.0651 206.0502,-102.2114 26.3362,-24.5471 42.7743,-74.2764 78.7743,-73.8916 40.1267,0.4289 67.2508,65.5332 98.3052,82.355 92.198,49.9426 180.9992,45.5395 182.9387,49.4781 4.4579,9.0529 1.1845,26.778 0,30.2728 -9.6517,28.4759 -12.4644,38.7264 -79.0999,61.8476 -21.5747,7.486 -84.2135,0.2125 -90.1673,4.5572 -18.0261,13.1543 -75.033,1.31 -195.3082,28.6452 -33.8818,7.7004 -139.6548,34.4881 -197.2613,102.2113 -25.0591,29.4599 -67.0554,144.0907 -89.1908,149.0853 -2.5202,0.5686 -15.05576,-0.4481 -17.57774,-0.651 -13.31592,-1.0711 -15.43845,-10.3486 -25.06456,-10.091 -17.84131,0.4775 -56.89214,64.1649 -77.79778,101.2348 -39.34093,69.7593 -66.63488,231.1154 -71.28751,231.4403 -7.5331,0.5261 21.03154,-238.3638 59.2435,-349.2763 20.03942,-58.1656 45.29286,-114.3816 73.56611,-169.2671 26.13245,-50.7296 63.47518,-82.355 63.47518,-82.355"
       id="path1"
       sodipodi:nodetypes="cssssssssssssssssssssssssssssssssc" />
  </g>
  <text
     xml:space="preserve"
     style="font-size:37.3333px;writing-mode:lr-tb;direction:ltr;fill:#000000"
     x="2002.9691"
     y="2357.8779"
     id="text3"><tspan
       sodipodi:role="line"
       id="tspan3"
       x="2002.9691"
       y="2357.8779">comment: End of the measurement was unclear. First CV ist cut off at currents below -4.0 A. .</tspan></text>
</svg>
