<?xml version="1.0" encoding="UTF-8" standalone="no"?>
<svg
   height="5642px"
   version="1.1"
   width="3842px"
   id="svg1"
   sodipodi:docname="beden_1985_a_822_f2a_solid.svg"
   inkscape:version="1.4.3 (0d15f75, 2025-12-25)"
   xmlns:inkscape="http://www.inkscape.org/namespaces/inkscape"
   xmlns:sodipodi="http://sodipodi.sourceforge.net/DTD/sodipodi-0.dtd"
   xmlns:xlink="http://www.w3.org/1999/xlink"
   xmlns="http://www.w3.org/2000/svg"
   xmlns:svg="http://www.w3.org/2000/svg">
  <sodipodi:namedview
     id="namedview1"
     pagecolor="#ffffff"
     bordercolor="#000000"
     borderopacity="0.25"
     inkscape:showpageshadow="2"
     inkscape:pageopacity="0.0"
     inkscape:pagecheckerboard="0"
     inkscape:deskcolor="#d1d1d1"
     inkscape:zoom="0.54306983"
     inkscape:cx="1485.0761"
     inkscape:cy="3631.2089"
     inkscape:window-width="1728"
     inkscape:window-height="1010"
     inkscape:window-x="-6"
     inkscape:window-y="-6"
     inkscape:window-maximized="1"
     inkscape:current-layer="svg1" />
  <defs
     id="defs1" />
  <image
     height="5642"
     sodipodi:insensitive="true"
     width="3842"
     x="0"
     xlink:href="beden_1985_a_822_p3.png"
     y="0"
     id="image1" />
  <g
     id="g14"
     transform="translate(211.91517,318.56277)"
     inkscape:label="j2">
    <text
       xml:space="preserve"
       style="font-style:normal;font-variant:normal;font-weight:normal;font-stretch:normal;font-size:42.6667px;line-height:0;font-family:sans-serif;-inkscape-font-specification:sans-serif;text-align:start;writing-mode:lr-tb;direction:ltr;text-anchor:start;fill:#000000;stroke-width:2"
       x="187.69908"
       y="521.82312"
       id="text2"><tspan
         sodipodi:role="line"
         id="tspan2"
         x="187.69908"
         y="521.82312">j2: 2.0 A / m2</tspan></text>
    <path
       style="fill:#000000;fill-opacity:1;stroke:#000000;stroke-width:2;stroke-opacity:1"
       d="m 494.85776,510.69828 40.86853,85.22198"
       id="path7"
       sodipodi:nodetypes="cc" />
  </g>
  <g
     id="g13"
     transform="translate(215.86327,-345.07934)"
     inkscape:label="j1">
    <text
       xml:space="preserve"
       style="font-style:normal;font-variant:normal;font-weight:normal;font-stretch:normal;font-size:42.6667px;line-height:0;font-family:sans-serif;-inkscape-font-specification:sans-serif;text-align:start;writing-mode:lr-tb;direction:ltr;text-anchor:start;fill:#000000;stroke-width:2"
       x="101.67587"
       y="1842.6377"
       id="text1"><tspan
         id="tspan1"
         x="101.67587"
         y="1842.6377"
         sodipodi:role="line"
         style="font-size:42.6667px">j1: -2.0 A / m2</tspan></text>
    <path
       style="fill:#000000;fill-opacity:1;stroke:#000000;stroke-width:2;stroke-opacity:1"
       d="m 429.59483,1832.7478 105.81465,54.4914"
       id="path8" />
  </g>
  <g
     id="g11"
     transform="translate(410.68978,1747.7225)"
     inkscape:label="E1">
    <text
       xml:space="preserve"
       style="font-style:normal;font-variant:normal;font-weight:normal;font-stretch:normal;font-size:42.6667px;line-height:0;font-family:sans-serif;-inkscape-font-specification:sans-serif;text-align:start;writing-mode:lr-tb;direction:ltr;text-anchor:start;fill:#000000;stroke-width:2"
       x="319.00269"
       y="2013.4805"
       id="text5"><tspan
         sodipodi:role="line"
         id="tspan5"
         x="319.00269"
         y="2013.4805">E1: 0.0 V vs RHE</tspan></text>
    <path
       style="fill:#000000;fill-opacity:1;stroke:#000000;stroke-width:2;stroke-opacity:1"
       d="m 597.45799,1899.0069 88.03937,98.1202"
       id="path9" />
  </g>
  <g
     id="g3"
     transform="translate(282.68432,1743.2415)"
     inkscape:label="E2">
    <text
       xml:space="preserve"
       style="font-style:normal;font-variant:normal;font-weight:normal;font-stretch:normal;font-size:42.6667px;line-height:0;font-family:sans-serif;-inkscape-font-specification:sans-serif;text-align:start;writing-mode:lr-tb;direction:ltr;text-anchor:start;fill:#000000;stroke-width:2"
       x="1138.9113"
       y="2009.0001"
       id="text6"><tspan
         sodipodi:role="line"
         id="tspan6"
         x="1138.9113"
         y="2009.0001">E2: 0.4 V vs RHE</tspan></text>
    <path
       style="fill:#000000;fill-opacity:1;stroke:#000000;stroke-width:2;stroke-opacity:1"
       d="m 1143.0517,1993.3707 75.7177,-93.9343"
       id="path10" />
  </g>
  <text
     xml:space="preserve"
     style="font-size:42.6667px;line-height:0;font-family:sans-serif;-inkscape-font-specification:sans-serif;text-align:start;writing-mode:lr-tb;direction:ltr;text-anchor:start;fill:#000000;stroke:#000000;stroke-width:2"
     x="2066.7085"
     y="1092.4167"
     id="text8"
     inkscape:label="scan rate"><tspan
       sodipodi:role="line"
       id="tspan8"
       x="2066.7085"
       y="1092.4167"
       style="stroke:none">scan rate: 50 mV / s </tspan></text>
  <text
     xml:space="preserve"
     style="font-size:42.6667px;line-height:0;font-family:sans-serif;-inkscape-font-specification:sans-serif;text-align:start;writing-mode:lr-tb;direction:ltr;text-anchor:start;fill:#000000;stroke:none;stroke-width:2"
     x="2196.0454"
     y="1156.749"
     id="text10"
     inkscape:label="figure"><tspan
       sodipodi:role="line"
       id="tspan10"
       x="2196.0454"
       y="1156.749">figure: 2a</tspan></text>
  <text
     xml:space="preserve"
     style="font-size:42.6667px;line-height:0;font-family:sans-serif;-inkscape-font-specification:sans-serif;text-align:start;writing-mode:lr-tb;direction:ltr;text-anchor:start;fill:none;stroke:#000000;stroke-width:0.5;stroke-dasharray:none;stroke-opacity:1"
     x="2212.5928"
     y="1211.5984"
     id="text15"
     inkscape:label="tags"><tspan
       sodipodi:role="line"
       id="tspan15"
       x="2212.5928"
       y="1211.5984"
       style="fill:#000000;fill-opacity:1;stroke:#000000;stroke-opacity:1">tags: BCV</tspan></text>
  <g
     id="g1">
    <text
       xml:space="preserve"
       style="font-size:42.6667px;line-height:0;font-family:sans-serif;-inkscape-font-specification:sans-serif;text-align:start;writing-mode:lr-tb;direction:ltr;text-anchor:start;fill:#000000;stroke:#000000;stroke-width:2"
       x="2170.1089"
       y="1039.8788"
       id="text7"
       inkscape:label="curve"><tspan
         sodipodi:role="line"
         id="tspan7"
         x="2170.1089"
         y="1039.8788"
         style="stroke:none">curve: solid</tspan></text>
    <path
       style="fill:none;stroke:#ea2424"
       d="m 963.50409,1296.7945 c 0,0 23.20179,-67.697 133.04001,-94.3709 44.3449,-10.7691 79.4795,-27.9362 116.9278,-46.9553 24.0304,-12.2045 49.0496,-24.2508 68.5916,-42.8121 35.9579,-34.1534 50.6772,-117.54795 85.164,-121.99171 43.7856,-5.64195 63.2986,63.36401 102.1968,84.24331 39.7488,21.3358 75.3479,22.9517 75.6118,24.1681 5.4432,25.0935 -18.0613,116.3648 -76.9929,130.5081 -35.5944,8.5425 -52.4422,19.4205 -108.1813,19.7949 -34.7431,0.2334 -116.907,22.419 -170.328,50.1777 -28.9698,15.0533 -54.2797,36.3324 -80.5605,55.7019 -32.8158,24.186 -55.7366,70.6432 -96.2123,75.4967 -18.91658,2.2683 -47.55513,-16.0816 -67.67086,-15.6517 -76.06883,1.6258 -142.6617,353.2573 -150.07278,354.9267 -6.35167,1.4308 27.56991,-289.4199 82.40193,-406.0251 33.37732,-70.9799 76.09806,-105.1177 132.11931,-132.5797 64.949,-31.8385 153.4863,-32.2422 204.3936,-57.0829 92.1381,-44.9596 104.5166,-165.2528 172.1694,-168.9469 35.6658,-1.9475 46.6854,49.2636 81.9415,69.0519 37.021,20.7789 75.9998,21.6385 76.9354,24.4558 0.9803,2.9517 3.2407,100.3093 -76.475,130.6807 -66.7348,25.4257 -141.0013,16.7084 -210.3781,40.5105 -144.6649,49.6322 -191.926,144.2062 -227.4109,145.9297 -30.0018,1.4572 -55.59517,-27.3892 -85.62436,-28.0811 -83.33049,-1.9201 -111.74426,208.3626 -118.76925,207.1556 -15.24128,-2.6186 31.65768,-148.0383 61.22601,-213.6005 18.77478,-41.6296 44.73717,-86.8802 73.19501,-115.5468 29.00926,-29.222 110.02269,-56.1622 110.02269,-56.1622"
       id="path1"
       sodipodi:nodetypes="cssssssssssssssssssssssssssc" />
  </g>
  <text
     xml:space="preserve"
     style="font-size:37.3333px;writing-mode:lr-tb;direction:ltr;fill:#000000"
     x="2182.0398"
     y="1279.7618"
     id="text3"><tspan
       sodipodi:role="line"
       id="tspan3"
       x="2182.0398"
       y="1279.7618"
       style="font-size:37.3333px">Comment: The end of the measurement was unclear. </tspan></text>
</svg>
