<?xml version="1.0" encoding="UTF-8" standalone="no"?>
<svg
   height="6600px"
   version="1.1"
   width="5100px"
   id="svg2"
   sodipodi:docname="kibler_2003_preparation_f5.2.1_Au(100)_solid.svg"
   inkscape:version="1.4.3 (0d15f75042, 2025-12-25)"
   xmlns:inkscape="http://www.inkscape.org/namespaces/inkscape"
   xmlns:sodipodi="http://sodipodi.sourceforge.net/DTD/sodipodi-0.dtd"
   xmlns:xlink="http://www.w3.org/1999/xlink"
   xmlns="http://www.w3.org/2000/svg"
   xmlns:svg="http://www.w3.org/2000/svg">
  <sodipodi:namedview
     id="namedview2"
     pagecolor="#ffffff"
     bordercolor="#666666"
     borderopacity="1.0"
     inkscape:showpageshadow="2"
     inkscape:pageopacity="0.0"
     inkscape:pagecheckerboard="0"
     inkscape:deskcolor="#d1d1d1"
     inkscape:zoom="1.4142136"
     inkscape:cx="3871.0561"
     inkscape:cy="3497.7037"
     inkscape:window-width="1920"
     inkscape:window-height="1011"
     inkscape:window-x="0"
     inkscape:window-y="0"
     inkscape:window-maximized="1"
     inkscape:current-layer="digitization-layer" />
  <defs
     id="defs1" />
  <g
     class="layer"
     id="image-layer"
     inkscape:groupmode="layer"
     sodipodi:insensitive="1">
    <title
       id="title1">image-layer</title>
    <image
       height="6600"
       width="5100"
       x="0"
       xlink:href="kibler_2003_preparation_p17.png"
       y="0"
       id="image1" />
  </g>
  <g
     class="layer"
     id="digitization-layer"
     inkscape:groupmode="layer">
    <title
       id="title2">digitization-layer</title>
    <g
       id="g543">
      <path
         style="fill:none;stroke:#ff0000;stroke-width:1px;stroke-linecap:butt;stroke-linejoin:miter;stroke-opacity:1"
         d="m 2678.2346,2823.19 695.7084,-2.2878 c 29.1569,-1.4157 28.9591,-23.4372 31.6955,-35.2705 6.7646,-29.2524 6.0828,-52.6648 8.2299,-81.0553 8.2643,-112.0151 12.4326,-56.3161 17.7447,1.4787 4.4359,48.262 16.6565,27.5712 16.9877,-10.2066 l 4.2072,-198.7856 c 2.2577,-106.6748 10.9666,-154.7358 12.354,-72.9501 0.6822,40.2181 2.7669,82.4417 6.7138,112.4678 4.0794,31.0335 7.0563,38.8544 7.0563,38.8544 20.129,39.4041 23.121,87.8369 43.8686,142.9427 8.0062,21.2645 31.5003,35.2869 74.0588,40.0623 0,0 47.103,7.2768 70.8556,8.7355 30.0108,1.843 85.2728,0.9858 85.2728,0.9858 -6.6994,22.1692 -31.5387,50.1768 -62.5991,53.2339 -91.979,9.053 -261.5325,10.9499 -278.492,11.8297 -16.9595,0.8798 -69.0594,-5.5697 -107.4536,42.3899 -34.6867,43.3286 -34.071,128.2277 -39.4324,217.8646 l -15.773,263.7048 c -7.482,125.0894 -15.8567,253.0311 -23.6595,0 -0.1849,-5.9936 -13.1656,-342.2615 -18.7305,-392.4525 -5.0294,-45.3612 5.817,-100.1716 -105.6468,-122.5251 -18.3871,-3.6874 -72.0255,-10.8381 -102.8996,-12.1185 -115.9407,-4.8083 -320.0392,-3.5161 -320.0392,-3.5161 z"
         id="path309"
         sodipodi:nodetypes="ccscssssscscscszssssssscc" />
      <text
         xml:space="preserve"
         style="font-size:53.3333px;line-height:1.25;font-family:Arial;-inkscape-font-specification:'Arial, Normal';text-align:justify;letter-spacing:0px;word-spacing:0px;writing-mode:lr-tb"
         x="2783.9343"
         y="2634.0908"
         id="text538"><tspan
           sodipodi:role="line"
           id="tspan536"
           x="2783.9343"
           y="2634.0908">curve: Au(100) solid</tspan></text>
    </g>
    <g
       id="g503"
       style="fill:#ff0000;stroke:#ff0000"
       transform="translate(0.78420858,-1591.3772)">
      <path
         style="fill:#ff0000;stroke:#ff0000;stroke-width:0.457652px;stroke-linecap:butt;stroke-linejoin:miter;stroke-opacity:1"
         d="m 1686.0919,3645.2076 h 47.0118"
         id="path284" />
      <text
         xml:space="preserve"
         style="font-size:48px;line-height:1.25;font-family:Arial;-inkscape-font-specification:'Arial, Normal';text-align:justify;letter-spacing:0px;word-spacing:0px;writing-mode:lr-tb;fill:#ff0000;stroke:#ff0000"
         x="1347.9948"
         y="3649.8164"
         id="text448"><tspan
           sodipodi:role="line"
           id="tspan446"
           x="1347.9948"
           y="3649.8164">j1: 125 A</tspan></text>
    </g>
    <g
       id="g545"
       transform="translate(0.8643084,-47.662694)">
      <path
         style="fill:none;stroke:#000000;stroke-width:0.457652px;stroke-linecap:butt;stroke-linejoin:miter;stroke-opacity:1"
         d="m 1686.0919,3645.2076 h 47.0118"
         id="path284-5" />
      <text
         xml:space="preserve"
         style="font-size:48px;line-height:1.25;font-family:Arial;-inkscape-font-specification:'Arial, Normal';text-align:justify;letter-spacing:0px;word-spacing:0px;writing-mode:lr-tb"
         x="1291.0469"
         y="3657.4006"
         id="text448-1"><tspan
           sodipodi:role="line"
           id="tspan446-9"
           x="1291.0469"
           y="3657.4006">j2: -125 A</tspan></text>
    </g>
    <g
       id="g1260"
       transform="translate(2.8694084,-45.708694)">
      <path
         style="fill:#ff0000;stroke:#ff0000;stroke-width:1px;stroke-linecap:butt;stroke-linejoin:miter;stroke-opacity:1"
         d="m 1731.0986,3643.2536 v 24.1995"
         id="path547" />
      <text
         xml:space="preserve"
         style="font-size:48px;line-height:1.25;font-family:Arial;-inkscape-font-specification:'Arial, Normal';text-align:justify;letter-spacing:0px;word-spacing:0px;writing-mode:lr-tb;fill:#ff0000;stroke:#ff0000"
         x="1680.7899"
         y="3763.8547"
         id="text551"><tspan
           sodipodi:role="line"
           x="1680.7899"
           y="3763.8547"
           id="tspan553">E1: -0.6 V</tspan></text>
    </g>
    <g
       id="g1164"
       transform="translate(2225.8864,-48.343841)">
      <path
         style="fill:none;stroke:#ff0000;stroke-width:1px;stroke-linecap:butt;stroke-linejoin:miter;stroke-opacity:1"
         d="m 1727.8436,3646.3729 v 24.1995"
         id="path547-6" />
      <text
         xml:space="preserve"
         style="font-size:48px;line-height:1.25;font-family:Arial;-inkscape-font-specification:'Arial, Normal';text-align:justify;letter-spacing:0px;word-spacing:0px;writing-mode:lr-tb"
         x="1721.2213"
         y="3714.8369"
         id="text551-0"><tspan
           sodipodi:role="line"
           x="1721.2213"
           y="3714.8369"
           id="tspan553-8">E2: 1.5 V</tspan></text>
    </g>
    <text
       xml:space="preserve"
       style="font-size:53.3333px;line-height:1.25;font-family:Arial;-inkscape-font-specification:'Arial, Normal';text-align:justify;letter-spacing:0px;word-spacing:0px;writing-mode:lr-tb"
       x="4020.9797"
       y="2763.4788"
       id="text3073"><tspan
         sodipodi:role="line"
         id="tspan3071"
         x="4020.9797"
         y="2763.4788">scan rate: 10 mV / s</tspan></text>
  </g>
</svg>
