<?xml version="1.0" encoding="utf-8" ?>
<svg xmlns="http://www.w3.org/2000/svg" xmlns:ev="http://www.w3.org/2001/xml-events" xmlns:inkscape="http://www.inkscape.org/namespaces/inkscape" xmlns:sodipodi="http://sodipodi.sourceforge.net/DTD/sodipodi-0.dtd" xmlns:xlink="http://www.w3.org/1999/xlink" baseProfile="full" height="6600px" version="1.1" width="5100px">
  <defs/>
  <g class="layer" id="image-layer" inkscape:groupmode="layer" sodipodi:insensitive="1">
    <title>image-layer</title>
    <image height="6600" width="5100" x="0" xlink:href="kibler_2003_preparation_p17.png" y="0"/>
  </g>
  <g class="layer" id="digitization-layer" inkscape:groupmode="layer">
    <title>digitization-layer</title>
  <g
     id="g4152"
     style="fill:none;stroke:#ff0000;stroke-opacity:1">
    <path
       style="fill:none;stroke:#ff0000;stroke-width:3;stroke-linecap:butt;stroke-linejoin:miter;stroke-dasharray:none;stroke-opacity:1"
       d="m 2518.6337,4410.6639 c -112.7388,-10.875 -168.2349,-1.0989 -236.7204,1.2072 -68.4856,2.3061 -303.2772,2.9784 -303.2772,2.9784 0,0 -0.1336,3.3719 -0.059,10.1091 49.9625,-2.7045 158.5129,-0.8432 236.4023,0.5057 76.5788,1.3262 164.2916,26.6336 230.6667,2.7389 18.1246,-6.913 163.954,-6.577 309.1719,-5.5135 85.0051,0.6225 169.7892,-0.996 228.4513,2.4606 35.6932,3.3852 45.0414,49.5228 79.2878,48.7693 34.2465,-0.7534 56.1849,-1.482 64.5335,7.7557 8.3485,9.2378 20.9551,15.9468 46.3332,116.3259 25.3781,100.3792 29.9031,266.3928 37.3666,387.2527 7.4635,120.8599 26.478,139.1695 30.661,-17.8013 4.1829,-156.9708 24.7643,-341.8357 42.2892,-440.6015 17.5249,-98.7658 126.8908,-95.4083 127.5729,-96.3686 0.6821,-0.9604 183.8511,-4.7192 234.2202,-9.1133 33.8037,-2.949 64.7583,-9.9176 89.0234,-39.5622 21.017,-31.4983 18.2771,-38.2727 19.3131,-54.996 -45.5408,12.1224 -105.2728,19.4845 -156.6716,-25.2567 -44.2954,-63.7098 -59.5529,-112.4289 -70.5546,-214.4399 -11.0017,-102.0109 -17.5851,-173.0039 -23.8041,-27.9897 -6.219,145.0142 -26.8857,156.5177 -36.2698,105.59 -9.3841,-50.9277 -17.2614,-58.1931 -24.928,11.813 -7.2885,64.9088 -15.2258,144.5184 -36.8241,214.6787 -7.3511,23.8796 -42.6513,22.3483 -79.0984,22.8249 -36.4471,0.4766 -511.7955,1.1577 -511.7955,1.1577 -126.5134,-0.9604 -175.0422,2.5947 -295.2908,-4.5251 z"
       id="path365"
       sodipodi:nodetypes="scccscccszzzzzzzcssccczszcss" />
    <text
       xml:space="preserve"
       style="font-size:53.3333px;line-height:1.25;font-family:Arial;-inkscape-font-specification:'Arial, Normal';text-align:justify;letter-spacing:0px;word-spacing:0px;writing-mode:lr-tb;fill:#ff0000;stroke:#ff0000;stroke-opacity:1"
       x="2821.4658"
       y="4219.8081"
       id="text4147"><tspan
         sodipodi:role="line"
         id="tspan4145"
         x="2821.4658"
         y="4219.8081">curve: Au(110) solid</tspan></text>
  </g>
  <g
     id="g1260"
     transform="translate(2.992671,1548.774)">
    <path
       style="fill:#ff0000;stroke:#ff0000;stroke-width:1.78215px;stroke-linecap:butt;stroke-linejoin:miter;stroke-opacity:1"
       d="m 1731.0986,3643.2536 -11.8656,279.7642"
       id="path547"
       sodipodi:nodetypes="cc" />
    <text
       xml:space="preserve"
       style="font-size:85.3333px;line-height:1.25;font-family:Arial;-inkscape-font-specification:'Arial, Normal';text-align:justify;letter-spacing:0px;word-spacing:0px;writing-mode:lr-tb;fill:#ff0000;stroke:#ff0000"
       x="1725.7389"
       y="3985.6804"
       id="text551"><tspan
         sodipodi:role="line"
         x="1725.7389"
         y="3985.6804"
         id="tspan553">E1: -0.6 V vs. SCE</tspan></text>
  </g>
  <g
     id="g1164"
     transform="translate(2225.6399,1545.6146)">
    <path
       style="fill:none;stroke:#ff0000;stroke-width:1.66439px;stroke-linecap:butt;stroke-linejoin:miter;stroke-opacity:1"
       d="m 1727.8436,3646.3729 v 67.0374"
       id="path547-6" />
    <text
       xml:space="preserve"
       style="font-size:48px;line-height:1.25;font-family:Arial;-inkscape-font-specification:'Arial, Normal';text-align:justify;letter-spacing:0px;word-spacing:0px;writing-mode:lr-tb"
       x="1728.3015"
       y="3728.9973"
       id="text551-0"><tspan
         sodipodi:role="line"
         x="1728.3015"
         y="3728.9973"
         id="tspan553-8">E2: 1.5 V vs. SCE</tspan></text>
  </g>
  <text
     xml:space="preserve"
     style="font-size:96px;line-height:1.25;font-family:Arial;-inkscape-font-specification:'Arial, Normal';text-align:justify;letter-spacing:0px;word-spacing:0px;writing-mode:lr-tb"
     x="2629.3811"
     y="3799.5732"
     id="text3073"><tspan
       sodipodi:role="line"
       id="tspan3071"
       x="2629.3811"
       y="3799.5732">scan rate: 10 mV / s</tspan></text>
  <g
     id="g4533">
    <text
       xml:space="preserve"
       style="font-size:74.6667px;line-height:1.25;font-family:Arial;-inkscape-font-specification:'Arial, Normal';text-align:justify;letter-spacing:0px;word-spacing:0px;writing-mode:lr-tb;fill:#ff0000;stroke:#ff0000"
       x="1791.3505"
       y="3750.9326"
       id="text448"><tspan
         sodipodi:role="line"
         id="tspan446"
         x="1791.3505"
         y="3750.9326">j2: 75 A</tspan></text>
    <path
       style="fill:#ff0000;stroke:#ff0000;stroke-width:2.98271px;stroke-linecap:butt;stroke-linejoin:miter;stroke-opacity:1"
       d="m 1733.9273,3645.246 51.6708,79.2483"
       id="path4526"
       sodipodi:nodetypes="cc" />
  </g>
  <g
     id="g4543">
    <text
       xml:space="preserve"
       style="font-size:48px;line-height:1.25;font-family:Arial;-inkscape-font-specification:'Arial, Normal';text-align:justify;letter-spacing:0px;word-spacing:0px;writing-mode:lr-tb"
       x="1948.4207"
       y="5039"
       id="text448-1"><tspan
         sodipodi:role="line"
         id="tspan446-9"
         x="1948.4207"
         y="5039">j1: -75 A</tspan></text>
    <path
       style="fill:none;stroke:#ff0000;stroke-width:1px;stroke-linecap:butt;stroke-linejoin:miter;stroke-opacity:1"
       d="m 1734.0913,5192.0276 186.8179,-165.0747"
       id="path4538" />
  </g>
  </g>
</svg>
