<?xml version="1.0" encoding="UTF-8" standalone="no"?>
<svg
   height="6600px"
   version="1.1"
   width="5100px"
   id="svg1"
   sodipodi:docname="feng_2017_new_1003_f8_Pt(111).svg"
   inkscape:version="1.4 (86a8ad7, 2024-10-11)"
   xmlns:inkscape="http://www.inkscape.org/namespaces/inkscape"
   xmlns:sodipodi="http://sodipodi.sourceforge.net/DTD/sodipodi-0.dtd"
   xmlns:xlink="http://www.w3.org/1999/xlink"
   xmlns="http://www.w3.org/2000/svg"
   xmlns:svg="http://www.w3.org/2000/svg">
  <sodipodi:namedview
     id="namedview1"
     pagecolor="#ffffff"
     bordercolor="#000000"
     borderopacity="0.25"
     inkscape:showpageshadow="2"
     inkscape:pageopacity="0.0"
     inkscape:pagecheckerboard="0"
     inkscape:deskcolor="#d1d1d1"
     inkscape:zoom="0.44545454"
     inkscape:cx="1718.4694"
     inkscape:cy="831.73469"
     inkscape:window-width="1920"
     inkscape:window-height="974"
     inkscape:window-x="2869"
     inkscape:window-y="-11"
     inkscape:window-maximized="1"
     inkscape:current-layer="svg1" />
  <defs
     id="defs1" />
  <image
     height="6600px"
     sodipodi:insensitive="true"
     width="5100px"
     x="0"
     xlink:href="feng_2017_new_1003_p6.png"
     y="0"
     id="image1" />
  <g
     id="g10">
    <g
       id="g13">
      <text
         xml:space="preserve"
         style="font-size:80px;text-align:start;writing-mode:lr-tb;direction:ltr;text-anchor:start;fill:#000000"
         x="532.04083"
         y="628.57141"
         id="text1"><tspan
           sodipodi:role="line"
           id="tspan1"
           x="532.04083"
           y="628.57141">I2: 30 uA</tspan></text>
      <path
         style="fill:#000000;stroke:#000000;stroke-opacity:1"
         d="m 919.84694,611.7347 88.67346,70.71428"
         id="path4" />
    </g>
  </g>
  <g
     id="g9">
    <g
       id="g14">
      <text
         xml:space="preserve"
         style="font-size:80px;text-align:start;writing-mode:lr-tb;direction:ltr;text-anchor:start;fill:#000000"
         x="498.36737"
         y="1580.4081"
         id="text2"><tspan
           sodipodi:role="line"
           id="tspan2"
           x="498.36737"
           y="1580.4081">I1: -30 uA</tspan></text>
      <path
         style="fill:#000000;stroke:#000000;stroke-opacity:1"
         d="m 919.84694,1558.5204 89.23466,-65.6633"
         id="path5" />
    </g>
  </g>
  <g
     id="g8">
    <text
       xml:space="preserve"
       style="font-size:80px;text-align:start;writing-mode:lr-tb;direction:ltr;text-anchor:start;fill:#000000"
       x="197.55106"
       y="2696.1223"
       id="text3"><tspan
         sodipodi:role="line"
         id="tspan3"
         x="197.55106"
         y="2696.1223">E1: 0 V vs RHE</tspan></text>
    <path
       style="fill:#000000;stroke:#000000;stroke-opacity:1"
       d="m 1102.5255,2664.9745 40.4082,-60.6122"
       id="path6" />
  </g>
  <g
     id="g7">
    <text
       xml:space="preserve"
       style="font-size:80px;text-align:start;writing-mode:lr-tb;direction:ltr;text-anchor:start;fill:#000000"
       x="2141.6328"
       y="2779.1838"
       id="text4"><tspan
         sodipodi:role="line"
         id="tspan4"
         x="2141.6328"
         y="2779.1838">E2: 0.8 V vs RHE</tspan></text>
    <path
       style="fill:#000000;stroke:#000000;stroke-opacity:1"
       d="m 2146.5381,2751.7277 76.988,-148.4203"
       id="path7" />
  </g>
  <g
     id="g11">
    <path
       style="fill:none;stroke:#ff0000;stroke-opacity:1"
       d="m 1155.6145,1393.7219 c 0,0 1.5086,-275.5087 1.5874,-366.6854 0.014,-16.2548 3.8897,-92.67822 6.0208,-130.56219 0.5398,-9.59583 5.4348,-26.25335 12.2341,-37.30349 11.9697,-19.45311 46.7534,-61.62312 68.7779,-95.6249 7.7915,-12.0287 24.5527,-43.18601 31.1479,-42.65306 28.1309,2.27323 26.2966,193.55785 116.4541,186.32653 22.0604,-1.76941 41.6011,-12.63577 53.3164,-39.56633 3.2676,-7.51144 9.4335,-17.65316 13.1887,-25.81632 1.392,-3.02597 5.8572,-6.13709 7.8572,-6.17347 20.2873,-0.36905 19.4556,129.6181 60.3316,173.69893 22.8863,24.6807 49.3256,35.0681 87.2704,32.2705 2.9218,-0.2154 6.6817,-2.3374 9.611,-2.3853 3.2894,-0.054 5.3394,1.9114 8.6288,1.9644 14.1517,0.228 47.2543,3.0477 65.9439,1.5433 2.3587,-0.1899 4.3691,2.1852 6.7347,2.2449 8.3352,0.2104 17.332,-0.1303 26.2372,0 3.2376,0.047 6.3107,1.6 9.5409,1.824 9.4265,0.6537 15.6783,-7.2714 21.7474,-7.0153 11.1309,0.4697 33.0605,12.8284 50.563,16.43 11.6692,2.4013 33.3844,1.3841 41.3695,4.5198 1.5548,0.6105 11.7382,-0.3839 13.2026,0.096 3.7291,1.2231 3.5887,1.8126 4.6979,1.8368 9.1153,0.1994 36.721,0.3445 37.5903,0.4098 3.0525,0.2292 7.3658,1.5676 8.1946,1.6352 33.8645,2.7595 166.4623,-4.1459 171.0335,-6.6469 0,0 2.7688,39.2754 2.381,40.5775 -1.2985,4.3599 -3.4833,14.2537 -6.7492,15.9249 -12.1035,6.1931 -55.9156,12.8505 -83.2355,17.8069 -25.0583,4.5461 -50.2014,8.7789 -75.4999,11.707 -30.8577,3.5716 -50.9111,5.8524 -76.1944,11.3101 -5.6106,1.2111 -11.1538,2.9087 -16.8659,3.4724 -5.2,0.5132 -10.5102,-0.8886 -15.6754,-0.099 -6.8647,1.0494 -13.249,4.801 -20.1229,5.7883 -2.685,0.3857 -7.379,0.01 -7.8547,0.3628 -4.1724,3.1323 -13.1747,5.6345 -17.9573,6.5479 -4.8987,0.9356 -18.7794,12.3602 -25.2989,14.8817 -4.5332,1.7533 -10.7945,-11.5909 -11.8062,-10.9132 -0.6333,0.4242 -82.0201,1.9041 -135.9196,1.7858 -2.1961,0 -4.0542,-2.0676 -6.2503,-2.0834 -2.1858,-0.016 -5.2185,2.0164 -6.2503,1.9842 -20.7215,-0.6469 -48.0887,14.7299 -66.6094,29.6277 -13.9123,11.1908 -20.8225,23.899 -32.1293,48.8284 -16.5488,36.487 -29.8302,132.9688 -42.9678,133.9923 -8.7199,0.6793 -17.7561,-38.3488 -23.1605,-45.9962 -4.1812,-5.9166 -10.7638,-17.5843 -19.1293,-23.538 -8.3656,-5.9537 -20.3286,-8.7824 -27.302,-8.8969 -49.9851,-0.821 -67.017,50.233 -78.7118,85.1658 -14.3418,42.8397 -24.412,132.4214 -40.5484,130.0638 -6.3824,-0.9325 -16.562,-21.9871 -21.7475,-32.4107 -6.2046,-12.4723 -24.7756,-36.3254 -34.0944,-49.6684 -9.4425,-13.5202 -25.6756,-34.8095 -39.7066,-43.2143 -0.7594,-0.4549 -6.0332,-77.1683 -6.0332,-77.1683"
       id="path10"
       sodipodi:nodetypes="csssssssssssssssssssssssssssssssssssssssssssssssssssc" />
    <text
       xml:space="preserve"
       style="font-size:80px;text-align:start;writing-mode:lr-tb;direction:ltr;text-anchor:start;fill:#000000;stroke:none;stroke-opacity:1"
       x="1217.8571"
       y="620.71429"
       id="text10"><tspan
         sodipodi:role="line"
         id="tspan10"
         x="1217.8571"
         y="620.71429">curve: upperleft</tspan></text>
  </g>
  <text
     xml:space="preserve"
     style="font-size:80px;text-align:start;writing-mode:lr-tb;direction:ltr;text-anchor:start;fill:#000000;stroke:none;stroke-opacity:1"
     x="587.33154"
     y="206.35973"
     id="text11"><tspan
       sodipodi:role="line"
       id="tspan11"
       x="587.33154"
       y="206.35973">scan rate: 10 V / s</tspan></text>
  <text
     xml:space="preserve"
     style="font-size:80px;text-align:start;writing-mode:lr-tb;direction:ltr;text-anchor:start;fill:#000000;stroke:none;stroke-opacity:1"
     x="615.90442"
     y="282.55411"
     id="text12"><tspan
       sodipodi:role="line"
       id="tspan12"
       x="615.90442"
       y="282.55411">figure: 8</tspan></text>
  <text
     xml:space="preserve"
     style="font-size:80px;text-align:start;writing-mode:lr-tb;direction:ltr;text-anchor:start;fill:#000000;stroke:none;stroke-opacity:1"
     x="698.4483"
     y="390.49612"
     id="text13"><tspan
       sodipodi:role="line"
       id="tspan13"
       x="698.4483"
       y="390.49612">tags: BCV</tspan></text>
  <text
     xml:space="preserve"
     style="font-size:80px;text-align:start;writing-mode:lr-tb;direction:ltr;text-anchor:start;fill:#000000;stroke:none;stroke-opacity:1"
     x="657.75513"
     y="87.551018"
     id="text14"><tspan
       sodipodi:role="line"
       id="tspan14"
       x="657.75513"
       y="87.551018">linked: ohmic microscopy</tspan></text>
</svg>
