<?xml version="1.0" encoding="UTF-8" standalone="no"?>
<svg
   height="6600px"
   version="1.1"
   width="5100px"
   id="svg1"
   sodipodi:docname="feng_2017_new_1003_f9_solid.svg"
   inkscape:version="1.4 (86a8ad7, 2024-10-11)"
   xmlns:inkscape="http://www.inkscape.org/namespaces/inkscape"
   xmlns:sodipodi="http://sodipodi.sourceforge.net/DTD/sodipodi-0.dtd"
   xmlns:xlink="http://www.w3.org/1999/xlink"
   xmlns="http://www.w3.org/2000/svg"
   xmlns:svg="http://www.w3.org/2000/svg">
  <sodipodi:namedview
     id="namedview1"
     pagecolor="#ffffff"
     bordercolor="#000000"
     borderopacity="0.25"
     inkscape:showpageshadow="2"
     inkscape:pageopacity="0.0"
     inkscape:pagecheckerboard="0"
     inkscape:deskcolor="#d1d1d1"
     inkscape:zoom="0.62996785"
     inkscape:cx="1188.1559"
     inkscape:cy="3805.7498"
     inkscape:window-width="1920"
     inkscape:window-height="974"
     inkscape:window-x="-11"
     inkscape:window-y="-11"
     inkscape:window-maximized="1"
     inkscape:current-layer="g11" />
  <defs
     id="defs1" />
  <image
     height="6600px"
     sodipodi:insensitive="true"
     width="5100px"
     x="0"
     xlink:href="feng_2017_new_1003_p6.png"
     y="0"
     id="image1" />
  <g
     id="g10">
    <text
       xml:space="preserve"
       style="font-size:80px;text-align:start;writing-mode:lr-tb;direction:ltr;text-anchor:start;fill:#000000"
       x="190.8163"
       y="4586.3267"
       id="text3"><tspan
         sodipodi:role="line"
         id="tspan3"
         x="190.8163"
         y="4586.3267">E1: 0 V vs RHE</tspan></text>
    <path
       style="fill:#000000;stroke:#000000"
       d="m 797.65974,4552.6132 70.63853,-64.289"
       id="path4" />
  </g>
  <g
     id="g9">
    <text
       xml:space="preserve"
       style="font-size:80px;text-align:start;writing-mode:lr-tb;direction:ltr;text-anchor:start;fill:#000000"
       x="1883.4694"
       y="4584.082"
       id="text4"><tspan
         sodipodi:role="line"
         id="tspan4"
         x="1883.4694"
         y="4584.082">E2: 0.6 V vs RHE</tspan></text>
    <path
       style="fill:#000000;stroke:#000000"
       d="m 1891.3663,4553.4069 -74.6069,-65.4795"
       id="path5" />
  </g>
  <g
     id="g7">
    <text
       xml:space="preserve"
       style="font-size:80px;text-align:start;writing-mode:lr-tb;direction:ltr;text-anchor:start;fill:#000000"
       x="2098.9795"
       y="3562.6531"
       id="text1"><tspan
         sodipodi:role="line"
         id="tspan1"
         x="2098.9795"
         y="3562.6531">I2: 30 uA</tspan></text>
    <path
       style="fill:#000000;stroke:#000000"
       d="m 2103.2819,3532.7199 -50.7962,84.5281"
       id="path7" />
  </g>
  <g
     id="g11">
    <path
       style="fill:none;stroke:#ff0000"
       d="m 867.30616,4017.8638 c 0,0 3.19035,-77.6353 7.40149,-155.7339 3.83958,-71.2078 6.17105,-156.8769 17.59978,-165.5127 2.13889,-1.6162 24.15049,-22.9722 56.72613,-36.8523 5.28083,-2.2501 51.57234,-37.1081 58.16074,-37.3579 20.8751,-0.7912 38.3364,84.0884 70.6385,116.2758 8.9351,8.9033 19.8124,18.1975 32.3429,19.6439 3.5946,0.4149 6.719,-2.9981 10.318,-3.3732 3.0439,-0.3173 8.4486,1.0464 11.5085,0.9921 5.0783,-0.09 7.6218,-2.3189 12.6991,-2.1827 2.6971,0.072 5.2438,1.751 7.9369,1.5874 6.9521,-0.4223 13.5989,-3.4607 19.8423,-6.5479 7.0384,-3.4803 13.6322,-8.0162 19.4454,-13.2944 13.9751,-12.689 26.8622,-44.5733 36.3114,-43.4546 19.6081,2.3214 31.4523,80.4757 42.6609,117.4664 5.7662,19.0296 12.7825,44.3168 26.5886,62.9 6.3034,8.4845 12.9268,17.778 22.4218,22.4218 1.4371,0.7028 3.2992,-0.052 4.7622,0.5952 1.673,0.7401 2.4767,2.8715 4.1668,3.5716 2.3902,0.9901 5.2334,-0.051 7.7385,0.5953 3.2385,0.8356 6.0429,3.6385 9.2267,4.663 8.1496,2.6223 16.5471,4.8276 25.1005,4.4645 9.8304,-0.4173 18.6309,-6.7662 28.3744,-8.1354 2.6199,-0.3682 5.348,0.5444 7.937,0 1.7678,-0.3717 3.1635,-1.9973 4.9605,-2.1826 2.2195,-0.2288 4.3174,1.4432 6.548,1.3889 17.5504,-0.4271 33.4944,1.2161 49.4073,5.5559 2.7446,0.7485 5.3332,2.0884 8.1353,2.5795 1.63,0.2857 3.3558,-0.2057 4.9606,0.1984 2.7825,0.7006 4.8694,3.8091 7.7385,3.77 6.4796,-0.088 7.8628,-0.2406 9.0406,0.053 4.4361,1.1068 24.9746,5.4635 31.8345,6.0979 3.7563,0.3474 7.5706,-0.1002 11.3101,0.3969 2.0197,0.2685 3.9158,1.4432 5.9526,1.3889 4.2686,-0.1138 8.0956,-2.8387 12.3023,-3.5716 4.1783,-0.7279 8.5598,0.1312 12.699,-0.7937 3.6799,-0.8222 6.7536,-4.4087 10.5164,-4.1668 1.377,0.088 25.6599,14.5439 32.3429,17.858 2.2052,1.0936 4.98,0.1001 7.3417,0.7937 1.2771,0.3751 2.2762,1.48 3.5716,1.7858 2.1886,0.5167 4.5673,-0.5557 6.7464,0 1.6061,0.4095 2.7526,1.9984 4.3653,2.3811 1.9317,0.4584 3.8762,-0.1787 5.8535,0 7.8411,0.7089 53.3145,13.9712 68.8526,11.3101 2.895,-0.4959 7.2884,1.3885 10.2188,1.5874 6.7969,0.4613 13.8,-2.6004 20.4376,0 1.6752,0.6563 3.3842,1.2922 5.159,1.5874 3.1858,0.5299 8.6358,-0.1351 9.6841,0.3016 13.1995,5.4994 25.0763,7.4531 35.0184,9.6471 1.7764,0.3921 3.5707,-1.1127 5.3897,-1.0884 2.3813,0.032 4.3573,2.2444 6.7347,2.3852 4.4512,0.2636 8.5907,-2.8407 13.0485,-2.9464 1.6142,-0.038 3.1576,0.9195 4.7704,0.8418 1.7454,-0.084 3.313,-1.5839 5.051,-1.403 1.4148,0.1472 2.4829,2.5293 3.7883,1.9642 6.3557,-2.7513 12.5092,-2.3277 17.9592,-2.5255 5.7032,-0.207 11.0159,-3.2402 16.6964,-3.7882 3.0273,-0.2921 7.9177,0.4657 9.7152,-0.1162 9.1193,-2.9525 13.3767,-5.4649 23.5374,-6.4782 2.3382,-0.2332 6.6749,-3.763 10.3826,-4.2092 9.9871,-1.202 20.5328,-1.6415 30.3061,-0.9822 1.8578,0.1253 4.008,0.9572 5.8688,1.0233 2.4987,0.089 5.3931,-1.9735 7.0394,-0.8829 3.5778,2.37 2.2825,8.3859 4.4898,12.0663 2.5051,4.1769 6.7191,12.2846 9.6811,10.9439 3.5549,-1.609 -0.8621,74.5293 -1.9643,72.6785 -0.7216,-1.2117 -5.1636,23.3134 -9.4005,30.5868 -3.1206,5.357 -3.3303,20.8576 -4.9107,22.1683 -1.3371,1.1089 -17.0191,4.0816 -25.676,3.9286 -6.2822,-0.111 -12.436,-1.0032 -18.5204,-3.5076 -1.2385,-0.5098 -2.5913,0.77 -3.9286,0.8418 -6.7614,0.3631 -13.487,-2.9583 -20.2041,-2.1046 -7.5751,0.9627 -13.6483,6.6371 -21.1862,7.8571 -1.2935,0.2094 -2.9342,-0.3025 -4.2092,0 -1.6089,0.3817 -2.8363,2.108 -4.4898,2.1046 -11.8834,-0.025 -24.769,0.9696 -36.6199,5.472 -19.2311,7.3063 -34.8266,7.2667 -47.5637,9.1199 -3.9361,0.5727 -26.4978,12.0823 -33.7076,10.4648 -2.79,-0.626 -29.2861,-0.7505 -36.4455,-0.6434 -1.9668,0.029 -3.6459,1.7714 -5.6123,1.824 -4.7163,0.1262 -14.5254,-0.6296 -18.5204,-0.2806 -1.5025,0.1312 -2.427,2.1029 -3.9285,2.2449 -4.0716,0.3852 -11.5471,-0.6937 -17.2577,0 -3.4907,0.424 -6.7478,2.1344 -10.2423,2.5255 -2.4638,0.2757 -5.0994,-0.9683 -7.4363,-0.1403 -1.095,0.388 -1.8113,2.2938 -2.9634,2.1457 -3.5821,-0.4606 -8.1148,3.4165 -12.6105,5.4308 -0.5468,0.245 -5.6943,-0.6375 -6.875,-0.2806 -1.2196,0.3686 -5.247,3.859 -8.2781,4.9107 -1.3373,0.464 -2.9565,-0.098 -4.2092,0.5612 -1.7289,0.9097 -2.655,3.9716 -3.9286,4.3495 -8.5564,2.5392 -24.7313,23.9228 -29.4401,23.1576 -3.7824,-0.6146 -8.5174,-3.3093 -10.4068,-3.2341 -2.2058,0.088 -3.2344,-3.2394 -5.3316,-3.9286 -1.4218,-0.4673 -3.2579,-0.1548 -4.6882,-0.5953 -3.8927,-1.199 -5.8333,-6.4315 -9.9037,-6.2797 -2.6329,0.098 -13.0629,6.2173 -16.515,6.9812 -2.336,0.517 -4.695,-0.3506 -7.0564,0.034 -1.6547,0.2696 -2.9591,1.8279 -4.6301,1.9643 -5.0327,0.4109 -15.7335,-0.8176 -20.4747,-0.1403 -1.4531,0.2076 -3.5942,1.6295 -5.061,1.6837 -3.7552,0.1386 -14.5384,0.2002 -22.449,0.4209 -3.4202,0.095 -13.6472,-3.9913 -16.6964,-4.9107 -1.3889,-0.4188 -3.5946,0.2138 -5.044,0.1573 -2.6315,-0.1024 -6.6474,-2.0053 -9.3183,-2.9634 -1.7543,-0.6293 -2.5753,1.7147 -4.4387,1.6836 -1.686,-0.028 -3.0844,-1.6529 -4.7704,-1.6836 -3.1354,-0.057 -5.9151,1.2477 -8.9796,1.9132 -7.6358,1.6582 -28.9941,-8.4287 -41.671,-7.9464 -8.7943,0.3346 -13.5168,5.8771 -14.8724,5.8928 -10.9658,0.1271 -13.846,6.0587 -22.1343,10.1362 -3.212,1.5801 -8.2681,3.2268 -9.9958,4.596 -38.5907,30.5839 -54.8403,53.5959 -73.3049,107.5156 -12.071,35.2491 -28.786,104.1679 -41.1849,104.2063 -10.4477,0.032 -20.4926,-39.4775 -30.2251,-55.7986 -1.013,-1.6988 -3.5696,-7.4071 -5.4127,-11.1274 -6.3341,-12.7854 -26.0589,-30.1435 -44.1964,-32.551 -0.8954,-0.1189 -1.6233,1.0256 -2.5255,0.9821 -2.9974,-0.1445 -10.7706,-2.7479 -16.2755,-2.8061 -14.4075,-0.1523 -39.3441,9.0082 -50.7909,21.8878 -9.1935,10.3443 -21.7265,38.0137 -32.826,66.0805 -11.5026,29.0861 -21.7598,61.6125 -38.58974,59.0725 -10.64286,-1.6062 -64.55331,-66.4716 -101.72194,-93.4439 -7.7161,-5.5994 -17.15139,-318.4608 -17.15139,-318.4608"
       id="path10"
       sodipodi:nodetypes="cssssssssssssssssssssssssssssssssssssssssssssssssssssssssssssssssssssssssssssssssssssssssssssssssssssssssssssssssssssssssssc" />
    <text
       xml:space="preserve"
       style="font-size:80px;text-align:start;writing-mode:lr-tb;direction:ltr;text-anchor:start;fill:#000000;stroke:none"
       x="1481.6327"
       y="3697.3469"
       id="text10"><tspan
         sodipodi:role="line"
         id="tspan10"
         x="1481.6327"
         y="3697.3469">curve: solid</tspan></text>
  </g>
  <text
     xml:space="preserve"
     style="font-size:80px;text-align:start;writing-mode:lr-tb;direction:ltr;text-anchor:start;fill:#000000;stroke:none"
     x="276.12244"
     y="3450.4082"
     id="text11"><tspan
       sodipodi:role="line"
       id="tspan11"
       x="276.12244"
       y="3450.4082">scan rate: 10 V / s</tspan></text>
  <text
     xml:space="preserve"
     style="font-size:80px;text-align:start;writing-mode:lr-tb;direction:ltr;text-anchor:start;fill:#000000;stroke:none"
     x="332.2449"
     y="3555.9185"
     id="text12"><tspan
       sodipodi:role="line"
       id="tspan12"
       x="332.2449"
       y="3555.9185">figure: 9</tspan></text>
  <text
     xml:space="preserve"
     style="font-size:80px;text-align:start;writing-mode:lr-tb;direction:ltr;text-anchor:start;fill:#000000;stroke:none"
     x="206.53061"
     y="3665.9185"
     id="text13"><tspan
       sodipodi:role="line"
       id="tspan13"
       x="206.53061"
       y="3665.9185">tags: BCV</tspan></text>
  <g
     id="g2">
    <text
       xml:space="preserve"
       style="font-size:80px;text-align:start;writing-mode:lr-tb;direction:ltr;text-anchor:start;fill:#000000"
       x="2104.0305"
       y="4444.8979"
       id="text2"><tspan
         sodipodi:role="line"
         id="tspan2"
         x="2104.0305"
         y="4444.8979">I1: -30 uA</tspan></text>
    <path
       style="fill:#000000;stroke:#000000"
       d="m 2112.449,4414.0307 -59.4898,-49.949"
       id="path2" />
  </g>
  <text
     xml:space="preserve"
     style="font-size:80px;text-align:start;writing-mode:lr-tb;direction:ltr;text-anchor:start;fill:#000000;stroke:#000000"
     x="1228.6342"
     y="3435.0959"
     id="text5"><tspan
       sodipodi:role="line"
       id="tspan5"
       x="1228.6342"
       y="3435.0959">linked: ohmic microscopy</tspan></text>
</svg>
