<?xml version="1.0" encoding="UTF-8" standalone="no"?>
<svg
   height="6617px"
   version="1.1"
   width="4959px"
   id="svg1"
   sodipodi:docname="pajkossy_2005_voltammetry_69_f8a_solid.svg"
   inkscape:version="1.4.2 (f4327f4, 2025-05-13)"
   xmlns:inkscape="http://www.inkscape.org/namespaces/inkscape"
   xmlns:sodipodi="http://sodipodi.sourceforge.net/DTD/sodipodi-0.dtd"
   xmlns:xlink="http://www.w3.org/1999/xlink"
   xmlns="http://www.w3.org/2000/svg"
   xmlns:svg="http://www.w3.org/2000/svg">
  <sodipodi:namedview
     id="namedview1"
     pagecolor="#ffffff"
     bordercolor="#000000"
     borderopacity="0.25"
     inkscape:showpageshadow="2"
     inkscape:pageopacity="0.0"
     inkscape:pagecheckerboard="0"
     inkscape:deskcolor="#d1d1d1"
     inkscape:zoom="0.46304972"
     inkscape:cx="4081.6351"
     inkscape:cy="964.2593"
     inkscape:window-width="2880"
     inkscape:window-height="1694"
     inkscape:window-x="-11"
     inkscape:window-y="-11"
     inkscape:window-maximized="1"
     inkscape:current-layer="g14" />
  <defs
     id="defs1" />
  <image
     height="6617"
     sodipodi:insensitive="true"
     width="4959"
     x="0"
     xlink:href="pajkossy_2004_voltammetry_69_p5.png"
     y="0"
     id="image1" />
  <g
     id="g14"
     transform="translate(2506.8589,-21.459105)"
     inkscape:label="j2">
    <text
       xml:space="preserve"
       style="font-style:normal;font-variant:normal;font-weight:normal;font-stretch:normal;font-size:42.6667px;line-height:0;font-family:sans-serif;-inkscape-font-specification:sans-serif;text-align:start;writing-mode:lr-tb;direction:ltr;text-anchor:start;fill:#000000;stroke-width:2"
       x="229.81119"
       y="705.38873"
       id="text2"><tspan
         sodipodi:role="line"
         id="tspan2"
         x="229.81119"
         y="705.38873">j2: 100 uA / cm2</tspan></text>
    <path
       style="fill:#000000;fill-opacity:1;stroke:#000000;stroke-width:2;stroke-opacity:1"
       d="m 536.96987,692.10429 40.86853,85.22198"
       id="path7"
       sodipodi:nodetypes="cc" />
  </g>
  <g
     id="g13"
     transform="translate(2550.4135,-153.91322)"
     inkscape:label="j1">
    <text
       xml:space="preserve"
       style="font-style:normal;font-variant:normal;font-weight:normal;font-stretch:normal;font-size:42.6667px;line-height:0;font-family:sans-serif;-inkscape-font-specification:sans-serif;text-align:start;writing-mode:lr-tb;direction:ltr;text-anchor:start;fill:#000000;stroke-width:2"
       x="101.67587"
       y="1842.6377"
       id="text1"><tspan
         id="tspan1"
         x="101.67587"
         y="1842.6377"
         sodipodi:role="line"
         style="font-size:42.6667px">j1: -200 uA / cm2</tspan></text>
    <path
       style="fill:#000000;fill-opacity:1;stroke:#000000;stroke-width:2;stroke-opacity:1"
       d="m 429.59483,1832.7478 105.81465,54.4914"
       id="path8" />
  </g>
  <g
     id="g11"
     transform="translate(2493.8708,1.0969261)"
     inkscape:label="E1">
    <text
       xml:space="preserve"
       style="font-style:normal;font-variant:normal;font-weight:normal;font-stretch:normal;font-size:42.6667px;line-height:0;font-family:sans-serif;-inkscape-font-specification:sans-serif;text-align:start;writing-mode:lr-tb;direction:ltr;text-anchor:start;fill:#000000;stroke-width:2"
       x="319.00269"
       y="2013.4805"
       id="text5"><tspan
         sodipodi:role="line"
         id="tspan5"
         x="319.00269"
         y="2013.4805">E1: -0.4 V vs SCE</tspan></text>
    <path
       style="fill:#000000;fill-opacity:1;stroke:#000000;stroke-width:2;stroke-opacity:1"
       d="m 597.45799,1899.0069 88.03937,98.1202"
       id="path9" />
  </g>
  <g
     id="g3"
     transform="translate(3166.8097,128.4162)"
     inkscape:label="E2">
    <text
       xml:space="preserve"
       style="font-style:normal;font-variant:normal;font-weight:normal;font-stretch:normal;font-size:42.6667px;line-height:0;font-family:sans-serif;-inkscape-font-specification:sans-serif;text-align:start;writing-mode:lr-tb;direction:ltr;text-anchor:start;fill:#000000;stroke-width:2"
       x="1142.7289"
       y="1879.9631"
       id="text6"><tspan
         sodipodi:role="line"
         id="tspan6"
         x="1142.7289"
         y="1879.9631">E2: 0.8 V vs SCE</tspan></text>
    <path
       style="fill:#000000;fill-opacity:1;stroke:#000000;stroke-width:2;stroke-opacity:1"
       d="m 1146.8694,1864.3338 75.7177,-93.9343"
       id="path10" />
  </g>
  <text
     xml:space="preserve"
     style="font-size:42.6667px;line-height:0;font-family:sans-serif;-inkscape-font-specification:sans-serif;text-align:start;writing-mode:lr-tb;direction:ltr;text-anchor:start;fill:#000000;stroke:#000000;stroke-width:2"
     x="4416.4087"
     y="806.07806"
     id="text8"
     inkscape:label="scan rate"><tspan
       sodipodi:role="line"
       id="tspan8"
       x="4416.4087"
       y="806.07806"
       style="stroke:none">scan rate: 50 mV / s </tspan></text>
  <text
     xml:space="preserve"
     style="font-size:42.6667px;line-height:0;font-family:sans-serif;-inkscape-font-specification:sans-serif;text-align:start;writing-mode:lr-tb;direction:ltr;text-anchor:start;fill:#000000;stroke:none;stroke-width:2"
     x="4504.5771"
     y="878.44604"
     id="text10"
     inkscape:label="figure"><tspan
       sodipodi:role="line"
       id="tspan10"
       x="4504.5771"
       y="878.44604">figure: 8a</tspan></text>
  <text
     xml:space="preserve"
     style="font-size:42.6667px;line-height:0;font-family:sans-serif;-inkscape-font-specification:sans-serif;text-align:start;writing-mode:lr-tb;direction:ltr;text-anchor:start;fill:none;stroke:#000000;stroke-width:0.5;stroke-dasharray:none;stroke-opacity:1"
     x="4492.4648"
     y="942.65161"
     id="text15"
     inkscape:label="tags"><tspan
       sodipodi:role="line"
       id="tspan15"
       x="4492.4648"
       y="942.65161"
      style="fill:#000000;fill-opacity:1;stroke:#000000;stroke-opacity:1">tags: BCV, SHA</tspan></text>
  <g
     id="g4">
    <path
       style="fill:none;stroke:#ea2424"
       d="m 3229.3596,1440.7854 c -2.0647,-0.5307 -3.5686,-19.3083 -3.4359,-27.4872 1.2699,-78.2914 2.8778,-424.45327 3.0542,-429.10514 4.6533,-122.68964 29.2932,-208.11417 42.1851,-233.2591 1.9842,-3.87004 8.1894,-0.0115 11.2621,-5.72649 1.1777,-2.19052 3.6627,10.73837 10.3077,10.68945 5.0901,-0.0375 4.1066,11.62597 9.1624,12.21652 1.9744,0.23062 2.6151,-4.11085 4.5812,-3.81767 4.3637,0.65071 3.1842,9.36655 7.2535,11.07122 1.197,0.50143 2.6825,-1.39235 3.8177,-0.76353 4.4038,2.43929 3.3571,13.18136 5.3447,14.12535 5.8746,2.79006 15.6297,43.70775 24.8148,95.05976 9.3663,52.36505 19.2966,113.93512 48.9709,146.56163 28.3746,31.1975 84.6828,34.7279 159.4734,36.6861 53.9766,1.4132 144.686,1.6131 219.5155,-3.0541 94.9835,-5.9243 114.404,-26.0673 197.3731,-37.4131 32.7939,-4.4845 63.1545,-20.923 96.9686,-21.3789 35.1996,-0.4746 52.9904,10.8442 104.9857,11.453 36.1098,0.4228 107.3137,-10.8011 108.0398,-8.0171 8.4758,32.497 -29.3457,66.0863 -68.7179,73.6809 -38.8282,7.4896 -77.4072,18.3808 -111.0939,41.6125 -26.5539,18.3126 -62.5405,59.8617 -75.9715,59.9372 -8.1057,0.046 -20.0409,-21.716 -35.3397,-36.3782 -15.2987,-14.6621 -35.1063,-18.4071 -83.0078,-25.8496 -42.086,-6.539 -58.929,-24.5051 -139.7264,-25.9601 -8.8635,-0.1596 -53.8218,-3.959 -219.8973,0.3817 -153.1626,4.0032 -175.8148,20.4271 -206.5354,189.7378 -6.2652,34.5296 -13.1955,68.3306 -26.3419,101.9316 -2.4297,6.21 -6.0864,-3.577 -13.3618,14.8888 -0.6045,1.5342 -8.0287,-5.0902 -11.453,10.3077 -0.2597,1.168 -11.6029,1.247 -13.2247,18.3312 -0.2461,2.5929 -4.7437,-0.5856 -9.2995,9.9195 -0.713,1.6441 -12.2222,-5.9022 -19.8518,-21.3789 -0.969,-1.9657 -4.4405,-0.149 -9.926,-4.5812 -2.7239,-2.2009 -5.8354,26.6296 -9.9259,25.5784 z"
       id="path1"
       sodipodi:nodetypes="sssssssssssssssssssssssssssssssssss" />
    <text
       xml:space="preserve"
       style="font-size:42.6667px;line-height:0;font-family:sans-serif;-inkscape-font-specification:sans-serif;text-align:start;writing-mode:lr-tb;direction:ltr;text-anchor:start;fill:#000000;stroke:#000000;stroke-width:2"
       x="196.8125"
       y="895.41669"
       id="text7"
       inkscape:label="curve"
       transform="translate(4290.8857,-159.4982)"><tspan
         sodipodi:role="line"
         id="tspan7"
         x="196.8125"
         y="895.41669"
         style="stroke:none">curve: solid</tspan></text>
  </g>
  <text
     xml:space="preserve"
     style="font-size:24px;writing-mode:lr-tb;direction:ltr;fill:#000000;fill-opacity:1;stroke:none"
     x="4434.5952"
     y="1000.2272"
     id="text3"><tspan
       sodipodi:role="line"
       id="tspan3"
       x="4434.5952"
       y="1000.2272"
       style="font-size:24px;fill:#000000;fill-opacity:1;stroke:none">comment: the curve is a bit noisy.</tspan></text>
</svg>
