<?xml version="1.0" encoding="UTF-8" standalone="no"?>
<svg
   height="7017px"
   version="1.1"
   width="4959px"
   id="svg6"
   sodipodi:docname="endres_2006_probing_1377_f11_b.svg"
   inkscape:version="1.4 (86a8ad7, 2024-10-11)"
   xmlns:inkscape="http://www.inkscape.org/namespaces/inkscape"
   xmlns:sodipodi="http://sodipodi.sourceforge.net/DTD/sodipodi-0.dtd"
   xmlns:xlink="http://www.w3.org/1999/xlink"
   xmlns="http://www.w3.org/2000/svg"
   xmlns:svg="http://www.w3.org/2000/svg">
  <sodipodi:namedview
     id="namedview8"
     pagecolor="#ffffff"
     bordercolor="#666666"
     borderopacity="1.0"
     inkscape:pageshadow="2"
     inkscape:pageopacity="0.0"
     inkscape:pagecheckerboard="0"
     showgrid="false"
     inkscape:zoom="0.47427675"
     inkscape:cx="2424.7446"
     inkscape:cy="2033.6228"
     inkscape:window-width="2880"
     inkscape:window-height="1711"
     inkscape:window-x="-9"
     inkscape:window-y="-9"
     inkscape:window-maximized="1"
     inkscape:current-layer="g18471"
     inkscape:showpageshadow="2"
     inkscape:deskcolor="#d1d1d1" />
  <defs
     id="defs2" />
  <image
     height="7017px"
     sodipodi:insensitive="true"
     width="4959px"
     x="0"
     xlink:href="endres_2006_probing_1377_p12.png"
     y="0"
     id="image4" />
  <g
     id="g6377">
    <path
       style="fill:none;stroke:#000000;stroke-width:1px;stroke-linecap:butt;stroke-linejoin:miter;stroke-opacity:1"
       d="m 2869.6325,2283.4769 c 107.5322,132.8338 107.5322,132.8338 107.5322,132.8338"
       id="path862" />
    <text
       xml:space="preserve"
       style="font-size:29.3333px;line-height:1.25;font-family:Arial;-inkscape-font-specification:Arial;letter-spacing:0px;word-spacing:0px"
       x="2977.1648"
       y="2416.3108"
       id="text2164"><tspan
         sodipodi:role="line"
         id="tspan2162"
         x="2977.1648"
         y="2416.3108">E2: 3.0 V vs Fc/Fc+</tspan></text>
  </g>
  <g
     id="g6372">
    <path
       style="fill:none;stroke:#000000;stroke-width:1px;stroke-linecap:butt;stroke-linejoin:miter;stroke-opacity:1"
       d="m 1305.1451,2283.4769 c -215.0643,124.3999 -215.0643,124.3999 -215.0643,124.3999"
       id="path4025" />
    <text
       xml:space="preserve"
       style="font-size:29.3333px;line-height:1.25;font-family:Arial;-inkscape-font-specification:Arial;letter-spacing:0px;word-spacing:0px"
       x="934.05377"
       y="2380.4666"
       id="text4887"><tspan
         sodipodi:role="line"
         id="tspan4885"
         x="934.05377"
         y="2380.4666">E1: -3.0 V vs Fc/Fc+</tspan></text>
  </g>
  <g
     id="g7714">
    <path
       style="fill:none;stroke:#000000;stroke-width:1px;stroke-linecap:butt;stroke-linejoin:miter;stroke-opacity:1"
       d="m 995.19952,1429.5451 c -371.09135,61.1457 -371.09135,61.1457 -371.09135,61.1457"
       id="path6412" />
    <path
       style="fill:none;stroke:#000000;stroke-width:1px;stroke-linecap:butt;stroke-linejoin:miter;stroke-opacity:1"
       d="m 995.19952,1570.8128 c -371.09135,-80.122 -371.09135,-80.122 -371.09135,-80.122"
       id="path6414" />
    <text
       xml:space="preserve"
       style="font-size:29.3333px;line-height:1.25;font-family:Arial;-inkscape-font-specification:Arial;letter-spacing:0px;word-spacing:0px"
       x="423.80319"
       y="1494.9078"
       id="text7232"><tspan
         sodipodi:role="line"
         id="tspan7230"
         x="423.80319"
         y="1494.9078">j_scale_bar: 1 mA</tspan></text>
  </g>
  <text
     xml:space="preserve"
     style="font-size:29.3333px;line-height:1.25;font-family:Arial;-inkscape-font-specification:Arial;letter-spacing:0px;word-spacing:0px"
     x="455.4303"
     y="702.1217"
     id="text8136"><tspan
       sodipodi:role="line"
       id="tspan8134"
       x="455.4303"
       y="702.1217">comment: j-axis offset not given. Basline estimate by curator.</tspan></text>
  <text
     xml:space="preserve"
     style="font-size:29.3333px;line-height:1.25;font-family:Arial;-inkscape-font-specification:Arial;letter-spacing:0px;word-spacing:0px"
     x="390.0676"
     y="980.44019"
     id="text10450"><tspan
       sodipodi:role="line"
       id="tspan10448"
       x="390.0676"
       y="980.44019">Figure: 11b</tspan></text>
  <g
     id="g18471"
     transform="translate(8.4338937,284.64393)">
    <text
       xml:space="preserve"
       style="font-size:29.3333px;line-height:1.25;font-family:Arial;-inkscape-font-specification:Arial;letter-spacing:0px;word-spacing:0px"
       x="1522.3179"
       y="942.48767"
       id="text11334"><tspan
         sodipodi:role="line"
         id="tspan11332"
         x="1522.3179"
         y="942.48767">curve: b</tspan></text>
    <path
       style="fill:none;stroke:#ff0000;stroke-width:1px;stroke-linecap:butt;stroke-linejoin:miter;stroke-opacity:1"
       d="m 2864.795,699.2396 c 0,0 -98.4148,291.21056 -161.1607,334.2633 -15.6682,10.7506 -59.7632,21.522 -101.5871,22.1084 -13.2404,0.1856 -21.8331,-1.5744 -50.1871,7.7709 -16.0458,5.2886 -102.8069,2.8449 -148.0373,4.4391 -46.0795,1.6241 -88.6773,0.3804 -130.0186,3.671 -19.045,1.5159 -104.126,3.3805 -109.6006,-0.1325 -3.8515,-2.4713 -12.7827,-1.7112 -28.4041,-0.831 -7.1417,0.4024 -93.5511,3.7239 -111.8811,5.1671 -30.086,2.3687 -55.4898,2.1452 -80.395,3.3383 -55.1313,2.6412 -100.5505,4.9556 -137.4799,6.2712 -62.677,2.2329 -105.9921,-0.01 -145.8927,-1.114 -12.196,-0.3379 -55.3306,0.083 -70.7158,4.0731 -11.3196,2.936 -17.426,2.9078 -22.4199,2.732 -23.6392,-0.8319 -43.1473,9.2213 -49.3095,16.7738 -6.0648,7.4331 -12.5683,6.3714 -20.3181,10.904 -23.1526,13.5409 -34.3656,39.7321 -41.9228,58.1571 -35.6768,86.9827 -85.3264,216.7941 -122.923,330.5683 -43.5201,131.7 -79.909,229.7152 -79.909,229.7152 0,0 7.9842,-10.6808 27.487,-78.0175 21.2573,-73.394 46.6527,-180.3793 73.3773,-274.9342 31.0537,-109.8715 62.4661,-203.6122 68.7647,-218.5928 15.3101,-36.4134 22.1772,-64.9804 46.8164,-78.2244 15.1334,-8.1346 44.4684,-7.1898 70.4788,-7.7697 15.299,-0.3411 67.9915,-0.5755 89.0306,-4.4156 63.0538,-11.5088 140.7932,-1.219 165.1636,-13.7497 12.8032,-6.5831 25.6486,-7.2209 36.9037,-6.736 14.6483,0.6312 40.7719,-6.6401 57.2542,-16.8275 24.6669,-15.2461 49.3731,-24.0257 66.6077,-4.8033 12.5854,14.037 31.7938,19.1073 46.2256,20.6166 18.945,1.9814 48.3737,6.6975 88.9417,8.5257 32.9541,1.485 74.2727,1.4219 115.1469,1.4306 44.2881,0.01 97.5363,-0.071 138.6772,-4.347 27.799,-2.8897 36.3421,-6.1475 55.2171,-1.9661 26.8087,5.939 48.141,-0.087 53.2294,-4.3098 19.9315,-16.542 29.7789,-11.4894 34.7753,-10.1903 27.5027,7.1509 55.389,0 74.8425,-12.9444 18.3334,-12.2018 21.7217,-20.3404 58.7436,-9.5431 12.968,3.782 69.6789,-17.1005 84.6473,-31.75941 43.9896,-43.08004 102.1607,-177.00719 139.2687,-257.98693 12.362,-26.97703 20.563,-31.33046 20.563,-31.33046 z"
       id="path13437"
       sodipodi:nodetypes="cssssssssssssssssscsssssssssssssssssssssc" />
  </g>
  <path
     style="fill:none;stroke:#000000;stroke-width:1px;stroke-linecap:butt;stroke-linejoin:miter;stroke-opacity:1"
     d="m 1138.1947,1351.4046 c 1863.8905,0 1863.8905,0 1863.8905,0"
     id="path877" />
  <g
     id="g1807"
     transform="translate(22.812179,268.70339)">
    <path
       style="fill:none;stroke:#000000;stroke-width:1px;stroke-linecap:butt;stroke-linejoin:miter;stroke-opacity:1"
       d="m 910.86059,1007.8504 c 204.52191,74.8508 204.52191,74.8508 204.52191,74.8508"
       id="path992" />
    <text
       xml:space="preserve"
       style="font-size:29.3333px;line-height:1.25;font-family:Arial;-inkscape-font-specification:Arial;letter-spacing:0px;word-spacing:0px"
       x="818.08777"
       y="1007.8504"
       id="text1546"><tspan
         sodipodi:role="line"
         id="tspan1544"
         x="818.08777"
         y="1007.8504">j1: 0.0 mA</tspan></text>
  </g>
  <text
     xml:space="preserve"
     style="font-size:29.3333px;line-height:1.25;font-family:Arial;-inkscape-font-specification:Arial;letter-spacing:0px;word-spacing:0px"
     x="776.33386"
     y="1815.3521"
     id="text1487"><tspan
       sodipodi:role="line"
       id="tspan1485"
       x="776.33386"
       y="1815.3521">scan rate: 10 mV / s</tspan></text>
  <g
     id="svg6-9"
     transform="translate(1626.6677,1099.6239)">
    <text
       xml:space="preserve"
       style="text-align:start;writing-mode:lr-tb;direction:ltr;text-anchor:start;fill:#0000aa;stroke-width:3.77953"
       x="1153.969"
       y="942.25891"
       id="text1"><tspan
         sodipodi:role="line"
         id="tspan1"
         x="1153.969"
         y="942.25891">tags: BCV</tspan></text>
  </g>
</svg>
