<?xml version="1.0" encoding="UTF-8" standalone="no"?>
<svg
   height="7017px"
   version="1.1"
   width="4959px"
   id="svg6"
   sodipodi:docname="endres_2006_probing_1377_f11_c_black.svg"
   inkscape:version="1.4.2 (f4327f4, 2025-05-13)"
   xmlns:inkscape="http://www.inkscape.org/namespaces/inkscape"
   xmlns:sodipodi="http://sodipodi.sourceforge.net/DTD/sodipodi-0.dtd"
   xmlns:xlink="http://www.w3.org/1999/xlink"
   xmlns="http://www.w3.org/2000/svg"
   xmlns:svg="http://www.w3.org/2000/svg">
  <sodipodi:namedview
     id="namedview8"
     pagecolor="#ffffff"
     bordercolor="#666666"
     borderopacity="1.0"
     inkscape:pageshadow="2"
     inkscape:pageopacity="0.0"
     inkscape:pagecheckerboard="0"
     showgrid="false"
     inkscape:zoom="0.67072861"
     inkscape:cx="1350.7699"
     inkscape:cy="920.64061"
     inkscape:window-width="1536"
     inkscape:window-height="953"
     inkscape:window-x="-8"
     inkscape:window-y="-8"
     inkscape:window-maximized="1"
     inkscape:current-layer="svg6"
     inkscape:showpageshadow="2"
     inkscape:deskcolor="#d1d1d1" />
  <defs
     id="defs2" />
  <image
     height="7017px"
     sodipodi:insensitive="true"
     width="4959px"
     x="0"
     xlink:href="endres_2006_probing_1377_p12.png"
     y="0"
     id="image4" />
  <g
     id="g6377">
    <path
       style="fill:none;stroke:#000000;stroke-width:1px;stroke-linecap:butt;stroke-linejoin:miter;stroke-opacity:1"
       d="m 2869.6325,2283.4769 c 107.5322,132.8338 107.5322,132.8338 107.5322,132.8338"
       id="path862" />
    <text
       xml:space="preserve"
       style="font-size:29.3333px;line-height:1.25;font-family:Arial;-inkscape-font-specification:Arial;letter-spacing:0px;word-spacing:0px"
       x="2977.1648"
       y="2416.3108"
       id="text2164"><tspan
         sodipodi:role="line"
         id="tspan2162"
         x="2977.1648"
         y="2416.3108">E2: 3.0 V vs Fc/Fc+</tspan></text>
  </g>
  <g
     id="g6372">
    <path
       style="fill:none;stroke:#000000;stroke-width:1px;stroke-linecap:butt;stroke-linejoin:miter;stroke-opacity:1"
       d="m 1305.1451,2283.4769 c -215.0643,124.3999 -215.0643,124.3999 -215.0643,124.3999"
       id="path4025" />
    <text
       xml:space="preserve"
       style="font-size:29.3333px;line-height:1.25;font-family:Arial;-inkscape-font-specification:Arial;letter-spacing:0px;word-spacing:0px"
       x="934.05377"
       y="2380.4666"
       id="text4887"><tspan
         sodipodi:role="line"
         id="tspan4885"
         x="934.05377"
         y="2380.4666">E1: -3.0 V vs Fc/Fc+</tspan></text>
  </g>
  <g
     id="g7714">
    <path
       style="fill:none;stroke:#000000;stroke-width:1px;stroke-linecap:butt;stroke-linejoin:miter;stroke-opacity:1"
       d="m 995.19952,1429.5451 c -371.09135,61.1457 -371.09135,61.1457 -371.09135,61.1457"
       id="path6412" />
    <path
       style="fill:none;stroke:#000000;stroke-width:1px;stroke-linecap:butt;stroke-linejoin:miter;stroke-opacity:1"
       d="m 995.19952,1570.8128 c -371.09135,-80.122 -371.09135,-80.122 -371.09135,-80.122"
       id="path6414" />
    <text
       xml:space="preserve"
       style="font-size:29.3333px;line-height:1.25;font-family:Arial;-inkscape-font-specification:Arial;letter-spacing:0px;word-spacing:0px"
       x="423.80319"
       y="1494.9078"
       id="text7232"><tspan
         sodipodi:role="line"
         id="tspan7230"
         x="423.80319"
         y="1494.9078">j_scale_bar: 1 mA</tspan></text>
  </g>
  <text
     xml:space="preserve"
     style="font-size:29.3333px;line-height:1.25;font-family:Arial;-inkscape-font-specification:Arial;letter-spacing:0px;word-spacing:0px"
     x="455.4303"
     y="702.1217"
     id="text8136"><tspan
       sodipodi:role="line"
       id="tspan8134"
       x="455.4303"
       y="702.1217">comments: j-axis offset not given, zero estimate by curator.</tspan></text>
  <text
     xml:space="preserve"
     style="font-size:29.3333px;line-height:1.25;font-family:Arial;-inkscape-font-specification:Arial;letter-spacing:0px;word-spacing:0px"
     x="390.0676"
     y="980.44019"
     id="text10450"><tspan
       sodipodi:role="line"
       id="tspan10448"
       x="390.0676"
       y="980.44019">Figure: 11c</tspan></text>
  <g
     id="g18471"
     transform="translate(210.84736,643.73557)">
    <text
       xml:space="preserve"
       style="font-size:29.3333px;line-height:1.25;font-family:Arial;-inkscape-font-specification:Arial;letter-spacing:0px;word-spacing:0px"
       x="1522.3179"
       y="942.48767"
       id="text11334"><tspan
         sodipodi:role="line"
         id="tspan11332"
         x="1522.3179"
         y="942.48767">curve: black</tspan></text>
    <path
       style="fill:none;stroke:#ff0000;stroke-width:1px;stroke-linecap:butt;stroke-linejoin:miter;stroke-opacity:1"
       d="m 2648.9849,761.85807 c 0,0 -6.2359,21.60933 -13.5025,63.97828 -2.4684,14.39212 -6.7042,29.531 -8.6303,49.25673 -0.5489,5.62216 -3.5541,6.95295 -2.8589,14.45585 1.6921,18.25917 -7.6393,9.52984 -5.5787,28.87668 1.9203,18.02921 -7.0326,11.02806 -6.1269,20.63301 0.8672,9.19659 -9.2305,22.492 -8.7162,33.17759 0.6325,13.14104 -5.6159,11.26161 -9.365,18.58217 -3.679,7.18396 -4.4819,19.85872 -4.0865,27.14732 0.352,6.4885 -9.6604,9.66 -10.0813,19.9891 -0.413,10.1392 -12.9931,17.3135 -27.433,22.0728 -16.0458,5.2886 -103.5417,6.5396 -148.7828,7.7937 -91.8908,2.5472 -175.3788,1.7239 -268.0233,0.4711 -105.5358,-1.4271 -215.6836,-1.5207 -311.4923,0.2402 -62.7062,1.1525 -110.1013,-0.089 -242.0568,1.4951 -89.4361,1.0735 -84.0662,8.3015 -119.7038,98.6037 -34.5124,87.4512 -42.2387,113.0193 -69.2501,196.0131 -34.5051,106.0188 -40.1661,108.0914 -49.718,132.8056 -7.3712,19.0721 -6.1556,-10.4079 -19.4768,-28.0718 -14.8832,-19.7351 -13.5135,-61.9744 -17.9413,-160.1336 -1.2012,-26.6288 -6.3353,-144.016 -21.7071,-195.1681 -11.0631,-36.8142 -22.637,-22.9574 -33.3007,-10.5157 -18.7134,21.8333 -58.6127,121.7131 -58.6127,121.7131 0,0 29.2215,-96.5175 63.4847,-142.8222 13.5281,-18.2825 82.2388,-17.9334 91.4881,-9.8237 6.1284,5.3732 14.0105,2.6736 18.4408,2.2439 12.5662,-1.2187 20.0248,10.23 24.1061,17.3195 11.251,19.5439 14.0871,21.08 32.8331,3.0394 11.199,-10.7775 17.6423,-25.2485 39.4577,-25.6611 72.9389,-1.3798 306.5732,1.0293 331.4007,-8.1588 8.7388,-3.234 12.9758,-1.2572 24.2309,-0.7723 14.6483,0.6312 57.9174,-20.0584 74.3997,-30.2458 24.6669,-15.2461 44.1549,-18.8075 56.1713,1.1604 9.721,16.1534 45.2121,19.8527 59.6439,21.362 18.945,1.9814 48.3737,4.8339 88.9417,6.6621 32.9541,1.485 74.2727,-0.4417 115.1469,-0.433 44.2881,0.01 83.2054,4.0027 97.3043,-0.247 12.6298,-3.807 22.3801,-1.4601 40.5735,-1.2681 15.5428,0.164 41.7578,-0.5115 50.4255,-2.5617 25.3178,-5.9883 63.3924,-4.8733 70.0022,-5.0552 20.4119,-0.5618 57.1292,10.1283 93.4807,-79.71913 55.412,-136.95764 84.9132,-208.4352 84.9132,-208.4352 z"
       id="path13437"
       sodipodi:nodetypes="cssssssssssssssssssssscssssssssssssssssssc" />
  </g>
  <path
     style="fill:none;stroke:#000000;stroke-width:1px;stroke-linecap:butt;stroke-linejoin:miter;stroke-opacity:1"
     d="m 1138.1947,1709.4046 c 1863.8905,0 1863.8905,0 1863.8905,0"
     id="path877" />
  <g
     id="g1807"
     transform="translate(22.812179,626.70339)">
    <path
       style="fill:none;stroke:#000000;stroke-width:1px;stroke-linecap:butt;stroke-linejoin:miter;stroke-opacity:1"
       d="m 910.86059,1007.8504 c 204.52191,74.8508 204.52191,74.8508 204.52191,74.8508"
       id="path992" />
    <text
       xml:space="preserve"
       style="font-size:29.3333px;line-height:1.25;font-family:Arial;-inkscape-font-specification:Arial;letter-spacing:0px;word-spacing:0px"
       x="818.08777"
       y="1007.8504"
       id="text1546"><tspan
         sodipodi:role="line"
         id="tspan1544"
         x="818.08777"
         y="1007.8504">j1: 0.0 mA</tspan></text>
  </g>
  <text
     xml:space="preserve"
     style="font-size:29.3333px;line-height:1.25;font-family:Arial;-inkscape-font-specification:Arial;letter-spacing:0px;word-spacing:0px"
     x="1090.7505"
     y="1301.632"
     id="text1487"><tspan
       sodipodi:role="line"
       id="tspan1485"
       x="1090.7505"
       y="1301.632">scan rate: 10 mV / s</tspan></text>
  <text
     xml:space="preserve"
     style="text-align:start;writing-mode:lr-tb;direction:ltr;text-anchor:start;fill:#0000aa;stroke-width:3.77953"
     x="1153.969"
     y="942.25891"
     id="text1"><tspan
       sodipodi:role="line"
       id="tspan1"
       x="1153.969"
       y="942.25891">tags: BCV</tspan></text>
</svg>
