<?xml version="1.0" encoding="UTF-8" standalone="no"?>
<svg
   height="6617px"
   version="1.1"
   width="4959px"
   id="svg1"
   sodipodi:docname="hara_2007_preparation_5733_f2a_solid.svg"
   inkscape:version="1.4.2 (f4327f4, 2025-05-13)"
   xmlns:inkscape="http://www.inkscape.org/namespaces/inkscape"
   xmlns:sodipodi="http://sodipodi.sourceforge.net/DTD/sodipodi-0.dtd"
   xmlns:xlink="http://www.w3.org/1999/xlink"
   xmlns="http://www.w3.org/2000/svg"
   xmlns:svg="http://www.w3.org/2000/svg">
  <sodipodi:namedview
     id="namedview1"
     pagecolor="#ffffff"
     bordercolor="#000000"
     borderopacity="0.25"
     inkscape:showpageshadow="2"
     inkscape:pageopacity="0.0"
     inkscape:pagecheckerboard="0"
     inkscape:deskcolor="#d1d1d1"
     inkscape:zoom="0.55782038"
     inkscape:cx="1034.3831"
     inkscape:cy="1320.3175"
     inkscape:window-width="2880"
     inkscape:window-height="1694"
     inkscape:window-x="-11"
     inkscape:window-y="-11"
     inkscape:window-maximized="1"
     inkscape:current-layer="g4" />
  <defs
     id="defs1" />
  <image
     height="6617"
     sodipodi:insensitive="true"
     width="4959"
     x="0"
     xlink:href="hara_2007_preparation_5733_p3.png"
     y="0"
     id="image1" />
  <text
     xml:space="preserve"
     style="font-size:42.6667px;line-height:0;font-family:sans-serif;-inkscape-font-specification:sans-serif;text-align:start;writing-mode:lr-tb;direction:ltr;text-anchor:start;fill:#000000;stroke:#000000;stroke-width:2"
     x="69.647919"
     y="760.28247"
     id="text8"><tspan
       sodipodi:role="line"
       id="tspan8"
       x="69.647919"
       y="760.28247"
       style="stroke:none">scan rate: 10 mV / s </tspan></text>
  <text
     xml:space="preserve"
     style="font-size:42.6667px;line-height:0;font-family:sans-serif;-inkscape-font-specification:sans-serif;text-align:start;writing-mode:lr-tb;direction:ltr;text-anchor:start;fill:#000000;stroke:none;stroke-width:2"
     x="144.59526"
     y="807.8681"
     id="text10"><tspan
       sodipodi:role="line"
       id="tspan10"
       x="144.59526"
       y="807.8681">figure: 2a</tspan></text>
  <text
     xml:space="preserve"
     style="font-size:42.6667px;line-height:0;font-family:sans-serif;-inkscape-font-specification:sans-serif;text-align:start;writing-mode:lr-tb;direction:ltr;text-anchor:start;fill:none;stroke:#000000;stroke-width:0.5;stroke-dasharray:none;stroke-opacity:1"
     x="140.33643"
     y="863.36884"
     id="text15"><tspan
       sodipodi:role="line"
       id="tspan15"
       x="140.33643"
       y="863.36884"
       style="fill:#000000;fill-opacity:1;stroke:#000000;stroke-opacity:1">tags: BCV</tspan></text>
  <g
     id="g4">
    <text
       xml:space="preserve"
       style="font-style:normal;font-variant:normal;font-weight:normal;font-stretch:normal;font-size:42.6667px;line-height:0;font-family:sans-serif;-inkscape-font-specification:sans-serif;text-align:start;writing-mode:lr-tb;direction:ltr;text-anchor:start;fill:#000000;stroke-width:2"
       x="385.30508"
       y="574.97748"
       id="text2"><tspan
         sodipodi:role="line"
         id="tspan2"
         x="385.30508"
         y="574.97748">j2: 100 uA / cm2</tspan></text>
    <path
       style="fill:none;stroke:#000000;stroke-width:0.5;stroke-opacity:1"
       d="m 689.51408,560.44027 57.14205,74.17263"
       id="path1" />
  </g>
  <g
     id="g5">
    <text
       xml:space="preserve"
       style="font-style:normal;font-variant:normal;font-weight:normal;font-stretch:normal;font-size:42.6667px;line-height:0;font-family:sans-serif;-inkscape-font-specification:sans-serif;text-align:start;writing-mode:lr-tb;direction:ltr;text-anchor:start;fill:#000000;stroke-width:2"
       x="349.67047"
       y="1523.0507"
       id="text1"><tspan
         id="tspan1"
         x="349.67047"
         y="1523.0507"
         sodipodi:role="line"
         style="font-size:42.6667px">j1: -0.2 uA / cm2</tspan></text>
    <path
       style="fill:none;stroke:#000000;stroke-width:0.5;stroke-opacity:1"
       d="m 672.7076,1509.4465 74.62079,86.4974"
       id="path2" />
  </g>
  <g
     id="g6">
    <text
       xml:space="preserve"
       style="font-style:normal;font-variant:normal;font-weight:normal;font-stretch:normal;font-size:42.6667px;line-height:0;font-family:sans-serif;-inkscape-font-specification:sans-serif;text-align:start;writing-mode:lr-tb;direction:ltr;text-anchor:start;fill:#000000;stroke-width:2"
       x="422.28375"
       y="1674.1208"
       id="text5"><tspan
         sodipodi:role="line"
         id="tspan5"
         x="422.28375"
         y="1674.1208">E1: 0.2 V vs RHE</tspan></text>
    <path
       style="fill:none;stroke:#000000;stroke-width:0.5;stroke-opacity:1"
       d="m 789.45665,1657.5676 75.06897,-62.7442"
       id="path3" />
  </g>
  <g
     id="g7">
    <text
       xml:space="preserve"
       style="font-style:normal;font-variant:normal;font-weight:normal;font-stretch:normal;font-size:42.6667px;line-height:0;font-family:sans-serif;-inkscape-font-specification:sans-serif;text-align:start;writing-mode:lr-tb;direction:ltr;text-anchor:start;fill:#000000;stroke-width:2"
       x="2136.3838"
       y="1665.1783"
       id="text6"><tspan
         sodipodi:role="line"
         id="tspan6"
         x="2136.3838"
         y="1665.1783">E2: 1.2 V vs RHE</tspan></text>
    <path
       style="fill:none;stroke:#000000;stroke-width:0.5;stroke-opacity:1"
       d="m 2140.0258,1648.6042 -92.3236,-54.0048"
       id="path4" />
  </g>
  <g
     id="g1">
    <text
       xml:space="preserve"
       style="font-size:42.6667px;line-height:0;font-family:sans-serif;-inkscape-font-specification:sans-serif;text-align:start;writing-mode:lr-tb;direction:ltr;text-anchor:start;fill:#000000;stroke:#000000;stroke-width:2"
       x="130.64174"
       y="711.58746"
       id="text7"><tspan
         sodipodi:role="line"
         id="tspan7"
         x="130.64174"
         y="711.58746"
         style="stroke:none">curve: solid</tspan></text>
    <path
       style="fill:none;stroke:#c14547;stroke-width:0.5;stroke-opacity:1"
       d="m 915.502,1046.7735 c -8.54555,-0.3357 -18.99776,32.7546 -23.18966,30.4102 -7.09816,-3.9697 2.37991,-149.24956 31.14802,-177.02833 27.05543,-26.12498 16.69988,-209.68043 27.81391,-209.86962 11.29313,-0.19224 -4.83128,202.83091 23.95007,240.56946 9.93164,13.02252 70.05276,18.00986 105.54476,15.68606 5.9689,-0.39081 11.3115,-5.6082 17.2546,-4.92991 4.7503,0.54215 7.8624,6.00042 12.5489,6.94669 2.3214,0.46871 8.7878,1.68291 10.0839,1.79269 2.2647,0.19181 489.4843,-0.2641 493.4384,-0.22409 41.1588,0.41646 95.2876,-6.0523 123.2475,-7.61894 106.0187,-5.94039 135.5696,-44.58557 147.0863,-54.24117 23.8764,-20.01792 31.6893,-197.45643 38.7742,-197.47824 12.1893,-0.0375 7.2903,198.45454 31.2793,223.26043 13.7359,14.2037 86.7166,8.79319 87.6178,11.42841 4.8155,14.08199 -42.962,24.32404 -68.1222,25.99403 -71.6358,4.75478 -254.657,4.6785 -347.7823,14.56562 -32.9199,3.49511 -103.3962,7.47363 -139.1577,28.68307 -25.779,15.28904 -32.5123,78.78694 -44.3691,78.20614 -14.6714,-0.7186 -13.1436,-112.13284 -82.0156,-114.73224 -2.4716,-0.0933 -259.8382,0.24436 -263.7498,0.44818 -9.6293,0.50175 -13.095,13.8704 -16.8065,14.56562 -2.639,0.49433 -7.25,-12.36777 -15.0138,-14.56562 -1.6193,-0.45841 -39.0977,0.49473 -40.7837,0.44817 -32.95412,-0.91001 -59.15224,11.14196 -71.62591,27.61081 -30.7424,40.58888 -22.89897,578.34548 -25.29481,578.38458 -2.50718,0.041 1.58868,-517.7828 -11.87658,-518.312 z"
       id="path7"
       sodipodi:nodetypes="sssssssssssssssssssssssssss" />
  </g>
</svg>
