<?xml version="1.0" encoding="UTF-8" standalone="no"?>
<svg
   height="6617px"
   version="1.1"
   width="4959px"
   id="svg1"
   sodipodi:docname="hara_2007_preparation_5733_f6c_solid.svg"
   inkscape:version="1.4 (86a8ad7, 2024-10-11)"
   xmlns:inkscape="http://www.inkscape.org/namespaces/inkscape"
   xmlns:sodipodi="http://sodipodi.sourceforge.net/DTD/sodipodi-0.dtd"
   xmlns:xlink="http://www.w3.org/1999/xlink"
   xmlns="http://www.w3.org/2000/svg"
   xmlns:svg="http://www.w3.org/2000/svg">
  <sodipodi:namedview
     id="namedview1"
     pagecolor="#ffffff"
     bordercolor="#000000"
     borderopacity="0.25"
     inkscape:showpageshadow="2"
     inkscape:pageopacity="0.0"
     inkscape:pagecheckerboard="0"
     inkscape:deskcolor="#d1d1d1"
     inkscape:zoom="0.55782037"
     inkscape:cx="897.24224"
     inkscape:cy="3408.8034"
     inkscape:window-width="2880"
     inkscape:window-height="1514"
     inkscape:window-x="2869"
     inkscape:window-y="-11"
     inkscape:window-maximized="1"
     inkscape:current-layer="svg1" />
  <defs
     id="defs1" />
  <image
     height="6617"
     sodipodi:insensitive="true"
     width="4959"
     x="0"
     xlink:href="hara_2007_preparation_5733_p8.png"
     y="0"
     id="image1" />
  <text
     xml:space="preserve"
     style="font-size:42.6667px;line-height:0;font-family:sans-serif;-inkscape-font-specification:sans-serif;text-align:start;writing-mode:lr-tb;direction:ltr;text-anchor:start;fill:#000000;stroke:#000000;stroke-width:2"
     x="76.708328"
     y="3498.1116"
     id="text8"><tspan
       sodipodi:role="line"
       id="tspan8"
       x="76.708328"
       y="3498.1116"
       style="stroke:none">scan rate: 10 mV / s </tspan></text>
  <text
     xml:space="preserve"
     style="font-size:42.6667px;line-height:0;font-family:sans-serif;-inkscape-font-specification:sans-serif;text-align:start;writing-mode:lr-tb;direction:ltr;text-anchor:start;fill:#000000;stroke:none;stroke-width:2"
     x="151.65567"
     y="3545.6973"
     id="text10"><tspan
       sodipodi:role="line"
       id="tspan10"
       x="151.65567"
       y="3545.6973">figure: 6c</tspan></text>
  <text
     xml:space="preserve"
     style="font-size:42.6667px;line-height:0;font-family:sans-serif;-inkscape-font-specification:sans-serif;text-align:start;writing-mode:lr-tb;direction:ltr;text-anchor:start;fill:none;stroke:#000000;stroke-width:0.5;stroke-dasharray:none;stroke-opacity:1"
     x="147.39684"
     y="3601.198"
     id="text15"><tspan
       sodipodi:role="line"
       id="tspan15"
       x="147.39684"
       y="3601.198"
       style="fill:#000000;fill-opacity:1;stroke:#000000;stroke-opacity:1">tags: BCV</tspan></text>
  <g
     id="g4"
     transform="translate(85.962704,2496.393)">
    <text
       xml:space="preserve"
       style="font-style:normal;font-variant:normal;font-weight:normal;font-stretch:normal;font-size:42.6667px;line-height:0;font-family:sans-serif;-inkscape-font-specification:sans-serif;text-align:start;writing-mode:lr-tb;direction:ltr;text-anchor:start;fill:#000000;stroke-width:2"
       x="385.30508"
       y="574.97748"
       id="text2"><tspan
         sodipodi:role="line"
         id="tspan2"
         x="385.30508"
         y="574.97748">j2: 40 uA / cm2</tspan></text>
    <path
       style="fill:none;stroke:#000000;stroke-width:0.5;stroke-opacity:1"
       d="m 689.51408,560.44027 57.14205,74.17263"
       id="path1" />
  </g>
  <g
     id="g6"
     transform="translate(85.35421,2574.4534)">
    <text
       xml:space="preserve"
       style="font-style:normal;font-variant:normal;font-weight:normal;font-stretch:normal;font-size:42.6667px;line-height:0;font-family:sans-serif;-inkscape-font-specification:sans-serif;text-align:start;writing-mode:lr-tb;direction:ltr;text-anchor:start;fill:#000000;stroke-width:2"
       x="422.28375"
       y="1674.1208"
       id="text5"><tspan
         sodipodi:role="line"
         id="tspan5"
         x="422.28375"
         y="1674.1208">E1: 0.2 V vs RHE</tspan></text>
    <path
       style="fill:none;stroke:#000000;stroke-width:0.5;stroke-opacity:1"
       d="m 789.45665,1657.5676 75.06897,-62.7442"
       id="path3" />
  </g>
  <g
     id="g1"
     transform="translate(85.32065,2458.1863)">
    <text
       xml:space="preserve"
       style="font-style:normal;font-variant:normal;font-weight:normal;font-stretch:normal;font-size:42.6667px;line-height:0;font-family:sans-serif;-inkscape-font-specification:sans-serif;text-align:start;writing-mode:lr-tb;direction:ltr;text-anchor:start;fill:#000000;stroke-width:2"
       x="349.67047"
       y="1523.0507"
       id="text1"><tspan
         id="tspan1"
         x="349.67047"
         y="1523.0507"
         sodipodi:role="line"
         style="font-size:42.6667px">j1: -40 uA / cm2</tspan></text>
    <path
       style="fill:none;stroke:#000000;stroke-width:0.5;stroke-opacity:1"
       d="m 672.7076,1509.4465 74.62079,86.4974"
       id="path2" />
  </g>
  <g
     id="g7"
     transform="translate(81.723024,2575.8297)">
    <text
       xml:space="preserve"
       style="font-style:normal;font-variant:normal;font-weight:normal;font-stretch:normal;font-size:42.6667px;line-height:0;font-family:sans-serif;-inkscape-font-specification:sans-serif;text-align:start;writing-mode:lr-tb;direction:ltr;text-anchor:start;fill:#000000;stroke-width:2"
       x="2136.3838"
       y="1665.1783"
       id="text6"><tspan
         sodipodi:role="line"
         id="tspan6"
         x="2136.3838"
         y="1665.1783">E2: 1.2 V vs RHE</tspan></text>
    <path
       style="fill:none;stroke:#000000;stroke-width:0.5;stroke-opacity:1"
       d="m 2140.0258,1648.6042 -92.3236,-54.0048"
       id="path4" />
  </g>
  <g
     id="g8">
    <text
       xml:space="preserve"
       style="font-size:42.6667px;line-height:0;font-family:sans-serif;-inkscape-font-specification:sans-serif;text-align:start;writing-mode:lr-tb;direction:ltr;text-anchor:start;fill:#000000;stroke:#000000;stroke-width:2"
       x="137.70215"
       y="3449.4167"
       id="text7"><tspan
         sodipodi:role="line"
         id="tspan7"
         x="137.70215"
         y="3449.4167"
         style="stroke:none">curve: solid</tspan></text>
    <path
       style="fill:none;stroke:#c14547;stroke-width:0.5"
       d="m 977.33851,3653.9277 c -2.53466,-18.4065 35.30899,-64.7063 72.25459,-70.987 60.1797,-10.2305 156.3396,1.1762 234.5105,1.5845 85.881,0.4486 176.2515,5.4194 257.6447,0.9508 15.1424,-0.8313 31.3489,-1.334 44.6838,-8.5565 10.839,-5.8707 13.8872,-22.9967 25.6694,-26.6201 8.3566,-2.5699 17.5711,8.6821 25.6694,5.3874 36.5456,-14.8681 44.7295,-308.0077 56.7262,-307.0821 10.7762,0.8315 10.6397,194.73 38.3456,240.5318 22.7204,37.5601 72.5946,47.9765 113.4524,46.5852 94.7667,-3.227 137.0996,-49.7233 191.0944,-83.9801 25.0784,-15.9109 87.3511,-16.4068 88.0999,-13.3101 3.7929,15.6853 -6.8078,120.6196 -71.3039,142.9247 -80.9007,27.9784 -207.2839,11.1254 -282.9971,45.0007 -75.3952,33.733 -77.9865,84.3306 -98.2409,140.3894 -18.8159,52.0775 -34.549,239.7539 -47.8529,237.9965 -19.528,-2.5796 -15.2622,-203.3655 -57.9938,-293.4551 -12.8622,-27.1169 -31.6238,-53.9619 -57.36,-69.4024 -10.9077,-6.5441 -32.3231,-4.9096 -37.3949,-7.6058 -20.5618,-10.9308 -63.9926,-35.2917 -75.4237,-37.078 -52.3189,-8.1758 -278.4226,-3.1795 -280.4619,-3.1691 -116.72214,0.5933 -138.46473,64.6668 -139.12179,59.8953 z"
       id="path5"
       sodipodi:nodetypes="ssssssssssssssssssssss" />
  </g>
</svg>
