<?xml version="1.0" encoding="UTF-8" standalone="no"?>
<svg
   height="7016px"
   version="1.1"
   width="4961px"
   id="svg2"
   sodipodi:docname="leduff_2017_role_12919_sf5a_black.svg"
   inkscape:version="1.4.3 (0d15f75, 2025-12-25)"
   xmlns:inkscape="http://www.inkscape.org/namespaces/inkscape"
   xmlns:sodipodi="http://sodipodi.sourceforge.net/DTD/sodipodi-0.dtd"
   xmlns:xlink="http://www.w3.org/1999/xlink"
   xmlns="http://www.w3.org/2000/svg"
   xmlns:svg="http://www.w3.org/2000/svg">
  <sodipodi:namedview
     id="namedview2"
     pagecolor="#ffffff"
     bordercolor="#000000"
     borderopacity="0.25"
     inkscape:showpageshadow="2"
     inkscape:pageopacity="0.0"
     inkscape:pagecheckerboard="0"
     inkscape:deskcolor="#d1d1d1"
     inkscape:zoom="0.3088049"
     inkscape:cx="2265.1843"
     inkscape:cy="1534.9497"
     inkscape:window-width="1728"
     inkscape:window-height="1010"
     inkscape:window-x="-6"
     inkscape:window-y="-6"
     inkscape:window-maximized="1"
     inkscape:current-layer="digitization-layer" />
  <defs
     id="defs1" />
  <g
     class="layer"
     id="image-layer"
     inkscape:groupmode="layer"
     sodipodi:insensitive="1">
    <title
       id="title1">image-layer</title>
    <image
       height="7016"
       width="4961"
       x="0"
       xlink:href="leduff_2017_role_12919_SI_p8.png"
       y="0"
       id="image1" />
  </g>
  <g
     class="layer"
     id="digitization-layer"
     inkscape:groupmode="layer">
    <title
       id="title2">digitization-layer</title>
    <g
       id="g11"
       transform="translate(510.74823,405.21232)"
       inkscape:label="E1">
      <text
         xml:space="preserve"
         style="font-style:normal;font-variant:normal;font-weight:normal;font-stretch:normal;font-size:42.6667px;line-height:0;font-family:sans-serif;-inkscape-font-specification:sans-serif;text-align:start;writing-mode:lr-tb;direction:ltr;text-anchor:start;fill:#000000;stroke-width:2"
         x="319.00269"
         y="2013.4805"
         id="text5"><tspan
           sodipodi:role="line"
           id="tspan5"
           x="319.00269"
           y="2013.4805">E1: -0.4 V vs RHE</tspan></text>
      <path
         style="fill:#000000;fill-opacity:1;stroke:#000000;stroke-width:2;stroke-opacity:1"
         d="m 597.45799,1899.0069 88.03937,98.1202"
         id="path9" />
    </g>
    <g
       id="g3"
       inkscape:label="E2"
       transform="translate(1375.9985,333.62413)">
      <text
         xml:space="preserve"
         style="font-style:normal;font-variant:normal;font-weight:normal;font-stretch:normal;font-size:42.6667px;line-height:0;font-family:sans-serif;-inkscape-font-specification:sans-serif;text-align:start;writing-mode:lr-tb;direction:ltr;text-anchor:start;fill:#000000;stroke-width:2"
         x="1138.9113"
         y="2009.0001"
         id="text6"
         transform="translate(210.83616,70.27872)"><tspan
           sodipodi:role="line"
           id="tspan6"
           x="1138.9113"
           y="2009.0001">E2: 0.4 V vs RHE</tspan></text>
      <path
         style="fill:#000000;fill-opacity:1;stroke:#000000;stroke-width:2;stroke-opacity:1"
         d="m 1143.0517,1993.3707 75.7177,-93.9343"
         id="path10"
         transform="translate(210.83616,70.27872)" />
    </g>
    <g
       id="g2"
       transform="translate(569.08144,306.19118)"
       inkscape:label="j1"
       inkscape:transform-center-x="-64.227653"
       inkscape:transform-center-y="-18.860682">
      <text
         xml:space="preserve"
         style="font-style:normal;font-variant:normal;font-weight:normal;font-stretch:normal;font-size:42.6667px;line-height:0;font-family:sans-serif;-inkscape-font-specification:sans-serif;text-align:start;writing-mode:lr-tb;direction:ltr;text-anchor:start;fill:#000000;stroke-width:2"
         x="101.67587"
         y="1842.6377"
         id="text1"><tspan
           id="tspan1"
           x="101.67587"
           y="1842.6377"
           sodipodi:role="line"
           style="font-size:42.6667px">j1: -60 uA / cm2</tspan></text>
      <path
         style="fill:#000000;fill-opacity:1;stroke:#000000;stroke-width:2;stroke-opacity:1"
         d="m 429.59483,1832.7478 105.81465,54.4914"
         id="path8" />
    </g>
    <g
       id="g14"
       transform="translate(582.47081,258.37498)"
       inkscape:label="j2">
      <text
         xml:space="preserve"
         style="font-style:normal;font-variant:normal;font-weight:normal;font-stretch:normal;font-size:42.6667px;line-height:0;font-family:sans-serif;-inkscape-font-specification:sans-serif;text-align:start;writing-mode:lr-tb;direction:ltr;text-anchor:start;fill:#000000;stroke-width:2"
         x="187.69908"
         y="521.82312"
         id="text2"
         transform="translate(-49.986726,53.2753)"><tspan
           sodipodi:role="line"
           id="tspan2"
           x="187.69908"
           y="521.82312">j2: 60 uA / cm2</tspan></text>
      <path
         style="fill:#000000;fill-opacity:1;stroke:#000000;stroke-width:2.19273;stroke-opacity:1"
         d="m 495.16181,510.82767 76.81582,54.50038"
         id="path7"
         sodipodi:nodetypes="cc"
         transform="translate(-49.986726,53.2753)" />
    </g>
    <text
       xml:space="preserve"
       style="font-size:42.6667px;line-height:0;font-family:sans-serif;-inkscape-font-specification:sans-serif;text-align:start;writing-mode:lr-tb;direction:ltr;text-anchor:start;fill:#000000;stroke:#000000;stroke-width:2"
       x="394.0625"
       y="1312.3048"
       id="text8"
       inkscape:label="scan rate"><tspan
         sodipodi:role="line"
         id="tspan8"
         x="394.0625"
         y="1312.3048"
         style="stroke:none">scan rate: 10 mV / s </tspan></text>
    <text
       xml:space="preserve"
       style="font-size:42.6667px;line-height:0;font-family:sans-serif;-inkscape-font-specification:sans-serif;text-align:start;writing-mode:lr-tb;direction:ltr;text-anchor:start;fill:#000000;stroke:none;stroke-width:2"
       x="490.69141"
       y="1388.5497"
       id="text10"
       inkscape:label="figure"><tspan
         sodipodi:role="line"
         id="tspan10"
         x="490.69141"
         y="1388.5497">figure: s5a</tspan></text>
    <text
       xml:space="preserve"
       style="font-size:42.6667px;line-height:0;font-family:sans-serif;-inkscape-font-specification:sans-serif;text-align:start;writing-mode:lr-tb;direction:ltr;text-anchor:start;fill:none;stroke:#000000;stroke-width:0.5;stroke-dasharray:none;stroke-opacity:1"
       x="481.97168"
       y="1447.0704"
       id="text15"
       inkscape:label="tags"><tspan
         sodipodi:role="line"
         id="tspan15"
         x="481.97168"
         y="1447.0704"
         style="fill:#000000;fill-opacity:1;stroke:#000000;stroke-opacity:1">tags: BCV</tspan></text>
    <g
       id="g4">
      <text
         xml:space="preserve"
         style="font-size:42.6667px;line-height:0;font-family:sans-serif;-inkscape-font-specification:sans-serif;text-align:start;writing-mode:lr-tb;direction:ltr;text-anchor:start;fill:#000000;stroke:#000000;stroke-width:2"
         x="465.2124"
         y="1235.0165"
         id="text7"
         inkscape:label="curve"><tspan
           sodipodi:role="line"
           id="tspan7"
           x="465.2124"
           y="1235.0165"
           style="stroke:none">curve: black</tspan></text>
      <path
         style="fill:none;stroke:#ef053d"
         d="m 2947.654,1520.3774 c 0,0 4.038,-439.2919 -0.8096,-439.5979 -10.9642,-0.6921 -4.7643,206.582 -52.6222,204.0123 -22.3702,-1.2012 -29.3259,-61.4753 -47.7648,-60.718 -16.8444,0.6918 -34.291,67.1741 -55.8605,97.9583 -41.824,59.6916 -82.5764,63.1467 -82.5764,63.1467 -3.222,9.3577 -3.8102,22.9274 -12.9532,26.7159 -67.8577,28.1173 -198.6102,50.4514 -287.803,50.5982 -156.7637,0.2581 -484.8375,-7.4392 -486.958,-7.6909 -73.6065,-8.7359 -126.7002,-14.0519 -165.9624,-57.4796 -37.3082,-41.2664 -52.8649,-110.0098 -69.6232,-168.3911 -16.8605,-58.7373 -41.0112,-173.0602 -64.7658,-172.439 -19.1763,0.5015 -42.1561,116.3946 -51.8127,194.2974 -4.2669,34.4226 -32.9239,165.8364 -74.4807,218.5847 -38.6999,49.122 -128.2918,50.8269 -131.1507,59.9083 -2.6345,8.3685 -11.5061,54.3254 -6.0718,54.2414 146.0406,-2.2586 143.6022,32.4116 169.6054,138.4369 29.2498,119.2628 35.2305,360.0942 59.9084,359.4503 26.2364,-0.6846 56.9855,-217.9903 90.6722,-325.4482 42.1489,-134.4517 126.2302,-143.8028 213.7271,-159.4858 27.3386,-4.9002 137.7294,-14.4374 188.8216,-20.9898 14.4113,-1.8482 26.9287,-10.0573 28.5486,-10.1788 127.5545,-9.5721 360.9394,-3.7594 407.6199,-0.4048 57.795,4.1534 144.6022,26.8418 164.3433,52.6223 2.2867,2.9863 2.2657,18.827 6.0717,20.2393 33.4604,12.4157 63.9694,42.7297 82.1717,76.0998 15.756,28.8853 33.8905,99.793 50.1934,99.9822 16.7266,0.1942 40.3121,-95.0887 59.0989,-94.3152 25.3136,1.0422 31.7909,105.2913 45.3361,106.054 17.1872,0.9678 21.8584,-134.389 21.8584,-134.389"
         id="path2"
         sodipodi:nodetypes="cssssssssssssssssssssssssssssc" />
    </g>
    <text
       xml:space="preserve"
       style="font-size:37.3333px;writing-mode:lr-tb;direction:ltr;fill:#000000;fill-opacity:1;stroke:none"
       x="340.02051"
       y="971.48718"
       id="text4"><tspan
         sodipodi:role="line"
         id="tspan4"
         x="340.02051"
         y="971.48718">comment: no data at 0.47 V vs RHE</tspan></text>
  </g>
</svg>
