<?xml version="1.0" encoding="UTF-8" standalone="no"?>
<svg
   height="6615px"
   version="1.1"
   width="4961px"
   id="svg1"
   sodipodi:docname="atkin_2014_structure_44_p4_f2a_black.svg"
   inkscape:version="1.3 (0e150ed6c4, 2023-07-21)"
   xmlns:inkscape="http://www.inkscape.org/namespaces/inkscape"
   xmlns:sodipodi="http://sodipodi.sourceforge.net/DTD/sodipodi-0.dtd"
   xmlns:xlink="http://www.w3.org/1999/xlink"
   xmlns="http://www.w3.org/2000/svg"
   xmlns:svg="http://www.w3.org/2000/svg">
  <sodipodi:namedview
     id="namedview1"
     pagecolor="#ffffff"
     bordercolor="#666666"
     borderopacity="1.0"
     inkscape:showpageshadow="2"
     inkscape:pageopacity="0.0"
     inkscape:pagecheckerboard="0"
     inkscape:deskcolor="#d1d1d1"
     inkscape:zoom="0.33992435"
     inkscape:cx="2326.9883"
     inkscape:cy="1154.6687"
     inkscape:window-width="1920"
     inkscape:window-height="1009"
     inkscape:window-x="-8"
     inkscape:window-y="417"
     inkscape:window-maximized="1"
     inkscape:current-layer="svg1" />
  <defs
     id="defs1" />
  <image
     height="6615px"
     sodipodi:insensitive="true"
     width="4961px"
     x="0"
     xlink:href="atkin_2014_structure_44_p4.png"
     y="0"
     id="image1" />
  <g
     id="g1">
    <path
       style="fill:none;stroke:#ff0000;stroke-width:1px;stroke-linecap:butt;stroke-linejoin:miter;stroke-opacity:1"
       d="m 2240.3632,1057.5344 c 0,0 1.2062,5.3887 4.1697,14.5738 2.6977,8.361 -1.1708,21.0955 -2.6988,30.1502 -7.8321,46.4132 -32.7153,93.6203 -101.3199,98.0105 -35.3538,2.2624 -63.965,6.6394 -104.0095,21.842 -30.4899,11.5753 -33.9366,4.5426 -76.2729,-2.511 -10.0478,-1.6741 -15.316,-5.152 -31.1268,-1.5555 -11.9615,2.7208 -22.5942,-0.9185 -34.4819,-1.3595 -30.6414,-1.1366 -76.6721,-3.8041 -92.3945,-2.1793 -55.2369,5.7081 -68.0348,16.291 -95.4338,52.3293 -32.6039,42.8843 -49.7585,80.4415 -68.9401,71.031 -7.8372,-3.845 -23.5735,5.9819 -30.2257,15.4122 -12.3128,17.4549 -16.7738,27.7942 -18.6064,51.0061 -1.3082,16.5707 -2.4867,39.0745 -12.84,57.0054 -6.1699,10.6856 -11.3695,32.2265 -18.3106,53.5925 -23.5539,72.5041 -39.3423,55.6856 -76.1684,7.5637 -19.5451,-25.5403 -33.178,-55.0597 -63.0149,-67.3538 -6.2599,-2.5794 -12.6649,-9.98 -17.9874,-10.4983 -8.6953,-0.8467 -10.0255,-14.0335 -11.3768,-24.2556 -1.3633,-10.3134 -1.5045,-23.7373 -14.3502,-24.8891 -12.1892,-1.0928 -31.8971,-8.5207 -42.6134,-12.1235 -16.7727,-5.6389 -34.6142,-4.3243 -52.3094,-4.2866 -7.9815,0.017 -26.1285,1.7756 -26.1285,1.7756 0,0 -5.0592,-26.9394 0.3677,-38.1789 13.0899,-27.1101 34.8253,-37.1307 69.6232,-54.3264 74.0587,-36.5969 77.0146,-43.1767 124.9375,-40.2591 28.3163,1.7239 59.2155,-15.2253 82.1675,-34.26 39.5826,-32.8268 54.4378,-47.7607 141.4528,-57.2052 45.2351,-4.9098 90.7333,4.719 135.2123,-18.7217 28.3268,-14.9284 53.7182,-6.302 80.0872,-2.0802 18.1371,2.9038 39.3327,3.8105 55.5036,1.7756 17.9347,-2.2569 19.6845,-2.8106 33.9445,0.3046 12.5323,2.7378 33.4484,0.5807 41.0576,-2.5741 11.7331,-4.8646 11.4778,-5.2952 21.2742,-1.6494 10.6966,3.9809 73.6184,4.413 123.8451,-26.9793 11.3582,-7.099 24.8132,-13.176 39.3469,-26.2452 24.2272,-21.786 37.6201,-22.8808 37.6201,-22.8808 z"
       id="path1"
       sodipodi:nodetypes="cssssssssssssssssssssscsssssssssssssc" />
    <text
       xml:space="preserve"
       style="font-size:21.3333px;line-height:1.25;font-family:Arial;-inkscape-font-specification:Arial;letter-spacing:0px;word-spacing:0px"
       x="1838.6444"
       y="1490.0374"
       id="text1"><tspan
         sodipodi:role="line"
         id="tspan1"
         x="1838.6444"
         y="1490.0374">curve: black</tspan></text>
  </g>
  <text
     xml:space="preserve"
     style="font-size:21.3333px;line-height:1.25;font-family:Arial;-inkscape-font-specification:Arial;letter-spacing:0px;word-spacing:0px"
     x="1103.1866"
     y="778.11432"
     id="text2"><tspan
       sodipodi:role="line"
       id="tspan2"
       x="1103.1866"
       y="778.11432">figure: 2a</tspan></text>
  <text
     xml:space="preserve"
     style="font-size:21.3333px;line-height:1.25;font-family:Arial;-inkscape-font-specification:Arial;letter-spacing:0px;word-spacing:0px"
     x="1119.3667"
     y="884.0202"
     id="text3"><tspan
       sodipodi:role="line"
       id="tspan3"
       x="1119.3667"
       y="884.0202">tags: BCV</tspan></text>
  <g
     id="g6">
    <path
       style="fill:none;stroke:#000000;stroke-width:1px;stroke-linecap:butt;stroke-linejoin:miter;stroke-opacity:1"
       d="m 1107.7005,1882.5707 c -124.81135,153.934 -124.81135,153.934 -124.81135,153.934"
       id="path3" />
    <text
       xml:space="preserve"
       style="font-size:21.3333px;line-height:1.25;font-family:Arial;-inkscape-font-specification:Arial;letter-spacing:0px;word-spacing:0px"
       x="984.96936"
       y="2086.4292"
       id="text4"><tspan
         sodipodi:role="line"
         id="tspan4"
         x="984.96936"
         y="2086.4292">E1: -3.0 V vs. Pt</tspan></text>
  </g>
  <g
     id="g5">
    <path
       style="fill:none;stroke:#000000;stroke-width:1px;stroke-linecap:butt;stroke-linejoin:miter;stroke-opacity:1"
       d="m 2247.6439,1882.4092 c 50.9646,158.0944 50.9646,158.0944 50.9646,158.0944"
       id="path4" />
    <text
       xml:space="preserve"
       style="font-size:21.3333px;line-height:1.25;font-family:Arial;-inkscape-font-specification:Arial;letter-spacing:0px;word-spacing:0px"
       x="2280.927"
       y="2067.7075"
       id="text5"><tspan
         sodipodi:role="line"
         id="tspan5"
         x="2280.927"
         y="2067.7075">E2: 1.0 V vs. Pt</tspan></text>
  </g>
  <text
     xml:space="preserve"
     style="font-size:21.3333px;line-height:1.25;font-family:Arial;-inkscape-font-specification:Arial;letter-spacing:0px;word-spacing:0px"
     x="1920.0142"
     y="1630.8679"
     id="text6"><tspan
       sodipodi:role="line"
       id="tspan6"
       x="1920.0142"
       y="1630.8679">scan rate: 10 mV / s</tspan></text>
  <g
     id="g2">
    <text
       xml:space="preserve"
       style="font-size:43.0746px;line-height:1.25;font-family:sans-serif;word-spacing:0px;stroke-width:1"
       x="2665.2749"
       y="1576.8457"
       id="text30246"
       transform="scale(0.9272067,1.0785082)"><tspan
         sodipodi:role="line"
         id="tspan30244"
         x="2665.2749"
         y="1576.8457"
         style="stroke-width:1">j_scale_bar: 5 uA / cm2</tspan></text>
    <path
       style="fill:none;stroke:#000000;stroke-width:1px;stroke-linecap:butt;stroke-linejoin:miter;stroke-opacity:1"
       d="m 2326.3724,1622.069 144.8883,78.572"
       id="path37631"
       sodipodi:nodetypes="cc"
       inkscape:connector-curvature="0" />
    <path
       style="fill:none;stroke:#000000;stroke-width:1px;stroke-linecap:butt;stroke-linejoin:miter;stroke-opacity:1"
       d="M 2326.3724,1816.2216 2471.2607,1700.641"
       id="path37633"
       sodipodi:nodetypes="cc"
       inkscape:connector-curvature="0" />
  </g>
  <g
     id="g7"
     transform="matrix(0.99847687,0,0,1.1614082,427.16013,347.83637)"
     style="stroke-width:0.928621">
    <path
       style="fill:none;stroke:#000000;stroke-width:0.928621px;stroke-linecap:butt;stroke-linejoin:miter;stroke-opacity:1"
       d="m 1826.9068,720.97918 c 160.9397,0 160.9397,0 160.9397,0"
       id="path6" />
    <text
       xml:space="preserve"
       style="font-size:19.8106px;line-height:1.25;font-family:Arial;-inkscape-font-specification:Arial;letter-spacing:0px;word-spacing:0px;stroke-width:0.862337"
       x="1843.6274"
       y="777.58197"
       id="text7"
       transform="scale(1.0785082,0.92720668)"><tspan
         sodipodi:role="line"
         id="tspan7"
         style="stroke-width:0.862337"
         x="1843.6274"
         y="777.58197">j1: 0 uA / cm2</tspan></text>
  </g>
</svg>
