<?xml version="1.0" encoding="UTF-8" standalone="no"?>
<svg
   height="6615px"
   version="1.1"
   width="4961px"
   id="svg1"
   sodipodi:docname="atkin_2014_structure_44_p4_f2b_black.svg"
   inkscape:version="1.3 (0e150ed6c4, 2023-07-21)"
   xmlns:inkscape="http://www.inkscape.org/namespaces/inkscape"
   xmlns:sodipodi="http://sodipodi.sourceforge.net/DTD/sodipodi-0.dtd"
   xmlns:xlink="http://www.w3.org/1999/xlink"
   xmlns="http://www.w3.org/2000/svg"
   xmlns:svg="http://www.w3.org/2000/svg">
  <sodipodi:namedview
     id="namedview1"
     pagecolor="#ffffff"
     bordercolor="#666666"
     borderopacity="1.0"
     inkscape:showpageshadow="2"
     inkscape:pageopacity="0.0"
     inkscape:pagecheckerboard="0"
     inkscape:deskcolor="#d1d1d1"
     inkscape:zoom="0.33992435"
     inkscape:cx="3228.6596"
     inkscape:cy="1372.3642"
     inkscape:window-width="1920"
     inkscape:window-height="1009"
     inkscape:window-x="-8"
     inkscape:window-y="417"
     inkscape:window-maximized="1"
     inkscape:current-layer="svg1" />
  <defs
     id="defs1" />
  <image
     height="6615px"
     sodipodi:insensitive="true"
     width="4961px"
     x="0"
     xlink:href="atkin_2014_structure_44_p4.png"
     y="0"
     id="image1" />
  <g
     id="g2"
     transform="translate(1498.107,1.8477202)">
    <path
       style="fill:none;stroke:#ff0000;stroke-width:1px;stroke-linecap:butt;stroke-linejoin:miter;stroke-opacity:1"
       d="m 2242.7034,1081.7166 c 0,0 6.6369,1.873 5.4699,11.4535 -7.7755,63.8296 -43.047,80.9807 -106.879,92.2775 -51.4661,9.1083 -123.7808,27.8479 -214.6055,41.953 -22.8658,3.5511 -37.1902,-3.2324 -68.0351,-9.5147 -11.8541,-2.4143 -20.3915,-5.9018 -36.3484,-5.7982 -18.4957,0.1201 -43.5928,10.6749 -74.9468,17.3038 -34.2576,7.2428 -39.0975,15.1756 -67.9,59.0699 -4.7892,7.2986 -13.6927,14.5627 -22.9451,14.8922 -21.3471,0.7602 -45.3319,89.4872 -52.4464,111.6578 -7.5596,23.5576 -16.758,32.0031 -37.2452,2.8468 -7.4339,-10.5795 -13.5135,-19.0756 -18.0917,-29.2798 -8.4318,-18.7935 -30.8217,-14.2899 -36.2783,21.9596 -3.6955,24.5495 -10.2802,64.8559 -14.2329,114.8083 -2.2234,28.0973 -6.1973,54.9179 -10.8325,96.8805 -4.8332,43.7548 -10.1661,57.8903 -22.3135,1.5194 -6.6269,-30.7523 -23.5365,-88.5187 -50.5981,-114.7187 -41.3068,-39.9918 -91.9495,-54.7156 -133.109,-4.3684 -24.8139,30.3529 -44.7086,10.5849 -57.4163,3.4148 -15.3266,-8.6478 -24.1303,-15.4423 -33.705,-21.9467 -6.6757,-4.535 -13.392,-2.9849 -20.8569,1.7034 -5.6129,3.5251 -12.4481,8.9843 -15.566,14.0767 -27.3589,44.6839 -32.2952,171.1739 -32.2952,171.1739 0,0 8.5864,-169.4611 47.4766,-234.7567 5.798,-9.7347 37.8008,-72.1947 45.6795,-68.2375 4.474,2.2472 15.0202,-15.4703 31.8822,-32.8372 17.9029,-18.439 55.3823,-65.5961 110.1391,-78.1087 35.6085,-8.137 55.9,-11.5726 76.9859,-15.7563 36.7517,-7.2921 43.5061,-26.6373 49.1171,-56.4369 16.755,-88.9857 17.4425,-76.6523 43.4316,-45.2395 8.7321,10.5543 7.3181,9.8215 36.4591,11.0539 20.2965,0.8583 53.9607,15.3691 90.6217,-3.1533 6.2024,-3.1336 13.7374,-14.5193 25.7798,-19.548 11.9881,-5.006 20.2731,-11.6382 27.8924,-29.7627 17.273,-41.088 23.9537,-119.14017 26.909,-144.94532 3.689,-32.21166 15.2317,-172.48358 41.7822,-104.81883 17.4032,44.35272 20.1444,59.57986 45.2288,90.68837 10.1183,12.54823 26.7511,34.40725 30.8601,45.98238 6.0872,17.1474 23.651,32.5147 29.7068,36.0065 28.3447,16.3438 41.0384,11.3028 59.736,10.4532 33.2429,-1.5104 26.0534,12.1258 61.5422,23.5851 17.3336,5.597 35.4667,14.9528 54.4891,20.4207 24.0735,6.9199 46.8433,1.7489 59.5879,8.3852 12.7047,6.6156 48.9926,6.1491 68.228,2.6806 27.0875,-4.8845 57.6419,-7.0194 57.6419,-7.0194 z"
       id="path1"
       sodipodi:nodetypes="cssssssssssssssssssssscssssssssssssssssssssscc" />
    <text
       xml:space="preserve"
       style="font-size:21.3333px;line-height:1.25;font-family:Arial;-inkscape-font-specification:Arial;letter-spacing:0px;word-spacing:0px"
       x="1838.6444"
       y="1490.0374"
       id="text1"><tspan
         sodipodi:role="line"
         id="tspan1"
         x="1838.6444"
         y="1490.0374">curve: black</tspan></text>
  </g>
  <text
     xml:space="preserve"
     style="font-size:21.3333px;line-height:1.25;font-family:Arial;-inkscape-font-specification:Arial;letter-spacing:0px;word-spacing:0px"
     x="2601.2935"
     y="779.96204"
     id="text2"><tspan
       sodipodi:role="line"
       id="tspan2"
       x="2601.2935"
       y="779.96204">figure: 2b</tspan></text>
  <text
     xml:space="preserve"
     style="font-size:21.3333px;line-height:1.25;font-family:Arial;-inkscape-font-specification:Arial;letter-spacing:0px;word-spacing:0px"
     x="2617.4736"
     y="885.86792"
     id="text3"><tspan
       sodipodi:role="line"
       id="tspan3"
       x="2617.4736"
       y="885.86792">tags: BCV</tspan></text>
  <g
     id="g6"
     transform="translate(1498.107,1.8477202)">
    <path
       style="fill:none;stroke:#000000;stroke-width:1px;stroke-linecap:butt;stroke-linejoin:miter;stroke-opacity:1"
       d="m 1114.6852,1882.5707 c -131.7939,153.934 -131.7939,153.934 -131.7939,153.934"
       id="path3" />
    <text
       xml:space="preserve"
       style="font-size:21.3333px;line-height:1.25;font-family:Arial;-inkscape-font-specification:Arial;letter-spacing:0px;word-spacing:0px"
       x="984.96936"
       y="2086.4292"
       id="text4"><tspan
         sodipodi:role="line"
         id="tspan4"
         x="984.96936"
         y="2086.4292">E1: -3.0 V vs. Pt</tspan></text>
  </g>
  <g
     id="g5"
     transform="translate(1498.107,1.8477202)">
    <path
       style="fill:none;stroke:#000000;stroke-width:1px;stroke-linecap:butt;stroke-linejoin:miter;stroke-opacity:1"
       d="m 2247.6439,1882.4092 c 50.9646,158.0944 50.9646,158.0944 50.9646,158.0944"
       id="path4" />
    <text
       xml:space="preserve"
       style="font-size:21.3333px;line-height:1.25;font-family:Arial;-inkscape-font-specification:Arial;letter-spacing:0px;word-spacing:0px"
       x="2280.927"
       y="2067.7075"
       id="text5"><tspan
         sodipodi:role="line"
         id="tspan5"
         x="2280.927"
         y="2067.7075">E2: 1.0 V vs. Pt</tspan></text>
  </g>
  <text
     xml:space="preserve"
     style="font-size:21.3333px;line-height:1.25;font-family:Arial;-inkscape-font-specification:Arial;letter-spacing:0px;word-spacing:0px"
     x="3418.1211"
     y="1632.7156"
     id="text6"><tspan
       sodipodi:role="line"
       id="tspan6"
       x="3418.1211"
       y="1632.7156">scan rate: 10 mV / s</tspan></text>
  <g
     id="g1">
    <text
       xml:space="preserve"
       style="font-size:43.0746px;line-height:1.25;font-family:sans-serif;word-spacing:0px;stroke-width:1"
       x="4244.5083"
       y="1576.8541"
       id="text30246"
       transform="scale(0.9272067,1.0785082)"><tspan
         sodipodi:role="line"
         id="tspan30244"
         x="4244.5083"
         y="1576.8541"
         style="stroke-width:1">j_scale_bar: 5 uA / cm2</tspan></text>
    <path
       style="fill:none;stroke:#000000;stroke-width:1px;stroke-linecap:butt;stroke-linejoin:miter;stroke-opacity:1"
       d="m 3790.6482,1622.0781 144.8884,78.572"
       id="path37631"
       sodipodi:nodetypes="cc"
       inkscape:connector-curvature="0" />
    <path
       style="fill:none;stroke:#000000;stroke-width:1px;stroke-linecap:butt;stroke-linejoin:miter;stroke-opacity:1"
       d="m 3790.6482,1816.2307 144.8884,-115.5806"
       id="path37633"
       sodipodi:nodetypes="cc"
       inkscape:connector-curvature="0" />
  </g>
  <g
     id="g7"
     transform="matrix(0.99847687,0,0,1.1614082,1891.436,347.84545)"
     style="stroke-width:0.928621">
    <path
       style="fill:none;stroke:#000000;stroke-width:0.928621px;stroke-linecap:butt;stroke-linejoin:miter;stroke-opacity:1"
       d="m 1826.9068,720.97918 c 160.9397,0 160.9397,0 160.9397,0"
       id="path6" />
    <text
       xml:space="preserve"
       style="font-size:19.8106px;line-height:1.25;font-family:Arial;-inkscape-font-specification:Arial;letter-spacing:0px;word-spacing:0px;stroke-width:0.862337"
       x="1843.6274"
       y="777.58197"
       id="text7"
       transform="scale(1.0785082,0.92720668)"><tspan
         sodipodi:role="line"
         id="tspan7"
         style="stroke-width:0.862337"
         x="1843.6274"
         y="777.58197">j1: 0 uA / cm2</tspan></text>
  </g>
</svg>
