<?xml version="1.0"?>
<svg width="4959" height="7009" xmlns="http://www.w3.org/2000/svg" xmlns:svg="http://www.w3.org/2000/svg" xmlns:xlink="http://www.w3.org/1999/xlink" version="1.1">
 <g class="layer" id="image-layer">
  <title>image-layer</title>
  <image height="7009" id="svg_1" width="4959" x="0" xlink:href="Cuesta, Kleinert, Kolb - 2000_p1.png" y="0"/>
 </g>
 <g class="layer" id="digitization-layer">
  <title>digitization-layer</title>
  <text fill="#ff00ff" font-family="Serif" font-size="54" id="svg_20" stroke="#ff00ff" stroke-width="0" style="cursor: move;" text-anchor="middle" transform="matrix(1 0 0 1 0 0)" x="293.38" xml:space="preserve" y="1446.45">Figure: 1b</text>
  <text fill="#ff00ff" font-family="Serif" font-size="54" id="svg_21" stroke="#ff00ff" stroke-width="0" text-anchor="middle" x="286.24" xml:space="preserve" y="1529.79">tags: BCV</text>
  <text fill="#ff00ff" font-family="Serif" font-size="54" id="svg_22" stroke="#ff00ff" stroke-width="0" text-anchor="middle" x="957.67" xml:space="preserve" y="1763.12">scan rate: 10 mV s⁻¹</text>
  <g id="svg_2">
   <path d="m607.58,1685.55l-132.67,-0.87l132.67,0.87z" fill="#ff00ff" id="svg_6" stroke="#ff00ff" stroke-width="5"/>
   <text fill="#ff00ff" font-family="Serif" font-size="54" id="svg_18" stroke="#ff00ff" stroke-width="0" text-anchor="middle" x="307.24" xml:space="preserve" y="1695.34">j2: 6 µA cm⁻²</text>
  </g>
  <g id="svg_3">
   <path d="m608.3,2517.75l-122.16,0.26l122.16,-0.26z" fill="#ff00ff" id="svg_7" stroke="#ff00ff" stroke-width="5"/>
   <text fill="#ff00ff" font-family="Serif" font-size="54" id="svg_17" stroke="#ff00ff" stroke-width="0" text-anchor="middle" x="311.33" xml:space="preserve" y="2528.21">j1: -3 µA cm⁻²</text>
  </g>
  <g id="svg_4">
   <path d="m709.75,2702.35l-16,94.33l16,-94.33z" fill="#ff00ff" id="svg_8" stroke="#ff00ff" stroke-width="5"/>
   <text fill="#ff00ff" font-family="Serif" font-size="54" id="svg_15" stroke="#ff00ff" stroke-width="0" text-anchor="middle" x="694.12" xml:space="preserve" y="2843.93">E1: -0.4 V vs. SCE</text>
  </g>
  <g id="svg_5">
   <path d="m2310.01,2701.99l-0.64,104.06l0.64,-104.06z" fill="#ff00ff" id="svg_9" stroke="#ff00ff" stroke-width="5"/>
   <text fill="#ff00ff" font-family="Serif" font-size="54" id="svg_16" stroke="#ff00ff" stroke-width="0" text-anchor="middle" x="2311.66" xml:space="preserve" y="2852.64">E2: 1.2 V vs. SCE</text>
  </g>
  <g id="svg_10">
   <text fill="#ff00ff" font-family="Serif" font-size="54" id="svg_19" stroke="#ff00ff" stroke-width="0" text-anchor="middle" x="1081.48" xml:space="preserve" y="2134.55">curve: black</text>
   <path d="m759.59,2225.92c16.28,-5.39 33.5,-4.41 44.05,-4.99c10.55,-0.58 68.43,-1.5 106.94,-2.29c63.51,-2.77 145.92,-5.24 190.65,-9.59c44.73,-4.35 127.93,-10.4 144.78,-12.13c16.85,-1.73 103.49,-0.76 123.54,-14.91c20.05,-14.15 26.41,-45.09 28.86,-57.74c2.45,-12.65 8.49,-32.53 10.9,-56.43c2.41,-23.9 8.58,-97.26 12.97,-109.93c4.38,-12.68 4.26,-4.31 7.54,-5.78c3.28,-1.46 3.56,-4.86 6.98,-12.19c3.42,-7.33 4.02,-16.31 6.91,-42.25c2.89,-25.94 4.59,-36.72 5.16,-45.22c0.57,-8.5 3.68,-36.13 4.71,-36.19c1.03,-0.06 2.81,24.58 3.49,38.51c0.68,13.93 0.49,27.42 1.46,66.81c0.97,39.39 5.25,99.67 6.99,108.14c1.73,8.46 7.82,44.29 17.78,61.06c9.97,16.78 16.76,21.39 20.78,24.07c4.02,2.69 21.89,9.06 43.42,9.68c21.53,0.63 37.14,1.03 69.44,0.54c32.31,-0.49 76.3,0.12 100.7,0.54c24.4,0.42 57.03,4.53 85.55,14.78c28.52,10.25 72.38,24.84 93.63,27.96c21.24,3.11 56.35,4.28 94.11,4.38c37.77,0.09 41.54,-0.15 66.48,-0.75c24.94,-0.6 48.33,5.1 57.02,-40.1c-0.2,65.19 0.99,94.85 -4.26,106.98c-5.25,12.13 -9.86,22.98 -28.93,28.04c-19.08,5.06 -71.76,6.5 -122.39,13.09c-50.63,6.58 -77.29,16.26 -107.52,27.75c-30.23,11.49 -69.29,34.17 -156.16,39.82c-86.87,5.65 -118.1,0.65 -163.43,2.53c-45.33,1.88 -87.38,1.87 -107.98,14.41c-20.61,12.54 -39.48,41.85 -52.99,47.3c-13.51,5.45 -25.16,-23.43 -27.24,-27.41c-2.09,-3.99 -31.06,-55.6 -45.95,-76.96c-14.89,-21.36 -76.91,-20.24 -113.7,-23.81c-36.79,-3.57 -79.61,-9.7 -87.24,-10.44c-7.63,-0.73 -57.3,-7.81 -123.67,-10.35c-66.37,-2.53 -149.32,-1.37 -165.15,-0.73c-15.83,0.64 -24.03,0.61 -36.74,1.21l-12.06,1.08l0.59,-38.48z" fill="#000000" fill-opacity="0" id="svg_23" stroke="#ff00ff" stroke-width="5"/>
  </g>
 </g>
</svg>