<?xml version="1.0" encoding="UTF-8" standalone="no"?>
<svg
   height="6591px"
   version="1.1"
   width="4961px"
   id="svg6"
   sodipodi:docname="rudnev_2020_structural_501_f2c_1.svg"
   inkscape:version="1.1.2 (b8e25be833, 2022-02-05)"
   xmlns:inkscape="http://www.inkscape.org/namespaces/inkscape"
   xmlns:sodipodi="http://sodipodi.sourceforge.net/DTD/sodipodi-0.dtd"
   xmlns:xlink="http://www.w3.org/1999/xlink"
   xmlns="http://www.w3.org/2000/svg"
   xmlns:svg="http://www.w3.org/2000/svg">
  <sodipodi:namedview
     id="namedview8"
     pagecolor="#ffffff"
     bordercolor="#666666"
     borderopacity="1.0"
     inkscape:pageshadow="2"
     inkscape:pageopacity="0.0"
     inkscape:pagecheckerboard="0"
     showgrid="false"
     inkscape:snap-text-baseline="true"
     inkscape:zoom="0.3570401"
     inkscape:cx="929.86754"
     inkscape:cy="5405.5553"
     inkscape:window-width="1920"
     inkscape:window-height="1017"
     inkscape:window-x="-8"
     inkscape:window-y="32"
     inkscape:window-maximized="1"
     inkscape:current-layer="svg6" />
  <defs
     id="defs2" />
  <image
     height="6591px"
     sodipodi:insensitive="true"
     width="4961px"
     x="0"
     xlink:href="rudnev_2020_structural_501_p1.png"
     y="0"
     id="image4" />
  <text
     xml:space="preserve"
     style="font-size:40px;line-height:1.25;font-family:sans-serif;word-spacing:0px"
     x="-59.414062"
     y="4806.5977"
     id="text1090"><tspan
       sodipodi:role="line"
       id="tspan1088"
       x="-59.414062"
       y="4806.5977">figure: 2c</tspan></text>
  <text
     xml:space="preserve"
     style="font-size:40px;line-height:1.25;font-family:sans-serif;word-spacing:0px"
     x="-63.375"
     y="4927.4062"
     id="text2414"><tspan
       sodipodi:role="line"
       id="tspan2412"
       x="-63.375"
       y="4927.4062">scan rate: 10 mV / s</tspan></text>
  <g
     id="g19780">
    <text
       xml:space="preserve"
       style="font-size:40px;line-height:1.25;font-family:sans-serif;word-spacing:0px"
       x="1340.7773"
       y="5557.1953"
       id="text18410"><tspan
         sodipodi:role="line"
         id="tspan18408"
         x="1340.7773"
         y="5557.1953">E2: 1 V vs. Ag/AgCl</tspan></text>
    <path
       style="fill:none;stroke:#000000;stroke-width:1px;stroke-linecap:butt;stroke-linejoin:miter;stroke-opacity:1"
       d="m 1320.3538,5415.7156 62.0134,141.4797"
       id="path19689" />
  </g>
  <g
     id="g19785">
    <text
       xml:space="preserve"
       style="font-size:40px;line-height:1.25;font-family:sans-serif;word-spacing:0px"
       x="366.38672"
       y="5575.0195"
       id="text16624"><tspan
         sodipodi:role="line"
         id="tspan16622"
         x="366.38672"
         y="5575.0195">E1: -1.5 V vs. Ag/AgCl</tspan></text>
    <path
       style="fill:none;stroke:#000000;stroke-width:1px;stroke-linecap:butt;stroke-linejoin:miter;stroke-opacity:1"
       d="M 701.08594,5575.0195 663.95215,5415.0967"
       id="path19691" />
  </g>
  <g
     id="g19790">
    <text
       xml:space="preserve"
       style="font-size:40px;line-height:1.25;font-family:sans-serif;word-spacing:0px"
       x="69.316406"
       y="5365.0898"
       id="text14042"><tspan
         sodipodi:role="line"
         id="tspan14040"
         x="69.316406"
         y="5365.0898">j1: -30 uA / cm2</tspan></text>
    <path
       style="fill:none;stroke:#000000;stroke-width:1px;stroke-linecap:butt;stroke-linejoin:miter;stroke-opacity:1"
       d="m 375.29883,5365.0898 199.53223,0.4952"
       id="path19693" />
  </g>
  <g
     id="g19795">
    <text
       xml:space="preserve"
       style="font-size:40px;line-height:1.25;font-family:sans-serif;word-spacing:0px"
       x="102.98438"
       y="5172.9844"
       id="text15234"><tspan
         sodipodi:role="line"
         id="tspan15232"
         x="102.98438"
         y="5172.9844">j2: 20 uA / cm2</tspan></text>
    <path
       style="fill:none;stroke:#000000;stroke-width:1px;stroke-linecap:butt;stroke-linejoin:miter;stroke-opacity:1"
       d="M 393.12305,5172.9844 574.33594,4864.4026"
       id="path19695" />
  </g>
  <g
     id="g4813">
    <path
       style="fill:none;stroke:#f80000;stroke-width:1px;stroke-linecap:butt;stroke-linejoin:miter;stroke-opacity:1"
       d="m 1046.1826,5087.0816 c 0,0 -60.2204,1.0354 -87.63572,5.1986 -47.01534,7.1397 -56.35037,82.4534 -67.08838,82.1895 -15.53444,-0.3817 -14.49763,-27.4423 -24.75586,-39.1142 -10.78839,-12.2751 -25.97112,-24.8017 -36.88623,-33.9155 -5.66549,-4.7306 -12.92145,3.1674 -20.05224,7.9218 -25.26163,16.843 -35.86746,43.06 -90.60645,82.6846 -42.23852,30.5758 -94.31983,83.9224 -94.31983,83.9224 -2.16421,-2.541 2.53469,-8.5902 4.95117,-10.8926 55.97357,-53.3323 125.54042,-102.3811 157.44727,-141.6035 19.37188,-23.8135 38.53134,-49.0167 63.87012,-66.3457 22.28901,-15.2433 50.76807,-17.0592 74.76269,-31.1924 14.21748,-8.3743 36.04743,-29.5519 57.92871,-35.1533 36.16905,-9.2588 77.91945,8.8377 114.61955,1.9804 36.6534,-6.8485 51.8934,-28.3169 79.714,-32.9253 11.9126,-1.9733 22.8871,5.3739 34.9057,4.2085 32.0913,-3.1117 77.9364,-37.0152 90.1113,-35.1533 10.6079,1.6222 -11.7074,102.5608 -44.3129,133.1865 -5.2944,4.9729 -14.3821,-1.6603 -21.0425,1.2378 -34.8415,15.1603 -97.2746,25.1039 -138.1377,30.4497 -16.3939,2.1447 -55.9483,-0.9902 -55.9483,-0.9902"
       id="path19854"
       sodipodi:nodetypes="csssssssssssssssssssc" />
    <text
       xml:space="preserve"
       style="font-size:53.3333px;line-height:1.25;font-family:sans-serif;-inkscape-font-specification:sans-serif;letter-spacing:0px;word-spacing:0px"
       x="960.52734"
       y="4905.6211"
       id="text4199"><tspan
         sodipodi:role="line"
         id="tspan4197"
         x="960.52734"
         y="4905.6211">curve: solid</tspan></text>
  </g>
</svg>
