<?xml version="1.0" encoding="UTF-8" standalone="no"?>
<svg
   height="7016px"
   version="1.1"
   width="4961px"
   id="svg6"
   sodipodi:docname="borisenko_2012_an_1736_p2_f1_green_1.svg"
   inkscape:version="1.1.1 (3bf5ae0d25, 2021-09-20)"
   xmlns:inkscape="http://www.inkscape.org/namespaces/inkscape"
   xmlns:sodipodi="http://sodipodi.sourceforge.net/DTD/sodipodi-0.dtd"
   xmlns:xlink="http://www.w3.org/1999/xlink"
   xmlns="http://www.w3.org/2000/svg"
   xmlns:svg="http://www.w3.org/2000/svg">
  <sodipodi:namedview
     id="namedview8"
     pagecolor="#ffffff"
     bordercolor="#666666"
     borderopacity="1.0"
     inkscape:pageshadow="2"
     inkscape:pageopacity="0.0"
     inkscape:pagecheckerboard="0"
     showgrid="false"
     inkscape:zoom="0.67082422"
     inkscape:cx="1055.4181"
     inkscape:cy="5775.7306"
     inkscape:window-width="1920"
     inkscape:window-height="1017"
     inkscape:window-x="-8"
     inkscape:window-y="284"
     inkscape:window-maximized="1"
     inkscape:current-layer="g19191" />
  <defs
     id="defs2" />
  <image
     height="7016px"
     sodipodi:insensitive="true"
     width="4961px"
     x="0"
     xlink:href="borisenko_2012_an_1736_p2.png"
     y="0"
     id="image4" />
  <g
     id="g19191">
    <path
       style="fill:none;stroke:#ff0000;stroke-width:1px;stroke-linecap:butt;stroke-linejoin:miter;stroke-opacity:1"
       d="m 1909.5152,4718.0202 c 0,0 4.9211,64.5455 -0.068,95.5457 -2.6785,16.6436 -3.4176,57.5899 -12.4468,41.4288 -5.9603,-10.6681 -11.5367,9.9576 -35.7863,37.1262 -21.3179,23.884 -54.2553,60.641 -65.2536,68.8845 -4.6539,3.4882 -15.5456,5.5837 -27.9793,12.7388 -22.464,12.927 -51.6493,32.2439 -70.1472,34.3117 -26.1531,2.9235 -81.2048,9.2927 -119.9013,35.8231 -23.9936,16.45 -82.7896,25.4052 -105.5457,15.1499 -36.0486,-16.2457 -33.9912,-7.6246 -66.2958,22.1459 -23.0301,21.2235 -17.3506,51.167 -59.0062,21.1156 -30.3584,-21.9014 -67.8539,-9.6472 -108.3178,-9.0454 -15.8278,0.2354 -37.3068,4.8847 -53.4728,-5.8408 -14.5068,-9.6248 -36.9688,1.3795 -71.162,5.7615 -34.4848,4.4193 -73.244,7.4608 -79.0944,9.3056 -10.2086,3.2191 -20.8643,0.6934 -31.1353,1.1207 -8.52635,0.3547 -17.71441,3.903 -17.71441,3.903 0,0 -17.15133,-68.7543 18.38271,-78.4002 32.4747,-8.8154 119.7844,-12.0831 152.2889,-29.0353 20.3077,-10.5911 40.3901,-6.8177 51.3631,-51.6837 10.4124,-42.5736 12.4532,-161.6847 17.0483,-252.9112 9.8457,-195.468 13.6526,-225.6326 34.3026,-65.0486 4.8526,37.7365 22.0323,84.1806 34.9718,105.6604 17.9957,29.8733 33.4068,20.9201 55.4988,27.5098 20.7569,6.1913 22.163,2.9141 27.8906,33.0091 4.0153,21.0981 12.1156,23.0317 34.6144,36.7849 33.4402,20.4414 81.5742,49.777 97.8477,49.7603 24.1625,-0.025 104.4535,17.2112 126.9298,15.6272 33.9996,-2.396 76.0371,-19.6663 98.7315,-69.5387 4.958,-10.8955 19.6918,-13.5004 31.1197,-20.4348 18.7774,-11.3941 11.9682,-35.4081 17.3735,-44.1658 15.6278,-25.3201 12.7094,-11.4533 38.5797,-66.9053 9.6341,-20.6502 27.9805,-13.7077 45.1246,0.4503 23.4043,19.3279 41.2591,19.8468 41.2591,19.8468 z"
       id="path858"
       sodipodi:nodetypes="cssssssssssssssscssssssssssssssssc" />
    <text
       xml:space="preserve"
       style="font-size:29.3333px;line-height:1.25;font-family:Arial;-inkscape-font-specification:Arial;letter-spacing:0px;word-spacing:0px"
       x="948.0874"
       y="5485.7886"
       id="text5276"><tspan
         sodipodi:role="line"
         id="tspan5274"
         x="948.0874"
         y="5485.7886">curve: green</tspan></text>
    <text
       xml:space="preserve"
       style="font-size:29.3333px;line-height:1.25;font-family:Arial;-inkscape-font-specification:Arial;letter-spacing:0px;word-spacing:0px"
       x="915.29193"
       y="5628.8965"
       id="text3004"><tspan
         sodipodi:role="line"
         id="tspan3002"
         x="915.29193"
         y="5628.8965">scan rate: 10 mV / s</tspan></text>
  </g>
  <text
     xml:space="preserve"
     style="font-size:29.3333px;line-height:1.25;font-family:Arial;-inkscape-font-specification:Arial;letter-spacing:0px;word-spacing:0px"
     x="962.99445"
     y="5554.3613"
     id="text5808"><tspan
       sodipodi:role="line"
       id="tspan5806"
       x="962.99445"
       y="5554.3613">Figure: 1</tspan></text>
  <text
     xml:space="preserve"
     style="font-size:29.3333px;line-height:1.25;font-family:Arial;-inkscape-font-specification:Arial;letter-spacing:0px;word-spacing:0px"
     x="1553.313"
     y="4427.3892"
     id="text7874"><tspan
       sodipodi:role="line"
       id="tspan7872"
       x="1553.313"
       y="4427.3892">tags: BCV</tspan></text>
  <g
     id="g19186">
    <text
       xml:space="preserve"
       style="font-size:29.3333px;line-height:1.25;font-family:Arial;-inkscape-font-specification:Arial;letter-spacing:0px;word-spacing:0px"
       x="1899.1562"
       y="5938.9629"
       id="text12802"><tspan
         sodipodi:role="line"
         id="tspan12800"
         x="1899.1562"
         y="5938.9629">E2: 1.0 V vs Pt</tspan></text>
    <path
       style="fill:none;stroke:#000000;stroke-width:1px;stroke-linecap:butt;stroke-linejoin:miter;stroke-opacity:1"
       d="m 1922.6538,5926.0745 c -10.5408,-142.3017 -11.5949,-142.3017 -11.5949,-142.3017"
       id="path19101" />
  </g>
  <g
     id="g19580">
    <text
       xml:space="preserve"
       style="font-size:29.3333px;line-height:1.25;font-family:Arial;-inkscape-font-specification:Arial;letter-spacing:0px;word-spacing:0px"
       x="718.5191"
       y="5980.7026"
       id="text11478"><tspan
         sodipodi:role="line"
         id="tspan11476"
         x="718.5191"
         y="5980.7026">E1: -3.0 V vs Pt</tspan></text>
    <path
       style="fill:none;stroke:#000000;stroke-width:1px;stroke-linecap:butt;stroke-linejoin:miter;stroke-opacity:1"
       d="m 809.53846,5966.1298 c 30.56851,-182.357 30.56851,-182.357 30.56851,-182.357"
       id="path19226" />
  </g>
  <g
     id="g19575">
    <text
       xml:space="preserve"
       style="font-size:29.3333px;line-height:1.25;font-family:Arial;-inkscape-font-specification:Arial;letter-spacing:0px;word-spacing:0px"
       x="345.8432"
       y="4898.4517"
       id="text18172"><tspan
         sodipodi:role="line"
         id="tspan18170"
         x="345.8432"
         y="4898.4517">j1: 0 uA / cm2</tspan></text>
    <path
       style="fill:none;stroke:#000000;stroke-width:1px;stroke-linecap:butt;stroke-linejoin:miter;stroke-opacity:1"
       d="M 925.48798,4998.4784 C 512.28606,4888.8534 512.28606,4888.8534 512.28606,4888.8534"
       id="path19228" />
  </g>
  <g
     id="g19570">
    <text
       xml:space="preserve"
       style="font-size:29.3333px;line-height:1.25;font-family:Arial;-inkscape-font-specification:Arial;letter-spacing:0px;word-spacing:0px"
       x="280.25226"
       y="4430.3706"
       id="text15682"><tspan
         sodipodi:role="line"
         id="tspan15680"
         x="280.25226"
         y="4430.3706">j_scale_bar: 5 uA / cm2</tspan></text>
    <path
       style="fill:none;stroke:#000000;stroke-width:1px;stroke-linecap:butt;stroke-linejoin:miter;stroke-opacity:1"
       d="m 823.24159,4379.7296 c -359.44351,47.4339 -359.44351,47.4339 -359.44351,47.4339"
       id="path19482" />
    <path
       style="fill:none;stroke:#000000;stroke-width:1px;stroke-linecap:butt;stroke-linejoin:miter;stroke-opacity:1"
       d="M 823.24159,4563.1406 C 463.79808,4427.1635 463.79808,4427.1635 463.79808,4427.1635"
       id="path19484" />
  </g>
</svg>
