<?xml version="1.0" encoding="UTF-8" standalone="no"?>
<svg
   height="6615px"
   version="1.1"
   width="4961px"
   id="svg1"
   sodipodi:docname="briega-martos_2020_hydrogen_135452_f3_violet.svg"
   inkscape:version="1.3.2 (091e20e, 2023-11-25)"
   xmlns:inkscape="http://www.inkscape.org/namespaces/inkscape"
   xmlns:sodipodi="http://sodipodi.sourceforge.net/DTD/sodipodi-0.dtd"
   xmlns:xlink="http://www.w3.org/1999/xlink"
   xmlns="http://www.w3.org/2000/svg"
   xmlns:svg="http://www.w3.org/2000/svg">
  <sodipodi:namedview
     id="namedview1"
     pagecolor="#505050"
     bordercolor="#eeeeee"
     borderopacity="1"
     inkscape:showpageshadow="0"
     inkscape:pageopacity="0"
     inkscape:pagecheckerboard="0"
     inkscape:deskcolor="#505050"
     inkscape:zoom="0.25814625"
     inkscape:cx="1332.578"
     inkscape:cy="5097.8854"
     inkscape:window-width="1440"
     inkscape:window-height="793"
     inkscape:window-x="0"
     inkscape:window-y="25"
     inkscape:window-maximized="0"
     inkscape:current-layer="svg1" />
  <defs
     id="defs1" />
  <image
     height="6615"
     sodipodi:insensitive="true"
     width="4961"
     x="0"
     xlink:href="briega-martos_2020_hydrogen_135452_p3.png"
     y="0"
     id="image1" />
  <g
     id="g1">
    <path
       style="display:inline;fill:none;fill-rule:evenodd;stroke:#000000;stroke-width:1.01318px;stroke-linecap:butt;stroke-linejoin:miter;stroke-opacity:1"
       d="m 527.51859,4533.0396 111.20696,241.3617"
       id="path466"
       inkscape:connector-type="polyline"
       inkscape:connector-curvature="0" />
    <text
       xml:space="preserve"
       style="font-size:80px;line-height:1.25;font-family:sans-serif;-inkscape-font-specification:sans-serif;letter-spacing:0px;word-spacing:0px"
       x="36.215153"
       y="4515.6602"
       id="text12078"><tspan
         sodipodi:role="line"
         id="tspan12076"
         x="36.215153"
         y="4515.6602">j2: 150 uA / cm2</tspan></text>
  </g>
  <g
     id="g2">
    <path
       style="display:inline;fill:none;fill-rule:evenodd;stroke:#000000;stroke-width:1.03582px;stroke-linecap:butt;stroke-linejoin:miter;stroke-opacity:1"
       d="M 457.83907,5596.0281 639.42192,5439.7318"
       id="path451"
       inkscape:connector-type="polyline"
       inkscape:connector-curvature="0" />
    <text
       xml:space="preserve"
       style="font-size:80px;line-height:1.25;font-family:sans-serif;-inkscape-font-specification:sans-serif;letter-spacing:0px;word-spacing:0px"
       x="7.6449523"
       y="5672.042"
       id="text12078-9"><tspan
         sodipodi:role="line"
         id="tspan12076-7"
         x="7.6449523"
         y="5672.042">j1: -100 uA / cm2</tspan></text>
  </g>
  <g
     id="g3">
    <path
       style="fill:none;fill-rule:evenodd;stroke:#000000;stroke-width:1.03994px;stroke-linecap:butt;stroke-linejoin:miter;stroke-opacity:1"
       d="M 574.67736,5952.2125 642.3083,5772.5998"
       id="path481"
       inkscape:connector-type="polyline"
       inkscape:connector-curvature="0" />
    <text
       xml:space="preserve"
       style="font-size:80px;line-height:1.25;font-family:sans-serif;-inkscape-font-specification:sans-serif;letter-spacing:0px;word-spacing:0px"
       x="34.884697"
       y="6030.5869"
       id="text15529"><tspan
         sodipodi:role="line"
         id="tspan15527"
         x="34.884697"
         y="6030.5869">E1: 0.0 V vs RHE</tspan></text>
  </g>
  <g
     id="g4">
    <path
       style="fill:none;fill-rule:evenodd;stroke:#000000;stroke-width:1px;stroke-linecap:butt;stroke-linejoin:miter;stroke-opacity:1"
       d="M 2163.7481,5964.621 2267.416,5771.3762"
       id="path494"
       inkscape:connector-type="polyline"
       inkscape:connector-curvature="0" />
    <text
       xml:space="preserve"
       style="font-size:80px;line-height:1.25;font-family:sans-serif;-inkscape-font-specification:sans-serif;letter-spacing:0px;word-spacing:0px"
       x="1805.3206"
       y="6058.8276"
       id="text15529-1"><tspan
         sodipodi:role="line"
         id="tspan15527-0"
         x="1805.3206"
         y="6058.8276">E2: 1.0 V vs RHE</tspan></text>
  </g>
  <text
     xml:space="preserve"
     style="font-size:80px;line-height:1.25;font-family:sans-serif;-inkscape-font-specification:sans-serif;letter-spacing:0px;word-spacing:0px"
     x="1556.8562"
     y="4523.6978"
     id="text7770"><tspan
       sodipodi:role="line"
       id="tspan7768"
       x="1556.8562"
       y="4523.6978">scan rate: 50 mV / s</tspan></text>
  <text
     xml:space="preserve"
     style="font-size:80px;line-height:1.25;font-family:sans-serif;-inkscape-font-specification:sans-serif;letter-spacing:0px;word-spacing:0px"
     x="1562.9719"
     y="4428.4941"
     id="text9174"><tspan
       sodipodi:role="line"
       x="1562.9719"
       y="4428.4941"
       id="tspan9176">figure: 3</tspan></text>
  <text
     xml:space="preserve"
     style="font-size:80px;line-height:1.25;font-family:sans-serif;-inkscape-font-specification:sans-serif;letter-spacing:0px;word-spacing:0px"
     x="2024.89"
     y="4416.6885"
     id="text9174-0"><tspan
       sodipodi:role="line"
       x="2024.89"
       y="4416.6885"
       id="tspan9176-2">tags: BCV</tspan></text>
  <g
     id="g5">
    <text
       xml:space="preserve"
       style="font-size:80px;line-height:1.25;font-family:sans-serif;-inkscape-font-specification:sans-serif;letter-spacing:0px;word-spacing:0px"
       x="1687.7732"
       y="4794.8457"
       id="text9174-9"><tspan
         sodipodi:role="line"
         x="1687.7732"
         y="4794.8457"
         id="tspan6">curve: violet</tspan></text>
    <path
       style="fill:none;stroke:#00ffff;stroke-width:3.8"
       d="m 742.91468,5327.9714 c -3.86023,-14.1242 2.97797,-249.29 3.30053,-257.813 0.32255,-8.523 2.31652,-15.9054 9.53786,-15.6917 7.22135,0.2137 8.41761,21.5201 44.80606,22.1979 36.38846,0.6778 31.13742,-300.5006 42.65344,-300.3828 11.51603,0.1177 -6.44209,289.0443 41.02976,303.8494 47.47186,14.8052 118.43397,7.365 163.97377,20.9411 45.5398,13.5761 69.512,28.5903 95.9368,38.6729 26.4248,10.0827 19.3199,12.9266 111.5788,20.6901 92.2589,7.7635 365.4426,13.2869 449.927,-22.6967 84.4844,-35.9835 70.9566,-28.8948 93.681,-33.7694 22.7243,-4.8745 94.1038,-4.7702 122.6173,-12.2439 28.5135,-7.474 28.26,-28.3713 48.3295,-28.3197 20.0696,0.052 25.0111,53.2764 65.5345,63.0132 40.5235,9.7368 60.0898,-7.4408 64.815,-7.986 4.7252,-0.5452 -0.056,45.4593 -6.4491,52.1634 -6.3931,6.7042 -46.6182,21.9612 -67.9824,38.9799 -21.3642,17.0187 -39.9435,59.8581 -56.6966,61.3438 -16.7531,1.4857 -19.8174,-13.8657 -51.1198,-21.4528 -31.3024,-7.5871 -91.2592,3.2629 -136.6294,-4.6473 -45.3702,-7.9102 -34.9725,-27.8886 -132.9116,-43.9825 -97.9391,-16.0938 -422.3382,-17.5123 -458.2196,-9.8502 -35.8814,7.6621 -44.9814,12.6537 -69.7089,22.3068 -24.7275,9.6531 -37.087,25.7911 -78.0739,37.2388 -40.9869,11.4477 -108.69201,7.0443 -161.20964,15.6185 -52.51763,8.5742 -32.16824,311.0126 -45.87384,311.4919 -13.70559,0.4793 -4.43013,-282.9385 -35.44804,-298.3396 -31.01792,-15.4012 -53.53826,62.792 -57.3985,48.6679 z"
       id="path1"
       sodipodi:nodetypes="zzzzzzzzzzzzzzzzzzzzzzzzzzzz" />
  </g>
</svg>
