<?xml version="1.0" encoding="UTF-8" standalone="no"?>
<svg
   height="7016px"
   version="1.1"
   width="4961px"
   id="svg6"
   sodipodi:docname="wen_2015_potential-dependent_6062_f1_black.svg"
   inkscape:version="1.1.1 (3bf5ae0d25, 2021-09-20)"
   xmlns:inkscape="http://www.inkscape.org/namespaces/inkscape"
   xmlns:sodipodi="http://sodipodi.sourceforge.net/DTD/sodipodi-0.dtd"
   xmlns:xlink="http://www.w3.org/1999/xlink"
   xmlns="http://www.w3.org/2000/svg"
   xmlns:svg="http://www.w3.org/2000/svg">
  <sodipodi:namedview
     id="namedview8"
     pagecolor="#ffffff"
     bordercolor="#666666"
     borderopacity="1.0"
     inkscape:pageshadow="2"
     inkscape:pageopacity="0.0"
     inkscape:pagecheckerboard="0"
     showgrid="false"
     inkscape:zoom="0.94868871"
     inkscape:cx="4329.1334"
     inkscape:cy="4575.2626"
     inkscape:window-width="1920"
     inkscape:window-height="1017"
     inkscape:window-x="-8"
     inkscape:window-y="-8"
     inkscape:window-maximized="1"
     inkscape:current-layer="svg6" />
  <defs
     id="defs2" />
  <image
     height="7016px"
     sodipodi:insensitive="true"
     width="4961px"
     x="0"
     xlink:href="wen_2015_potential-dependent_6062_p0.png"
     y="0"
     id="image4" />
  <g
     id="g4603">
    <text
       xml:space="preserve"
       style="font-style:normal;font-variant:normal;font-weight:normal;font-stretch:normal;font-size:29.3333px;line-height:1.25;font-family:Arial;-inkscape-font-specification:Arial;letter-spacing:0px;word-spacing:0px;fill:#000000;fill-opacity:1;stroke:none"
       x="2829.1682"
       y="5742.6636"
       id="text1773"><tspan
         sodipodi:role="line"
         id="tspan1771"
         x="2829.1682"
         y="5742.6636">E1: -4 V vs Pt</tspan></text>
    <path
       style="fill:none;stroke:#000000;stroke-width:1px;stroke-linecap:butt;stroke-linejoin:miter;stroke-opacity:1"
       d="m 2826.006,5528.6839 c 76.9483,202.9117 76.9483,202.9117 76.9483,202.9117"
       id="path4518" />
  </g>
  <g
     id="g4723">
    <text
       xml:space="preserve"
       style="font-style:normal;font-variant:normal;font-weight:normal;font-stretch:normal;font-size:29.3333px;line-height:1.25;font-family:Arial;-inkscape-font-specification:Arial;letter-spacing:0px;word-spacing:0px;fill:#000000;fill-opacity:1;stroke:none"
       x="4115.1538"
       y="5704.7163"
       id="text4175"><tspan
         sodipodi:role="line"
         id="tspan4173"
         x="4115.1538"
         y="5704.7163">E2: 4 V vs Pt</tspan></text>
    <path
       style="fill:none;stroke:#000000;stroke-width:1px;stroke-linecap:butt;stroke-linejoin:miter;stroke-opacity:1"
       d="m 4435.5962,5528.6839 c -191.3167,163.3834 -191.8438,163.3834 -191.8438,163.3834"
       id="path4638" />
  </g>
  <g
     id="g850">
    <text
       xml:space="preserve"
       style="font-style:normal;font-variant:normal;font-weight:normal;font-stretch:normal;font-size:29.3333px;line-height:1.25;font-family:Arial;-inkscape-font-specification:Arial;letter-spacing:0px;word-spacing:0px;fill:#000000;fill-opacity:1;stroke:none"
       x="2243.0962"
       y="5399.0312"
       id="text5365"><tspan
         sodipodi:role="line"
         id="tspan5363"
         x="2243.0962"
         y="5399.0312">j1: -6 mA / cm2</tspan></text>
    <path
       style="fill:none;stroke:#000000;stroke-width:1px;stroke-linecap:butt;stroke-linejoin:miter;stroke-opacity:1"
       d="M 2724.8137,5528.1569 C 2403.8444,5390.5986 2403.8444,5390.5986 2403.8444,5390.5986"
       id="path6008" />
  </g>
  <g
     id="g9787">
    <text
       xml:space="preserve"
       style="font-style:normal;font-variant:normal;font-weight:normal;font-stretch:normal;font-size:29.3333px;line-height:1.25;font-family:Arial;-inkscape-font-specification:Arial;letter-spacing:0px;word-spacing:0px;fill:#000000;fill-opacity:1;stroke:none"
       x="2438.1023"
       y="4233.7388"
       id="text8875"><tspan
         sodipodi:role="line"
         id="tspan8873"
         x="2438.1023"
         y="4233.7388">j2: 6 mA / cm2</tspan></text>
    <path
       style="fill:none;stroke:#000000;stroke-width:1px;stroke-linecap:butt;stroke-linejoin:miter;stroke-opacity:1"
       d="m 2724.8137,4304.3624 c -150.7344,-76.9483 -150.7344,-76.9483 -150.7344,-76.9483"
       id="path9702" />
  </g>
  <text
     xml:space="preserve"
     style="font-style:normal;font-variant:normal;font-weight:normal;font-stretch:normal;font-size:29.3333px;line-height:1.25;font-family:Arial;-inkscape-font-specification:Arial;letter-spacing:0px;word-spacing:0px;fill:#000000;fill-opacity:1;stroke:none"
     x="3118.5518"
     y="3732.7214"
     id="text11001"><tspan
       sodipodi:role="line"
       id="tspan10999"
       x="3118.5518"
       y="3732.7214">figure: 1</tspan></text>
  <text
     xml:space="preserve"
     style="font-style:normal;font-variant:normal;font-weight:normal;font-stretch:normal;font-size:29.3333px;line-height:1.25;font-family:Arial;-inkscape-font-specification:Arial;letter-spacing:0px;word-spacing:0px;fill:#000000;fill-opacity:1;stroke:none"
     x="3592.5955"
     y="3741.6658"
     id="text12127"><tspan
       sodipodi:role="line"
       x="3592.5955"
       y="3741.6658"
       id="tspan17795">scan rate: 10 mV / s</tspan></text>
  <text
     xml:space="preserve"
     style="font-style:normal;font-variant:normal;font-weight:normal;font-stretch:normal;font-size:29.3333px;line-height:1.25;font-family:Arial;-inkscape-font-specification:Arial;letter-spacing:0px;word-spacing:0px;fill:#000000;fill-opacity:1;stroke:#ff0000;stroke-opacity:1"
     x="3419.6738"
     y="3819.1824"
     id="text20433"><tspan
       sodipodi:role="line"
       id="tspan20431"
       x="3419.6738"
       y="3819.1824">tags: BCV</tspan></text>
  <g
     id="g27945">
    <text
       xml:space="preserve"
       style="font-style:normal;font-variant:normal;font-weight:normal;font-stretch:normal;font-size:29.3333px;line-height:1.25;font-family:Arial;-inkscape-font-specification:Arial;letter-spacing:0px;word-spacing:0px;fill:#000000;fill-opacity:1;stroke:none"
       x="2868.1135"
       y="4645.0322"
       id="text15607"><tspan
         sodipodi:role="line"
         id="tspan15605"
         x="2868.1135"
         y="4645.0322">curve: black</tspan></text>
    <path
       style="fill:none;stroke:#ff0000;stroke-width:1px;stroke-linecap:butt;stroke-linejoin:miter;stroke-opacity:1"
       d="m 3614.9559,4917.8308 c 0,0 -319.2584,-4.2947 -482.0991,2.5448 -18.4295,0.774 -26.7731,2.2665 -45.1422,3.945 -29.3461,2.6816 -86.7535,-5.1864 -106.398,11.0524 -32.2859,26.6885 -51.733,99.0085 -66.9913,153.8887 -32.5249,116.984 -86.4608,336.899 -86.4608,336.899 0,0 23.4741,-96.9019 29.7738,-172.5203 5.0852,-61.04 8.5492,-120.891 16.3476,-166.6522 6.2485,-36.6667 16.4254,-95.857 47.0101,-125.4904 38.4906,-37.2933 98.3817,-41.1927 151.9614,-42.4321 136.9242,-3.1672 276.1706,-6.2043 415.2887,-8.6884 59.6373,-1.0649 119.6207,2.2761 178.8845,-4.4721 22.173,-2.5248 43.4954,-10.2847 65.5909,-13.4164 49.3556,-6.9954 100.5942,-0.308 149.0704,-11.9256 17.7677,-4.2581 39.1086,-6.7336 50.6839,-20.8699 18.4738,-22.561 24.7395,-9.2279 35.7769,-4.4721 26.1031,11.2474 51.5998,15.1427 97.5132,18.3251 51.8916,3.5968 62.2638,-7.2241 81.9887,-60.0648 66.1487,-177.2054 186.2474,-521.6558 186.2474,-521.6558 0,0 -65.1289,213.017 -152.0207,485.8763 -10.9975,34.5346 -25.1803,64.2597 -36.8589,88.4509 -14.0045,29.0093 -25.9968,45.263 -46.2897,47.1154 -40.0946,3.6598 -115.8003,1.3341 -127.5986,4.5625 -10.0763,2.7572 -12.9111,2.185 -22.8721,-0.9637 -11.2094,-3.5432 -208.7901,1.236 -287.1943,0.9637 -29.3059,-0.1018 -38.7582,16.3977 -38.7582,16.3977"
       id="path23947"
       sodipodi:nodetypes="csssscsssssssssssscssssssc" />
  </g>
</svg>
