<?xml version="1.0" encoding="UTF-8" standalone="no"?>
<svg
   height="7016px"
   version="1.1"
   width="4961px"
   id="svg6"
   sodipodi:docname="borisenko_2012_an_1736_p2_f1_purple_1.svg"
   inkscape:version="1.1.1 (3bf5ae0d25, 2021-09-20)"
   xmlns:inkscape="http://www.inkscape.org/namespaces/inkscape"
   xmlns:sodipodi="http://sodipodi.sourceforge.net/DTD/sodipodi-0.dtd"
   xmlns:xlink="http://www.w3.org/1999/xlink"
   xmlns="http://www.w3.org/2000/svg"
   xmlns:svg="http://www.w3.org/2000/svg">
  <sodipodi:namedview
     id="namedview8"
     pagecolor="#ffffff"
     bordercolor="#666666"
     borderopacity="1.0"
     inkscape:pageshadow="2"
     inkscape:pageopacity="0.0"
     inkscape:pagecheckerboard="0"
     showgrid="false"
     inkscape:zoom="0.47434436"
     inkscape:cx="1566.3726"
     inkscape:cy="4940.5036"
     inkscape:window-width="1920"
     inkscape:window-height="1017"
     inkscape:window-x="-8"
     inkscape:window-y="284"
     inkscape:window-maximized="1"
     inkscape:current-layer="svg6" />
  <defs
     id="defs2" />
  <image
     height="7016px"
     sodipodi:insensitive="true"
     width="4961px"
     x="0"
     xlink:href="borisenko_2012_an_1736_p2.png"
     y="0"
     id="image4" />
  <g
     id="g19191">
    <path
       style="fill:none;stroke:#ff0000;stroke-width:1px;stroke-linecap:butt;stroke-linejoin:miter;stroke-opacity:1"
       d="m 1905.7885,4651.6839 c 0,0 7.1571,147.2795 -13.4843,169.3355 -11.5189,12.3084 -14.1797,61.1488 -22.8817,36.2114 -6.067,-17.3862 -38.2522,79.4291 -63.7723,98.5571 -13.0622,9.7905 -60.4458,59.4906 -89.1823,62.7029 -26.1531,2.9236 -53.6614,11.4782 -82.6338,17.9346 -54.023,12.039 -10.9476,27.6702 -133.869,39.0012 -22.8135,2.103 -41.4447,-24.0223 -73.7493,5.7482 -23.0301,21.2235 -64.208,17.1168 -75.4039,12.1713 -32.0372,-14.1515 -121.3181,-4.4098 -140.9208,-10.414 -13.8115,-4.2304 -155.4959,16.3253 -167.3995,13.5764 -16.4471,-3.7982 -54.81251,40.0552 -54.81251,40.0552 0,0 -19.38738,-82.9159 6.45712,-105.2328 25.46869,-21.9923 145.12639,-21.0274 162.72379,-31.2714 19.794,-11.5226 50.0797,0.6358 61.0527,-44.2302 10.4124,-42.5736 14.9667,-127.9064 20.0296,-276.7624 6.186,-181.8743 9.9259,-375.4484 38.0294,-155.9816 4.8327,37.7391 18.0133,79.1827 26.7729,102.6791 17.2504,46.271 37.6668,57.6231 60.7163,58.0691 11.8127,0.2286 36.5729,35.1906 77.8292,74.0035 20.152,18.9586 20.7253,15.7724 23.4341,42.0023 2.8808,27.8949 60.7043,47.541 76.9779,47.5243 24.1625,-0.025 61.2231,20.938 83.6993,19.354 33.9996,-2.396 93.1802,10.8931 123.3282,-51.6503 11.5004,-23.8582 22.2864,-37.4224 35.8222,-50.4389 19.3546,-18.6119 29.8525,-43.5034 55.7228,-98.9555 9.6341,-20.6502 17.9172,-37.4145 39.1618,-30.8544 26.3857,8.1477 26.3521,16.8654 26.3521,16.8654 z"
       id="path858"
       sodipodi:nodetypes="csssssssssscsssssssssssssssc" />
    <text
       xml:space="preserve"
       style="font-size:29.3333px;line-height:1.25;font-family:Arial;-inkscape-font-specification:Arial;letter-spacing:0px;word-spacing:0px"
       x="948.0874"
       y="5485.7886"
       id="text5276"><tspan
         sodipodi:role="line"
         id="tspan5274"
         x="948.0874"
         y="5485.7886">curve: purple</tspan></text>
  </g>
  <text
     xml:space="preserve"
     style="font-size:29.3333px;line-height:1.25;font-family:Arial;-inkscape-font-specification:Arial;letter-spacing:0px;word-spacing:0px"
     x="962.99445"
     y="5554.3613"
     id="text5808"><tspan
       sodipodi:role="line"
       id="tspan5806"
       x="962.99445"
       y="5554.3613">Figure: 1</tspan></text>
  <text
     xml:space="preserve"
     style="font-size:29.3333px;line-height:1.25;font-family:Arial;-inkscape-font-specification:Arial;letter-spacing:0px;word-spacing:0px"
     x="1553.313"
     y="4427.3892"
     id="text7874"><tspan
       sodipodi:role="line"
       id="tspan7872"
       x="1553.313"
       y="4427.3892">tags: BCV</tspan></text>
  <g
     id="g19186">
    <text
       xml:space="preserve"
       style="font-size:29.3333px;line-height:1.25;font-family:Arial;-inkscape-font-specification:Arial;letter-spacing:0px;word-spacing:0px"
       x="1899.1562"
       y="5938.9629"
       id="text12802"><tspan
         sodipodi:role="line"
         id="tspan12800"
         x="1899.1562"
         y="5938.9629">E2: 1.0 V vs Pt</tspan></text>
    <path
       style="fill:none;stroke:#000000;stroke-width:1px;stroke-linecap:butt;stroke-linejoin:miter;stroke-opacity:1"
       d="m 1922.6538,5926.0745 c -10.5408,-142.3017 -11.5949,-142.3017 -11.5949,-142.3017"
       id="path19101" />
  </g>
  <g
     id="g19580">
    <text
       xml:space="preserve"
       style="font-size:29.3333px;line-height:1.25;font-family:Arial;-inkscape-font-specification:Arial;letter-spacing:0px;word-spacing:0px"
       x="718.5191"
       y="5980.7026"
       id="text11478"><tspan
         sodipodi:role="line"
         id="tspan11476"
         x="718.5191"
         y="5980.7026">E1: -3.0 V vs Pt</tspan></text>
    <path
       style="fill:none;stroke:#000000;stroke-width:1px;stroke-linecap:butt;stroke-linejoin:miter;stroke-opacity:1"
       d="m 809.53846,5966.1298 c 30.56851,-182.357 30.56851,-182.357 30.56851,-182.357"
       id="path19226" />
  </g>
  <g
     id="g19575">
    <text
       xml:space="preserve"
       style="font-size:29.3333px;line-height:1.25;font-family:Arial;-inkscape-font-specification:Arial;letter-spacing:0px;word-spacing:0px"
       x="345.8432"
       y="4898.4517"
       id="text18172"><tspan
         sodipodi:role="line"
         id="tspan18170"
         x="345.8432"
         y="4898.4517">j1: 0 uA / cm2</tspan></text>
    <path
       style="fill:none;stroke:#000000;stroke-width:1px;stroke-linecap:butt;stroke-linejoin:miter;stroke-opacity:1"
       d="M 925.48798,4998.4784 C 512.28606,4888.8534 512.28606,4888.8534 512.28606,4888.8534"
       id="path19228" />
  </g>
  <g
     id="g19570">
    <text
       xml:space="preserve"
       style="font-size:29.3333px;line-height:1.25;font-family:Arial;-inkscape-font-specification:Arial;letter-spacing:0px;word-spacing:0px"
       x="280.25226"
       y="4430.3706"
       id="text15682"><tspan
         sodipodi:role="line"
         id="tspan15680"
         x="280.25226"
         y="4430.3706">j_scale_bar: 5 uA / cm2</tspan></text>
    <path
       style="fill:none;stroke:#000000;stroke-width:1px;stroke-linecap:butt;stroke-linejoin:miter;stroke-opacity:1"
       d="m 823.24159,4379.7296 c -359.44351,47.4339 -359.44351,47.4339 -359.44351,47.4339"
       id="path19482" />
    <path
       style="fill:none;stroke:#000000;stroke-width:1px;stroke-linecap:butt;stroke-linejoin:miter;stroke-opacity:1"
       d="M 823.24159,4563.1406 C 463.79808,4427.1635 463.79808,4427.1635 463.79808,4427.1635"
       id="path19484" />
  </g>
  <text
     xml:space="preserve"
     style="font-size:29.3333px;line-height:1.25;font-family:Arial;-inkscape-font-specification:Arial;letter-spacing:0px;word-spacing:0px"
     x="833.12531"
     y="5417.9624"
     id="text3004"><tspan
       sodipodi:role="line"
       id="tspan3002"
       x="833.12531"
       y="5417.9624">scan rate: 10 mV / s</tspan></text>
</svg>
