<?xml version="1.0" encoding="UTF-8" standalone="no"?>
<svg
   height="7016px"
   version="1.1"
   width="4961px"
   id="svg6"
   sodipodi:docname="borisenko_2012_an_1736_p2_f1_black_1.svg"
   inkscape:version="1.1.1 (3bf5ae0d25, 2021-09-20)"
   xmlns:inkscape="http://www.inkscape.org/namespaces/inkscape"
   xmlns:sodipodi="http://sodipodi.sourceforge.net/DTD/sodipodi-0.dtd"
   xmlns:xlink="http://www.w3.org/1999/xlink"
   xmlns="http://www.w3.org/2000/svg"
   xmlns:svg="http://www.w3.org/2000/svg">
  <sodipodi:namedview
     id="namedview8"
     pagecolor="#ffffff"
     bordercolor="#666666"
     borderopacity="1.0"
     inkscape:pageshadow="2"
     inkscape:pageopacity="0.0"
     inkscape:pagecheckerboard="0"
     showgrid="false"
     inkscape:zoom="0.94868871"
     inkscape:cx="732.59015"
     inkscape:cy="5108.6304"
     inkscape:window-width="1920"
     inkscape:window-height="1017"
     inkscape:window-x="-8"
     inkscape:window-y="284"
     inkscape:window-maximized="1"
     inkscape:current-layer="svg6" />
  <defs
     id="defs2" />
  <image
     height="7016px"
     sodipodi:insensitive="true"
     width="4961px"
     x="0"
     xlink:href="borisenko_2012_an_1736_p2.png"
     y="0"
     id="image4" />
  <g
     id="g19191">
    <path
       style="fill:none;stroke:#ff0000;stroke-width:1px;stroke-linecap:butt;stroke-linejoin:miter;stroke-opacity:1"
       d="m 1903.6803,4876.2043 c 0,0 9.7923,18.681 3.9082,47.0615 -3.4224,16.5067 -18.7741,46.2535 -27.0981,55.712 -28.7174,32.6312 -79.8886,33.0493 -122.2741,42.6905 -15.9175,3.6206 -28.8232,4.1511 -44.3836,11.0527 -24.056,10.6697 -40.0576,3.5766 -69.4577,-0.5119 -33.6576,-4.6806 -130.4358,-11.593 -178.5318,-2.0658 -32.7177,6.481 -46.2445,27.3203 -63.3811,46.3375 -29.983,33.2734 -40.0541,70.6125 -66.8507,66.4646 -27.3724,-4.237 -43.0129,41.6153 -46.4636,89.5402 -1.1625,16.1453 -21.8008,59.4601 -28.4211,82.7093 -10.2555,36.0155 -29.6324,68.1489 -73.8253,-8.9233 -11.3961,-19.8748 -32.202,-40.9779 -54.2487,-52.2266 -27.8967,-14.2336 -27.3053,-19.8789 -27.97,-32.1003 -0.9417,-17.3138 -3.7875,-22.8564 -23.3902,-28.8606 -13.8115,-4.2304 -42.7086,-10.5539 -54.6122,-13.3028 -16.4471,-3.7982 -50.59616,2.1081 -50.59616,2.1081 0,0 -3.94247,-47.4138 15.9439,-58.853 23.43066,-13.4781 70.92986,-35.4705 88.93776,-44.9745 20.711,-10.9306 37.923,-21.5055 72.6496,-20.578 18.9098,0.5051 60.2785,-9.4551 77.0306,-25.2748 47.9757,-45.3052 54.8433,-46.5252 112.7873,-56.3936 25.6307,-4.3651 87.2359,-5.9369 117.1041,-10.3942 25.3824,-3.7879 44.3577,-17.0092 66.834,-18.5931 33.9996,-2.396 42.8872,8.6264 76.9483,7.3785 26.4676,-0.9697 63.8425,3.0494 82.2021,-0.8968 13.03,-2.8006 19.869,-7.2287 35.6951,-1.9795 21.6283,7.1738 82.598,-13.3776 102.407,-23.4758 27.4398,-13.9882 79.0564,-51.6503 79.0564,-51.6503 z"
       id="path858"
       sodipodi:nodetypes="cssssssssssssssscsssssssssssc" />
    <text
       xml:space="preserve"
       style="font-size:29.3333px;line-height:1.25;font-family:Arial;-inkscape-font-specification:Arial;letter-spacing:0px;word-spacing:0px"
       x="948.0874"
       y="5485.7886"
       id="text5276"><tspan
         sodipodi:role="line"
         id="tspan5274"
         x="948.0874"
         y="5485.7886">curve: black</tspan></text>
  </g>
  <text
     xml:space="preserve"
     style="font-size:29.3333px;line-height:1.25;font-family:Arial;-inkscape-font-specification:Arial;letter-spacing:0px;word-spacing:0px"
     x="962.99445"
     y="5554.3613"
     id="text5808"><tspan
       sodipodi:role="line"
       id="tspan5806"
       x="962.99445"
       y="5554.3613">Figure: 1</tspan></text>
  <text
     xml:space="preserve"
     style="font-size:29.3333px;line-height:1.25;font-family:Arial;-inkscape-font-specification:Arial;letter-spacing:0px;word-spacing:0px"
     x="1553.313"
     y="4427.3892"
     id="text7874"><tspan
       sodipodi:role="line"
       id="tspan7872"
       x="1553.313"
       y="4427.3892">tags: BCV</tspan></text>
  <g
     id="g19186">
    <text
       xml:space="preserve"
       style="font-size:29.3333px;line-height:1.25;font-family:Arial;-inkscape-font-specification:Arial;letter-spacing:0px;word-spacing:0px"
       x="1899.1562"
       y="5938.9629"
       id="text12802"><tspan
         sodipodi:role="line"
         id="tspan12800"
         x="1899.1562"
         y="5938.9629">E2: 1.0 V vs Pt</tspan></text>
    <path
       style="fill:none;stroke:#000000;stroke-width:1px;stroke-linecap:butt;stroke-linejoin:miter;stroke-opacity:1"
       d="m 1922.6538,5926.0745 c -10.5408,-142.3017 -11.5949,-142.3017 -11.5949,-142.3017"
       id="path19101" />
  </g>
  <g
     id="g19580">
    <text
       xml:space="preserve"
       style="font-size:29.3333px;line-height:1.25;font-family:Arial;-inkscape-font-specification:Arial;letter-spacing:0px;word-spacing:0px"
       x="718.5191"
       y="5980.7026"
       id="text11478"><tspan
         sodipodi:role="line"
         id="tspan11476"
         x="718.5191"
         y="5980.7026">E1: -3.0 V vs Pt</tspan></text>
    <path
       style="fill:none;stroke:#000000;stroke-width:1px;stroke-linecap:butt;stroke-linejoin:miter;stroke-opacity:1"
       d="m 809.53846,5966.1298 c 30.56851,-182.357 30.56851,-182.357 30.56851,-182.357"
       id="path19226" />
  </g>
  <g
     id="g19575">
    <text
       xml:space="preserve"
       style="font-size:29.3333px;line-height:1.25;font-family:Arial;-inkscape-font-specification:Arial;letter-spacing:0px;word-spacing:0px"
       x="345.8432"
       y="4898.4517"
       id="text18172"><tspan
         sodipodi:role="line"
         id="tspan18170"
         x="345.8432"
         y="4898.4517">j1: 0 uA / cm2</tspan></text>
    <path
       style="fill:none;stroke:#000000;stroke-width:1px;stroke-linecap:butt;stroke-linejoin:miter;stroke-opacity:1"
       d="M 925.48798,4998.4784 C 512.28606,4888.8534 512.28606,4888.8534 512.28606,4888.8534"
       id="path19228" />
  </g>
  <g
     id="g19570">
    <text
       xml:space="preserve"
       style="font-size:29.3333px;line-height:1.25;font-family:Arial;-inkscape-font-specification:Arial;letter-spacing:0px;word-spacing:0px"
       x="280.25226"
       y="4430.3706"
       id="text15682"><tspan
         sodipodi:role="line"
         id="tspan15680"
         x="280.25226"
         y="4430.3706">j_scale_bar: 5 uA / cm2</tspan></text>
    <path
       style="fill:none;stroke:#000000;stroke-width:1px;stroke-linecap:butt;stroke-linejoin:miter;stroke-opacity:1"
       d="m 823.24159,4379.7296 c -359.44351,47.4339 -359.44351,47.4339 -359.44351,47.4339"
       id="path19482" />
    <path
       style="fill:none;stroke:#000000;stroke-width:1px;stroke-linecap:butt;stroke-linejoin:miter;stroke-opacity:1"
       d="M 823.24159,4563.1406 C 463.79808,4427.1635 463.79808,4427.1635 463.79808,4427.1635"
       id="path19484" />
  </g>
  <text
     xml:space="preserve"
     style="font-size:29.3333px;line-height:1.25;font-family:Arial;-inkscape-font-specification:Arial;letter-spacing:0px;word-spacing:0px"
     x="746.69025"
     y="5350.501"
     id="text3004"><tspan
       sodipodi:role="line"
       id="tspan3002"
       x="746.69025"
       y="5350.501">scan rate: 10 mV / s</tspan></text>
</svg>
