<?xml version="1.0" encoding="UTF-8" standalone="no"?>
<svg
   height="6615px"
   version="1.1"
   width="4961px"
   id="svg2"
   sodipodi:docname="schouten_2013_electrochemical_6_f1_cu111.svg"
   inkscape:version="1.4.3 (0d15f75, 2025-12-25)"
   xmlns:inkscape="http://www.inkscape.org/namespaces/inkscape"
   xmlns:sodipodi="http://sodipodi.sourceforge.net/DTD/sodipodi-0.dtd"
   xmlns:xlink="http://www.w3.org/1999/xlink"
   xmlns="http://www.w3.org/2000/svg"
   xmlns:svg="http://www.w3.org/2000/svg">
  <sodipodi:namedview
     id="namedview2"
     pagecolor="#ffffff"
     bordercolor="#000000"
     borderopacity="0.25"
     inkscape:showpageshadow="2"
     inkscape:pageopacity="0.0"
     inkscape:pagecheckerboard="0"
     inkscape:deskcolor="#d1d1d1"
     inkscape:zoom="0.46318972"
     inkscape:cx="1350.4186"
     inkscape:cy="829.03394"
     inkscape:window-width="1920"
     inkscape:window-height="1010"
     inkscape:window-x="3449"
     inkscape:window-y="-6"
     inkscape:window-maximized="1"
     inkscape:current-layer="g3" />
  <defs
     id="defs1" />
  <g
     class="layer"
     id="image-layer"
     inkscape:groupmode="layer"
     sodipodi:insensitive="1">
    <title
       id="title1">image-layer</title>
    <image
       height="6615"
       width="4961"
       x="0"
       xlink:href="schouten_2013_electrochemical_6_p3.png"
       y="0"
       id="image1" />
  </g>
  <g
     class="layer"
     id="digitization-layer"
     inkscape:groupmode="layer">
    <title
       id="title2">digitization-layer</title>
    <g
       id="g11"
       transform="translate(668.60287,354.38955)"
       inkscape:label="E1">
      <text
         xml:space="preserve"
         style="font-style:normal;font-variant:normal;font-weight:normal;font-stretch:normal;font-size:42.6667px;line-height:0;font-family:sans-serif;-inkscape-font-specification:sans-serif;text-align:start;writing-mode:lr-tb;direction:ltr;text-anchor:start;fill:#000000;stroke-width:2"
         x="319.00269"
         y="2013.4805"
         id="text5"><tspan
           sodipodi:role="line"
           id="tspan5"
           x="319.00269"
           y="2013.4805">E1: -0.3 V vs RHE</tspan></text>
      <path
         style="fill:#000000;fill-opacity:1;stroke:#000000;stroke-width:2;stroke-opacity:1"
         d="m 597.45799,1899.0069 88.03937,98.1202"
         id="path9" />
    </g>
    <g
       id="g3"
       inkscape:label="E2"
       transform="translate(1201.3895,687.52714)">
      <text
         xml:space="preserve"
         style="font-style:normal;font-variant:normal;font-weight:normal;font-stretch:normal;font-size:42.6667px;line-height:0;font-family:sans-serif;-inkscape-font-specification:sans-serif;text-align:start;writing-mode:lr-tb;direction:ltr;text-anchor:start;fill:#000000;stroke-width:2"
         x="1138.9113"
         y="2009.0001"
         id="text6"
         transform="translate(-458.77585,-334.5653)"><tspan
           sodipodi:role="line"
           id="tspan6"
           x="1138.9113"
           y="2009.0001">E2: 0.4 V vs RHE</tspan></text>
      <path
         style="fill:#000000;fill-opacity:1;stroke:#000000;stroke-width:2;stroke-opacity:1"
         d="m 1143.0517,1993.3707 75.7177,-93.9343"
         id="path10"
         transform="translate(-458.77585,-334.5653)" />
    </g>
    <g
       id="g2"
       transform="translate(614.30051,-613.43307)"
       inkscape:label="j1"
       inkscape:transform-center-x="-64.227653"
       inkscape:transform-center-y="-18.860682">
      <text
         xml:space="preserve"
         style="font-style:normal;font-variant:normal;font-weight:normal;font-stretch:normal;font-size:42.6667px;line-height:0;font-family:sans-serif;-inkscape-font-specification:sans-serif;text-align:start;writing-mode:lr-tb;direction:ltr;text-anchor:start;fill:#000000;stroke-width:2"
         x="101.67587"
         y="1842.6377"
         id="text1"><tspan
           id="tspan1"
           x="101.67587"
           y="1842.6377"
           sodipodi:role="line"
           style="font-size:42.6667px">j1: -40 uA / cm2</tspan></text>
      <path
         style="fill:#000000;fill-opacity:1;stroke:#000000;stroke-width:2;stroke-opacity:1"
         d="m 429.59483,1832.7478 105.81465,54.4914"
         id="path8" />
    </g>
    <g
       id="g14"
       transform="translate(628.0365,86.081156)"
       inkscape:label="j2">
      <text
         xml:space="preserve"
         style="font-style:normal;font-variant:normal;font-weight:normal;font-stretch:normal;font-size:42.6667px;line-height:0;font-family:sans-serif;-inkscape-font-specification:sans-serif;text-align:start;writing-mode:lr-tb;direction:ltr;text-anchor:start;fill:#000000;stroke-width:2"
         x="187.69908"
         y="521.82312"
         id="text2"
         transform="translate(-49.986726,53.2753)"><tspan
           sodipodi:role="line"
           id="tspan2"
           x="187.69908"
           y="521.82312">j2: 40 uA / cm2</tspan></text>
      <path
         style="fill:#000000;fill-opacity:1;stroke:#000000;stroke-width:2.19273;stroke-opacity:1"
         d="m 495.16181,510.82767 76.81582,54.50038"
         id="path7"
         sodipodi:nodetypes="cc"
         transform="translate(-49.986726,53.2753)" />
    </g>
    <text
       xml:space="preserve"
       style="font-size:42.6667px;line-height:0;font-family:sans-serif;-inkscape-font-specification:sans-serif;text-align:start;writing-mode:lr-tb;direction:ltr;text-anchor:start;fill:#000000;stroke:#000000;stroke-width:2"
       x="237.06458"
       y="885.09137"
       id="text8"
       inkscape:label="scan rate"><tspan
         sodipodi:role="line"
         id="tspan8"
         x="237.06458"
         y="885.09137"
         style="stroke:none">scan rate: 50 mV / s </tspan></text>
    <text
       xml:space="preserve"
       style="font-size:42.6667px;line-height:0;font-family:sans-serif;-inkscape-font-specification:sans-serif;text-align:start;writing-mode:lr-tb;direction:ltr;text-anchor:start;fill:#000000;stroke:none;stroke-width:2"
       x="333.69348"
       y="961.33624"
       id="text10"
       inkscape:label="figure"><tspan
         sodipodi:role="line"
         id="tspan10"
         x="333.69348"
         y="961.33624">figure: 1</tspan></text>
    <text
       xml:space="preserve"
       style="font-size:42.6667px;line-height:0;font-family:sans-serif;-inkscape-font-specification:sans-serif;text-align:start;writing-mode:lr-tb;direction:ltr;text-anchor:start;fill:none;stroke:#000000;stroke-width:0.5;stroke-dasharray:none;stroke-opacity:1"
       x="324.97375"
       y="1019.8571"
       id="text15"
       inkscape:label="tags"><tspan
         sodipodi:role="line"
         id="tspan15"
         x="324.97375"
         y="1019.8571"
         style="fill:#000000;fill-opacity:1;stroke:#000000;stroke-opacity:1">tags: BCV</tspan></text>
    <g
       id="g5">
      <text
         xml:space="preserve"
         style="font-size:42.6667px;line-height:0;font-family:sans-serif;-inkscape-font-specification:sans-serif;text-align:start;writing-mode:lr-tb;direction:ltr;text-anchor:start;fill:#000000;stroke:#000000;stroke-width:2"
         x="308.21448"
         y="807.80304"
         id="text7"
         inkscape:label="curve"><tspan
           sodipodi:role="line"
           id="tspan7"
           x="308.21448"
           y="807.80304"
           style="stroke:none">curve: cu111</tspan></text>
      <path
         style="fill:none;stroke:#ee1024"
         d="m 1489.5828,1079.3083 c 0,0 -9.8271,-3.6146 -17.2629,4.4912 -9.635,10.503 -16.287,47.1169 -22.0471,72.9839 -7.1034,31.8993 -17.0165,94.9685 -28.2422,93.886 -10.8309,-1.0444 -42.0725,-70.0718 -55.5398,-105.8521 -15.2044,-40.3956 -27.4081,-87.3691 -63.219,-110.2739 -27.0384,-17.2939 -69.1024,7.3559 -95.3664,6.7613 -2.2955,-0.052 0.043,-24.9477 0.4008,-26.1138 3.5942,-11.7147 59.969,-26.87992 109.9154,-30.53201 104.4103,-7.63449 125.1005,-22.70565 127.4714,-22.5174 14.1063,1.12005 28.9915,0.50912 38.165,-8.77796 17.8174,-18.0381 34.4313,-62.99043 48.8513,-70.98704 8.8004,-4.88026 27.093,3.70116 36.3574,-0.22754 45.4696,-19.28206 50.822,-183.44884 64.2443,-183.45824 8.5351,-0.006 19.0956,110.27796 28.3963,165.7482 6.3394,37.8087 22.3951,62.78194 42.3732,75.73698 34.8443,22.59517 81.8759,20.13884 84.0881,19.76433 60.8908,-10.30816 108.1499,-13.43728 135.7327,-17.26291 81.0091,-11.23568 95.8624,-27.32786 96.0219,-24.56058 0.4407,7.64577 0.4617,58.10452 -0.706,86.43157 -1.0507,25.4868 -21.0208,34.3774 -41.6858,33.6423 -53.2702,-1.895 -74.029,-22.2137 -112.4043,-22.9997 -25.1312,-0.5148 -32.6985,10.8981 -49.6146,10.6863 -13.4537,-0.1685 -24.0855,-11.2735 -72.8953,-12.5945 -55.758,-1.509 -161.4824,16.5099 -163.7281,16.7926 -36.937,4.6495 -80.91,50.7596 -80.91,50.7596"
         id="path2"
         sodipodi:nodetypes="cssssssssssssssssssssssssc" />
    </g>
  </g>
</svg>
