<?xml version="1.0" encoding="UTF-8" standalone="no"?>
<svg
   height="6497px"
   version="1.1"
   width="4961px"
   id="svg6"
   sodipodi:docname="atkin_2011_an_6849_f1_black.svg"
   inkscape:version="1.4 (86a8ad7, 2024-10-11)"
   xmlns:inkscape="http://www.inkscape.org/namespaces/inkscape"
   xmlns:sodipodi="http://sodipodi.sourceforge.net/DTD/sodipodi-0.dtd"
   xmlns:xlink="http://www.w3.org/1999/xlink"
   xmlns="http://www.w3.org/2000/svg"
   xmlns:svg="http://www.w3.org/2000/svg">
  <sodipodi:namedview
     id="namedview8"
     pagecolor="#ffffff"
     bordercolor="#666666"
     borderopacity="1.0"
     inkscape:pageshadow="2"
     inkscape:pageopacity="0.0"
     inkscape:pagecheckerboard="0"
     showgrid="false"
     inkscape:zoom="0.72441168"
     inkscape:cx="1050.5076"
     inkscape:cy="4736.9474"
     inkscape:window-width="2880"
     inkscape:window-height="1711"
     inkscape:window-x="-9"
     inkscape:window-y="-9"
     inkscape:window-maximized="1"
     inkscape:current-layer="g15432"
     inkscape:showpageshadow="2"
     inkscape:deskcolor="#d1d1d1" />
  <defs
     id="defs2">
    <inkscape:path-effect
       effect="spiro"
       id="path-effect860"
       is_visible="true"
       lpeversion="1" />
  </defs>
  <image
     height="6497px"
     sodipodi:insensitive="true"
     width="4961px"
     x="0"
     xlink:href="atkin_2011_an_6849_p3.png"
     y="0"
     id="image4" />
  <g
     id="g15432">
    <path
       style="fill:none;stroke:#ff0000;stroke-width:1px;stroke-linecap:butt;stroke-linejoin:miter;stroke-opacity:1"
       d="m 808.22055,5278.8125 c 0,0 8.91177,-186.674 47.06989,-249.1538 15.98378,-26.1716 41.82381,-85.708 55.63624,-85.8767 14.16262,-0.1729 49.2513,-72.8046 113.65572,-104.91 47.1988,-23.5285 132.3779,-30.5373 150.893,-41.5685 23.832,-14.199 27.2896,-61.502 32.8122,-89.7413 12.0374,-61.552 27.1794,-26.3179 37.4273,-10.4142 12.7309,19.7571 61.1473,5.572 72.9326,16.5448 7.026,6.5416 67.8244,0.5051 77.4766,-16.6124 6.2404,-11.0669 44.5363,-17.2982 53.3488,-52.8435 22.3928,-90.3209 28.4986,-179.9698 33.6046,-218.1975 15.426,-115.4911 30.118,-60.2775 53.3392,-5.2242 21.0448,49.8935 55.5725,81.7486 64.3597,102.4456 11.3448,26.721 26.4692,40.5293 50.3514,52.5144 19.202,9.6364 51.9714,-1.748 70.6353,6.3303 30.9287,13.3868 33.6539,24.4802 90.9423,41.6666 0,0 29.8403,11.6273 48.7076,8.9525 6.9286,-0.9823 22.3851,-0.7079 40.814,7.3385 19.3352,8.442 127.1584,-9.2704 127.1584,-9.2704 0,0 12.5725,24.9809 -8.2622,60.0453 -22.2778,37.4929 -52.4639,44.9753 -95.7774,51.6849 -80.2165,12.4262 -182.8765,40.2458 -237.4811,47.9969 -42.7077,6.0623 -114,-30.6174 -151.052,-10.8844 -31.2084,16.6209 -60.9839,8.7552 -77.7134,21.0007 -24.607,18.0118 -32.6263,43.2047 -50.2841,61.9976 -7.7821,8.2823 -19.0204,5.2642 -27.6661,12.6404 -26.595,22.6899 -33.7869,67.4582 -44.7624,104.097 -19.7912,66.0678 -21.1312,36.8416 -49.851,13.0566 -8.9234,-7.39 -17.6139,-40.8157 -29.0669,-39.0647 -27.4824,4.2015 -34.7657,88.4723 -38.0193,128.2953 -18.1509,222.1611 -21.4306,204.0239 -39.8734,132.768 -15.0213,-58.0363 -28.8101,-79.182 -44.309,-106.858 -30.8014,-43.5509 -80.5154,-54.8747 -108.6347,-46.6366 -30.39928,8.906 -39.17043,39.6265 -71.99508,48.0374 -27.10112,3.7702 -26.19079,-2.5543 -50.02696,-22.026 -26.03134,-21.2649 -38.10877,-16.8475 -57.20659,-2.2297 -32.34975,24.7609 -39.18322,194.0991 -39.18322,194.0991 z"
       id="path1154"
       sodipodi:nodetypes="cssssssssssssssssscsssssssssssscscssc" />
    <text
       xml:space="preserve"
       style="font-size:32px;line-height:1.25;font-family:Arial;-inkscape-font-specification:Arial;letter-spacing:0px;word-spacing:0px"
       x="1671.1034"
       y="4433.4995"
       id="text11717"><tspan
         sodipodi:role="line"
         id="tspan11715"
         x="1671.1034"
         y="4433.4995">curve: black</tspan></text>
  </g>
  <g
     id="g18881">
    <path
       style="fill:none;stroke:#000000;stroke-width:1px;stroke-linecap:butt;stroke-linejoin:miter;stroke-opacity:1"
       d="M 780.15734,4741.707 C 249.15253,4507.4402 244.02794,4507.6842 244.02794,4507.6842"
       id="path15467"
       sodipodi:nodetypes="cc" />
    <text
       xml:space="preserve"
       style="font-size:29.3333px;line-height:1.25;font-family:Arial;-inkscape-font-specification:Arial;letter-spacing:0px;word-spacing:0px"
       x="103.46785"
       y="4488.1621"
       id="text15889"><tspan
         sodipodi:role="line"
         id="tspan15887"
         x="103.46785"
         y="4488.1621">j1: 0 uA / cm2</tspan></text>
  </g>
  <g
     id="g12007">
    <path
       style="fill:none;stroke:#000000;stroke-width:1px;stroke-linecap:butt;stroke-linejoin:miter;stroke-opacity:1"
       d="m 714.37279,4096.4276 c -368.57495,0 -368.57495,0 -368.57495,0"
       id="path18794" />
    <path
       style="fill:none;stroke:#000000;stroke-width:1px;stroke-linecap:butt;stroke-linejoin:miter;stroke-opacity:1"
       d="M 715.06301,4307.6334 C 345.79784,4096.4276 345.79784,4096.4276 345.79784,4096.4276"
       id="path18796" />
    <text
       xml:space="preserve"
       style="font-size:29.3333px;line-height:1.25;font-family:Arial;-inkscape-font-specification:Arial;letter-spacing:0px;word-spacing:0px"
       x="162.89079"
       y="4084.0039"
       id="text21129"><tspan
         sodipodi:role="line"
         id="tspan21127"
         x="162.89079"
         y="4084.0039">j_scale_bar: 5 uA / cm2</tspan></text>
  </g>
  <g
     id="g879">
    <path
       style="fill:none;stroke:#000000;stroke-width:1px;stroke-linecap:butt;stroke-linejoin:miter;stroke-opacity:1"
       d="m 799.43555,5651.1992 c -143.00038,53.6861 -143.00038,53.6861 -143.00038,53.6861"
       id="path21834" />
    <text
       xml:space="preserve"
       style="font-size:29.3333px;line-height:1.25;font-family:Arial;-inkscape-font-specification:Arial;letter-spacing:0px;word-spacing:0px"
       x="531.49286"
       y="5736.6089"
       id="text24808"><tspan
         sodipodi:role="line"
         id="tspan24806"
         x="531.49286"
         y="5736.6089">E1: -3.0 V vs Pt</tspan></text>
  </g>
  <text
     xml:space="preserve"
     style="font-size:29.3333px;line-height:1.25;font-family:Arial;-inkscape-font-specification:Arial;letter-spacing:0px;word-spacing:0px"
     x="1576.4517"
     y="4141.2915"
     id="text31919"><tspan
       sodipodi:role="line"
       id="tspan31917"
       x="1576.4517"
       y="4141.2915">scan rate: 10 mV / s</tspan></text>
  <text
     xml:space="preserve"
     style="font-size:29.3333px;line-height:1.25;font-family:Arial;-inkscape-font-specification:Arial;letter-spacing:0px;word-spacing:0px"
     x="1678.6035"
     y="4257.2476"
     id="text33265"><tspan
       sodipodi:role="line"
       id="tspan33263"
       x="1678.6035"
       y="4257.2476">figure: 1</tspan></text>
  <text
     xml:space="preserve"
     style="font-size:29.3333px;line-height:1.25;font-family:Arial;-inkscape-font-specification:Arial;letter-spacing:0px;word-spacing:0px"
     x="1902.2333"
     y="4279.3345"
     id="text33929"><tspan
       sodipodi:role="line"
       id="tspan33927"
       x="1902.2333"
       y="4279.3345">tags: BCV</tspan></text>
  <g
     id="g29167">
    <path
       style="fill:none;stroke:#000000;stroke-width:1px;stroke-linecap:butt;stroke-linejoin:miter;stroke-opacity:1"
       d="m 2032.7528,5651.1992 c 158.1301,68.3278 158.1301,68.3278 158.1301,68.3278"
       id="path26504" />
    <text
       xml:space="preserve"
       style="font-size:29.3333px;line-height:1.25;font-family:Arial;-inkscape-font-specification:Arial;letter-spacing:0px;word-spacing:0px"
       x="2190.8828"
       y="5719.5269"
       id="text27630"><tspan
         sodipodi:role="line"
         id="tspan27628"
         x="2190.8828"
         y="5719.5269">E2: 1.0 V vs Pt</tspan></text>
  </g>
</svg>
