<?xml version="1.0" encoding="UTF-8" standalone="no"?>
<svg
   height="6615px"
   version="1.1"
   width="4961px"
   id="svg1"
   sodipodi:docname="anjos_2010_underpotential_8_f2a_solid.svg"
   inkscape:version="1.4 (86a8ad7, 2024-10-11)"
   xmlns:inkscape="http://www.inkscape.org/namespaces/inkscape"
   xmlns:sodipodi="http://sodipodi.sourceforge.net/DTD/sodipodi-0.dtd"
   xmlns:xlink="http://www.w3.org/1999/xlink"
   xmlns="http://www.w3.org/2000/svg"
   xmlns:svg="http://www.w3.org/2000/svg">
  <sodipodi:namedview
     id="namedview1"
     pagecolor="#ffffff"
     bordercolor="#000000"
     borderopacity="0.25"
     inkscape:showpageshadow="2"
     inkscape:pageopacity="0.0"
     inkscape:pagecheckerboard="0"
     inkscape:deskcolor="#d1d1d1"
     inkscape:zoom="0.78911565"
     inkscape:cx="522.73707"
     inkscape:cy="3048.3491"
     inkscape:window-width="1920"
     inkscape:window-height="974"
     inkscape:window-x="-11"
     inkscape:window-y="-11"
     inkscape:window-maximized="1"
     inkscape:current-layer="g10" />
  <defs
     id="defs1" />
  <image
     height="6615"
     sodipodi:insensitive="true"
     width="4961"
     x="0"
     xlink:href="anjos_2010_underpotential_8_p2.png"
     y="0"
     id="image1" />
  <g
     id="g7"
     transform="translate(-3.170341,1876.072)">
    <g
       id="g14">
      <g
         id="g1">
        <g
           id="g4">
          <text
             xml:space="preserve"
             style="font-style:normal;font-variant:normal;font-weight:normal;font-stretch:normal;font-size:42.6667px;line-height:0;font-family:sans-serif;-inkscape-font-specification:sans-serif;text-align:start;writing-mode:lr-tb;direction:ltr;text-anchor:start;fill:#000000;stroke-width:2"
             x="187.69908"
             y="521.82312"
             id="text2"><tspan
               sodipodi:role="line"
               id="tspan2"
               x="187.69908"
               y="521.82312">j2: 2.0 A / m2</tspan></text>
          <path
             style="fill:#000000;fill-opacity:1;stroke:#000000;stroke-width:2;stroke-opacity:1"
             d="m 494.85776,510.69828 40.86853,85.22198"
             id="path7"
             sodipodi:nodetypes="cc" />
        </g>
      </g>
      <g
         id="g12"
         transform="translate(0.35078617,-51.999897)">
        <g
           id="g13">
          <g
             id="g2">
            <g
               id="g5">
              <text
                 xml:space="preserve"
                 style="font-style:normal;font-variant:normal;font-weight:normal;font-stretch:normal;font-size:42.6667px;line-height:0;font-family:sans-serif;-inkscape-font-specification:sans-serif;text-align:start;writing-mode:lr-tb;direction:ltr;text-anchor:start;fill:#000000;stroke-width:2"
                 x="101.67587"
                 y="1842.6377"
                 id="text1"><tspan
                   id="tspan1"
                   x="101.67587"
                   y="1842.6377"
                   sodipodi:role="line"
                   style="font-size:42.6667px">j1: -4.0 A / m2</tspan></text>
              <path
                 style="fill:#000000;fill-opacity:1;stroke:#000000;stroke-width:2;stroke-opacity:1"
                 d="m 429.59483,1832.7478 105.81465,54.4914"
                 id="path8" />
            </g>
          </g>
          <g
             id="g11"
             transform="translate(12.42406,91.759627)">
            <text
               xml:space="preserve"
               style="font-style:normal;font-variant:normal;font-weight:normal;font-stretch:normal;font-size:42.6667px;line-height:0;font-family:sans-serif;-inkscape-font-specification:sans-serif;text-align:start;writing-mode:lr-tb;direction:ltr;text-anchor:start;fill:#000000;stroke-width:2"
               x="319.00269"
               y="2013.4805"
               id="text5"><tspan
                 sodipodi:role="line"
                 id="tspan5"
                 x="319.00269"
                 y="2013.4805">E1: 0.0 V vs RHE</tspan></text>
            <path
               style="fill:#000000;fill-opacity:1;stroke:#000000;stroke-width:2;stroke-opacity:1"
               d="m 597.45799,1899.0069 88.03937,98.1202"
               id="path9" />
          </g>
          <g
             id="g10"
             transform="translate(-13.571251,93.3662)">
            <g
               id="g3">
              <g
                 id="g6">
                <text
                   xml:space="preserve"
                   style="font-style:normal;font-variant:normal;font-weight:normal;font-stretch:normal;font-size:42.6667px;line-height:0;font-family:sans-serif;-inkscape-font-specification:sans-serif;text-align:start;writing-mode:lr-tb;direction:ltr;text-anchor:start;fill:#000000;stroke-width:2"
                   x="1138.9113"
                   y="2009.0001"
                   id="text6"><tspan
                     sodipodi:role="line"
                     id="tspan6"
                     x="1138.9113"
                     y="2009.0001">E2: 0.8 V vs RHE</tspan></text>
                <path
                   style="fill:#000000;fill-opacity:1;stroke:#000000;stroke-width:2;stroke-opacity:1"
                   d="m 1143.0517,1993.3707 75.7177,-93.9343"
                   id="path10" />
              </g>
            </g>
            <text
               xml:space="preserve"
               style="font-size:42.6667px;line-height:0;font-family:sans-serif;-inkscape-font-specification:sans-serif;text-align:start;writing-mode:lr-tb;direction:ltr;text-anchor:start;fill:#000000;stroke:#000000;stroke-width:2"
               x="73.931755"
               y="1290.3577"
               id="text7"><tspan
                 sodipodi:role="line"
                 id="tspan7"
                 x="73.931755"
                 y="1290.3577"
                 style="stroke:none">curve: solid</tspan></text>
            <text
               xml:space="preserve"
               style="font-size:42.6667px;line-height:0;font-family:sans-serif;-inkscape-font-specification:sans-serif;text-align:start;writing-mode:lr-tb;direction:ltr;text-anchor:start;fill:#000000;stroke:#000000;stroke-width:2"
               x="34.409481"
               y="1348.9137"
               id="text8"><tspan
                 sodipodi:role="line"
                 id="tspan8"
                 x="34.409481"
                 y="1348.9137"
                 style="stroke:none">scan rate: 50 mV / s </tspan></text>
            <text
               xml:space="preserve"
               style="font-size:42.6667px;line-height:0;font-family:sans-serif;-inkscape-font-specification:sans-serif;text-align:start;writing-mode:lr-tb;direction:ltr;text-anchor:start;fill:#000000;stroke:none;stroke-width:2"
               x="95.875"
               y="1400.4755"
               id="text10"><tspan
                 sodipodi:role="line"
                 id="tspan10"
                 x="95.875"
                 y="1400.4755">figure: 2a</tspan></text>
            <text
               xml:space="preserve"
               style="font-size:42.6667px;line-height:0;font-family:sans-serif;-inkscape-font-specification:sans-serif;text-align:start;writing-mode:lr-tb;direction:ltr;text-anchor:start;fill:none;stroke:#000000;stroke-width:0.5;stroke-dasharray:none;stroke-opacity:1"
               x="103.21983"
               y="1452.1493"
               id="text15"><tspan
                 sodipodi:role="line"
                 id="tspan15"
                 x="103.21983"
                 y="1452.1493"
                 style="fill:#000000;fill-opacity:1;stroke:#000000;stroke-opacity:1">tags: BCV</tspan></text>
            <path
               style="fill:none;stroke:#d01a21;stroke-width:0.5"
               d="m 661.89189,1067.5488 c -1.48498,-0.5655 5.38368,-80.12075 10.29633,-113.4181 1.20433,-8.16281 6.72767,-23.24034 10.45475,-25.1864 2.92189,-1.52564 14.02376,0.76088 16.15732,0.6336 20.7936,-1.24051 32.71054,-36.2813 34.37393,-37.7005 4.3077,-3.67532 24.469,-84.83003 26.10968,-92.3502 1.71822,-7.8756 9.87332,-27.85536 13.30603,-27.64735 4.74566,0.28758 9.22945,28.71779 13.56167,47.64589 3.81238,16.65688 10.33738,35.33019 11.02956,36.12661 3.30407,3.80164 17.48038,34.00033 39.43163,33.84905 19.88634,-0.13705 32.04844,-56.69903 42.45259,-54.4914 13.88776,2.94681 26.50177,72.13822 32.47306,84.1131 9.09317,18.23554 6.45379,37.82034 47.99677,37.29885 2.2819,-0.0286 46.81779,-0.0464 48.98179,-0.35993 5.7742,-0.83669 31.4371,-2.36513 43.6569,-9.13156 1.295,-0.71705 50.3136,-19.08133 58.0974,-36.48279 2.8462,-6.36291 7.3687,-13.68194 10.6056,-76.64079 1.4324,-27.86006 2.5951,-55.54982 5.3005,-55.50599 2.6355,0.0427 9.3373,106.54163 18.2166,125.93211 11.2798,24.63251 20.9327,24.93073 37.0668,30.4138 1.9115,0.64961 -1.5726,37.69287 -2.5344,39.2845 -7.0892,11.73093 -25.4147,24.41536 -29.7802,28.3545 -27.1779,24.5237 -35.6926,200.5177 -37.542,200.3826 -1.7543,-0.1282 0.1066,-141.7399 -7.4451,-178.5226 -0.9066,-4.4161 -31.9217,-21.6011 -33.5819,-22.8104 -28.5667,-20.80916 -77.35592,-22.40511 -96.1519,-21.7015 -24.657,0.92301 -53.55027,4.21972 -80.46983,12.9892 -16.38671,5.33823 -35.67258,22.9176 -53.54095,23.1272 -16.5411,0.1941 -40.47946,-18.05898 -53.69935,-16.1573 -17.65717,2.54 -29.46796,6.094 -40.23492,49.1056 -20.19246,80.6644 -23.22433,697.5767 -29.46336,698.0916 -6.35284,0.5243 -8.57244,-547.0973 -14.73168,-704.9031 -0.55105,-14.1184 -0.12748,-39.9902 -14.25647,-39.9181 -17.64612,0.09 -24.43684,66.2272 -26.13685,65.5798 z"
               id="path3"
               sodipodi:nodetypes="ssssssssssssssssssssssssssssssssss" />
          </g>
        </g>
      </g>
    </g>
  </g>
</svg>
