<?xml version="1.0" encoding="UTF-8" standalone="no"?>
<svg
   height="6615px"
   version="1.1"
   width="4961px"
   id="svg1"
   sodipodi:docname="anjos_2010_underpotential_8_f2b_solid.svg"
   inkscape:version="1.4 (86a8ad7, 2024-10-11)"
   xmlns:inkscape="http://www.inkscape.org/namespaces/inkscape"
   xmlns:sodipodi="http://sodipodi.sourceforge.net/DTD/sodipodi-0.dtd"
   xmlns:xlink="http://www.w3.org/1999/xlink"
   xmlns="http://www.w3.org/2000/svg"
   xmlns:svg="http://www.w3.org/2000/svg">
  <sodipodi:namedview
     id="namedview1"
     pagecolor="#ffffff"
     bordercolor="#000000"
     borderopacity="0.25"
     inkscape:showpageshadow="2"
     inkscape:pageopacity="0.0"
     inkscape:pagecheckerboard="0"
     inkscape:deskcolor="#d1d1d1"
     inkscape:zoom="1.1159781"
     inkscape:cx="1848.6027"
     inkscape:cy="3779.1962"
     inkscape:window-width="1920"
     inkscape:window-height="974"
     inkscape:window-x="-11"
     inkscape:window-y="-11"
     inkscape:window-maximized="1"
     inkscape:current-layer="g5" />
  <defs
     id="defs1" />
  <image
     height="6615"
     sodipodi:insensitive="true"
     width="4961"
     x="0"
     xlink:href="anjos_2010_underpotential_8_p2.png"
     y="0"
     id="image1" />
  <g
     id="g2"
     transform="translate(1040.193,1875.2356)">
    <g
       id="g4">
      <g
         id="g3">
        <text
           xml:space="preserve"
           style="font-style:normal;font-variant:normal;font-weight:normal;font-stretch:normal;font-size:42.6667px;line-height:0;font-family:sans-serif;-inkscape-font-specification:sans-serif;text-align:start;writing-mode:lr-tb;direction:ltr;text-anchor:start;fill:#000000;stroke-width:2"
           x="187.69908"
           y="521.82312"
           id="text2"><tspan
             sodipodi:role="line"
             id="tspan2"
             x="187.69908"
             y="521.82312">j2: 2.0 A / m2</tspan></text>
        <path
           style="fill:#000000;fill-opacity:1;stroke:#000000;stroke-width:2;stroke-opacity:1"
           d="m 494.85776,510.69828 40.86853,85.22198"
           id="path7"
           sodipodi:nodetypes="cc" />
      </g>
    </g>
  </g>
  <g
     id="g5"
     transform="translate(1042.1122,1805.4115)">
    <g
       id="g7">
      <text
         xml:space="preserve"
         style="font-style:normal;font-variant:normal;font-weight:normal;font-stretch:normal;font-size:42.6667px;line-height:0;font-family:sans-serif;-inkscape-font-specification:sans-serif;text-align:start;writing-mode:lr-tb;direction:ltr;text-anchor:start;fill:#000000;stroke-width:2"
         x="101.67587"
         y="1842.6377"
         id="text1"><tspan
           id="tspan1"
           x="101.67587"
           y="1842.6377"
           sodipodi:role="line"
           style="font-size:42.6667px">j1: -3.0 A / m2</tspan></text>
      <path
         style="fill:#000000;fill-opacity:1;stroke:#000000;stroke-width:2;stroke-opacity:1"
         d="m 429.59483,1832.7478 105.81465,54.4914"
         id="path8" />
    </g>
    <g
       id="g11"
       transform="translate(10.367435,109.90063)">
      <g
         id="g8">
        <text
           xml:space="preserve"
           style="font-style:normal;font-variant:normal;font-weight:normal;font-stretch:normal;font-size:42.6667px;line-height:0;font-family:sans-serif;-inkscape-font-specification:sans-serif;text-align:start;writing-mode:lr-tb;direction:ltr;text-anchor:start;fill:#000000;stroke-width:2"
           x="319.00269"
           y="2013.4805"
           id="text5"><tspan
             sodipodi:role="line"
             id="tspan5"
             x="319.00269"
             y="2013.4805">E1: 0.0 V vs RHE</tspan></text>
        <path
           style="fill:#000000;fill-opacity:1;stroke:#000000;stroke-width:2;stroke-opacity:1"
           d="m 597.45799,1899.0069 88.03937,98.1202"
           id="path9" />
      </g>
    </g>
    <g
       id="g6"
       transform="translate(-13.128828,109.60641)">
      <g
         id="g9">
        <text
           xml:space="preserve"
           style="font-style:normal;font-variant:normal;font-weight:normal;font-stretch:normal;font-size:42.6667px;line-height:0;font-family:sans-serif;-inkscape-font-specification:sans-serif;text-align:start;writing-mode:lr-tb;direction:ltr;text-anchor:start;fill:#000000;stroke-width:2"
           x="1138.9113"
           y="2009.0001"
           id="text6"><tspan
             sodipodi:role="line"
             id="tspan6"
             x="1138.9113"
             y="2009.0001">E2: 0.8 V vs RHE</tspan></text>
        <path
           style="fill:#000000;fill-opacity:1;stroke:#000000;stroke-width:2;stroke-opacity:1"
           d="m 1143.0517,1993.3707 75.7177,-93.9343"
           id="path10" />
      </g>
    </g>
    <text
       xml:space="preserve"
       style="font-size:42.6667px;line-height:0;font-family:sans-serif;-inkscape-font-specification:sans-serif;text-align:start;writing-mode:lr-tb;direction:ltr;text-anchor:start;fill:#000000;stroke:#000000;stroke-width:2"
       x="525.32031"
       y="489.52243"
       id="text8"><tspan
         sodipodi:role="line"
         id="tspan8"
         x="525.32031"
         y="489.52243"
         style="stroke:none">scan rate: 50 mV / s </tspan></text>
    <text
       xml:space="preserve"
       style="font-size:42.6667px;line-height:0;font-family:sans-serif;-inkscape-font-specification:sans-serif;text-align:start;writing-mode:lr-tb;direction:ltr;text-anchor:start;fill:none;stroke:#000000;stroke-width:0.5;stroke-dasharray:none;stroke-opacity:1"
       x="641.05304"
       y="576.99084"
       id="text15"><tspan
         sodipodi:role="line"
         id="tspan15"
         x="641.05304"
         y="576.99084"
         style="fill:#000000;fill-opacity:1;stroke:#000000;stroke-opacity:1">tags: BCV</tspan></text>
    <g
       id="g1">
      <text
         xml:space="preserve"
         style="font-size:42.6667px;line-height:0;font-family:sans-serif;-inkscape-font-specification:sans-serif;text-align:start;writing-mode:lr-tb;direction:ltr;text-anchor:start;fill:#000000;stroke:#000000;stroke-width:2"
         x="566.70026"
         y="442.00516"
         id="text7"><tspan
           sodipodi:role="line"
           id="tspan7"
           x="566.70026"
           y="442.00516"
           style="stroke:none">curve: solid</tspan></text>
      <text
         xml:space="preserve"
         style="font-size:42.6667px;line-height:0;font-family:sans-serif;-inkscape-font-specification:sans-serif;text-align:start;writing-mode:lr-tb;direction:ltr;text-anchor:start;fill:#000000;stroke:none;stroke-width:2"
         x="617.01422"
         y="530.32562"
         id="text10"><tspan
           sodipodi:role="line"
           id="tspan10"
           x="617.01422"
           y="530.32562">figure: 2a</tspan></text>
      <path
         style="fill:none;stroke:#d01a21;stroke-width:0.5"
         d="m 641.8367,1023.4972 c 4.89783,-0.1004 11.99061,22.0986 19.2656,22.4019 14.64217,0.6105 20.11161,-59.51064 32.7067,-60.0371 6.22747,-0.2603 12.00597,11.06746 20.1617,11.649 29.30019,2.08924 28.45864,-116.40961 41.6675,-115.8177 11.31351,0.50697 19.00672,75.63954 22.6259,110.2172 4.96857,47.4698 8.55179,114.7763 18.42113,130.2291 12.7845,20.0171 45.99999,19.6231 68.27417,20.5356 2.81556,0.1153 53.37138,0.3892 56.0046,0.224 12.57571,-0.789 27.7953,-2.9458 37.6352,-6.2726 23.90939,-8.0836 40.84216,-55.7009 58.4689,-56.6767 8.3539,-0.4625 14.0799,12.3254 19.0416,16.3534 5.7363,4.6569 10.5138,9.5624 20.3697,9.8025 2.5023,0.061 8.128,-0.5379 11.4409,-0.3937 13.3003,0.5788 54.0224,12.1894 81.5429,13.6651 16.994,0.9112 45.2851,0.1018 50.9666,-3.0053 1.7578,-0.9613 3.021,7.7043 2.8513,11.722 -0.5475,12.9623 -2.8415,28.0878 -12.3556,36.9084 -5.6567,5.2444 -42.9721,13.3216 -45.1455,13.6228 -6.9814,0.9677 -45.5506,19.0627 -80.549,28.5922 -1.4406,0.3922 -15.2787,-0.5931 -22.7311,0.2376 -14.3572,1.6004 -31.635,10.6087 -42.1358,10.1379 -16.35941,-0.7334 -30.47131,-24.6342 -31.681,-26.4537 -15.8134,-23.7856 -52.68171,-26.2566 -82.41709,-28.5977 -18.00626,-1.4177 -34.88582,-1.3301 -54.28661,-0.5488 -43.2948,1.7436 -54.50736,19.5335 -68.431,41.6605 -12.37031,19.6585 -24.47933,77.3859 -35.01228,84.886 -2.84818,2.0281 -10.72468,-3.7317 -13.8342,-2.1329 -34.01531,17.4897 -37.76114,395.5077 -41.12772,395.4722 -8.17049,-0.086 -4.50228,-409.3907 -23.1271,-410.111 -16.45742,-0.6365 -28.42372,347.8686 -26.1369,345.4816 0,0 4.0861,-578.0532 13.1476,-586.2575 2.14478,-1.9419 1.48623,-7.435 4.3789,-7.4943 z"
         id="path1"
         sodipodi:nodetypes="sssssssssssssssssssssssssssssssss" />
    </g>
  </g>
</svg>
