<?xml version="1.0" encoding="UTF-8" standalone="no"?>
<svg
   height="7016px"
   version="1.1"
   width="4961px"
   id="svg3348"
   sodipodi:docname="abe_2019_electro-oxidation_315_f2b1_black.svg"
   inkscape:version="1.4 (86a8ad7, 2024-10-11)"
   xmlns:inkscape="http://www.inkscape.org/namespaces/inkscape"
   xmlns:sodipodi="http://sodipodi.sourceforge.net/DTD/sodipodi-0.dtd"
   xmlns:xlink="http://www.w3.org/1999/xlink"
   xmlns="http://www.w3.org/2000/svg"
   xmlns:svg="http://www.w3.org/2000/svg">
  <sodipodi:namedview
     id="namedview3350"
     pagecolor="#ffffff"
     bordercolor="#000000"
     borderopacity="0.25"
     inkscape:showpageshadow="2"
     inkscape:pageopacity="0.0"
     inkscape:pagecheckerboard="0"
     inkscape:deskcolor="#d1d1d1"
     showgrid="false"
     inkscape:zoom="0.64410096"
     inkscape:cx="579.87804"
     inkscape:cy="3070.1709"
     inkscape:window-width="2880"
     inkscape:window-height="1711"
     inkscape:window-x="-9"
     inkscape:window-y="-9"
     inkscape:window-maximized="1"
     inkscape:current-layer="svg3348" />
  <defs
     id="defs3344" />
  <image
     height="7016px"
     sodipodi:insensitive="true"
     width="4961px"
     x="0"
     xlink:href="abe_2019_electro-oxidation_315_p4.png"
     y="0"
     id="image3346" />
  <g
     id="g21003"
     transform="translate(166.23736,-2130.1112)">
    <path
       style="fill:none;fill-rule:evenodd;stroke:#000000;stroke-width:1.01318px;stroke-linecap:butt;stroke-linejoin:miter;stroke-opacity:1"
       d="m 713.12398,4614.6134 84.73204,-20.6103"
       id="path466"
       inkscape:connector-type="polyline"
       inkscape:connector-curvature="0"
       sodipodi:nodetypes="cc" />
    <text
       xml:space="preserve"
       style="font-size:80px;line-height:1.25;font-family:sans-serif;-inkscape-font-specification:sans-serif;letter-spacing:0px;word-spacing:0px"
       x="6.6174898"
       y="4634.5723"
       id="text12078"><tspan
         sodipodi:role="line"
         id="tspan12076"
         x="6.6174898"
         y="4634.5723">j2: 0.1 mA / cm2</tspan></text>
  </g>
  <g
     id="g14202"
     transform="translate(-7.4516375,-2501.6642)">
    <path
       style="fill:none;fill-rule:evenodd;stroke:#000000;stroke-width:1.03582px;stroke-linecap:butt;stroke-linejoin:miter;stroke-opacity:1"
       d="m 824.9927,5570.4623 145.48108,17.6658"
       id="path451"
       inkscape:connector-type="polyline"
       inkscape:connector-curvature="0"
       sodipodi:nodetypes="cc" />
    <text
       xml:space="preserve"
       style="font-size:80px;line-height:1.25;font-family:sans-serif;-inkscape-font-specification:sans-serif;letter-spacing:0px;word-spacing:0px"
       x="92.746017"
       y="5599.541"
       id="text12078-9"><tspan
         sodipodi:role="line"
         id="tspan12076-7"
         x="92.746017"
         y="5599.541">j1: -0.1 mA / cm2</tspan></text>
  </g>
  <g
     id="g20959"
     transform="translate(155.46761,-2478.0891)">
    <path
       style="fill:none;fill-rule:evenodd;stroke:#000000;stroke-width:1.03994px;stroke-linecap:butt;stroke-linejoin:miter;stroke-opacity:1"
       d="M 740.79586,5746.0058 808.18665,5565.707"
       id="path481"
       inkscape:connector-type="polyline"
       inkscape:connector-curvature="0"
       sodipodi:nodetypes="cc" />
    <text
       xml:space="preserve"
       style="font-size:80px;line-height:1.25;font-family:sans-serif;-inkscape-font-specification:sans-serif;letter-spacing:0px;word-spacing:0px"
       x="146.60843"
       y="5780.3579"
       id="text15529"><tspan
         sodipodi:role="line"
         id="tspan15527"
         x="146.60843"
         y="5780.3579">E1: 0.0 V vs RHE</tspan></text>
  </g>
  <g
     id="g20954"
     transform="translate(477.89068,-2483.9767)">
    <path
       style="fill:none;fill-rule:evenodd;stroke:#000000;stroke-width:1px;stroke-linecap:butt;stroke-linejoin:miter;stroke-opacity:1"
       d="m 1253.0722,5764.1322 103.6679,-193.2448"
       id="path494"
       inkscape:connector-type="polyline"
       inkscape:connector-curvature="0" />
    <text
       xml:space="preserve"
       style="font-size:80px;line-height:1.25;font-family:sans-serif;-inkscape-font-specification:sans-serif;letter-spacing:0px;word-spacing:0px"
       x="1267.2344"
       y="5788.8706"
       id="text15529-1"><tspan
         sodipodi:role="line"
         id="tspan15527-0"
         x="1267.2344"
         y="5788.8706">E2: 1 V vs RHE</tspan></text>
  </g>
  <text
     xml:space="preserve"
     style="font-size:80px;line-height:1.25;font-family:sans-serif;-inkscape-font-specification:sans-serif;letter-spacing:0px;word-spacing:0px"
     x="164.26411"
     y="2064.0732"
     id="text9174"><tspan
       sodipodi:role="line"
       x="164.26411"
       y="2064.0732"
       id="tspan9176">figure: 2b1</tspan></text>
  <text
     xml:space="preserve"
     style="font-size:80px;line-height:1.25;font-family:sans-serif;-inkscape-font-specification:sans-serif;letter-spacing:0px;word-spacing:0px"
     x="123.56003"
     y="2279.9495"
     id="text9174-9"><tspan
       sodipodi:role="line"
       x="123.56003"
       y="2279.9495"
       id="tspan9176-3">tags: BCV</tspan></text>
  <text
     xml:space="preserve"
     style="font-size:80px;line-height:1.25;font-family:sans-serif;-inkscape-font-specification:sans-serif;letter-spacing:0px;word-spacing:0px"
     x="87.467171"
     y="2180.4556"
     id="text7770"><tspan
       sodipodi:role="line"
       id="tspan7768"
       x="87.467171"
       y="2180.4556">scan rate: 50 mV / s</tspan></text>
  <g
     id="g1">
    <text
       xml:space="preserve"
       style="font-size:80px;line-height:1.25;font-family:sans-serif;-inkscape-font-specification:sans-serif;letter-spacing:0px;word-spacing:0px"
       x="1619.4252"
       y="2599.427"
       id="text3406"><tspan
         sodipodi:role="line"
         id="tspan3404"
         x="1619.4252"
         y="2599.427">curve: black</tspan></text>
    <path
       style="fill:none;stroke:#00ffff;stroke-width:3.8"
       d="m 1026.5016,2676.1623 c 0,0 14.3176,-12.6395 26.6058,-15.0154 12.2882,-2.3758 14.8201,-52.0959 22.2212,-52.5956 7.4011,-0.4997 9.8233,37.8736 24.4371,49.3365 14.6138,11.4629 48.456,14.4976 56.4708,12.6215 8.0148,-1.8761 14.6005,6.9898 23.9276,6.4469 9.3271,-0.5429 17.1481,-23.45 25.1245,-23.3588 7.9764,0.091 19.1623,67.675 35.1272,80.8015 15.9649,13.1265 26.6184,25.1783 59.4561,31.4454 32.8376,6.2671 163.9998,3.8921 206.3419,-9.9311 42.3421,-13.8232 53.0275,-35.4863 72.6705,-43.8161 19.643,-8.3297 24.7687,-7.5981 41.646,-19.3788 16.8773,-11.7807 30.105,-41.443 41.4883,-41.3397 11.3833,0.1034 26.1659,44.5974 42.0295,54.509 15.8636,9.9116 34.6976,8.9033 49.5042,9.3683 14.8066,0.465 29.3949,-3.1893 34.684,-8.7191 5.2891,-5.5298 6.0699,49.2348 0.6281,64.0675 -5.4418,14.8327 -26.7456,27.3095 -35.878,27.946 -9.1324,0.6366 -30.0704,12.7081 -45.6487,25.8694 -15.5783,13.1613 -21.3007,35.7672 -30.7573,42.3288 -9.4566,6.5615 -21.9097,9.001 -28.9713,5.8665 -4.5949,-2.0395 -14.2038,4.8398 -26.0655,8.4182 -11.6142,3.5037 -25.8023,-1.141 -36.2297,-0.91 -23.1851,0.5136 -55.7039,-54.2465 -64.5338,-63.4633 -8.8298,-9.2168 -37.33,-11.3205 -54.2885,-15.301 -16.9585,-3.9805 -27.1457,-6.4007 -56.181,-9.5669 -29.0353,-3.1662 -88.7541,-6.7039 -118.6326,1.2893 -29.8785,7.9932 -38.8348,15.0462 -53.1195,28.9489 -14.2847,13.9027 -26.3878,50.6376 -35.8485,54.222 -9.4607,3.5844 -30.7094,-3.807 -57.4097,9.5481 -26.7003,13.3551 -27.0912,44.0722 -35.4253,44.5958 -8.334,0.5236 -9.5106,-18.478 -17.3366,-18.341 -7.8261,0.137 -12.5009,37.1075 -19.4708,38.3149 -3.4849,0.6037 -7.9433,-14.2392 -13.5566,-25.188 -5.6134,-10.9488 -13.3865,-17.25 -18.4771,-18.1518 -10.1811,-1.8035 -11.8374,9.6919 -13.5675,-0.1245 -1.7301,-9.8164 -3.0149,-19.4725 -3.0149,-19.4725"
       id="path1"
       sodipodi:nodetypes="czzzzzzzzzzzzzzzzzzzssszzzzzzzzzssszc" />
  </g>
</svg>
