<?xml version="1.0" encoding="UTF-8" standalone="no"?>
<svg
   height="7016px"
   version="1.1"
   width="4961px"
   id="svg3348"
   sodipodi:docname="abe_2019_electro-oxidation_315_f2a1_black.svg"
   inkscape:version="1.3.2 (091e20e, 2023-11-25)"
   xmlns:inkscape="http://www.inkscape.org/namespaces/inkscape"
   xmlns:sodipodi="http://sodipodi.sourceforge.net/DTD/sodipodi-0.dtd"
   xmlns:xlink="http://www.w3.org/1999/xlink"
   xmlns="http://www.w3.org/2000/svg"
   xmlns:svg="http://www.w3.org/2000/svg">
  <sodipodi:namedview
     id="namedview3350"
     pagecolor="#ffffff"
     bordercolor="#000000"
     borderopacity="0.25"
     inkscape:showpageshadow="2"
     inkscape:pageopacity="0.0"
     inkscape:pagecheckerboard="0"
     inkscape:deskcolor="#d1d1d1"
     showgrid="false"
     inkscape:zoom="0.24818552"
     inkscape:cx="809.87802"
     inkscape:cy="1567.3759"
     inkscape:window-width="1440"
     inkscape:window-height="787"
     inkscape:window-x="0"
     inkscape:window-y="25"
     inkscape:window-maximized="0"
     inkscape:current-layer="svg3348" />
  <defs
     id="defs3344" />
  <image
     height="7016px"
     sodipodi:insensitive="true"
     width="4961px"
     x="0"
     xlink:href="abe_2019_electro-oxidation_315_p4.png"
     y="0"
     id="image3346" />
  <g
     id="g21003"
     transform="translate(165.70326,-2957.7713)">
    <path
       style="fill:none;fill-rule:evenodd;stroke:#000000;stroke-width:1.01318px;stroke-linecap:butt;stroke-linejoin:miter;stroke-opacity:1"
       d="m 713.12398,4614.6134 85.02886,136.6329"
       id="path466"
       inkscape:connector-type="polyline"
       inkscape:connector-curvature="0" />
    <text
       xml:space="preserve"
       style="font-size:80px;line-height:1.25;font-family:sans-serif;-inkscape-font-specification:sans-serif;letter-spacing:0px;word-spacing:0px"
       x="153.72534"
       y="4620.3008"
       id="text12078"><tspan
         sodipodi:role="line"
         id="tspan12076"
         x="153.72534"
         y="4620.3008">j2: 0.05 mA / cm2</tspan></text>
  </g>
  <g
     id="g14202"
     transform="translate(162.82464,-3325.7771)">
    <path
       style="fill:none;fill-rule:evenodd;stroke:#000000;stroke-width:1.03582px;stroke-linecap:butt;stroke-linejoin:miter;stroke-opacity:1"
       d="M 669.00263,5565.4145 799.92854,5430.9302"
       id="path451"
       inkscape:connector-type="polyline"
       inkscape:connector-curvature="0" />
    <text
       xml:space="preserve"
       style="font-size:80px;line-height:1.25;font-family:sans-serif;-inkscape-font-specification:sans-serif;letter-spacing:0px;word-spacing:0px"
       x="92.746017"
       y="5599.541"
       id="text12078-9"><tspan
         sodipodi:role="line"
         id="tspan12076-7"
         x="92.746017"
         y="5599.541">j1: -0.05 mA / cm2</tspan></text>
  </g>
  <g
     id="g20959"
     transform="translate(155.52568,-3306.7677)">
    <path
       style="fill:none;fill-rule:evenodd;stroke:#000000;stroke-width:1.03994px;stroke-linecap:butt;stroke-linejoin:miter;stroke-opacity:1"
       d="M 740.79586,5746.0058 808.4268,5566.3931"
       id="path481"
       inkscape:connector-type="polyline"
       inkscape:connector-curvature="0" />
    <text
       xml:space="preserve"
       style="font-size:80px;line-height:1.25;font-family:sans-serif;-inkscape-font-specification:sans-serif;letter-spacing:0px;word-spacing:0px"
       x="146.60843"
       y="5780.3579"
       id="text15529"><tspan
         sodipodi:role="line"
         id="tspan15527"
         x="146.60843"
         y="5780.3579">E1: 0.0 V vs RHE</tspan></text>
  </g>
  <g
     id="g20954"
     transform="translate(305.18073,-3311.904)">
    <path
       style="fill:none;fill-rule:evenodd;stroke:#000000;stroke-width:1px;stroke-linecap:butt;stroke-linejoin:miter;stroke-opacity:1"
       d="m 1253.0722,5764.1322 103.6679,-193.2448"
       id="path494"
       inkscape:connector-type="polyline"
       inkscape:connector-curvature="0" />
    <text
       xml:space="preserve"
       style="font-size:80px;line-height:1.25;font-family:sans-serif;-inkscape-font-specification:sans-serif;letter-spacing:0px;word-spacing:0px"
       x="1267.2344"
       y="5788.8706"
       id="text15529-1"><tspan
         sodipodi:role="line"
         id="tspan15527-0"
         x="1267.2344"
         y="5788.8706">E2: 0.8 V vs RHE</tspan></text>
  </g>
  <text
     xml:space="preserve"
     style="font-size:80px;line-height:1.25;font-family:sans-serif;-inkscape-font-specification:sans-serif;letter-spacing:0px;word-spacing:0px"
     x="43.486393"
     y="1357.2832"
     id="text9174"><tspan
       sodipodi:role="line"
       x="43.486393"
       y="1357.2832"
       id="tspan9176">figure: 2a1</tspan></text>
  <text
     xml:space="preserve"
     style="font-size:80px;line-height:1.25;font-family:sans-serif;-inkscape-font-specification:sans-serif;letter-spacing:0px;word-spacing:0px"
     x="40.111267"
     y="1524.5712"
     id="text9174-9"><tspan
       sodipodi:role="line"
       x="40.111267"
       y="1524.5712"
       id="tspan9176-3">tags: BCV</tspan></text>
  <text
     xml:space="preserve"
     style="font-size:80px;line-height:1.25;font-family:sans-serif;-inkscape-font-specification:sans-serif;letter-spacing:0px;word-spacing:0px"
     x="39.767551"
     y="1444.4336"
     id="text7770"><tspan
       sodipodi:role="line"
       id="tspan7768"
       x="39.767551"
       y="1444.4336">scan rate: 50 mV / s</tspan></text>
  <g
     id="g1">
    <text
       xml:space="preserve"
       style="font-size:80px;line-height:1.25;font-family:sans-serif;-inkscape-font-specification:sans-serif;letter-spacing:0px;word-spacing:0px"
       x="1695.2694"
       y="1710.6276"
       id="text3406"><tspan
         sodipodi:role="line"
         id="tspan3404"
         x="1695.2694"
         y="1710.6276">curve: black</tspan></text>
    <path
       style="fill:none;stroke:#00ffff;stroke-width:3.8"
       d="m 1026.1348,1869.2726 c 0,0 3.1207,-10.4148 8.1205,-13.5502 4.9998,-3.1354 16.7843,-1.3608 23.6905,-3.168 6.9062,-1.8073 14.0608,-8.7441 18.2532,-8.9227 4.1923,-0.1786 10.1699,5.2583 16.1486,5.6579 5.9787,0.3997 87.7699,-0.4361 109.3802,5.9257 21.6103,6.3618 42.5267,22.7338 52.8286,31.1744 10.302,8.4406 26.2256,28.6231 44.537,36.4173 18.3113,7.7942 69.9622,13.261 102.6817,13.2041 32.7195,-0.057 65.1573,-1.664 98.0124,-22.3943 32.8551,-20.7303 36.257,-19.917 55.4343,-27.7166 19.1773,-7.7996 56.2262,-9.5488 73.236,-24.2754 17.0098,-14.7266 20.1241,-30.6685 25.1486,-54.0642 5.0246,-23.3958 3.5971,-79.8401 8.0373,-79.7991 4.4403,0.041 1.8652,169.1133 31.9918,189.3558 30.1266,20.2424 91.8389,11.8021 95.6802,11.7388 3.8413,-0.063 2.138,17.0877 0.021,21.4696 -2.1172,4.3819 -30.4845,7.8913 -47.0758,9.1855 -16.5913,1.2942 -37.3296,2.821 -51.6575,17.797 -13.5173,14.1288 -22.6565,58.2009 -25.0727,108.376 -2.1035,43.6827 -5.619,98.2874 -7.5458,98.171 -3.8536,-0.2328 -0.2908,-98.1523 -11.4819,-123.6141 -11.1911,-25.4618 -22.6167,-28.3103 -31.0011,-30.8173 -8.3844,-2.507 -26.5048,-5.5923 -49.6003,-10.9225 -23.0955,-5.3302 -65.2207,-39.1781 -96.2196,-49.3574 -30.9989,-10.1793 -57.3643,-8.264 -86.6883,-7.5302 -29.324,0.7338 -61.3505,1.7427 -86.1826,12.5281 -24.8321,10.7854 -40.1753,34.4284 -57.6791,46.2655 -17.5038,11.8371 -23.1715,17.6296 -48.6959,24.045 -25.5244,6.4154 -93.1319,2.4153 -102.2574,5.2659 -9.1255,2.8505 -9.3084,7.03 -16.3777,7.7357 -7.0693,0.7057 -11.6027,-8.2738 -22.8297,-7.9718 -11.227,0.3021 -22.6589,10.4426 -22.6589,10.4426"
       id="path1"
       sodipodi:nodetypes="czzzzzzzzzzzzzzzzzssszzzzzzzzzzzc" />
  </g>
</svg>
