<?xml version="1.0" encoding="UTF-8" standalone="no"?>
<svg
   height="7016px"
   version="1.1"
   width="4961px"
   id="svg136"
   sodipodi:docname="abe_2019_electro-oxidation_315_f3b1_black.svg"
   inkscape:version="1.3.2 (091e20e, 2023-11-25)"
   xmlns:inkscape="http://www.inkscape.org/namespaces/inkscape"
   xmlns:sodipodi="http://sodipodi.sourceforge.net/DTD/sodipodi-0.dtd"
   xmlns:xlink="http://www.w3.org/1999/xlink"
   xmlns="http://www.w3.org/2000/svg"
   xmlns:svg="http://www.w3.org/2000/svg">
  <sodipodi:namedview
     id="namedview138"
     pagecolor="#ffffff"
     bordercolor="#000000"
     borderopacity="0.25"
     inkscape:showpageshadow="2"
     inkscape:pageopacity="0.0"
     inkscape:pagecheckerboard="0"
     inkscape:deskcolor="#d1d1d1"
     showgrid="false"
     inkscape:zoom="0.86402526"
     inkscape:cx="1269.6388"
     inkscape:cy="2465.7844"
     inkscape:window-width="1440"
     inkscape:window-height="900"
     inkscape:window-x="0"
     inkscape:window-y="0"
     inkscape:window-maximized="0"
     inkscape:current-layer="svg136" />
  <defs
     id="defs132">
    <linearGradient
       id="linearGradient1711"
       inkscape:swatch="solid">
      <stop
         style="stop-color:#000000;stop-opacity:1;"
         offset="0"
         id="stop1709" />
    </linearGradient>
  </defs>
  <image
     height="7016px"
     sodipodi:insensitive="true"
     width="4961px"
     x="0"
     xlink:href="abe_2019_electro-oxidation_315_p5.png"
     y="0"
     id="image134" />
  <g
     id="g729">
    <path
       style="fill:none;fill-rule:evenodd;stroke:#000000;stroke-width:1.12445px;stroke-linecap:butt;stroke-linejoin:miter;stroke-opacity:1"
       d="m 868.59215,2159.1973 95.95504,149.1287"
       id="path466"
       inkscape:connector-type="polyline"
       inkscape:connector-curvature="0" />
    <text
       xml:space="preserve"
       style="font-size:78.8589px;line-height:1.25;font-family:sans-serif;-inkscape-font-specification:sans-serif;letter-spacing:0px;word-spacing:0px;stroke-width:0.985737"
       x="248.62241"
       y="2150.2017"
       id="text614"
       transform="scale(1.0033337,0.99667737)"><tspan
         sodipodi:role="line"
         id="tspan612"
         x="248.62241"
         y="2150.2017"
         style="stroke-width:0.985737">j2: 50 uA / cm2</tspan></text>
  </g>
  <g
     id="g868">
    <path
       style="fill:none;fill-rule:evenodd;stroke:#000000;stroke-width:0.853465px;stroke-linecap:butt;stroke-linejoin:miter;stroke-opacity:1"
       d="m 778.58766,2664.988 190.32936,-43.3126"
       id="path466-0"
       inkscape:connector-type="polyline"
       inkscape:connector-curvature="0" />
    <text
       xml:space="preserve"
       style="font-size:78.8589px;line-height:1.25;font-family:sans-serif;-inkscape-font-specification:sans-serif;letter-spacing:0px;word-spacing:0px;stroke-width:0.985737"
       x="64.198914"
       y="2702.8552"
       id="text614-0"
       transform="scale(1.0033337,0.99667737)"><tspan
         sodipodi:role="line"
         id="tspan612-5"
         x="64.198914"
         y="2702.8552"
         style="stroke-width:0.985737">j1: -50 uA / cm2</tspan></text>
  </g>
  <g
     id="g20959"
     transform="translate(156.75465,-2787.4063)">
    <path
       style="fill:none;fill-rule:evenodd;stroke:#000000;stroke-width:1.03994px;stroke-linecap:butt;stroke-linejoin:miter;stroke-opacity:1"
       d="M 740.79586,5746.0058 808.4268,5566.3931"
       id="path481"
       inkscape:connector-type="polyline"
       inkscape:connector-curvature="0" />
    <text
       xml:space="preserve"
       style="font-size:80px;line-height:1.25;font-family:sans-serif;-inkscape-font-specification:sans-serif;letter-spacing:0px;word-spacing:0px"
       x="146.60843"
       y="5780.3579"
       id="text15529"><tspan
         sodipodi:role="line"
         id="tspan15527"
         x="146.60843"
         y="5780.3579">E1: 0.0 V vs RHE</tspan></text>
  </g>
  <g
     id="g20954"
     transform="translate(485.64313,-2793.1371)">
    <path
       style="fill:none;fill-rule:evenodd;stroke:#000000;stroke-width:0.702728px;stroke-linecap:butt;stroke-linejoin:miter;stroke-opacity:1"
       d="M 1422.1384,5723.8155 1357.481,5570.8094"
       id="path494"
       inkscape:connector-type="polyline"
       inkscape:connector-curvature="0" />
    <text
       xml:space="preserve"
       style="font-size:80px;line-height:1.25;font-family:sans-serif;-inkscape-font-specification:sans-serif;letter-spacing:0px;word-spacing:0px"
       x="1267.2344"
       y="5788.8706"
       id="text15529-1"><tspan
         sodipodi:role="line"
         id="tspan15527-0"
         x="1267.2344"
         y="5788.8706">E2: 1.0 V vs RHE</tspan></text>
  </g>
  <text
     xml:space="preserve"
     style="font-size:80px;line-height:1.25;font-family:sans-serif;-inkscape-font-specification:sans-serif;letter-spacing:0px;word-spacing:0px"
     x="85.979424"
     y="1907.504"
     id="text9174"><tspan
       sodipodi:role="line"
       x="85.979424"
       y="1907.504"
       id="tspan9176">figure: 3</tspan></text>
  <text
     xml:space="preserve"
     style="font-size:80px;line-height:1.25;font-family:sans-serif;-inkscape-font-specification:sans-serif;letter-spacing:0px;word-spacing:0px"
     x="65.649818"
     y="1981.3492"
     id="text7770"><tspan
       sodipodi:role="line"
       id="tspan7768"
       x="65.649818"
       y="1981.3492">scan rate: 50 mV / s</tspan></text>
  <g
     id="g3312">
    <path
       style="opacity:0.7;fill:none;fill-opacity:0.32549;stroke:#d53bcd;stroke-width:2.712;stroke-opacity:1"
       d="m 1028.0609,2359.7395 0,-4e-4 c -0.035,-8.0566 7.9179,-14.6167 11.8559,-21.6455 3.5925,-6.4122 2.8424,-6.5978 4.8928,-11.9013 3.517,-9.0972 7.6253,-20.703 10.05,-30.1502 2.1916,-8.5391 3.7039,-17.3156 4.8928,-26.0509 1.1995,-8.8127 3.2483,-15.9108 4.3639,-24.0672 0.9605,-7.0225 1.6454,-10.4888 3.5704,-21.158 1.5272,-8.4647 1.2747,-8.7772 4.6283,-15.4718 0.9209,-1.8384 3.919,-3.5637 5.6862,-2.5125 3.1583,1.8787 4.3602,8.5469 5.8184,13.2238 4.5016,14.4371 4.2948,16.0171 6.8764,24.1994 2.7051,8.5738 4.7459,14.3311 7.9342,23.935 1.8087,5.4481 4.6074,12.7374 6.6119,18.1165 1.7107,4.5906 3.5496,8.7388 6.6119,12.5627 4.2113,5.2586 10.1087,9.1464 15.4719,13.2237 4.285,3.2576 9.4979,5.6442 13.4882,9.2567 5.3521,4.8452 7.3643,7.9966 10.8435,12.5625 3.837,5.0354 7.9036,11.1093 12.1658,15.3396 3.9096,3.8803 5.1611,5.7581 9.5211,9.1244 4.8021,3.7077 12.3173,7.0979 17.1909,10.7112 4.646,3.4445 9.2781,8.0819 13.0915,12.4303 5.1046,5.8207 7.2904,9.0212 12.4304,14.8107 3.5118,3.9555 7.7199,10.5133 11.9014,13.7527 5.3549,4.1485 11.7349,7.0363 17.5876,10.4468 6.5629,3.8244 15.2288,7.7039 21.9514,11.2402 5.6263,2.9596 9.1464,5.7277 14.6784,8.8599 6.4514,3.6527 13.2054,7.7276 20.3646,9.6533 8.2011,2.2059 16.1055,2.7331 24.5962,2.9093 8.4687,0.1757 18.5127,0.2068 26.9765,-0.1323 9.1679,-0.3673 18.6116,-0.8972 27.7699,-1.4546 8.4768,-0.516 19.5724,-1.792 28.0343,-2.5125 8.1119,-0.6907 17.2653,-1.3291 25.3897,-1.8513 8.4531,-0.5434 14.0112,-0.2811 22.4804,-0.1323 9.1941,0.1615 16.2008,-0.4851 25.3896,-0.1322 7.7522,0.2977 15.5322,0.5028 23.2738,0 8.1621,-0.5301 17.9129,-0.8984 26.0509,-1.7191 9.8489,-0.9932 18.0924,-2.2445 27.9021,-3.5704 7.1275,-0.9634 14.4434,-1.7005 21.5547,-2.777 10.1652,-1.5388 20.0246,-3.906 30.1503,-5.6862 5.7279,-1.007 12.093,-2.4966 17.7198,-3.9671 7.78,-2.0332 15.7898,-4.8238 22.7448,-8.8599 4.7446,-2.7534 7.4172,-4.6725 11.5047,-8.331 6.7299,-6.0235 13.6551,-11.8408 19.4389,-18.7777 3.3342,-3.999 6.3879,-7.2809 9.7856,-11.7693 4.4196,-5.8382 6.8773,-8.7913 10.4468,-12.6948 3.2016,-3.5011 5.735,-5.5659 10.0501,-7.5375 5.1718,-2.363 9.7804,-3.2699 14.2816,-6.7441 3.0066,-2.3206 4.3403,-4.6639 6.4797,-7.802 4.544,-6.6654 7.033,-14.7804 9.6533,-21.4225 2.6678,-6.7625 4.8138,-11.1725 6.4797,-18.2488 1.9623,-8.3357 3.3808,-13.6049 6.0829,-21.687 1.0309,-3.0834 4.3375,-8.7851 7.2731,-10.1823 4.2719,-2.0333 6.0686,1.5542 8.5954,5.554 2.8624,4.531 5.3873,8.5164 7.6698,12.1659 1.9252,3.0781 4.9453,6.4156 7.9342,9.5211 4.128,4.2891 7.2099,7.3347 7.6698,12.1659 0.736,7.7309 0.1578,12.4701 0.3967,20.2323 0.4205,13.6591 1.5179,34.2081 1.0579,50.7793 -0.5103,18.384 -3.1586,36.651 -4.2316,55.0108 -0.5147,8.8079 0.06,17.6957 -1.0579,26.4475 -1.0514,8.2332 -2.0494,16.6903 -5.2895,24.3318 -2.978,7.0234 -7.6173,13.3488 -12.6948,19.0422 -3.9969,4.4818 -9.2424,7.6722 -13.7527,11.6369 -8.2488,7.251 -15.0034,13.035 -24.3317,22.2159 -3.7699,3.7103 -9.0508,7.2847 -12.5626,11.2402 -5.14,5.7894 -7.5846,9.2417 -13.6204,15.4718 -5.4867,5.6632 -9.7242,11.648 -17.3232,13.7528 -8.8619,2.4546 -16.3262,2.4124 -26.8442,0.7934 -9.1219,-1.4041 -14.5308,-8.0334 -20.4969,-15.0752 -6.7928,-8.0175 -14.6365,-16.7169 -21.158,-23.935 -6.9325,-7.673 -16.307,-14.0486 -24.9929,-19.1744 -8.0178,-4.7316 -17.5011,-7.3174 -26.3153,-10.3145 -10.7657,-3.6607 -17.864,-6.7844 -26.4475,-10.8435 -6.7549,-3.1944 -15.8296,-5.7321 -23.0093,-7.802 -12.165,-3.5072 -20.4526,-4.5826 -32.9273,-6.7441 -10.1666,-1.7616 -24.8822,-3.7057 -35.8363,-4.4961 -15.8359,-1.1426 -22.8317,-2.6979 -38.878,-3.9671 -6.7619,-0.5349 -19.0787,-1.1073 -25.7863,-2.1159 -9.8631,-1.4831 -20.9947,-2.2022 -30.9436,-2.9092 -15.4768,-1.0999 -33.3319,-1.8005 -44.9607,-1.0579 -11.8968,0.7596 -20.6713,3.0687 -31.2081,7.8021 -9.3862,4.2165 -13.4383,6.5459 -19.3067,8.8599 -9.2121,3.6325 -29.0269,7.5908 -39.2746,12.4303 -11.4968,5.4294 -15.5462,6.8521 -21.4225,12.4303 -7.1158,6.7547 -12.6365,10.6967 -17.8521,16.0008 -4.8764,4.9591 -7.5261,11.9818 -11.6369,17.7198 -5.5229,7.709 -12.013,24.993 -17.9843,40.597 -2.3136,6.0459 -5.4019,11.9016 -8.7277,17.4554 -4.7243,7.8892 -9.0961,15.1244 -13.356,23.2738 -2.12,4.0557 -3.9459,9.0093 -7.5375,12.1658 -1.6112,1.416 -3.1511,1.8917 -4.3638,1.1901 -2.3479,-1.3582 -5.0819,-8.0271 -9.1245,-8.8599 -2.4538,-0.5055 -3.8335,-0.3622 -6.2152,1.8514 -2.8296,2.6298 -3.7421,8.2785 -5.9507,13.8849 -4.2405,10.7644 -8.719,20.678 -11.1079,32.9272 -2.1314,10.9287 -5.1152,21.7382 -7.6698,33.0594 -1.0091,4.4718 -2.3455,7.3658 -4.2316,12.6948 -0.795,2.2463 -2.5503,5.7154 -4.6283,4.7606 -3.3084,-1.5202 -6.4587,-11.2454 -8.1987,-22.8771 -1.494,-9.9867 -2.6374,-17.5562 -4.3639,-27.5054 -1.8248,-10.5155 -3.6007,-22.1704 -5.5539,-32.6628 -1.6592,-8.9131 -4.5102,-20.6854 -5.8185,-25.9186 -1.4546,-5.8184 -2.571,-14.0965 -6.2152,-20.7612 -1.4553,-2.6616 -5.5901,-7.4991 -8.1986,-5.9507 -4.8159,2.8586 -5.3315,0.4303 -5.3311,-1.3674"
       id="path1771"
       sodipodi:nodetypes="cssssssssssssssssssssssssssssssssssssssssssssssssssssssssssssssssssssssssssssssssssssssssssssssssssssssssc" />
    <text
       xml:space="preserve"
       style="font-size:80px;line-height:1.25;font-family:sans-serif;-inkscape-font-specification:sans-serif;letter-spacing:0px;word-spacing:0px"
       x="1451.219"
       y="2683.001"
       id="text3406"><tspan
         sodipodi:role="line"
         id="tspan3404"
         x="1451.219"
         y="2683.001">curve: black</tspan></text>
  </g>
</svg>
