<?xml version="1.0" encoding="UTF-8" standalone="no"?>
<svg
   height="7016px"
   version="1.1"
   width="4961px"
   id="svg136"
   sodipodi:docname="abe_2019_electro-oxidation_315_f4b1_black.svg"
   inkscape:version="1.3.2 (091e20e, 2023-11-25)"
   xmlns:inkscape="http://www.inkscape.org/namespaces/inkscape"
   xmlns:sodipodi="http://sodipodi.sourceforge.net/DTD/sodipodi-0.dtd"
   xmlns:xlink="http://www.w3.org/1999/xlink"
   xmlns="http://www.w3.org/2000/svg"
   xmlns:svg="http://www.w3.org/2000/svg">
  <sodipodi:namedview
     id="namedview138"
     pagecolor="#ffffff"
     bordercolor="#000000"
     borderopacity="0.25"
     inkscape:showpageshadow="2"
     inkscape:pageopacity="0.0"
     inkscape:pagecheckerboard="0"
     inkscape:deskcolor="#d1d1d1"
     showgrid="false"
     inkscape:zoom="0.40225263"
     inkscape:cx="1154.747"
     inkscape:cy="4952.1118"
     inkscape:window-width="1440"
     inkscape:window-height="793"
     inkscape:window-x="0"
     inkscape:window-y="25"
     inkscape:window-maximized="0"
     inkscape:current-layer="svg136" />
  <defs
     id="defs132">
    <linearGradient
       id="linearGradient1711"
       inkscape:swatch="solid">
      <stop
         style="stop-color:#000000;stop-opacity:1;"
         offset="0"
         id="stop1709" />
    </linearGradient>
  </defs>
  <image
     height="7016px"
     sodipodi:insensitive="true"
     width="4961px"
     x="0"
     xlink:href="abe_2019_electro-oxidation_315_p5.png"
     y="0"
     id="image134" />
  <g
     id="g4">
    <path
       style="display:inline;fill:none;fill-rule:evenodd;stroke:#000000;stroke-width:1.12445px;stroke-linecap:butt;stroke-linejoin:miter;stroke-opacity:1"
       d="m 810.97174,4810.1329 159.19221,-9.8754"
       id="path466"
       inkscape:connector-type="polyline"
       inkscape:connector-curvature="0" />
    <text
       xml:space="preserve"
       style="font-size:78.8589px;line-height:1.25;font-family:sans-serif;-inkscape-font-specification:sans-serif;letter-spacing:0px;word-spacing:0px;stroke-width:0.985737;fill:#000000;fill-opacity:1;stroke:#000000;stroke-opacity:1"
       x="178.97093"
       y="4847.8472"
       id="text614"
       transform="scale(1.0033337,0.99667737)"><tspan
         sodipodi:role="line"
         id="tspan612"
         x="178.97093"
         y="4847.8472"
         style="stroke-width:0.985737;fill:#000000;fill-opacity:1;stroke:#000000;stroke-opacity:1">j2: 50 uA / cm2</tspan></text>
  </g>
  <g
     id="g6">
    <path
       style="display:inline;fill:none;fill-rule:evenodd;stroke:#000000;stroke-width:0.853465px;stroke-linecap:butt;stroke-linejoin:miter;stroke-opacity:1"
       d="m 782.26575,5157.1373 187.9992,-43.872"
       id="path466-0"
       inkscape:connector-type="polyline"
       inkscape:connector-curvature="0" />
    <text
       xml:space="preserve"
       style="font-size:78.8589px;line-height:1.25;font-family:sans-serif;-inkscape-font-specification:sans-serif;letter-spacing:0px;word-spacing:0px;stroke-width:0.985737;fill:#000000;fill-opacity:1;stroke:#000000;stroke-opacity:1"
       x="67.864777"
       y="5230.7446"
       id="text614-0"
       transform="scale(1.0033337,0.99667737)"><tspan
         sodipodi:role="line"
         id="tspan612-5"
         x="67.864777"
         y="5230.7446"
         style="stroke-width:0.985737;fill:#000000;fill-opacity:1;stroke:#000000;stroke-opacity:1">j1: -50 uA / cm2</tspan></text>
  </g>
  <g
     id="g1">
    <path
       style="display:inline;fill:none;fill-rule:evenodd;stroke:#000000;stroke-width:1.03994px;stroke-linecap:butt;stroke-linejoin:miter;stroke-opacity:1"
       d="M 841.35217,5391.1454 969.78914,5269.8563"
       id="path481"
       inkscape:connector-type="polyline"
       inkscape:connector-curvature="0" />
    <text
       xml:space="preserve"
       style="font-size:80px;line-height:1.25;font-family:sans-serif;-inkscape-font-specification:sans-serif;letter-spacing:0px;word-spacing:0px;fill:#000000;fill-opacity:1;stroke:#000000;stroke-opacity:1"
       x="193.73875"
       y="5460.8491"
       id="text15529"><tspan
         sodipodi:role="line"
         id="tspan15527"
         x="193.73875"
         y="5460.8491">E1: 0.0 V vs RHE</tspan></text>
  </g>
  <g
     id="g5">
    <path
       style="display:inline;fill:none;fill-rule:evenodd;stroke:#000000;stroke-width:0.702728px;stroke-linecap:butt;stroke-linejoin:miter;stroke-opacity:1"
       d="M 1823.6818,5409.8482 1850.259,5269.269"
       id="path494"
       inkscape:connector-type="polyline"
       inkscape:connector-curvature="0" />
    <text
       xml:space="preserve"
       style="font-size:80px;line-height:1.25;font-family:sans-serif;-inkscape-font-specification:sans-serif;letter-spacing:0px;word-spacing:0px;fill:#000000;fill-opacity:1;stroke:#000000;stroke-opacity:1"
       x="1760.2336"
       y="5474.7646"
       id="text15529-1"><tspan
         sodipodi:role="line"
         id="tspan15527-0"
         x="1760.2336"
         y="5474.7646">E2: 1.0 V vs RHE</tspan></text>
  </g>
  <text
     xml:space="preserve"
     style="font-size:80px;line-height:1.25;font-family:sans-serif;-inkscape-font-specification:sans-serif;letter-spacing:0px;word-spacing:0px;fill:#000000;fill-opacity:1;stroke:#000000;stroke-opacity:1"
     x="93.335602"
     y="4511.5903"
     id="text9174"><tspan
       sodipodi:role="line"
       x="93.335602"
       y="4511.5903"
       id="tspan9176">figure: 3</tspan></text>
  <text
     xml:space="preserve"
     style="font-size:80px;line-height:1.25;font-family:sans-serif;-inkscape-font-specification:sans-serif;letter-spacing:0px;word-spacing:0px;fill:#000000;fill-opacity:1;stroke:#000000;stroke-opacity:1"
     x="95.132912"
     y="4605.7383"
     id="text7770"><tspan
       sodipodi:role="line"
       id="tspan7768"
       x="95.132912"
       y="4605.7383">scan rate: 50 mV / s</tspan></text>
  <g
     id="g7">
    <text
       xml:space="preserve"
       style="font-size:80px;line-height:1.25;font-family:sans-serif;-inkscape-font-specification:sans-serif;letter-spacing:0px;word-spacing:0px;fill:#000000;fill-opacity:1;stroke:#000000;stroke-opacity:1"
       x="1395.8124"
       y="5200.5854"
       id="text9174-2"><tspan
         sodipodi:role="line"
         x="1395.8124"
         y="5200.5854"
         id="tspan9176-4">curve: black</tspan></text>
    <path
       style="fill:none;fill-opacity:1;stroke:#ff00ff;stroke-width:3.8;stroke-dasharray:none;stroke-opacity:1"
       d="m 1032.8664,4868.9763 c 0,0 2.967,-9.3947 7.0323,-10.5484 7.4419,-2.1119 14.6586,5.381 21.0969,9.6694 8.6289,5.7475 14.7865,14.5858 22.8549,21.0968 10.3117,8.3213 21.0225,16.2759 32.5243,22.855 6.1465,3.5158 12.3295,7.7856 19.3388,8.7903 4.1019,0.5879 8.387,-0.4133 12.3065,-1.7581 6.7034,-2.3 13.0283,-5.9958 18.4597,-10.5484 7.0155,-5.8803 12.9455,-13.2031 17.5807,-21.0968 8.2662,-14.0772 12.068,-30.3441 17.5807,-45.7099 3.129,-8.7215 5.9762,-17.5429 8.7904,-26.371 2.1396,-6.7117 4.3846,-12.519 7.2642,-18.948 3.2251,-7.2003 6.5047,-15.144 11.1955,-21.4876 2.0978,-2.837 3.8635,-6.3597 7.0323,-7.9114 3.9561,-1.9372 7.1349,-1.1582 10.646,1.5018 4.5347,3.4357 7.4068,11.5893 9.5476,16.8604 2.6403,6.5011 9.2171,23.4556 10.6581,26.0779 3.1237,5.6844 7.312,17.4542 10.2799,23.2214 3.6473,7.0873 8.7602,12.9259 13.271,19.4975 3.3577,4.8915 6.677,8.6059 11.0978,12.5628 5.3703,4.8066 13.0598,9.3554 19.1801,13.1612 9.0574,5.6323 14.7858,9.1453 22.9525,16.0057 8.5726,7.2014 14.0898,15.1237 23.3432,21.4264 6.7156,4.5742 14.053,8.7454 21.9759,10.5484 7.4284,1.6905 15.2758,0.7721 22.8549,0 10.119,-1.0309 20.1001,-3.2435 30.2046,-4.4074 11.0652,-1.2745 21.9523,-2.3045 33.086,-2.6249 9.3771,-0.2699 18.7633,-0.3004 28.1291,0.232 14.1904,0.8067 36.8362,4.4226 50.9234,6.312 14.3364,1.9228 20.8357,3.4408 35.2953,3.0521 18.4438,-0.4958 39.0219,-0.2184 55.9287,-7.6061 11.1159,-4.8572 19.0627,-13.6035 26.6274,-23.0868 6.2152,-7.7915 10.9011,-18.1644 15.6396,-26.9327 5.4491,-10.083 8.704,-18.2898 15.444,-27.8971 2.9962,-4.2708 6.8085,-9.3721 11.9891,-9.9869 7.6818,-0.9114 14.65,6.5858 22.3666,7.1299 11.2824,0.7955 20.692,-4.1965 31.2546,-8.2409 5.7529,-2.2028 11.5365,-4.7246 17.3365,-6.8003 4.5499,-1.6283 7.7463,-1.9518 12.3187,-3.5161 2.2743,-0.778 5.7651,-3.1759 5.8969,-2.0633 4.0701,34.3544 2.0389,73.6993 -0.3907,109.9526 -1.1083,16.5382 -0.5722,33.9615 -7.0323,49.226 -4.4771,10.579 -12.1577,17.3371 -21.0969,24.5518 -5.8132,4.6918 -12.7064,9.3088 -19.1068,13.1613 -8.4352,5.0773 -16.8744,11.0077 -24.8449,16.7871 -9.0173,6.5384 -18.5403,14.2985 -28.5199,19.815 -9.3592,5.1735 -19.2078,6.1354 -29.8993,5.909 -11.376,-0.2409 -21.96,-3.5789 -32.451,-7.9846 -8.063,-3.386 -14.701,-6.7008 -20.8527,-10.9391 -14.3245,-9.8692 -12.8174,-9.9351 -18.0448,-13.8083 -7.3926,-5.4775 -12.775,-8.2859 -20.5474,-13.2098 -6.9747,-4.4185 -14.4317,-7.5621 -22.452,-9.5228 -6.5465,-1.6004 -13.0037,-2.0394 -19.7417,-1.9047 -7.3297,0.1465 -14.6683,1.402 -21.9758,1.9901 -9.7088,0.7813 -19.2857,1.818 -29.0082,2.4051 -13.7465,0.8301 -23.0118,0.7675 -36.7118,-0.6349 -8.6322,-0.8836 -21.5918,-2.9094 -30.0949,-4.6393 -8.7845,-1.7872 -18.4007,-2.647 -27.3233,-1.7823 -10.7237,1.0392 -21.5894,5.4345 -29.8872,12.3065 -6.6675,5.5218 -10.1862,8.2247 -15.7494,14.0888 -5.2781,5.5635 -10.2514,11.11 -15.6639,16.5429 -6.2896,6.3133 -13.7546,14.3243 -20.4498,20.2057 -7.3573,6.463 -15.1338,10.7482 -22.22,17.5074 -5.1063,4.8706 -10.2449,9.0616 -13.7472,15.1878 -4.7369,8.2858 -7.332,18.318 -10.695,27.2501 -4.162,11.0541 -7.9006,21.5098 -12.1599,32.5243 -1.502,3.8842 -4.7156,8.0275 -8.7171,9.1811 -2.2699,0.6544 -5.9936,-0.8775 -7.9846,-2.1489 -6.9894,-4.463 -9.1732,-13.8393 -13.1855,-21.0968 -5.1992,-9.4045 -9.1558,-19.4489 -14.0646,-29.0082 -5.3305,-10.3804 -9.5508,-21.5343 -14.6382,-32.036 -4.8644,-10.0414 -9.3395,-20.0323 -15.249,-29.4964 -5.942,-9.5162 -14.0947,-18.0457 -23.5631,-24.0636 -6.42,-4.0804 -13.2583,-5.9211 -20.8648,-5.8358 -7.044,0.079 -13.3108,3.8986 -19.5829,7.1056 -8.192,4.1887 -12.5581,7.8924 -19.5951,13.8447 -9.0181,7.6281 -19.1871,16.929 -27.1525,25.6507 -5.7439,6.2893 -10.6805,12.4829 -15.2732,19.6562 -3.8181,5.9634 -6.3635,9.7059 -9.2665,16.1644 -1.1831,2.6322 -4.1892,8.8247 -5.1034,11.5619 -1.9846,5.9423 -6.3974,4.4806 -6.3974,4.4806 v 0"
       id="path6"
       sodipodi:nodetypes="cssssssssssssssssssssssssssssssssssssssssssssssssssssssssssssssssssssssssssssssscc" />
  </g>
</svg>
