<?xml version="1.0" encoding="UTF-8" standalone="no"?>
<svg
   height="7016px"
   version="1.1"
   width="4961px"
   id="svg3348"
   sodipodi:docname="abe_2019_electro-oxidation_315_f2_Pt432_black.svg"
   inkscape:version="1.2.2 (732a01da63, 2022-12-09)"
   xmlns:inkscape="http://www.inkscape.org/namespaces/inkscape"
   xmlns:sodipodi="http://sodipodi.sourceforge.net/DTD/sodipodi-0.dtd"
   xmlns:xlink="http://www.w3.org/1999/xlink"
   xmlns="http://www.w3.org/2000/svg"
   xmlns:svg="http://www.w3.org/2000/svg">
  <sodipodi:namedview
     id="namedview3350"
     pagecolor="#ffffff"
     bordercolor="#000000"
     borderopacity="0.25"
     inkscape:showpageshadow="2"
     inkscape:pageopacity="0.0"
     inkscape:pagecheckerboard="0"
     inkscape:deskcolor="#d1d1d1"
     showgrid="false"
     inkscape:zoom="0.47263398"
     inkscape:cx="1171.0965"
     inkscape:cy="3736.5067"
     inkscape:window-width="1920"
     inkscape:window-height="1009"
     inkscape:window-x="-8"
     inkscape:window-y="-8"
     inkscape:window-maximized="1"
     inkscape:current-layer="svg3348" />
  <defs
     id="defs3344" />
  <image
     height="7016px"
     sodipodi:insensitive="true"
     width="4961px"
     x="0"
     xlink:href="abe_2019_electro-oxidation_315_p4.png"
     y="0"
     id="image3346" />
  <g
     id="g21003"
     transform="translate(172.22175,-1467.3398)">
    <path
       style="fill:none;fill-rule:evenodd;stroke:#000000;stroke-width:1.01318px;stroke-linecap:butt;stroke-linejoin:miter;stroke-opacity:1"
       d="m 713.12398,4614.6134 85.02886,136.6329"
       id="path466"
       inkscape:connector-type="polyline"
       inkscape:connector-curvature="0" />
    <text
       xml:space="preserve"
       style="font-size:80px;line-height:1.25;font-family:sans-serif;-inkscape-font-specification:sans-serif;letter-spacing:0px;word-spacing:0px"
       x="153.72534"
       y="4620.3008"
       id="text12078"><tspan
         sodipodi:role="line"
         id="tspan12076"
         x="153.72534"
         y="4620.3008">j2: 50 uA / cm2</tspan></text>
  </g>
  <g
     id="g14202"
     transform="translate(169.79264,-1684.0952)">
    <path
       style="fill:none;fill-rule:evenodd;stroke:#000000;stroke-width:1.03582px;stroke-linecap:butt;stroke-linejoin:miter;stroke-opacity:1"
       d="M 669.00263,5565.4145 799.92854,5430.9302"
       id="path451"
       inkscape:connector-type="polyline"
       inkscape:connector-curvature="0" />
    <text
       xml:space="preserve"
       style="font-size:80px;line-height:1.25;font-family:sans-serif;-inkscape-font-specification:sans-serif;letter-spacing:0px;word-spacing:0px"
       x="92.746017"
       y="5599.541"
       id="text12078-9"><tspan
         sodipodi:role="line"
         id="tspan12076-7"
         x="92.746017"
         y="5599.541">j1: -50 uA / cm2</tspan></text>
  </g>
  <g
     id="g20959"
     transform="translate(161.452,-1664.9598)">
    <path
       style="fill:none;fill-rule:evenodd;stroke:#000000;stroke-width:1.03994px;stroke-linecap:butt;stroke-linejoin:miter;stroke-opacity:1"
       d="M 740.79586,5746.0058 808.4268,5566.3931"
       id="path481"
       inkscape:connector-type="polyline"
       inkscape:connector-curvature="0" />
    <text
       xml:space="preserve"
       style="font-size:80px;line-height:1.25;font-family:sans-serif;-inkscape-font-specification:sans-serif;letter-spacing:0px;word-spacing:0px"
       x="146.60843"
       y="5780.3579"
       id="text15529"><tspan
         sodipodi:role="line"
         id="tspan15527"
         x="146.60843"
         y="5780.3579">E1: 0.0 V vs RHE</tspan></text>
  </g>
  <g
     id="g20954"
     transform="translate(307.42488,-1668.6032)">
    <path
       style="fill:none;fill-rule:evenodd;stroke:#000000;stroke-width:1px;stroke-linecap:butt;stroke-linejoin:miter;stroke-opacity:1"
       d="m 1253.0722,5764.1322 103.6679,-193.2448"
       id="path494"
       inkscape:connector-type="polyline"
       inkscape:connector-curvature="0" />
    <text
       xml:space="preserve"
       style="font-size:80px;line-height:1.25;font-family:sans-serif;-inkscape-font-specification:sans-serif;letter-spacing:0px;word-spacing:0px"
       x="1267.2344"
       y="5788.8706"
       id="text15529-1"><tspan
         sodipodi:role="line"
         id="tspan15527-0"
         x="1267.2344"
         y="5788.8706">E2: 0.8 V vs RHE</tspan></text>
  </g>
  <text
     xml:space="preserve"
     style="font-size:80px;line-height:1.25;font-family:sans-serif;-inkscape-font-specification:sans-serif;letter-spacing:0px;word-spacing:0px"
     x="164.26411"
     y="2064.0732"
     id="text9174"><tspan
       sodipodi:role="line"
       x="164.26411"
       y="2064.0732"
       id="tspan9176">figure: 2</tspan></text>
  <text
     xml:space="preserve"
     style="font-size:80px;line-height:1.25;font-family:sans-serif;-inkscape-font-specification:sans-serif;letter-spacing:0px;word-spacing:0px"
     x="87.467171"
     y="2180.4556"
     id="text7770"><tspan
       sodipodi:role="line"
       id="tspan7768"
       x="87.467171"
       y="2180.4556">scan rate: 50 mV / s</tspan></text>
  <g
     id="g4042">
    <path
       style="opacity:0.7;fill:none;fill-opacity:0.32549;stroke:#d53bcd;stroke-width:2.712"
       d="m 1031.5596,3506.8539 c 0,0 3.8052,-15.9904 7.4805,-21.3194 2.8214,-4.0908 3.2277,-3.7351 4.8623,-6.5455 2.4115,-4.146 5.025,-7.6616 7.4805,-11.7817 2.7616,-4.6338 4.0217,-8.603 6.3584,-13.4649 2.4937,-5.1885 3.922,-10.8525 5.2364,-16.4571 1.4976,-6.3861 2.3366,-12.9228 2.9922,-19.4493 0.524,-5.216 1.5064,-10.7359 2.4311,-15.896 1.8917,-10.5568 4.7353,-20.4417 7.2936,-30.857 1.0268,-4.1802 1.0043,-8.5249 2.9921,-12.3428 0.6514,-1.2511 1.5838,-3.0702 2.9922,-2.9922 1.5942,0.088 2.9075,2.3979 3.3662,3.9272 2.3684,7.8949 3.5533,15.2727 5.0494,23.0025 1.4961,7.7299 3.2072,15.8284 4.6753,23.5636 2.0336,10.7147 2.7601,15.1461 5.7974,25.6207 1.4958,5.1587 4.667,19.1664 6.7324,24.1246 3.135,7.5257 4.286,12.2131 8.0415,19.4492 2.4231,4.6687 3.8526,9.3321 7.1065,13.4649 1.7451,2.2165 6.394,7.5699 8.4155,9.5376 4.6766,4.5519 7.4749,6.29 12.9039,9.9117 4.0859,2.7257 8.7786,4.5137 13.4649,5.9844 6.2989,1.9769 9.5192,3.1391 16.083,2.4311 3.7761,-0.4073 11.125,-1.9031 14.2129,-4.1143 2.7275,-1.9531 5.314,-5.464 7.6676,-7.8545 3.3422,-3.3946 5.0916,-5.943 9.1635,-8.4155 3.1685,-1.9239 5.2789,-3.4338 8.7896,-2.2441 4.7818,1.6205 7.0462,7.0637 9.9117,11.2207 5.2648,7.6376 9.639,14.3712 14.213,22.4415 2.5347,4.4721 7.2905,9.6852 9.7245,14.2129 3.8313,7.1268 8.1431,12.5876 13.6519,18.5142 3.8712,4.1648 7.0467,9.0078 11.7818,12.1558 3.8119,2.5342 7.0859,6.4519 11.2208,8.4155 6.776,3.2179 14.5818,5.4999 22.0674,5.9845 6.1189,0.396 10.592,1.2496 16.083,1.309 10.4751,0.1132 20.9501,-0.348 31.4181,-0.748 9.4815,-0.3623 18.9503,-1.0038 28.4259,-1.4961 9.7243,-0.5052 19.4539,-0.914 29.1739,-1.4961 18.2126,-1.0906 36.1861,-1.0595 54.4206,-1.6832 11.4634,-0.3921 23.1645,-1.1326 34.5972,-2.0571 10.8278,-0.8756 21.6113,-2.6664 32.1661,-5.2363 14.0204,-3.4137 27.9429,-7.6348 41.1427,-13.4649 7.865,-3.4739 15.2251,-8.0424 22.4415,-12.7168 8.8321,-5.7209 18.2952,-10.9697 25.4337,-18.7012 4.1777,-4.5248 7.2774,-10.0577 9.7246,-15.7091 2.6679,-6.1611 3.4584,-12.975 5.2363,-19.4493 1.7142,-6.2424 3.5466,-12.4522 5.2364,-18.7012 1.5472,-5.7215 2.3049,-11.6949 4.4883,-17.2051 1.1509,-2.9046 2.301,-5.9975 4.4883,-8.2285 1.4074,-1.4355 3.2281,-3.0842 5.2363,-2.9922 3.0405,0.1393 5.9844,2.2441 7.4805,5.2363 1.4961,2.9922 5.6995,10.7431 7.8545,15.522 2.3419,5.1934 4.2028,9.8012 7.2935,14.587 2.2021,3.4099 2.893,6.0221 6.3584,9.3506 2.5748,2.4732 4.6547,5.4164 8.0416,6.5454 3.3869,1.129 8.8184,0.1959 12.3428,-0.374 4.8549,-0.785 11.4019,-4.3409 14.2129,-5.6104 5.7974,-2.6181 12.291,-5.675 17.2051,-10.0986 4.2261,-3.8042 9.1526,-7.6926 14.2129,-10.2857 3.9323,-2.015 7.5911,-3.3285 11.9688,-3.9273 9.7188,-1.3294 11.1869,-2.7422 16.4571,-4.1143 4.2142,-1.0972 10.0159,-7.483 12.5298,-3.9272 1.7842,2.5236 1.1729,20.0257 1.4961,29.5479 0.4571,13.4664 0.1292,26.3773 -0.561,39.8337 -0.7809,15.223 -0.9444,30.5261 -2.9922,45.6309 -0.992,7.3174 -3.2098,14.6488 -5.4234,21.6935 -1.7078,5.435 -4.8812,11.1901 -8.7895,15.335 -4.2076,4.4623 -7.4997,8.5573 -12.7169,11.7817 -5.3028,3.2773 -10.2418,5.0468 -15.709,8.0416 -5.6054,3.0705 -11.9608,5.5557 -17.5792,8.6025 -10.3463,5.6106 -16.3225,9.3444 -25.2466,17.0182 -6.417,5.518 -15.7689,13.7888 -21.5064,20.0103 -4.4372,4.8115 -8.7896,10.4726 -12.5299,15.7089 -3.7402,5.2364 -7.9576,11.5725 -11.9687,16.0832 -3.7493,4.2162 -6.9652,7.3116 -11.0338,11.2207 -3.1811,3.0564 -6.0906,6.9923 -10.2856,8.4155 -5.6109,1.9036 -15.1574,-1.7505 -20.3844,-4.6753 -9.7887,-5.4772 -16.8179,-8.541 -25.2466,-15.3349 -4.1274,-3.3268 -7.479,-6.0046 -10.8467,-10.0987 -4.4041,-5.354 -8.4183,-9.8073 -12.3429,-15.5221 -4.6239,-6.7331 -7.1548,-13.6534 -11.7817,-20.3843 -5.5377,-8.0559 -10.7142,-16.6199 -17.9532,-23.1895 -5.8914,-5.3466 -18.7585,-10.5409 -22.0674,-11.0337 -8.7896,-1.3091 -27.541,-6.2815 -40.9558,-9.7247 -11.015,-2.8272 -20.7836,-8.2889 -31.979,-10.2856 -11.3345,-2.0215 -22.4051,-0.7972 -33.8493,-2.0571 -11.2521,-1.2387 -20.5364,-0.8511 -31.792,-2.0572 -9.2035,-0.986 -22.3565,-1.8699 -31.6051,-2.2442 -14.6996,-0.595 -35.1743,-1.2172 -49.5583,1.8701 -10.6938,2.2953 -13.6824,2.5047 -23.0024,8.2286 -8.4619,5.1968 -14.0765,11.3764 -20.5714,18.8882 -4.1675,4.82 -8.8051,10.9705 -12.3428,16.2701 -4.1532,6.2217 -6.603,10.3591 -10.6597,16.6441 -3.0865,4.7819 -6.73,12.5457 -11.0337,16.2701 -3.2219,2.7882 -5.4655,6.2394 -9.7247,6.3584 -4.1782,0.1168 -7.3131,-2.5834 -11.0337,-4.4883 -4.439,-2.2727 -11.4799,-7.7766 -16.2701,-9.1636 -6.0069,-1.7393 -9.3847,-0.241 -15.335,1.6831 -7.7717,2.513 -14.1465,6.1774 -20.5713,11.2208 -5.5476,4.3548 -9.9672,8.505 -13.839,14.3998 -7.0668,10.7591 -11.2423,21.1482 -15.5219,33.2883 -2.5172,7.1407 -8.4786,17.3714 -11.0337,24.4986 -4.4534,12.4226 -9.152,24.8072 -13.0909,37.4024 -2.0585,6.5823 -3.897,12.1228 -5.2363,18.8882 -1.1304,5.7103 -1.1197,9.4039 -1.6832,11.5948 -0.5342,2.0774 -2.8675,11.367 -4.8622,12.1558 -2.3647,0.9351 -4.7656,-2.219 -5.4234,-4.6753 -1.7532,-6.5465 -2.966,-10.742 -4.3013,-16.4571 -2.1051,-9.0102 -4.4216,-17.6568 -6.1714,-26.7427 -2.094,-10.8731 -2.8184,-17.6282 -5.9844,-28.2388 -1.6583,-5.5576 -4.6178,-13.0963 -7.4805,-18.1403 -2.2188,-3.9095 -4.7765,-7.6296 -7.4805,-11.2207 -2.0669,-2.745 -5.1396,-3.6191 -6.3584,-1.4962 -2.7512,4.7922 -6.9194,1.1221 -6.9194,1.1221"
       id="path4010"
       sodipodi:nodetypes="csssssssssssssssssssssssssssssssssssssssssssssssssssssssssssssssssssssssssssssssssssssssssssssssssssssssssssssssc" />
    <text
       xml:space="preserve"
       style="font-size:80px;line-height:1.25;font-family:sans-serif;-inkscape-font-specification:sans-serif;letter-spacing:0px;word-spacing:0px"
       x="1626.8304"
       y="3401.3159"
       id="text3406"><tspan
         sodipodi:role="line"
         id="tspan3404"
         x="1626.8304"
         y="3401.3159">curve: black</tspan></text>
  </g>
</svg>
