<?xml version="1.0" encoding="UTF-8" standalone="no"?>
<svg
   height="7016px"
   version="1.1"
   width="4961px"
   id="svg136"
   sodipodi:docname="abe_2019_electro-oxidation_315_f3b1_black.svg"
   inkscape:version="1.4 (86a8ad7, 2024-10-11)"
   xmlns:inkscape="http://www.inkscape.org/namespaces/inkscape"
   xmlns:sodipodi="http://sodipodi.sourceforge.net/DTD/sodipodi-0.dtd"
   xmlns:xlink="http://www.w3.org/1999/xlink"
   xmlns="http://www.w3.org/2000/svg"
   xmlns:svg="http://www.w3.org/2000/svg">
  <sodipodi:namedview
     id="namedview138"
     pagecolor="#ffffff"
     bordercolor="#000000"
     borderopacity="0.25"
     inkscape:showpageshadow="2"
     inkscape:pageopacity="0.0"
     inkscape:pagecheckerboard="0"
     inkscape:deskcolor="#d1d1d1"
     showgrid="false"
     inkscape:zoom="0.64342528"
     inkscape:cx="1432.9558"
     inkscape:cy="2663.0909"
     inkscape:window-width="2880"
     inkscape:window-height="1711"
     inkscape:window-x="-9"
     inkscape:window-y="-9"
     inkscape:window-maximized="1"
     inkscape:current-layer="svg136" />
  <defs
     id="defs132">
    <linearGradient
       id="linearGradient1711"
       inkscape:swatch="solid">
      <stop
         style="stop-color:#000000;stop-opacity:1;"
         offset="0"
         id="stop1709" />
    </linearGradient>
  </defs>
  <image
     height="7016px"
     sodipodi:insensitive="true"
     width="4961px"
     x="0"
     xlink:href="abe_2019_electro-oxidation_315_p5.png"
     y="0"
     id="image134" />
  <g
     id="g729"
     transform="translate(-170.96002,53.61928)">
    <path
       style="fill:none;fill-rule:evenodd;stroke:#000000;stroke-width:1.12445px;stroke-linecap:butt;stroke-linejoin:miter;stroke-opacity:1"
       d="m 946.30125,2107.1322 190.12045,-10.175"
       id="path466"
       inkscape:connector-type="polyline"
       inkscape:connector-curvature="0"
       sodipodi:nodetypes="cc" />
    <text
       xml:space="preserve"
       style="font-size:78.8589px;line-height:1.25;font-family:sans-serif;-inkscape-font-specification:sans-serif;letter-spacing:0px;word-spacing:0px;stroke-width:0.985737"
       x="248.62241"
       y="2150.2017"
       id="text614"
       transform="scale(1.0033337,0.99667737)"><tspan
         sodipodi:role="line"
         id="tspan612"
         x="248.62241"
         y="2150.2017"
         style="stroke-width:0.985737">j2: 0.1 mA / cm2</tspan></text>
  </g>
  <g
     id="g868">
    <path
       style="fill:none;fill-rule:evenodd;stroke:#000000;stroke-width:0.853465px;stroke-linecap:butt;stroke-linejoin:miter;stroke-opacity:1"
       d="m 778.58766,2664.988 186.83245,111.9113"
       id="path466-0"
       inkscape:connector-type="polyline"
       inkscape:connector-curvature="0"
       sodipodi:nodetypes="cc" />
    <text
       xml:space="preserve"
       style="font-size:78.8589px;line-height:1.25;font-family:sans-serif;-inkscape-font-specification:sans-serif;letter-spacing:0px;word-spacing:0px;stroke-width:0.985737"
       x="64.198914"
       y="2702.8552"
       id="text614-0"
       transform="scale(1.0033337,0.99667737)"><tspan
         sodipodi:role="line"
         id="tspan612-5"
         x="64.198914"
         y="2702.8552"
         style="stroke-width:0.985737">j1: -0.1 mA / cm2</tspan></text>
  </g>
  <g
     id="g20959"
     transform="translate(156.75465,-2787.4063)">
    <path
       style="fill:none;fill-rule:evenodd;stroke:#000000;stroke-width:1.03994px;stroke-linecap:butt;stroke-linejoin:miter;stroke-opacity:1"
       d="M 740.79586,5746.0058 808.4268,5566.3931"
       id="path481"
       inkscape:connector-type="polyline"
       inkscape:connector-curvature="0" />
    <text
       xml:space="preserve"
       style="font-size:80px;line-height:1.25;font-family:sans-serif;-inkscape-font-specification:sans-serif;letter-spacing:0px;word-spacing:0px"
       x="146.60843"
       y="5780.3579"
       id="text15529"><tspan
         sodipodi:role="line"
         id="tspan15527"
         x="146.60843"
         y="5780.3579">E1: 0.0 V vs RHE</tspan></text>
  </g>
  <g
     id="g20954"
     transform="translate(485.64313,-2793.1371)">
    <path
       style="fill:none;fill-rule:evenodd;stroke:#000000;stroke-width:0.702728px;stroke-linecap:butt;stroke-linejoin:miter;stroke-opacity:1"
       d="M 1422.1384,5723.8155 1357.481,5570.8094"
       id="path494"
       inkscape:connector-type="polyline"
       inkscape:connector-curvature="0" />
    <text
       xml:space="preserve"
       style="font-size:80px;line-height:1.25;font-family:sans-serif;-inkscape-font-specification:sans-serif;letter-spacing:0px;word-spacing:0px"
       x="1267.2344"
       y="5788.8706"
       id="text15529-1"><tspan
         sodipodi:role="line"
         id="tspan15527-0"
         x="1267.2344"
         y="5788.8706">E2: 1.0 V vs RHE</tspan></text>
  </g>
  <text
     xml:space="preserve"
     style="font-size:80px;line-height:1.25;font-family:sans-serif;-inkscape-font-specification:sans-serif;letter-spacing:0px;word-spacing:0px"
     x="85.979424"
     y="1907.504"
     id="text9174"><tspan
       sodipodi:role="line"
       x="85.979424"
       y="1907.504"
       id="tspan9176">figure: 3b1</tspan></text>
  <text
     xml:space="preserve"
     style="font-size:80px;line-height:1.25;font-family:sans-serif;-inkscape-font-specification:sans-serif;letter-spacing:0px;word-spacing:0px"
     x="61.619392"
     y="2055.3733"
     id="text9174-9"><tspan
       sodipodi:role="line"
       x="61.619392"
       y="2055.3733"
       id="tspan9176-3">tags: BCV</tspan></text>
  <text
     xml:space="preserve"
     style="font-size:80px;line-height:1.25;font-family:sans-serif;-inkscape-font-specification:sans-serif;letter-spacing:0px;word-spacing:0px"
     x="65.649818"
     y="1981.3492"
     id="text7770"><tspan
       sodipodi:role="line"
       id="tspan7768"
       x="65.649818"
       y="1981.3492">scan rate: 50 mV / s</tspan></text>
  <g
     id="g1">
    <text
       xml:space="preserve"
       style="font-size:80px;line-height:1.25;font-family:sans-serif;-inkscape-font-specification:sans-serif;letter-spacing:0px;word-spacing:0px"
       x="1451.219"
       y="2683.001"
       id="text3406"><tspan
         sodipodi:role="line"
         id="tspan3404"
         x="1451.219"
         y="2683.001">curve: black</tspan></text>
    <path
       style="fill:none;stroke:#00ffff;stroke-width:3.8"
       d="m 1028.2322,2363.7938 c 0,0 23.0411,-43.6788 27.2502,-72.1522 4.209,-28.4735 12.5404,-86.4683 21.9107,-86.5274 9.3703,-0.059 24.2404,94.2667 41.3625,101.7858 17.1221,7.5191 45.1221,44.14 53.2745,50.6093 8.1524,6.4693 19.8798,10.0485 30.8378,22.1763 10.958,12.1279 19.0279,25.2554 31.5673,34.1968 12.5394,8.9414 27.312,14.2493 39.7598,20.6873 12.4478,6.438 19.6868,15.1488 34.8003,17.5247 6.9922,1.0992 61.5503,-1.1498 124.5911,-4.2303 73.2218,-3.578 157.8875,-8.755 192.7552,-18.6037 64.8873,-18.3281 63.8979,-55.5094 80.7485,-64.3564 16.8506,-8.847 15.1805,-5.0183 27.8317,-18.1831 12.6512,-13.1648 21.3178,-71.6788 29.3559,-72.1449 8.0381,-0.4662 10.0262,17.3369 28.0857,32.1197 7.5368,6.1693 5.4267,42.074 4.7551,99.1211 -0.5403,45.9005 -10.2526,93.1774 -19.3267,100.7997 -18.1482,15.2445 -25.1365,22.3237 -41.6824,36.0208 -16.5459,13.6971 -26.8483,45.1367 -60.3783,44.5279 -33.53,-0.6088 -42.5,-43.3071 -71.3716,-57.9878 -14.4358,-7.3403 -30.5598,-11.0959 -41.7468,-16.1508 -23.1524,-10.4616 -25.0578,-13.8065 -46.0486,-18.5317 -28.2281,-6.3543 -182.6504,-20.7864 -207.1028,-17.2206 -24.4524,3.5658 -42.7008,14.3779 -60.8047,21.8219 -9.0519,3.722 -10.7211,2.8343 -15.2644,3.9727 -4.5433,1.1384 -11.9607,4.303 -32.509,16.1296 -20.5483,11.8266 -31.9446,44.7005 -45.1168,73.8529 -13.1721,29.1525 -28.1201,54.5835 -32.7053,53.8312 -9.1705,-1.5047 -4.7894,-9.503 -13.4497,-9.8503 -8.6602,-0.3473 -28.5703,101.6453 -36.4123,100.7204 -7.842,-0.9249 -24.6041,-120.2991 -30.3728,-128.68 -5.7687,-8.3809 -14.6535,-7.7367 -14.6535,-7.7367"
       id="path1"
       sodipodi:nodetypes="czzzzzzzssszzzssszzssszssssszzzc" />
  </g>
</svg>
