<?xml version="1.0" encoding="UTF-8" standalone="no"?>
<svg
   height="7016px"
   version="1.1"
   width="4961px"
   id="svg6"
   sodipodi:docname="wallauer_2013_the_1143_f3e_bottom.svg"
   inkscape:version="1.4 (86a8ad7, 2024-10-11)"
   xmlns:inkscape="http://www.inkscape.org/namespaces/inkscape"
   xmlns:sodipodi="http://sodipodi.sourceforge.net/DTD/sodipodi-0.dtd"
   xmlns:xlink="http://www.w3.org/1999/xlink"
   xmlns="http://www.w3.org/2000/svg"
   xmlns:svg="http://www.w3.org/2000/svg">
  <sodipodi:namedview
     id="namedview8"
     pagecolor="#ffffff"
     bordercolor="#666666"
     borderopacity="1.0"
     inkscape:pageshadow="2"
     inkscape:pageopacity="0.0"
     inkscape:pagecheckerboard="0"
     showgrid="false"
     inkscape:snap-text-baseline="true"
     inkscape:zoom="0.67082423"
     inkscape:cx="417.39697"
     inkscape:cy="1337.9064"
     inkscape:window-width="2880"
     inkscape:window-height="1711"
     inkscape:window-x="-9"
     inkscape:window-y="-9"
     inkscape:window-maximized="1"
     inkscape:current-layer="svg6"
     inkscape:showpageshadow="2"
     inkscape:deskcolor="#d1d1d1" />
  <defs
     id="defs2" />
  <image
     height="7016px"
     sodipodi:insensitive="true"
     width="4961px"
     x="0"
     xlink:href="wallauer_2013_the_1143_p3.png"
     y="0"
     id="image4" />
  <text
     xml:space="preserve"
     style="font-size:40px;line-height:1.25;font-family:sans-serif;word-spacing:0px"
     x="25.298077"
     y="3187.5576"
     id="text892"><tspan
       sodipodi:role="line"
       id="tspan890"
       x="25.298077"
       y="3187.5576">figure: 3e</tspan></text>
  <text
     xml:space="preserve"
     style="font-size:40px;line-height:1.25;font-family:sans-serif;word-spacing:0px"
     x="-12.649038"
     y="3368.8606"
     id="text3074"><tspan
       sodipodi:role="line"
       id="tspan3072"
       x="-12.649038"
       y="3368.8606">scan rate: 100 mV / s</tspan></text>
  <g
     id="g24707">
    <text
       xml:space="preserve"
       style="font-size:40px;line-height:1.25;font-family:sans-serif;word-spacing:0px"
       x="446.93268"
       y="3362.5361"
       id="text7768"><tspan
         sodipodi:role="line"
         id="tspan7766"
         x="446.93268"
         y="3362.5361">j2: 200 uA / cm2</tspan></text>
    <path
       style="fill:none;stroke:#000000;stroke-width:1px;stroke-linecap:butt;stroke-linejoin:miter;stroke-opacity:1"
       d="M 2066.0096,3301.399 755.81274,3362.5361"
       id="path24601"
       sodipodi:nodetypes="cc" />
  </g>
  <g
     id="g24702">
    <text
       xml:space="preserve"
       style="font-size:40px;line-height:1.25;font-family:sans-serif;word-spacing:0px"
       x="113.84135"
       y="3748.3318"
       id="text5124"><tspan
         sodipodi:role="line"
         id="tspan5122"
         x="113.84135"
         y="3748.3318">j1: -600 uA / cm2</tspan></text>
    <path
       style="fill:none;stroke:#000000;stroke-width:1px;stroke-linecap:butt;stroke-linejoin:miter;stroke-opacity:1"
       d="M 2068.1178,3794.1845 421.63462,3748.3318"
       id="path24603" />
  </g>
  <g
     id="g24692">
    <text
       xml:space="preserve"
       style="font-size:40px;line-height:1.25;font-family:sans-serif;word-spacing:0px"
       x="1737.1346"
       y="4022.3943"
       id="text14012"><tspan
         sodipodi:role="line"
         id="tspan14010"
         x="1737.1346"
         y="4022.3943">E2: 2 V vs. Fc/Fc+</tspan></text>
    <path
       style="fill:none;stroke:#000000;stroke-width:1px;stroke-linecap:butt;stroke-linejoin:miter;stroke-opacity:1"
       d="m 2898.738,3916.9856 -798.9976,105.4087"
       id="path24605" />
  </g>
  <g
     id="g24697">
    <text
       xml:space="preserve"
       style="font-size:40px;line-height:1.25;font-family:sans-serif;word-spacing:0px"
       x="708.34613"
       y="4013.9614"
       id="text9716"><tspan
         sodipodi:role="line"
         id="tspan9714"
         x="708.34613"
         y="4013.9614">E1: -3 V vs. Fc/Fc+</tspan></text>
    <path
       style="fill:none;stroke:#000000;stroke-width:1px;stroke-linecap:butt;stroke-linejoin:miter;stroke-opacity:1"
       d="m 2066.5367,3918.5667 -963.9622,95.3947"
       id="path24607" />
  </g>
  <g
     id="g5886">
    <path
       style="fill:none;stroke:#000000;stroke-width:1px;stroke-linecap:butt;stroke-linejoin:miter;stroke-opacity:1"
       d="m 2529.8077,3424.4637 c 0,0 -12.8152,5.7702 -66.4074,5.2704 -15.3199,-0.1429 -14.0617,40.3155 -23.717,39.2647 -11.7683,-1.2807 -21.7322,-23.7573 -30.0415,-22.6629 -6.0194,0.7928 -7.3815,21.4464 -15.2842,28.9874 -24.9632,23.8208 -34.3263,342.5323 -50.8465,347.4439 -7.7902,2.3161 -10.5891,-45.596 -24.771,-63.2452 -5.287,-6.5797 -12.201,-3.7614 -15.4292,-9.3456 -11.5063,-19.9033 -20.3622,-50.7911 -37.0248,-72.4685 -9.0246,-11.7407 -19.948,-22.9135 -33.2038,-29.5144 -9.6226,-4.7917 -28.428,-3.2466 -30.4368,-8.4327 -2.4535,-6.3342 20.8831,-55.0549 36.8931,-77.4754 11.762,-16.4715 26.5312,-29.5775 46.5116,-32.8084 6.4859,-1.0488 12.8697,4.5732 17.7877,3.5576 18.2148,-3.7617 81.9459,-86.8665 102.7734,-108.0439 7.7137,-7.8433 36.4905,-6.6807 60.8735,-11.3314 12.5521,-2.3942 32.583,-23.7605 50.4644,-24.5076 21.9796,-0.9182 27.6215,7.098 56.1301,26.6157 7.7063,5.2759 27.6883,5.7011 37.0248,5.9293 23.8791,0.5835 67.2435,1.9832 98.9524,-2.767 13.5519,-2.0301 36.1548,-14.5825 37.9471,-15.8113 25.5616,-17.5241 38.4742,-37.4201 38.4742,-37.4201 0,0 -2.8046,17.1163 -7.5104,24.3758 -8.2564,12.7369 -25.1451,26.2504 -34.6531,28.3286 -41.7851,9.133 -152.7129,5.493 -156.3342,4.0187 -16.5323,-6.7306 -51.2344,-3.7731 -51.6503,-4.7434"
       id="path24742"
       sodipodi:nodetypes="csssssssssssssssssssscsssc" />
    <text
       xml:space="preserve"
       style="font-size:53.3333px;line-height:1.25;font-family:sans-serif;-inkscape-font-specification:sans-serif;letter-spacing:0px;word-spacing:0px"
       x="2557.2139"
       y="3495.3508"
       id="text5167"><tspan
         sodipodi:role="line"
         id="tspan5165"
         x="2557.2139"
         y="3495.3508">curve: bottom</tspan></text>
  </g>
  <text
     xml:space="preserve"
     style="text-align:start;writing-mode:lr-tb;direction:ltr;text-anchor:start;fill:#0000aa;stroke-width:3.77953"
     x="248.76442"
     y="2875.5481"
     id="text1"><tspan
       sodipodi:role="line"
       id="tspan1"
       x="248.76442"
       y="2875.5481">tags: BCV</tspan></text>
  <text
     xml:space="preserve"
     style="font-size:40px;text-align:start;writing-mode:lr-tb;direction:ltr;text-anchor:start;fill:#00aa00;stroke:#00d400;stroke-width:0.5"
     x="101.36784"
     y="336.89899"
     id="text2"><tspan
       sodipodi:role="line"
       id="tspan2"
       x="101.36784"
       y="336.89899">comment: Reference electrode given as E1/2(Fc/Fc+).</tspan></text>
</svg>
