<?xml version="1.0" encoding="UTF-8" standalone="no"?>
<svg
   height="6615px"
   version="1.1"
   width="4961px"
   id="svg6"
   sodipodi:docname="gnahm_2011_the_250_p1_f1_dashed_2.svg"
   inkscape:version="1.1.1 (3bf5ae0d25, 2021-09-20)"
   xmlns:inkscape="http://www.inkscape.org/namespaces/inkscape"
   xmlns:sodipodi="http://sodipodi.sourceforge.net/DTD/sodipodi-0.dtd"
   xmlns:xlink="http://www.w3.org/1999/xlink"
   xmlns="http://www.w3.org/2000/svg"
   xmlns:svg="http://www.w3.org/2000/svg">
  <sodipodi:namedview
     id="namedview8"
     pagecolor="#ffffff"
     bordercolor="#666666"
     borderopacity="1.0"
     inkscape:pageshadow="2"
     inkscape:pageopacity="0.0"
     inkscape:pagecheckerboard="0"
     showgrid="false"
     inkscape:zoom="1.4229789"
     inkscape:cx="1576.6221"
     inkscape:cy="5527.4888"
     inkscape:window-width="1920"
     inkscape:window-height="1017"
     inkscape:window-x="-8"
     inkscape:window-y="284"
     inkscape:window-maximized="1"
     inkscape:current-layer="g19515" />
  <defs
     id="defs2" />
  <image
     height="6615px"
     sodipodi:insensitive="true"
     width="4961px"
     x="0"
     xlink:href="gnahm_2011_the_250_p1.png"
     y="0"
     id="image4" />
  <g
     id="g2194">
    <path
       style="fill:none;stroke:#000000;stroke-width:1px;stroke-linecap:butt;stroke-linejoin:miter;stroke-opacity:1"
       d="m 758.97119,4553.8272 c -337.32053,59.0311 -337.32053,59.0311 -337.32053,59.0311"
       id="path868" />
    <text
       xml:space="preserve"
       style="font-size:29.3333px;line-height:1.25;font-family:Arial;-inkscape-font-specification:Arial;letter-spacing:0px;word-spacing:0px"
       x="309.21048"
       y="4615.6694"
       id="text1730"><tspan
         sodipodi:role="line"
         id="tspan1728"
         x="309.21048"
         y="4615.6694">j2: 15 uA / cm2</tspan></text>
  </g>
  <g
     id="g5159">
    <path
       style="fill:none;stroke:#000000;stroke-width:1px;stroke-linecap:butt;stroke-linejoin:miter;stroke-opacity:1"
       d="M 756.16019,5762.5591 C 432.89468,5745.693 432.89468,5745.693 432.89468,5745.693"
       id="path866" />
    <text
       xml:space="preserve"
       style="font-size:29.3333px;line-height:1.25;font-family:Arial;-inkscape-font-specification:Arial;letter-spacing:0px;word-spacing:0px"
       x="286.72705"
       y="5758.9062"
       id="text1730-3"><tspan
         sodipodi:role="line"
         id="tspan1728-0"
         x="286.72705"
         y="5758.9062">j1: -20 uA / cm2</tspan></text>
  </g>
  <g
     id="g7628">
    <path
       style="fill:none;stroke:#000000;stroke-width:1px;stroke-linecap:butt;stroke-linejoin:miter;stroke-opacity:1"
       d="M 865.78936,5762.5591 C 618.42097,5889.0543 618.42097,5889.0543 618.42097,5889.0543"
       id="path862" />
    <text
       xml:space="preserve"
       style="font-size:29.3333px;line-height:1.25;font-family:Arial;-inkscape-font-specification:Arial;letter-spacing:0px;word-spacing:0px"
       x="559.38989"
       y="5908.7314"
       id="text5977"><tspan
         sodipodi:role="line"
         id="tspan5975"
         x="559.38989"
         y="5908.7314">E1: -2.0 V vs Ag/AgCl</tspan></text>
  </g>
  <g
     id="g7633">
    <path
       style="fill:none;stroke:#000000;stroke-width:1px;stroke-linecap:butt;stroke-linejoin:miter;stroke-opacity:1"
       d="m 2141.9854,5762.5591 c 137.7392,70.2751 137.7392,70.2751 137.7392,70.2751"
       id="path864" />
    <text
       xml:space="preserve"
       style="font-size:29.3333px;line-height:1.25;font-family:Arial;-inkscape-font-specification:Arial;letter-spacing:0px;word-spacing:0px"
       x="2279.7246"
       y="5832.834"
       id="text7213"><tspan
         sodipodi:role="line"
         id="tspan7211"
         x="2279.7246"
         y="5832.834">E2: 1.0 V vs Ag/AgCl</tspan></text>
  </g>
  <text
     xml:space="preserve"
     style="font-size:29.3333px;line-height:1.25;font-family:Arial;-inkscape-font-specification:Arial;letter-spacing:0px;word-spacing:0px"
     x="-399.16263"
     y="4756.2197"
     id="text8407"><tspan
       sodipodi:role="line"
       id="tspan8405"
       x="-399.16263"
       y="4756.2197">Figure: 1</tspan></text>
  <text
     xml:space="preserve"
     style="font-size:29.3333px;line-height:1.25;font-family:Arial;-inkscape-font-specification:Arial;letter-spacing:0px;word-spacing:0px"
     x="-376.67459"
     y="5026.0757"
     id="text9269"><tspan
       sodipodi:role="line"
       id="tspan9267"
       x="-376.67459"
       y="5026.0757">tags: BCV</tspan></text>
  <text
     xml:space="preserve"
     style="font-size:29.3333px;line-height:1.25;font-family:Arial;-inkscape-font-specification:Arial;letter-spacing:0px;word-spacing:0px"
     x="-351.37555"
     y="5276.2554"
     id="text9977"><tspan
       sodipodi:role="line"
       id="tspan9975"
       x="-351.37555"
       y="5276.2554">Scan rate: 50 mV / s</tspan></text>
  <g
     id="g19515">
    <text
       xml:space="preserve"
       style="font-size:29.3333px;line-height:1.25;font-family:Arial;-inkscape-font-specification:Arial;letter-spacing:0px;word-spacing:0px"
       x="1256.519"
       y="5543.3008"
       id="text11983"><tspan
         sodipodi:role="line"
         id="tspan11981"
         x="1256.519"
         y="5543.3008">curve: dashed</tspan></text>
    <path
       style="fill:none;stroke:#ff0000;stroke-width:1px;stroke-linecap:butt;stroke-linejoin:miter;stroke-opacity:1"
       d="m 954.00128,5557.9921 c 0,0 26.65398,-123.4373 61.30382,-186.8456 20.608,-37.7121 60.4228,-102.7126 74.2512,-130.5688 41.5384,-83.6752 84.2257,-139.7948 172.0012,-185.1513 66.5975,-34.4131 150.125,-61.9778 227.8188,-68.5597 52.5461,-4.4514 97.5236,-31.858 114.5446,-55.7439 58.5014,-82.0963 66.4288,-62.7643 93.0915,-13.3142 13.2375,24.5509 28.882,33.3598 48.3077,47.8368 20.9185,15.5897 50.6424,24.224 79.5273,24.6172 18.5974,0.2532 52.8287,-16.6666 64.0509,-22.6172 34.9031,-18.5075 48.8986,-35.3581 108.9737,-60.1662 34.0525,-14.0621 35.0185,-37.3789 80.1977,-75.6852 28.2813,-23.979 65.6435,-43.8909 65.6435,-43.8909 0,0 7.9874,71.7742 -33.3406,151.4022 -20.4929,39.4843 -75.079,97.1461 -109.4359,116.9997 -67.109,38.7799 -139.803,45.1991 -182.4955,69.3767 -41.9488,23.7565 -84.9317,42.5662 -106.76,59.594 -14.6403,11.4207 -31.8831,41.8849 -40.8387,59.6451 -15.7706,31.2754 -31.6331,14.5589 -36.1471,31.5391 -4.4992,16.9249 -11.4367,15.8918 -29.914,-28.3751 -11.3821,-27.2688 -25.0654,-43.4583 -47.2427,-42.3379 -12.1785,0.6152 -52.3706,-21.5949 -76.2751,-36.9787 -5.9965,-3.859 -27.5854,-3.7139 -47.0467,4.0104 -10.8882,4.3217 -34.3014,-1.9359 -37.6047,-3.1219 -21.5112,-7.7235 -42.2685,-8.3602 -70.53,1.836 -17.4275,6.2875 -38.3115,8.4281 -50.9075,8.2938 -10.8406,-0.1157 -15.1875,6.528 -42.7682,98.4785 -19.3503,64.5115 -21.4573,80.6686 -38.1325,81.8897 -15.2705,1.1182 -23.4107,8.9758 -35.3274,50.0629 -21.4924,74.1028 -46.8561,201.9772 -89.1327,204.9884 -44.2902,3.1546 -115.81262,-57.2139 -115.81262,-57.2139 z"
       id="path12172"
       sodipodi:nodetypes="cssssssssssscsssssssssssssssssc" />
  </g>
</svg>
