<?xml version="1.0" encoding="UTF-8" standalone="no"?>
<svg
   height="6725px"
   version="1.1"
   width="4925px"
   id="svg1"
   sodipodi:docname="ando_1997_in_277_f1a_solid.svg"
   inkscape:version="1.4 (86a8ad7, 2024-10-11)"
   xmlns:inkscape="http://www.inkscape.org/namespaces/inkscape"
   xmlns:sodipodi="http://sodipodi.sourceforge.net/DTD/sodipodi-0.dtd"
   xmlns:xlink="http://www.w3.org/1999/xlink"
   xmlns="http://www.w3.org/2000/svg"
   xmlns:svg="http://www.w3.org/2000/svg">
  <sodipodi:namedview
     id="namedview1"
     pagecolor="#ffffff"
     bordercolor="#000000"
     borderopacity="0.25"
     inkscape:showpageshadow="2"
     inkscape:pageopacity="0.0"
     inkscape:pagecheckerboard="0"
     inkscape:deskcolor="#d1d1d1"
     inkscape:zoom="0.54886206"
     inkscape:cx="500.12566"
     inkscape:cy="1303.6062"
     inkscape:window-width="2880"
     inkscape:window-height="1514"
     inkscape:window-x="2869"
     inkscape:window-y="-6"
     inkscape:window-maximized="1"
     inkscape:current-layer="svg1" />
  <defs
     id="defs1" />
  <image
     height="6725"
     sodipodi:insensitive="true"
     width="4925"
     x="0"
     xlink:href="ando_1997_in_277_p2.png"
     y="0"
     id="image1" />
  <text
     xml:space="preserve"
     style="font-size:42.6667px;line-height:0;font-family:sans-serif;-inkscape-font-specification:sans-serif;text-align:start;writing-mode:lr-tb;direction:ltr;text-anchor:start;fill:#000000;stroke:#000000;stroke-width:2"
     x="57.405884"
     y="1160.9509"
     id="text8"><tspan
       sodipodi:role="line"
       id="tspan8"
       x="57.405884"
       y="1160.9509"
       style="stroke:none">scan rate: 20 mV / s </tspan></text>
  <text
     xml:space="preserve"
     style="font-size:42.6667px;line-height:0;font-family:sans-serif;-inkscape-font-specification:sans-serif;text-align:start;writing-mode:lr-tb;direction:ltr;text-anchor:start;fill:#000000;stroke:none;stroke-width:2"
     x="133.82967"
     y="1218.4055"
     id="text10"><tspan
       sodipodi:role="line"
       id="tspan10"
       x="133.82967"
       y="1218.4055">figure: 1a</tspan></text>
  <text
     xml:space="preserve"
     style="font-size:42.6667px;line-height:0;font-family:sans-serif;-inkscape-font-specification:sans-serif;text-align:start;writing-mode:lr-tb;direction:ltr;text-anchor:start;fill:none;stroke:#000000;stroke-width:0.5;stroke-dasharray:none;stroke-opacity:1"
     x="78.560776"
     y="1286.2578"
     id="text15"><tspan
       sodipodi:role="line"
       id="tspan15"
       x="78.560776"
       y="1286.2578"
       style="fill:#000000;fill-opacity:1;stroke:#000000;stroke-opacity:1">tags: BCV</tspan></text>
  <g
     id="g14"
     transform="translate(251.24748,161.75516)">
    <text
       xml:space="preserve"
       style="font-style:normal;font-variant:normal;font-weight:normal;font-stretch:normal;font-size:42.6667px;line-height:0;font-family:sans-serif;-inkscape-font-specification:sans-serif;text-align:start;writing-mode:lr-tb;direction:ltr;text-anchor:start;fill:#000000;stroke-width:2"
       x="203.15884"
       y="524.39972"
       id="text2"><tspan
         sodipodi:role="line"
         id="tspan2"
         x="203.15884"
         y="524.39972">j2: 15 A / m2</tspan></text>
    <path
       style="fill:#000000;fill-opacity:1;stroke:#000000;stroke-width:2;stroke-opacity:1"
       d="m 494.85776,510.69828 40.86853,85.22198"
       id="path7"
       sodipodi:nodetypes="cc" />
  </g>
  <g
     id="g13"
     transform="translate(249.81457,128.23386)">
    <text
       xml:space="preserve"
       style="font-style:normal;font-variant:normal;font-weight:normal;font-stretch:normal;font-size:42.6667px;line-height:0;font-family:sans-serif;-inkscape-font-specification:sans-serif;text-align:start;writing-mode:lr-tb;direction:ltr;text-anchor:start;fill:#000000;stroke-width:2"
       x="101.67587"
       y="1842.6377"
       id="text1"><tspan
         id="tspan1"
         x="101.67587"
         y="1842.6377"
         sodipodi:role="line"
         style="font-size:42.6667px">j1: -5.0 A / m2</tspan></text>
    <path
       style="fill:#000000;fill-opacity:1;stroke:#000000;stroke-width:2;stroke-opacity:1"
       d="m 429.59483,1832.7478 105.81465,54.4914"
       id="path8" />
  </g>
  <g
     id="g11"
     transform="translate(188.29285,312.55297)">
    <text
       xml:space="preserve"
       style="font-style:normal;font-variant:normal;font-weight:normal;font-stretch:normal;font-size:42.6667px;line-height:0;font-family:sans-serif;-inkscape-font-specification:sans-serif;text-align:start;writing-mode:lr-tb;direction:ltr;text-anchor:start;fill:#000000;stroke-width:2"
       x="319.00269"
       y="2013.4805"
       id="text5"><tspan
         sodipodi:role="line"
         id="tspan5"
         x="319.00269"
         y="2013.4805">E1: -1.4 V vs SCE</tspan></text>
    <path
       style="fill:#000000;fill-opacity:1;stroke:#000000;stroke-width:2;stroke-opacity:1"
       d="m 597.45799,1899.0069 88.03937,98.1202"
       id="path9" />
  </g>
  <g
     id="g3"
     transform="translate(642.69002,313.57971)">
    <text
       xml:space="preserve"
       style="font-style:normal;font-variant:normal;font-weight:normal;font-stretch:normal;font-size:42.6667px;line-height:0;font-family:sans-serif;-inkscape-font-specification:sans-serif;text-align:start;writing-mode:lr-tb;direction:ltr;text-anchor:start;fill:#000000;stroke-width:2"
       x="1138.9113"
       y="2009.0001"
       id="text6"><tspan
         sodipodi:role="line"
         id="tspan6"
         x="1138.9113"
         y="2009.0001">E2: -0.2 V vs SCE</tspan></text>
    <path
       style="fill:#000000;fill-opacity:1;stroke:#000000;stroke-width:2;stroke-opacity:1"
       d="m 1143.0517,1993.3707 75.7177,-93.9343"
       id="path10" />
  </g>
  <g
     id="g1">
    <text
       xml:space="preserve"
       style="font-size:42.6667px;line-height:0;font-family:sans-serif;-inkscape-font-specification:sans-serif;text-align:start;writing-mode:lr-tb;direction:ltr;text-anchor:start;fill:#000000;stroke:#000000;stroke-width:2"
       x="128.70518"
       y="1105.4825"
       id="text7"><tspan
         sodipodi:role="line"
         id="tspan7"
         x="128.70518"
         y="1105.4825"
         style="stroke:none">curve: solid</tspan></text>
    <path
       style="fill:none;stroke:#c14547;stroke-width:0.5"
       d="m 1349.5091,1701.541 c 2.9002,-1.9635 -22.3405,14.5586 -79.8755,28.0208 -9.1993,2.1525 -31.2571,30.3988 -73.1118,36.7169 -17.0101,2.5677 -74.2146,-12.9177 -111.1171,-10.9506 -89.27659,4.7588 -150.54457,47.142 -154.27562,46.0572 -5.95335,-1.7309 7.98294,-31.4636 19.96886,-41.8702 15.18096,-13.1807 85.24646,-20.0241 128.50936,-26.4105 41.1647,-6.0766 82.6875,-6.89 123.8668,-12.8669 45.9447,-6.6686 86.6513,-21.8238 137.0168,-25.7825 9.0401,-0.7105 78.1624,-15.6942 106.2859,-26.7325 66.8678,-26.2451 73.1034,-79.1386 90.8262,-128.5093 45.6798,-127.2509 95.6898,-341.2875 134.6787,-523.544 38.989,-182.25651 66.9569,-332.73281 68.5528,-332.86289 1.6279,-0.13269 -103.8519,652.28649 -177.7873,891.19129 -14.9259,48.2294 -42.6904,113.4194 -63.4495,137.5276 -8.1128,9.4217 -30.9213,13.7444 -45.091,22.8676 -6.9359,4.4657 -12.0538,11.5631 -19.3247,15.4597 -7.1523,3.8331 -18.9419,0.4937 -23.1897,7.4078 -14.3082,23.2892 -58.9997,132.2226 -78.9092,201.6212 -1.5736,5.4849 1.4448,12.0611 -1.2883,17.0702 -19.2212,35.2283 -54.1769,100.4858 -78.5872,103.0651 -4.583,0.4843 -25.713,-31.489 -41.8702,-43.4806 -17.0417,-12.6481 -35.8212,-25.106 -56.6858,-28.9871 -32.2642,-6.0015 -66.2225,18.8376 -97.9119,10.3065 -14.4971,-3.9028 -26.2773,-56.9328 -62.80531,-68.6027 -19.28214,-6.1602 -22.08113,-20.8755 -35.42864,-27.6987 -12.04097,-6.1553 -38.66099,-7.0006 -38.9715,-11.2728 -0.91656,-12.6108 60.98164,-66.4125 103.70925,-73.756 38.9016,-6.6859 92.3991,-41.7167 138.4938,-62.8053 23.7628,-10.8716 45.4701,-28.1729 71.1794,-32.852 51.0486,-9.2908 115.8725,-37.8399 116.5924,-38.3273 z"
       id="path1"
       sodipodi:nodetypes="sssssssssssssssssssssssssssssss" />
  </g>
  <text
     xml:space="preserve"
     style="font-size:42.6667px;line-height:0;font-family:sans-serif;-inkscape-font-specification:sans-serif;text-align:start;writing-mode:lr-tb;direction:ltr;text-anchor:start;fill:#000000;stroke:none;stroke-width:0.5;fill-opacity:1"
     x="20.041462"
     y="510.14639"
     id="text3"><tspan
       sodipodi:role="line"
       id="tspan3"
       x="20.041462"
       y="510.14639">comment: This curve contains two cycles, a solid and a dashed one.</tspan></text>
</svg>
