<?xml version="1.0" encoding="UTF-8" standalone="no"?>
<svg
   height="5700px"
   version="1.1"
   width="3900px"
   id="svg2"
   sodipodi:docname="droog_1980_oxygen_387_f3_black.svg"
   inkscape:version="1.4.3 (0d15f75, 2025-12-25)"
   xmlns:inkscape="http://www.inkscape.org/namespaces/inkscape"
   xmlns:sodipodi="http://sodipodi.sourceforge.net/DTD/sodipodi-0.dtd"
   xmlns:xlink="http://www.w3.org/1999/xlink"
   xmlns="http://www.w3.org/2000/svg"
   xmlns:svg="http://www.w3.org/2000/svg">
  <sodipodi:namedview
     id="namedview2"
     pagecolor="#ffffff"
     bordercolor="#000000"
     borderopacity="0.25"
     inkscape:showpageshadow="2"
     inkscape:pageopacity="0.0"
     inkscape:pagecheckerboard="0"
     inkscape:deskcolor="#d1d1d1"
     inkscape:zoom="0.38010091"
     inkscape:cx="2858.4515"
     inkscape:cy="4456.7112"
     inkscape:window-width="1728"
     inkscape:window-height="1010"
     inkscape:window-x="-6"
     inkscape:window-y="-6"
     inkscape:window-maximized="1"
     inkscape:current-layer="digitization-layer" />
  <defs
     id="defs1" />
  <g
     class="layer"
     id="image-layer"
     inkscape:groupmode="layer"
     sodipodi:insensitive="1">
    <title
       id="title1">image-layer</title>
    <image
       height="5700"
       width="3900"
       x="0"
       xlink:href="droog_1980_oxygen_387_p2.png"
       y="0"
       id="image1" />
  </g>
  <g
     class="layer"
     id="digitization-layer"
     inkscape:groupmode="layer">
    <title
       id="title2">digitization-layer</title>
    <g
       id="g11"
       transform="translate(2322.2904,2835.1886)"
       inkscape:label="E1">
      <text
         xml:space="preserve"
         style="font-style:normal;font-variant:normal;font-weight:normal;font-stretch:normal;font-size:42.6667px;line-height:0;font-family:sans-serif;-inkscape-font-specification:sans-serif;text-align:start;writing-mode:lr-tb;direction:ltr;text-anchor:start;fill:#000000;stroke-width:2"
         x="319.00269"
         y="2013.4805"
         id="text5"><tspan
           sodipodi:role="line"
           id="tspan5"
           x="319.00269"
           y="2013.4805">E1: -0.8 V vs Ag/AgCl-3M</tspan></text>
      <path
         style="fill:#000000;fill-opacity:1;stroke:#000000;stroke-width:2;stroke-opacity:1"
         d="m 597.45799,1899.0069 88.03937,98.1202"
         id="path9" />
    </g>
    <g
       id="g3"
       inkscape:label="E2"
       transform="translate(1800.491,2764.7019)">
      <text
         xml:space="preserve"
         style="font-style:normal;font-variant:normal;font-weight:normal;font-stretch:normal;font-size:42.6667px;line-height:0;font-family:sans-serif;-inkscape-font-specification:sans-serif;text-align:start;writing-mode:lr-tb;direction:ltr;text-anchor:start;fill:#000000;stroke-width:2"
         x="1138.9113"
         y="2009.0001"
         id="text6"
         transform="translate(210.83616,70.27872)"><tspan
           sodipodi:role="line"
           id="tspan6"
           x="1138.9113"
           y="2009.0001">E2: -0.6 V vs Ag/AgCl-3M</tspan></text>
      <path
         style="fill:#000000;fill-opacity:1;stroke:#000000;stroke-width:2;stroke-opacity:1"
         d="m 1143.0517,1993.3707 75.7177,-93.9343"
         id="path10"
         transform="translate(210.83616,70.27872)" />
    </g>
    <g
       id="g2"
       transform="translate(2151.6724,2681.1658)"
       inkscape:label="j1"
       inkscape:transform-center-x="-64.227653"
       inkscape:transform-center-y="-18.860682">
      <text
         xml:space="preserve"
         style="font-style:normal;font-variant:normal;font-weight:normal;font-stretch:normal;font-size:42.6667px;line-height:0;font-family:sans-serif;-inkscape-font-specification:sans-serif;text-align:start;writing-mode:lr-tb;direction:ltr;text-anchor:start;fill:#000000;stroke-width:2"
         x="101.67587"
         y="1842.6377"
         id="text1"><tspan
           id="tspan1"
           x="101.67587"
           y="1842.6377"
           sodipodi:role="line"
           style="font-size:42.6667px">I1: -20 uA</tspan></text>
      <path
         style="fill:#000000;fill-opacity:1;stroke:#000000;stroke-width:2;stroke-opacity:1"
         d="m 429.59483,1832.7478 105.81465,54.4914"
         id="path8" />
    </g>
    <g
       id="g14"
       transform="translate(2163.287,2389.8921)"
       inkscape:label="j2">
      <text
         xml:space="preserve"
         style="font-style:normal;font-variant:normal;font-weight:normal;font-stretch:normal;font-size:42.6667px;line-height:0;font-family:sans-serif;-inkscape-font-specification:sans-serif;text-align:start;writing-mode:lr-tb;direction:ltr;text-anchor:start;fill:#000000;stroke-width:2"
         x="187.69908"
         y="521.82312"
         id="text2"
         transform="translate(-49.986726,53.2753)"><tspan
           sodipodi:role="line"
           id="tspan2"
           x="187.69908"
           y="521.82312">I2: 30 uA</tspan></text>
      <path
         style="fill:#000000;fill-opacity:1;stroke:#000000;stroke-width:2.19273;stroke-opacity:1"
         d="m 495.16181,510.82767 76.81582,54.50038"
         id="path7"
         sodipodi:nodetypes="cc"
         transform="translate(-49.986726,53.2753)" />
    </g>
    <text
       xml:space="preserve"
       style="font-size:42.6667px;line-height:0;font-family:sans-serif;-inkscape-font-specification:sans-serif;text-align:start;writing-mode:lr-tb;direction:ltr;text-anchor:start;fill:#000000;stroke:#000000;stroke-width:2"
       x="1793.3348"
       y="3026.1831"
       id="text8"
       inkscape:label="scan rate"><tspan
         sodipodi:role="line"
         id="tspan8"
         x="1793.3348"
         y="3026.1831"
         style="stroke:none">scan rate: 20 mV / s </tspan></text>
    <text
       xml:space="preserve"
       style="font-size:42.6667px;line-height:0;font-family:sans-serif;-inkscape-font-specification:sans-serif;text-align:start;writing-mode:lr-tb;direction:ltr;text-anchor:start;fill:#000000;stroke:none;stroke-width:2"
       x="1889.9637"
       y="3102.428"
       id="text10"
       inkscape:label="figure"><tspan
         sodipodi:role="line"
         id="tspan10"
         x="1889.9637"
         y="3102.428">figure: 3</tspan></text>
    <text
       xml:space="preserve"
       style="font-size:42.6667px;line-height:0;font-family:sans-serif;-inkscape-font-specification:sans-serif;text-align:start;writing-mode:lr-tb;direction:ltr;text-anchor:start;fill:none;stroke:#000000;stroke-width:0.5;stroke-dasharray:none;stroke-opacity:1"
       x="1881.244"
       y="3160.9487"
       id="text15"
       inkscape:label="tags"><tspan
         sodipodi:role="line"
         id="tspan15"
         x="1881.244"
         y="3160.9487"
         style="fill:#000000;fill-opacity:1;stroke:#000000;stroke-opacity:1">tags: BCV</tspan></text>
    <text
       xml:space="preserve"
       style="font-size:37.3333px;writing-mode:lr-tb;direction:ltr;fill:#000000;fill-opacity:1;stroke:none"
       x="1819.4069"
       y="2836.0425"
       id="text3"><tspan
         sodipodi:role="line"
         id="tspan3"
         x="1819.4069"
         y="2836.0425">comment: The curve is a bit noisy.</tspan></text>
    <g
       id="g1">
      <text
         xml:space="preserve"
         style="font-size:42.6667px;line-height:0;font-family:sans-serif;-inkscape-font-specification:sans-serif;text-align:start;writing-mode:lr-tb;direction:ltr;text-anchor:start;fill:#000000;stroke:#000000;stroke-width:2"
         x="1864.4847"
         y="2948.8948"
         id="text7"
         inkscape:label="curve"><tspan
           sodipodi:role="line"
           id="tspan7"
           x="1864.4847"
           y="2948.8948"
           style="stroke:none">curve: black</tspan></text>
      <path
         style="fill:none;stroke:#b61930;stroke-opacity:1"
         d="m 2805.1761,4116.67 c -1.5088,-12.1333 -1.6266,-106.0687 -0.9865,-124.3091 1.1996,-34.1864 27.7758,-69.0591 58.2082,-84.5171 33.2271,-16.8775 80.4866,-20.2829 113.1278,-30.5839 14.2707,-4.5036 66.8472,-5.207 119.3762,-62.4834 1.7339,-1.8906 17.8232,0.8195 18.7451,-19.7317 0.2472,-5.5122 -0.5655,-75.3816 0,-80.5707 8.381,-76.9042 5.3148,-356.0422 10.8523,-356.1554 8.1923,-0.1674 2.8621,236.9986 34.8592,297.9472 4.3136,8.2166 35.077,12.1355 52.9465,17.1007 8.3519,2.3207 18.6097,6.3406 25.3222,5.9195 29.7777,-1.8683 42.8074,-28.3989 57.5505,-54.9196 31.1636,-56.0588 44.9163,-114.4437 59.5237,-173.967 36.9407,-150.5283 36.0805,-377.2319 42.4229,-377.5313 2.1488,-0.1014 2.4792,272.9953 -4.9329,411.4039 -3.4029,63.5438 -11.0861,273.1115 -33.5437,421.9274 -16.0019,106.0372 -40.1957,212.9245 -60.1814,316.0345 -10.7456,55.4386 -28.9148,165.1047 -40.7787,164.4301 -19.3895,-1.1025 -22.0837,-93.4614 -42.7518,-98.658 -7.2328,-1.8186 -22.6369,34.9008 -34.5303,51.9598 -5.5716,7.9915 -20.0277,3.7635 -29.5974,35.1881 -8.3185,27.3159 -15.3437,55.0964 -20.3893,83.2016 -11.4846,63.9723 -16.3035,193.6339 -22.3625,193.6985 -9.7766,0.1042 -3.7914,-197.7694 -6.5772,-296.6317 -0.723,-25.6559 -1.4489,-72.3122 -2.6308,-76.9533 -8.6864,-34.1094 -45.1911,-27.5721 -90.1077,-78.2687 -30.5695,-34.5033 -77.359,-66.4646 -113.7856,-78.5975 -57.9453,-19.3004 -89.2839,-0.9526 -89.7788,-4.9329 z"
         id="path1"
         sodipodi:nodetypes="ssssssssssssssssssssssssssss" />
    </g>
  </g>
</svg>
