<?xml version="1.0" encoding="UTF-8" standalone="no"?>
<svg
   height="6520px"
   version="1.1"
   width="4961px"
   id="svg6"
   sodipodi:docname="bi_2018_minimizing_1_f3b_blue_4.svg"
   inkscape:version="1.4.2 (f4327f4, 2025-05-13)"
   xmlns:inkscape="http://www.inkscape.org/namespaces/inkscape"
   xmlns:sodipodi="http://sodipodi.sourceforge.net/DTD/sodipodi-0.dtd"
   xmlns:xlink="http://www.w3.org/1999/xlink"
   xmlns="http://www.w3.org/2000/svg"
   xmlns:svg="http://www.w3.org/2000/svg">
  <sodipodi:namedview
     id="namedview8"
     pagecolor="#ffffff"
     bordercolor="#666666"
     borderopacity="1.0"
     inkscape:pageshadow="2"
     inkscape:pageopacity="0.0"
     inkscape:pagecheckerboard="0"
     showgrid="false"
     inkscape:zoom="0.35051674"
     inkscape:cx="3103.9887"
     inkscape:cy="1128.3341"
     inkscape:window-width="1536"
     inkscape:window-height="953"
     inkscape:window-x="-8"
     inkscape:window-y="-8"
     inkscape:window-maximized="1"
     inkscape:current-layer="g8147"
     inkscape:showpageshadow="2"
     inkscape:deskcolor="#d1d1d1" />
  <defs
     id="defs2" />
  <image
     height="6520px"
     sodipodi:insensitive="true"
     width="4961px"
     x="0"
     xlink:href="bi_2018_minimizing_1_p4.png"
     y="0"
     id="image4" />
  <g
     id="g955"
     transform="translate(0.01734432,-279.39976)">
    <g
       id="g8076">
      <g
         id="g8147">
        <path
           style="fill:none;stroke:#ff0000;stroke-width:1px;stroke-linecap:butt;stroke-linejoin:miter;stroke-opacity:1"
           d="m 3358.8479,1291.2596 c 0,0 44.3223,-3.3078 88.1357,-6.3719 16.6967,-1.1677 33.4954,-6.2234 48.455,-6.8271 12.5119,-0.5048 23.1742,-3.3516 28.9581,-5.6368 4.4819,-1.7708 18.0401,-6.361 31.3377,-3.2031 13.9288,3.3078 36.9307,-1.4619 57.0553,-4.2969 12.7053,-1.7898 19.4159,-2.8783 30.6713,-1.2844 18.9166,2.6789 35.4718,-0.5261 58.0785,-5.8474 23.1379,-5.4462 60.4352,-39.2877 77.1331,-55.5228 11.7745,-11.4482 47.7499,-45.852 57.4938,-55.2721 12.2998,-11.8911 27.0756,-68.0173 27.0756,-68.0173 0,0 -6.2866,66.8976 -12.8269,110.2627 -3.4376,22.7929 -15.6346,48.281 -18.4774,52.9825 -13.4352,22.2196 -30.9365,39.4204 -78.7815,46.7831 -23.6798,3.644 -63.5899,11.0843 -110.2472,23.1967 -25.6011,6.6461 -52.4585,15.5686 -74.9574,22.4953 -22.4944,6.9252 -40.6323,11.8551 -47.3762,14.7981 -23.7639,10.3702 -29.4103,-1.1485 -82.2489,-5.4 -9.8633,-0.7936 -30.7307,-4.4141 -51.0035,-12.1245 -17.0396,-6.4808 -37.388,-6.3152 -46.1125,-9.3451 -30.2742,-10.5139 -35.8576,-12.196 -61.4531,-13.0401 -26.1857,-0.8635 -44.5202,-2.128 -64.8101,-3.0274 -15.7509,-0.6983 -29.6423,-0.24 -38.2929,-2.0158 -14.9041,-3.0597 -44.9295,-1.1156 -78.2344,0.6521 -40.5896,2.1544 -82.0815,16.3952 -97.4479,23.6021 -50.6947,23.7761 -62.3546,25.1222 -118.3904,23.29 -9.3192,-0.3047 -16.6097,3.5486 -23.6271,7.8157 -6.7103,4.0805 -13.7362,6.7992 -21.9249,6.0285 -18.6799,-1.7582 -25.458,5.1439 -35.0579,12.0036 -21.3087,15.2266 -37.5862,87.1271 -37.5862,87.1271 0,0 10.1318,-102.5605 56.5313,-136.4904 16.9799,-12.4166 49.9049,-16.6466 84.6512,-17.7636 59.6245,-1.9168 109.1073,-8.026 129.7338,-16.5199 28.4464,-11.7142 50.2119,-6.8189 76.0657,-5.2928 39.322,2.321 111.425,2.2153 145.8008,-4.1945 17.0627,-3.1815 34.3472,0.084 59.3321,-1.1127 23.5656,-1.129 39.6348,-2.9051 39.6348,-2.9051"
           id="path858"
           sodipodi:nodetypes="cssssssssscsssssssssssssssssscssssssc" />
        <text
           xml:space="preserve"
           style="font-size:21.3333px;line-height:1.25;font-family:sans-serif;letter-spacing:0px;word-spacing:0px"
           x="2843.5054"
           y="1401.8849"
           id="text7618"><tspan
             sodipodi:role="line"
             id="tspan7616"
             x="2843.5054"
             y="1401.8849">curve: blue</tspan></text>
      </g>
    </g>
  </g>
  <text
     xml:space="preserve"
     style="font-size:21.3333px;line-height:1.25;font-family:sans-serif;letter-spacing:0px;word-spacing:0px"
     x="3126.8999"
     y="823.03107"
     id="text8612"><tspan
       sodipodi:role="line"
       id="tspan8610"
       x="3126.8999"
       y="823.03107">Figure: 3b</tspan></text>
  <text
     xml:space="preserve"
     style="font-size:21.3333px;line-height:1.25;font-family:sans-serif;letter-spacing:0px;word-spacing:0px"
     x="2905.7979"
     y="913.71954"
     id="text13602"><tspan
       sodipodi:role="line"
       id="tspan13600"
       x="2905.7979"
       y="913.71954">tags: BCV</tspan></text>
  <text
     xml:space="preserve"
     style="font-size:21.3333px;line-height:1.25;font-family:sans-serif;letter-spacing:0px;word-spacing:0px"
     x="3417.8989"
     y="825.27863"
     id="text15538"><tspan
       sodipodi:role="line"
       id="tspan15536"
       x="3417.8989"
       y="825.27863">scan rate: 100 mV / s</tspan></text>
  <g
     id="g8093">
    <g
       id="g25139"
       transform="translate(1528.5664,2.8756904)">
      <g
         id="g8142">
        <path
           style="fill:none;stroke:#000000;stroke-width:1px;stroke-linecap:butt;stroke-linejoin:miter;stroke-opacity:1"
           d="M 1185.3928,546.33626 C 964.29062,621.93893 964.29062,621.93893 964.29062,621.93893"
           id="path17025" />
        <path
           style="fill:none;stroke:#000000;stroke-width:1px;stroke-linecap:butt;stroke-linejoin:miter;stroke-opacity:1"
           d="M 1183.9663,639.05651 C 964.29062,621.93893 964.29062,621.93893 964.29062,621.93893"
           id="path17140" />
        <text
           xml:space="preserve"
           style="font-size:21.3333px;line-height:1.25;font-family:sans-serif;letter-spacing:0px;word-spacing:0px"
           x="777.42365"
           y="621.9389"
           id="text18310"><tspan
             sodipodi:role="line"
             id="tspan18308"
             x="777.42365"
             y="621.9389">j_scale_bar: 0.5 mA / cm2</tspan></text>
      </g>
    </g>
  </g>
  <path
     style="fill:none;stroke:#000000;stroke-width:1px;stroke-linecap:butt;stroke-linejoin:miter;stroke-opacity:1"
     d="m 2657.0636,1016.0072 c 1303.6357,0 1305.2158,0 1305.2158,0"
     id="path21510" />
  <g
     id="g25133"
     transform="translate(1540.6704,-92.356476)">
    <g
       id="g8098">
      <path
         style="fill:none;stroke:#000000;stroke-width:1px;stroke-linecap:butt;stroke-linejoin:miter;stroke-opacity:1"
         d="m 847.40893,1052.1579 c 268.98417,56.2057 268.98417,56.2057 268.98417,56.2057"
         id="path21625" />
      <text
         xml:space="preserve"
         style="font-size:21.3333px;line-height:1.25;font-family:sans-serif;letter-spacing:0px;word-spacing:0px"
         x="733.20325"
         y="1025.6285"
         id="text22267"><tspan
           sodipodi:role="line"
           id="tspan22265"
           x="733.20325"
           y="1025.6285">j1: 0.0 mA / cm2</tspan></text>
    </g>
  </g>
  <text
     xml:space="preserve"
     style="font-size:21.3333px;line-height:1.25;font-family:sans-serif;letter-spacing:0px;word-spacing:0px"
     x="2323.7998"
     y="838.72211"
     id="text22755"><tspan
       sodipodi:role="line"
       id="tspan22753"
       x="2323.7998"
       y="838.72211">comment: j-axis offset not given. Basline estimate by the curator.</tspan></text>
  <g
     id="g29434"
     transform="translate(1472.0986,2.8756904)">
    <g
       id="g8086">
      <path
         style="fill:none;stroke:#000000;stroke-width:1px;stroke-linecap:butt;stroke-linejoin:miter;stroke-opacity:1"
         d="m 1300.9365,1529.1709 c -174.0288,149.7789 -174.0288,148.3524 -174.0288,148.3524"
         id="path25046" />
      <text
         xml:space="preserve"
         style="font-size:21.3333px;line-height:1.25;font-family:sans-serif;letter-spacing:0px;word-spacing:0px"
         x="995.67285"
         y="1716.0378"
         id="text25962"><tspan
           sodipodi:role="line"
           id="tspan25960"
           x="995.67285"
           y="1716.0378">E1: -2.0 V vs Ag</tspan></text>
    </g>
  </g>
  <g
     id="g29429"
     transform="translate(1726.2644,0.8583704)">
    <g
       id="g8081">
      <path
         style="fill:none;stroke:#000000;stroke-width:1px;stroke-linecap:butt;stroke-linejoin:miter;stroke-opacity:1"
         d="m 2235.2713,1529.1709 c 135.5142,212.5434 135.5142,212.5434 135.5142,212.5434"
         id="path25048" />
      <text
         xml:space="preserve"
         style="font-size:21.3333px;line-height:1.25;font-family:sans-serif;letter-spacing:0px;word-spacing:0px"
         x="2370.7854"
         y="1741.7144"
         id="text28804"><tspan
           sodipodi:role="line"
           id="tspan28802"
           x="2370.7854"
           y="1741.7144">E2: 2.0 V vs Ag</tspan></text>
    </g>
  </g>
</svg>
