<?xml version="1.0" encoding="UTF-8" standalone="no"?>
<svg
   height="6520px"
   version="1.1"
   width="4961px"
   id="svg6"
   sodipodi:docname="bi_2018_minimizing_1_f3a_red_3.svg"
   inkscape:version="1.4.2 (f4327f4, 2025-05-13)"
   xmlns:inkscape="http://www.inkscape.org/namespaces/inkscape"
   xmlns:sodipodi="http://sodipodi.sourceforge.net/DTD/sodipodi-0.dtd"
   xmlns:xlink="http://www.w3.org/1999/xlink"
   xmlns="http://www.w3.org/2000/svg"
   xmlns:svg="http://www.w3.org/2000/svg">
  <sodipodi:namedview
     id="namedview8"
     pagecolor="#ffffff"
     bordercolor="#666666"
     borderopacity="1.0"
     inkscape:pageshadow="2"
     inkscape:pageopacity="0.0"
     inkscape:pagecheckerboard="0"
     showgrid="false"
     inkscape:zoom="0.35051674"
     inkscape:cx="1443.583"
     inkscape:cy="1419.3331"
     inkscape:window-width="1536"
     inkscape:window-height="953"
     inkscape:window-x="-8"
     inkscape:window-y="-8"
     inkscape:window-maximized="1"
     inkscape:current-layer="g25144"
     inkscape:showpageshadow="2"
     inkscape:deskcolor="#d1d1d1" />
  <defs
     id="defs2" />
  <image
     height="6520px"
     sodipodi:insensitive="true"
     width="4961px"
     x="0"
     xlink:href="bi_2018_minimizing_1_p4.png"
     y="0"
     id="image4" />
  <g
     id="g25144"
     transform="translate(-0.58453473,279.84031)">
    <path
       style="fill:none;stroke:#000000;stroke-width:1px;stroke-linecap:butt;stroke-linejoin:miter;stroke-opacity:1"
       d="m 1771.2129,1106.5037 c 0,0 109.8259,-2.2004 248.9099,-5.2293 30.7508,-0.6697 157.3702,-0.6891 178.9364,-4.7244 17.7297,-4.2169 25.7793,-3.7571 46.4238,-14.3957 20.9982,-10.8209 33.1933,-11.8768 56.4599,-12.9081 19.3395,-0.8572 25.0461,-5.5534 35.6388,-14.0077 9.0903,-7.2551 13.4229,-13.5731 13.4229,-13.5731 0,0 -0.7995,12.5989 -8.6138,26.5004 -20.5569,36.5708 -42.6084,33.75 -93.5758,35.312 -74.9801,2.2979 -111.9869,-3.4881 -142.0336,16.9934 -12.1007,8.2484 -15.6541,14.3105 -29.4243,5.0791 -21.5364,-14.4377 -80.7883,-7.4389 -128.0793,-10.1775 -44.0171,-2.5491 -143.3366,-3.2378 -209.1141,-1.8444 -26.4639,0.5606 -82.8934,0.7231 -118.8597,1.7832 -30.3381,0.8942 -92.2329,-1.7134 -114.4746,4.3555 -11.9168,3.2516 -17.3524,3.3857 -33.8916,0.3565 -18.1953,-3.3326 -73.22,-3.5992 -135.9598,-3.1695 -56.1123,0.3841 -79.848,0.3284 -101.4265,6.5967 -19.5066,5.6665 -39.0888,20.0238 -39.0888,20.0238 0,0 4.9474,-9.2009 36.1029,-23.5585 20.5559,-9.4729 41.825,-6.4913 77.4156,-8.4149 35.127,-1.8985 92.8935,-2.3582 118.7905,-2.6593 92.3119,-1.0735 337.8157,-5.4813 337.8157,-5.4813"
       id="path858"
       sodipodi:nodetypes="cscssscssssssssssscsssc" />
    <text
       xml:space="preserve"
       style="font-size:21.3333px;line-height:1.25;font-family:sans-serif;letter-spacing:0px;word-spacing:0px"
       x="1310.9218"
       y="1265.2748"
       id="text7618"><tspan
         sodipodi:role="line"
         id="tspan7616"
         x="1310.9218"
         y="1265.2748">curve: red</tspan></text>
  </g>
  <text
     xml:space="preserve"
     style="font-size:21.3333px;line-height:1.25;font-family:sans-serif;letter-spacing:0px;word-spacing:0px"
     x="1585.6449"
     y="1195.2278"
     id="text8612"><tspan
       sodipodi:role="line"
       id="tspan8610"
       x="1585.6449"
       y="1195.2278">Figure: 3a</tspan></text>
  <text
     xml:space="preserve"
     style="font-size:21.3333px;line-height:1.25;font-family:sans-serif;letter-spacing:0px;word-spacing:0px"
     x="1364.5428"
     y="1005.5078"
     id="text13602"><tspan
       sodipodi:role="line"
       id="tspan13600"
       x="1364.5428"
       y="1005.5078">tags: BCV</tspan></text>
  <text
     xml:space="preserve"
     style="font-size:21.3333px;line-height:1.25;font-family:sans-serif;letter-spacing:0px;word-spacing:0px"
     x="1876.6439"
     y="917.06696"
     id="text15538"><tspan
       sodipodi:role="line"
       id="tspan15536"
       x="1876.6439"
       y="917.06696">scan rate: 100 mV / s</tspan></text>
  <g
     id="g25139"
     transform="translate(-0.58453468,-0.15029073)">
    <path
       style="fill:none;stroke:#000000;stroke-width:1px;stroke-linecap:butt;stroke-linejoin:miter;stroke-opacity:1"
       d="M 1185.3928,546.33626 C 964.29062,621.93893 964.29062,621.93893 964.29062,621.93893"
       id="path17025" />
    <path
       style="fill:none;stroke:#000000;stroke-width:1px;stroke-linecap:butt;stroke-linejoin:miter;stroke-opacity:1"
       d="M 1183.9663,639.05651 C 964.29062,621.93893 964.29062,621.93893 964.29062,621.93893"
       id="path17140" />
    <text
       xml:space="preserve"
       style="font-size:21.3333px;line-height:1.25;font-family:sans-serif;letter-spacing:0px;word-spacing:0px"
       x="777.42365"
       y="621.9389"
       id="text18310"><tspan
         sodipodi:role="line"
         id="tspan18308"
         x="777.42365"
         y="621.9389">j_scale_bar: 0.5 mA / cm2</tspan></text>
  </g>
  <path
     style="fill:none;stroke:#000000;stroke-width:1px;stroke-linecap:butt;stroke-linejoin:miter;stroke-opacity:1"
     d="m 1115.8087,1388.204 c 1303.6357,0 1305.2158,0 1305.2158,0"
     id="path21510" />
  <g
     id="g25133"
     transform="translate(-0.58453473,279.84031)">
    <path
       style="fill:none;stroke:#000000;stroke-width:1px;stroke-linecap:butt;stroke-linejoin:miter;stroke-opacity:1"
       d="m 847.40893,1052.1579 c 268.98417,56.2057 268.98417,56.2057 268.98417,56.2057"
       id="path21625" />
    <text
       xml:space="preserve"
       style="font-size:21.3333px;line-height:1.25;font-family:sans-serif;letter-spacing:0px;word-spacing:0px"
       x="733.20325"
       y="1025.6285"
       id="text22267"><tspan
         sodipodi:role="line"
         id="tspan22265"
         x="733.20325"
         y="1025.6285">j1: 0.0 mA / cm2</tspan></text>
  </g>
  <text
     xml:space="preserve"
     style="font-size:21.3333px;line-height:1.25;font-family:sans-serif;letter-spacing:0px;word-spacing:0px"
     x="782.54498"
     y="1210.9188"
     id="text22755"><tspan
       sodipodi:role="line"
       id="tspan22753"
       x="782.54498"
       y="1210.9188">comment: j-axis offset not given. Basline estimate by the curator.</tspan></text>
  <g
     id="g29434"
     transform="translate(-0.58453468,-0.15029073)">
    <path
       style="fill:none;stroke:#000000;stroke-width:1px;stroke-linecap:butt;stroke-linejoin:miter;stroke-opacity:1"
       d="m 1300.9365,1529.1709 c -174.0288,149.7789 -174.0288,148.3524 -174.0288,148.3524"
       id="path25046" />
    <text
       xml:space="preserve"
       style="font-size:21.3333px;line-height:1.25;font-family:sans-serif;letter-spacing:0px;word-spacing:0px"
       x="995.67285"
       y="1716.0378"
       id="text25962"><tspan
         sodipodi:role="line"
         id="tspan25960"
         x="995.67285"
         y="1716.0378">E1: -2.0 V vs Ag</tspan></text>
  </g>
  <g
     id="g29429"
     transform="translate(-0.58453468,-0.15029073)">
    <path
       style="fill:none;stroke:#000000;stroke-width:1px;stroke-linecap:butt;stroke-linejoin:miter;stroke-opacity:1"
       d="m 2235.2713,1529.1709 c 135.5142,212.5434 135.5142,212.5434 135.5142,212.5434"
       id="path25048" />
    <text
       xml:space="preserve"
       style="font-size:21.3333px;line-height:1.25;font-family:sans-serif;letter-spacing:0px;word-spacing:0px"
       x="2370.7854"
       y="1741.7144"
       id="text28804"><tspan
         sodipodi:role="line"
         id="tspan28802"
         x="2370.7854"
         y="1741.7144">E2: 2.0 V vs Ag</tspan></text>
  </g>
</svg>
