<?xml version="1.0" encoding="UTF-8" standalone="no"?>
<svg
   height="6520px"
   version="1.1"
   width="4961px"
   id="svg6"
   sodipodi:docname="bi_2018_minimizing_1_f3a_blue_1.svg"
   inkscape:version="1.4.2 (f4327f4, 2025-05-13)"
   xmlns:inkscape="http://www.inkscape.org/namespaces/inkscape"
   xmlns:sodipodi="http://sodipodi.sourceforge.net/DTD/sodipodi-0.dtd"
   xmlns:xlink="http://www.w3.org/1999/xlink"
   xmlns="http://www.w3.org/2000/svg"
   xmlns:svg="http://www.w3.org/2000/svg">
  <sodipodi:namedview
     id="namedview8"
     pagecolor="#ffffff"
     bordercolor="#666666"
     borderopacity="1.0"
     inkscape:pageshadow="2"
     inkscape:pageopacity="0.0"
     inkscape:pagecheckerboard="0"
     showgrid="false"
     inkscape:zoom="0.49570552"
     inkscape:cx="1938.651"
     inkscape:cy="997.56807"
     inkscape:window-width="1536"
     inkscape:window-height="953"
     inkscape:window-x="-8"
     inkscape:window-y="-8"
     inkscape:window-maximized="1"
     inkscape:current-layer="svg6"
     inkscape:showpageshadow="2"
     inkscape:deskcolor="#d1d1d1" />
  <defs
     id="defs2" />
  <image
     height="6520px"
     sodipodi:insensitive="true"
     width="4961px"
     x="0"
     xlink:href="bi_2018_minimizing_1_p4.png"
     y="0"
     id="image4" />
  <g
     id="g25144"
     transform="translate(-1.8112339,-282.66002)">
    <path
       style="fill:none;stroke:#ff0000;stroke-width:1px;stroke-linecap:butt;stroke-linejoin:miter;stroke-opacity:1"
       d="m 1769.7506,1116.2547 c 0,0 94.9583,2.4135 142.1454,3.0112 30.5406,0.3869 101.7914,4.3518 118.8258,15.9971 30.1087,20.5833 23.4081,16.4526 39.7032,-2.4206 19.5288,-22.6186 73.035,-25.2066 95.8255,-24.8807 105.7991,1.5127 106.9096,-15.6144 118.552,-45.9474 10.8856,-28.3612 21.6251,-99.87437 21.6251,-99.87437 0,0 -6.9456,23.51445 -17.8859,45.04447 -30.1538,59.3415 -48.1456,59.4762 -68.9692,63.8413 -12.0312,2.522 -34.3064,11.5029 -57.8722,16.6368 -26.0663,5.6785 -99.2173,5.468 -137.479,3.296 -10.8044,-0.6133 -65.7511,-2.2835 -88.4964,1.7285 -22.2198,3.9194 -89.9785,2.6064 -100.921,-2.2774 -17.9726,-8.0214 -30.9939,-5.4758 -44.1458,0.1032 -4.0652,1.7245 -10.857,6.3005 -16.4805,1.1103 -7.885,-7.2773 -8.5767,-1.2422 -15.3221,3.0318 -6.217,3.9391 -26.6719,9.4807 -51.3789,9.4722 -7.9887,-0 -22.6429,2.7413 -28.8748,1.8175 -9.5254,-1.4121 -14.9082,-0.204 -23.8251,3.2291 -15.5223,5.9761 -41.2024,1.0451 -50.2337,1.5019 -79.8562,4.039 -90.4013,2.1953 -178.4109,6.1785 -59.2205,2.6803 -66.6532,13.8798 -78.9597,32.2731 -11.2957,16.8826 -20.1881,61.0347 -20.1881,61.0347 0,0 15.6565,-36.5867 31.1103,-59.5768 12.5309,-18.6418 23.3464,-23.7701 75.5319,-23.815 15.6684,-0.014 35.2119,-1.9062 57.4052,0.09 16.5084,1.4847 42.0342,-1.2831 60.2421,-2.6001 16.5846,-1.1996 36.8636,1.7966 49.9634,5.7815 6.929,2.1077 20.7066,3.0619 25.9623,-0.1131 7.9775,-4.8192 12.2109,-3.6221 17.1867,-3.6221 5.4978,0 10.5168,-2.4901 17.4537,-5.7499 16.5712,-7.787 106.6477,-10.405 106.6477,-10.405"
       id="path858"
       sodipodi:nodetypes="cssssscssssssssssssssscssssssssc" />
    <text
       xml:space="preserve"
       style="font-size:21.3333px;line-height:1.25;font-family:sans-serif;letter-spacing:0px;word-spacing:0px"
       x="1310.9218"
       y="1265.2748"
       id="text7618"><tspan
         sodipodi:role="line"
         id="tspan7616"
         x="1310.9218"
         y="1265.2748">curve: blue</tspan></text>
  </g>
  <text
     xml:space="preserve"
     style="font-size:21.3333px;line-height:1.25;font-family:sans-serif;letter-spacing:0px;word-spacing:0px"
     x="1586.4357"
     y="1195.1437"
     id="text8612"><tspan
       sodipodi:role="line"
       id="tspan8610"
       x="1586.4357"
       y="1195.1437">Figure: 3a</tspan></text>
  <text
     xml:space="preserve"
     style="font-size:21.3333px;line-height:1.25;font-family:sans-serif;letter-spacing:0px;word-spacing:0px"
     x="1365.3336"
     y="1005.4238"
     id="text13602"><tspan
       sodipodi:role="line"
       id="tspan13600"
       x="1365.3336"
       y="1005.4238">tags: BCV</tspan></text>
  <text
     xml:space="preserve"
     style="font-size:21.3333px;line-height:1.25;font-family:sans-serif;letter-spacing:0px;word-spacing:0px"
     x="1877.4347"
     y="916.98303"
     id="text15538"><tspan
       sodipodi:role="line"
       id="tspan15536"
       x="1877.4347"
       y="916.98303">scan rate: 100 mV / s</tspan></text>
  <g
     id="g25139"
     transform="translate(0.20609282,-0.23427409)">
    <path
       style="fill:none;stroke:#000000;stroke-width:1px;stroke-linecap:butt;stroke-linejoin:miter;stroke-opacity:1"
       d="M 1185.3928,546.33626 C 964.29062,621.93893 964.29062,621.93893 964.29062,621.93893"
       id="path17025" />
    <path
       style="fill:none;stroke:#000000;stroke-width:1px;stroke-linecap:butt;stroke-linejoin:miter;stroke-opacity:1"
       d="M 1183.9663,639.05651 C 964.29062,621.93893 964.29062,621.93893 964.29062,621.93893"
       id="path17140" />
    <text
       xml:space="preserve"
       style="font-size:21.3333px;line-height:1.25;font-family:sans-serif;letter-spacing:0px;word-spacing:0px"
       x="777.42365"
       y="621.9389"
       id="text18310"><tspan
         sodipodi:role="line"
         id="tspan18308"
         x="777.42365"
         y="621.9389">j_scale_bar: 0.5 mA / cm2</tspan></text>
  </g>
  <path
     style="fill:none;stroke:#000000;stroke-width:1px;stroke-linecap:butt;stroke-linejoin:miter;stroke-opacity:1"
     d="m 1114.5819,825.70366 c 1303.6357,0 1305.2158,0 1305.2158,0"
     id="path21510" />
  <g
     id="g25133"
     transform="translate(-1.8112339,-282.66002)">
    <path
       style="fill:none;stroke:#000000;stroke-width:1px;stroke-linecap:butt;stroke-linejoin:miter;stroke-opacity:1"
       d="m 847.40893,1052.1579 c 268.98417,56.2057 268.98417,56.2057 268.98417,56.2057"
       id="path21625" />
    <text
       xml:space="preserve"
       style="font-size:21.3333px;line-height:1.25;font-family:sans-serif;letter-spacing:0px;word-spacing:0px"
       x="733.20325"
       y="1025.6285"
       id="text22267"><tspan
         sodipodi:role="line"
         id="tspan22265"
         x="733.20325"
         y="1025.6285">j1: 0.0 mA / cm2</tspan></text>
  </g>
  <text
     xml:space="preserve"
     style="font-size:21.3333px;line-height:1.25;font-family:sans-serif;letter-spacing:0px;word-spacing:0px"
     x="783.33557"
     y="1210.8347"
     id="text22755"><tspan
       sodipodi:role="line"
       id="tspan22753"
       x="783.33557"
       y="1210.8347">comment: j-axis offset not given. Basline estimate by the curator.</tspan></text>
  <g
     id="g29434"
     transform="translate(0.20609282,-0.23427409)">
    <path
       style="fill:none;stroke:#000000;stroke-width:1px;stroke-linecap:butt;stroke-linejoin:miter;stroke-opacity:1"
       d="m 1300.9365,1529.1709 c -174.0288,149.7789 -174.0288,148.3524 -174.0288,148.3524"
       id="path25046" />
    <text
       xml:space="preserve"
       style="font-size:21.3333px;line-height:1.25;font-family:sans-serif;letter-spacing:0px;word-spacing:0px"
       x="995.67285"
       y="1716.0378"
       id="text25962"><tspan
         sodipodi:role="line"
         id="tspan25960"
         x="995.67285"
         y="1716.0378">E1: -2.0 V vs Ag</tspan></text>
  </g>
  <g
     id="g29429"
     transform="translate(0.20609282,-0.23427409)">
    <path
       style="fill:none;stroke:#000000;stroke-width:1px;stroke-linecap:butt;stroke-linejoin:miter;stroke-opacity:1"
       d="m 2235.2713,1529.1709 c 135.5142,212.5434 135.5142,212.5434 135.5142,212.5434"
       id="path25048" />
    <text
       xml:space="preserve"
       style="font-size:21.3333px;line-height:1.25;font-family:sans-serif;letter-spacing:0px;word-spacing:0px"
       x="2370.7854"
       y="1741.7144"
       id="text28804"><tspan
         sodipodi:role="line"
         id="tspan28802"
         x="2370.7854"
         y="1741.7144">E2: 2.0 V vs Ag</tspan></text>
  </g>
</svg>
