<?xml version="1.0" encoding="UTF-8" standalone="no"?>
<svg
   height="6000px"
   version="1.1"
   width="4200px"
   id="svg6"
   sodipodi:docname="clavilier_1980_the_211_p1_f1_black.svg"
   inkscape:version="1.1.2 (b8e25be833, 2022-02-05)"
   xmlns:inkscape="http://www.inkscape.org/namespaces/inkscape"
   xmlns:sodipodi="http://sodipodi.sourceforge.net/DTD/sodipodi-0.dtd"
   xmlns:xlink="http://www.w3.org/1999/xlink"
   xmlns="http://www.w3.org/2000/svg"
   xmlns:svg="http://www.w3.org/2000/svg">
  <sodipodi:namedview
     id="namedview8"
     pagecolor="#ffffff"
     bordercolor="#666666"
     borderopacity="1.0"
     inkscape:pageshadow="2"
     inkscape:pageopacity="0.0"
     inkscape:pagecheckerboard="0"
     showgrid="false"
     inkscape:zoom="0.70710678"
     inkscape:cx="1905.6528"
     inkscape:cy="2883.5815"
     inkscape:window-width="1920"
     inkscape:window-height="1017"
     inkscape:window-x="1912"
     inkscape:window-y="-8"
     inkscape:window-maximized="1"
     inkscape:current-layer="svg6" />
  <defs
     id="defs2" />
  <image
     height="6000px"
     sodipodi:insensitive="true"
     width="4200px"
     x="0"
     xlink:href="clavilier_1980_the_211_p1.png"
     y="0"
     id="image4" />
  <g
     id="g14147">
    <text
       xml:space="preserve"
       style="font-size:80px;line-height:1.25;font-family:sans-serif;-inkscape-font-specification:sans-serif;letter-spacing:0px;word-spacing:0px"
       x="2156.0562"
       y="3326.4265"
       id="text2785-4-0"><tspan
         sodipodi:role="line"
         id="tspan2783-2-1"
         x="2156.0562"
         y="3326.4265">E2: 1.0 V vs. RHE</tspan></text>
    <path
       style="fill:none;stroke:#000000;stroke-width:1px;stroke-linecap:butt;stroke-linejoin:miter;stroke-opacity:1"
       d="m 2163.3196,3300.148 -39.1518,-232.7757"
       id="path14041" />
  </g>
  <g
     id="g14142">
    <text
       xml:space="preserve"
       style="font-size:80px;line-height:1.25;font-family:sans-serif;-inkscape-font-specification:sans-serif;letter-spacing:0px;word-spacing:0px"
       x="738.29877"
       y="3623.9067"
       id="text2785-4"><tspan
         sodipodi:role="line"
         id="tspan2783-2"
         x="738.29877"
         y="3623.9067">E1: 0.1 V vs. RHE</tspan></text>
    <path
       style="fill:none;stroke:#000000;stroke-width:1px;stroke-linecap:butt;stroke-linejoin:miter;stroke-opacity:1"
       d="m 741.75027,3596.2787 29.00799,-531.2644"
       id="path14043" />
  </g>
  <g
     id="g14137">
    <text
       xml:space="preserve"
       style="font-size:80px;line-height:1.25;font-family:sans-serif;-inkscape-font-specification:sans-serif;letter-spacing:0px;word-spacing:0px"
       x="-148.99329"
       y="3428.8591"
       id="text2785"><tspan
         sodipodi:role="line"
         id="tspan2783"
         x="-148.99329"
         y="3428.8591">j1: -60 uA / cm2</tspan></text>
    <path
       style="fill:none;stroke:#000000;stroke-width:1px;stroke-linecap:butt;stroke-linejoin:miter;stroke-opacity:1"
       d="m 444.96644,3402.6846 180.83054,13.2131"
       id="path14045" />
  </g>
  <g
     id="g14132">
    <text
       xml:space="preserve"
       style="font-size:80px;line-height:1.25;font-family:sans-serif;-inkscape-font-specification:sans-serif;letter-spacing:0px;word-spacing:0px"
       x="-143.58044"
       y="2735.9873"
       id="text2785-1"><tspan
         sodipodi:role="line"
         id="tspan2783-5"
         x="-143.58044"
         y="2735.9873">j2: 60 uA / cm2</tspan></text>
    <path
       style="fill:none;stroke:#000000;stroke-width:1px;stroke-linecap:butt;stroke-linejoin:miter;stroke-opacity:1"
       d="M 421.81208,2712.0805 H 617.36577"
       id="path14047" />
  </g>
  <text
     xml:space="preserve"
     style="font-size:80px;line-height:1.25;font-family:sans-serif;-inkscape-font-specification:sans-serif;letter-spacing:0px;word-spacing:0px"
     x="1574.4966"
     y="2589.2617"
     id="text15031"><tspan
       sodipodi:role="line"
       id="tspan15029"
       x="1574.4966"
       y="2589.2617">figure: 1</tspan></text>
  <text
     xml:space="preserve"
     style="font-size:80px;line-height:1.25;font-family:sans-serif;-inkscape-font-specification:sans-serif;letter-spacing:0px;word-spacing:0px"
     x="1515.5153"
     y="2449.2046"
     id="text15031-5"><tspan
       sodipodi:role="line"
       id="tspan15029-9"
       x="1515.5153"
       y="2449.2046">tags: BCV</tspan></text>
  <text
     xml:space="preserve"
     style="font-size:80px;line-height:1.25;font-family:sans-serif;-inkscape-font-specification:sans-serif;letter-spacing:0px;word-spacing:0px"
     x="2230.8726"
     y="2577.1812"
     id="text19439"><tspan
       sodipodi:role="line"
       id="tspan19437"
       x="2230.8726"
       y="2577.1812">scan rate: 50 mV / s</tspan></text>
  <g
     id="g38675">
    <text
       xml:space="preserve"
       style="font-size:80px;line-height:1.25;font-family:sans-serif;-inkscape-font-specification:sans-serif;letter-spacing:0px;word-spacing:0px"
       x="1469.7987"
       y="2891.2751"
       id="text17499"><tspan
         sodipodi:role="line"
         id="tspan17497"
         x="1469.7987"
         y="2891.2751">curve: black</tspan></text>
    <path
       style="fill:none;stroke:#ff0000;stroke-width:1px;stroke-linecap:butt;stroke-linejoin:miter;stroke-opacity:1"
       d="m 708.59899,2881.3339 c 0.76858,-39.1269 52.08679,-25.7295 67.07215,-49.4547 6.76141,-10.7048 4.8936,-22.649 14.09396,-24.1611 7.36861,-1.2111 19.14073,11.3674 21.39262,16.7366 5.63623,13.4386 17.83452,32.2857 32.84396,40.8977 12.08261,6.9326 30.93692,8.231 48.07047,6.7952 32.51915,-2.7249 65.19621,3.9353 98.2802,-0.2516 15.22295,-1.9266 44.55735,15.0685 58.64095,23.406 9.0041,5.3304 19.5025,8.5538 28.1879,14.5973 10.3195,7.1806 22.1731,15.2462 26.6779,15.1007 11.6233,-0.3754 17.651,-16.4048 23.8941,-26.4135 5.413,-8.6782 14.4814,-21.3596 21.9139,-20.7518 12.4911,1.0213 45.2565,14.3905 69.4604,18.474 5.1395,0.8671 11.4364,1.3476 16.4938,2.6084 11.0754,2.761 22.6134,13.0473 29.6954,12.2254 17.2573,-2.0029 11.8823,-85.828 12.3781,-128.0941 0.3651,-31.1292 0.3819,-92.558 2.3388,-92.5492 1.3207,0.01 11.3602,112.3651 15.7299,169.8196 2.5297,33.262 5.0733,64.935 15.2264,95.3859 15.1461,45.4258 50.1976,69.1133 67.7014,73.9933 44.2917,12.3484 77.8398,10.6609 117.0302,12.3322 33.9523,1.4479 68.4477,3.8022 101.9295,-2.0134 21.2763,-3.6956 43.9145,-7.8494 61.4094,-20.6376 11.5054,-8.4101 27.1476,-22.2549 39.5134,-21.6443 12.988,0.6414 32.8017,18.5991 44.574,26.2973 24.301,15.891 51.7986,15.2869 78.5234,16.8624 44.9144,2.6479 99.5213,-1.0161 149.4697,-5.408 22.7253,-1.9982 44.8971,-8.6223 66.6947,-15.3524 24.5159,-7.5694 46.1535,-9.106 70.0144,-10.918 23.775,-1.8054 54.0655,-5.2472 87.2842,-8.9645 24.1336,-2.7006 156.4087,4.5358 216.6947,1.0067 28.9332,-1.6937 83.819,-24.1813 84.0587,-21.5607 1.3691,14.9664 -0.2517,46.0037 -0.2517,46.0037 -8.8694,13.3119 -34.1932,34.7487 -56.1225,38.9966 -105.5522,20.4463 -231.0176,9.9897 -351.8456,20.3691 -49.9464,4.2905 -86.099,6.1515 -134.4899,9.3356 -14.671,0.9653 -46.5928,12.8766 -77.5839,17.1342 -20.36,2.7971 -44.6776,13.8454 -66.1578,14.052 -17.0427,0.1639 -53.0676,3.0969 -70.0906,2.2635 -17.7634,-0.8697 -35.1588,-5.5011 -52.8523,-7.2987 -12.7971,-1.3001 -28.5825,-3.5495 -38.5067,-2.5168 -16.1301,1.6785 -16.528,14.3701 -19.6309,23.9094 -2.9899,9.192 -9.501,26.2805 -11.3255,26.4262 -3.6048,0.2879 -8.6117,-37.3261 -19.4857,-49.8121 -13.036,-14.9685 -37.0199,-22.815 -49.9774,-24.4329 -40.5739,-5.0663 -75.871,-4.6019 -118.2886,-6.2919 -27.2177,-1.0844 -57.4541,1.4023 -81.2869,14.5923 -21.0622,11.6566 -26.6207,19.6247 -38.0084,50.5922 -10.635,28.9207 -13.3511,49.8986 -16.359,82.8021 -8.4302,92.2195 -7.3899,262.9384 -9.8732,262.9666 -2.6085,0.03 -5.8695,-131.592 -12.0228,-200.143 -1.6643,-18.5412 -1.5101,-102.6846 -1.5101,-102.6846 -6.5587,14.6013 -39.8941,23.2464 -47.3154,23.7536 -12.1901,0.8331 -24.9401,1.1073 -36.9967,4.0268 -13.189,3.1936 -31.1609,16.127 -38.0033,14.5973 -10.1995,-2.2802 -13.8847,-15.6327 -21.141,-23.1543 -8.6496,-8.9658 -16.1947,-25.6599 -26.6778,-26.1745 -7.6533,-0.3757 -22.7945,18.6888 -35.9899,24.9161 -5.2837,2.4935 -8.8834,1.9387 -14.3876,3.898 -3.7879,1.3483 -9.8033,4.2034 -13.5487,5.6657 -15.8496,6.1883 -15.9843,13.7873 -24.8472,17.2909 -16.87807,6.672 -35.97286,6.6734 -54.11074,6.0403 -26.5719,-0.9275 -60.20071,-0.9199 -81.61251,0.7071 -13.80046,1.0486 -27.05015,3.4317 -39.66323,9.1292 -13.87694,6.2685 -18.84511,18.6114 -21.31771,23.8495 -5.40482,11.4499 -12.12032,20.9799 -21.06604,20.7515 -11.81905,-0.3017 -19.06609,-13.8124 -26.42617,-23.6577 -6.20635,-8.302 -19.30526,-19.5657 -27.97526,-19.3523 -7.56239,0.1862 -16.03418,5.0135 -24.37374,17.8422 -4.95695,7.6252 -14.43062,25.9703 -14.34564,21.6443 z"
       id="path22048"
       sodipodi:nodetypes="sssssssssssssssssssssssssssssssssssssssssssssssssssssssssssssssssssssss" />
  </g>
</svg>
