<?xml version="1.0" encoding="UTF-8" standalone="no"?>
<svg
   height="6615px"
   version="1.1"
   width="4961px"
   id="svg1"
   sodipodi:docname="briega-martos_2020_hydrogen_135452_f3_olive.svg"
   inkscape:version="1.3.2 (091e20e, 2023-11-25)"
   xmlns:inkscape="http://www.inkscape.org/namespaces/inkscape"
   xmlns:sodipodi="http://sodipodi.sourceforge.net/DTD/sodipodi-0.dtd"
   xmlns:xlink="http://www.w3.org/1999/xlink"
   xmlns="http://www.w3.org/2000/svg"
   xmlns:svg="http://www.w3.org/2000/svg">
  <sodipodi:namedview
     id="namedview1"
     pagecolor="#505050"
     bordercolor="#eeeeee"
     borderopacity="1"
     inkscape:showpageshadow="0"
     inkscape:pageopacity="0"
     inkscape:pagecheckerboard="0"
     inkscape:deskcolor="#505050"
     inkscape:zoom="0.48516929"
     inkscape:cx="1416.0006"
     inkscape:cy="5066.2728"
     inkscape:window-width="1440"
     inkscape:window-height="793"
     inkscape:window-x="0"
     inkscape:window-y="25"
     inkscape:window-maximized="0"
     inkscape:current-layer="svg1" />
  <defs
     id="defs1" />
  <image
     height="6615"
     sodipodi:insensitive="true"
     width="4961"
     x="0"
     xlink:href="briega-martos_2020_hydrogen_135452_p3.png"
     y="0"
     id="image1" />
  <g
     id="g1">
    <path
       style="display:inline;fill:none;fill-rule:evenodd;stroke:#000000;stroke-width:1.01318px;stroke-linecap:butt;stroke-linejoin:miter;stroke-opacity:1"
       d="m 527.51859,4533.0396 111.20696,241.3617"
       id="path466"
       inkscape:connector-type="polyline"
       inkscape:connector-curvature="0" />
    <text
       xml:space="preserve"
       style="font-size:80px;line-height:1.25;font-family:sans-serif;-inkscape-font-specification:sans-serif;letter-spacing:0px;word-spacing:0px"
       x="36.215153"
       y="4515.6602"
       id="text12078"><tspan
         sodipodi:role="line"
         id="tspan12076"
         x="36.215153"
         y="4515.6602">j2: 150 uA / cm2</tspan></text>
  </g>
  <g
     id="g2">
    <path
       style="display:inline;fill:none;fill-rule:evenodd;stroke:#000000;stroke-width:1.03582px;stroke-linecap:butt;stroke-linejoin:miter;stroke-opacity:1"
       d="M 457.83907,5596.0281 639.42192,5439.7318"
       id="path451"
       inkscape:connector-type="polyline"
       inkscape:connector-curvature="0" />
    <text
       xml:space="preserve"
       style="font-size:80px;line-height:1.25;font-family:sans-serif;-inkscape-font-specification:sans-serif;letter-spacing:0px;word-spacing:0px"
       x="7.6449523"
       y="5672.042"
       id="text12078-9"><tspan
         sodipodi:role="line"
         id="tspan12076-7"
         x="7.6449523"
         y="5672.042">j1: -100 uA / cm2</tspan></text>
  </g>
  <g
     id="g3">
    <path
       style="fill:none;fill-rule:evenodd;stroke:#000000;stroke-width:1.03994px;stroke-linecap:butt;stroke-linejoin:miter;stroke-opacity:1"
       d="M 574.67736,5952.2125 642.3083,5772.5998"
       id="path481"
       inkscape:connector-type="polyline"
       inkscape:connector-curvature="0" />
    <text
       xml:space="preserve"
       style="font-size:80px;line-height:1.25;font-family:sans-serif;-inkscape-font-specification:sans-serif;letter-spacing:0px;word-spacing:0px"
       x="34.884697"
       y="6030.5869"
       id="text15529"><tspan
         sodipodi:role="line"
         id="tspan15527"
         x="34.884697"
         y="6030.5869">E1: 0.0 V vs RHE</tspan></text>
  </g>
  <g
     id="g4">
    <path
       style="fill:none;fill-rule:evenodd;stroke:#000000;stroke-width:1px;stroke-linecap:butt;stroke-linejoin:miter;stroke-opacity:1"
       d="M 2163.7481,5964.621 2267.416,5771.3762"
       id="path494"
       inkscape:connector-type="polyline"
       inkscape:connector-curvature="0" />
    <text
       xml:space="preserve"
       style="font-size:80px;line-height:1.25;font-family:sans-serif;-inkscape-font-specification:sans-serif;letter-spacing:0px;word-spacing:0px"
       x="1805.3206"
       y="6058.8276"
       id="text15529-1"><tspan
         sodipodi:role="line"
         id="tspan15527-0"
         x="1805.3206"
         y="6058.8276">E2: 1.0 V vs RHE</tspan></text>
  </g>
  <text
     xml:space="preserve"
     style="font-size:80px;line-height:1.25;font-family:sans-serif;-inkscape-font-specification:sans-serif;letter-spacing:0px;word-spacing:0px"
     x="1556.8562"
     y="4523.6978"
     id="text7770"><tspan
       sodipodi:role="line"
       id="tspan7768"
       x="1556.8562"
       y="4523.6978">scan rate: 50 mV / s</tspan></text>
  <text
     xml:space="preserve"
     style="font-size:80px;line-height:1.25;font-family:sans-serif;-inkscape-font-specification:sans-serif;letter-spacing:0px;word-spacing:0px"
     x="1562.9719"
     y="4428.4941"
     id="text9174"><tspan
       sodipodi:role="line"
       x="1562.9719"
       y="4428.4941"
       id="tspan9176">figure: 3</tspan></text>
  <text
     xml:space="preserve"
     style="font-size:80px;line-height:1.25;font-family:sans-serif;-inkscape-font-specification:sans-serif;letter-spacing:0px;word-spacing:0px"
     x="1979.0311"
     y="4418.2822"
     id="text9174-0"><tspan
       sodipodi:role="line"
       x="1979.0311"
       y="4418.2822"
       id="tspan9176-2">tags: BCV</tspan></text>
  <g
     id="g5">
    <text
       xml:space="preserve"
       style="font-size:80px;line-height:1.25;font-family:sans-serif;-inkscape-font-specification:sans-serif;letter-spacing:0px;word-spacing:0px"
       x="1687.7732"
       y="4794.8457"
       id="text9174-9"><tspan
         sodipodi:role="line"
         x="1687.7732"
         y="4794.8457"
         id="tspan6">curve: olive</tspan></text>
    <path
       style="fill:none;stroke:#00ffff;stroke-width:3.8"
       d="m 741.28733,5358.2407 c -2.0377,-6.981 -3.14712,-249.5729 -0.51911,-271.4938 2.62801,-21.9209 8.74335,-22.3354 15.79906,-25.5342 7.0557,-3.1987 31.73481,3.0233 40.27982,-0.9707 8.54501,-3.994 11.02407,-3.3771 25.42119,-40.9793 14.39712,-37.6022 19.52905,-189.7729 34.26118,-187.9174 14.73213,1.8555 19.15607,177.8143 41.10089,193.1085 21.94483,15.2942 22.04529,7.1183 39.36097,15.0542 17.31568,7.9359 23.00568,41.3931 45.82291,63.8971 22.81726,22.504 98.93276,47.2574 133.26966,53.4214 34.3369,6.164 34.7232,7.6407 137.9366,10.3019 103.2134,2.6612 386.9879,5.2417 480.841,-13.9356 93.8531,-19.1773 95.0833,-24.6581 136.0065,-32.7039 40.9232,-8.0458 83.8246,-13.9803 112.6466,-21.6918 28.822,-7.7116 36.7667,-27.1993 52.1749,-30.6531 15.4081,-3.4538 16.7289,2.5403 32.959,1.4298 16.2301,-1.1106 34.6417,-15.4495 35.3844,-8.374 0.7426,7.0755 4.8248,82.4172 -7.4801,109.6427 -12.3049,27.2255 -20.5526,33.3446 -47.1114,46.7198 -26.5588,13.3752 -172.0455,15.69 -222.9784,13.9991 -50.9329,-1.6909 -60.5559,-6.5267 -81.2193,-8.2889 -20.6634,-1.7622 -22.3666,-0.1022 -49.6299,-4.1273 -27.2633,-4.0251 -71.1205,-23.8565 -117.4718,-30.7381 -46.3513,-6.8815 -95.1606,2.5934 -149.9462,-3.8721 -54.7856,-6.4654 -204.0445,-6.4949 -267.5111,0.017 -63.4666,6.5119 -81.8275,12.7691 -114.1614,22.6281 -32.3339,9.859 -59.40026,20.8974 -78.86203,36.482 -19.46176,15.5847 -32.22412,59.5775 -50.19301,79.4749 -17.96888,19.8973 -13.55832,2.2384 -29.27315,13.8203 -15.71483,11.5819 -31.71823,184.2245 -39.30524,184.4352 -7.58701,0.2107 -16.48503,-137.4319 -31.29355,-174.053 -14.80852,-36.6211 -15.39927,-48.0494 -35.52336,-48.7554 -20.12409,-0.7061 -38.74793,66.6376 -40.78563,59.6566 z"
       id="path5"
       sodipodi:nodetypes="zzzzzzzzzzzzzzzzzzzzzzzzzzzzzzzzz" />
  </g>
</svg>
