<?xml version="1.0" encoding="UTF-8" standalone="no"?>
<svg
   height="6615px"
   version="1.1"
   width="4961px"
   id="svg1"
   sodipodi:docname="briega-martos_2020_hydrogen_135452_f3_green.svg"
   inkscape:version="1.3.2 (091e20e, 2023-11-25)"
   xmlns:inkscape="http://www.inkscape.org/namespaces/inkscape"
   xmlns:sodipodi="http://sodipodi.sourceforge.net/DTD/sodipodi-0.dtd"
   xmlns:xlink="http://www.w3.org/1999/xlink"
   xmlns="http://www.w3.org/2000/svg"
   xmlns:svg="http://www.w3.org/2000/svg">
  <sodipodi:namedview
     id="namedview1"
     pagecolor="#505050"
     bordercolor="#eeeeee"
     borderopacity="1"
     inkscape:showpageshadow="0"
     inkscape:pageopacity="0"
     inkscape:pagecheckerboard="0"
     inkscape:deskcolor="#505050"
     inkscape:zoom="0.29736448"
     inkscape:cx="1452.7626"
     inkscape:cy="4983.7829"
     inkscape:window-width="1440"
     inkscape:window-height="793"
     inkscape:window-x="0"
     inkscape:window-y="25"
     inkscape:window-maximized="0"
     inkscape:current-layer="svg1" />
  <defs
     id="defs1" />
  <image
     height="6615"
     sodipodi:insensitive="true"
     width="4961"
     x="0"
     xlink:href="briega-martos_2020_hydrogen_135452_p3.png"
     y="0"
     id="image1" />
  <g
     id="g1">
    <path
       style="display:inline;fill:none;fill-rule:evenodd;stroke:#000000;stroke-width:1.01318px;stroke-linecap:butt;stroke-linejoin:miter;stroke-opacity:1"
       d="m 527.51859,4533.0396 111.20696,241.3617"
       id="path466"
       inkscape:connector-type="polyline"
       inkscape:connector-curvature="0" />
    <text
       xml:space="preserve"
       style="font-size:80px;line-height:1.25;font-family:sans-serif;-inkscape-font-specification:sans-serif;letter-spacing:0px;word-spacing:0px"
       x="36.215153"
       y="4515.6602"
       id="text12078"><tspan
         sodipodi:role="line"
         id="tspan12076"
         x="36.215153"
         y="4515.6602">j2: 150 uA / cm2</tspan></text>
  </g>
  <g
     id="g2">
    <path
       style="display:inline;fill:none;fill-rule:evenodd;stroke:#000000;stroke-width:1.03582px;stroke-linecap:butt;stroke-linejoin:miter;stroke-opacity:1"
       d="M 457.83907,5596.0281 639.42192,5439.7318"
       id="path451"
       inkscape:connector-type="polyline"
       inkscape:connector-curvature="0" />
    <text
       xml:space="preserve"
       style="font-size:80px;line-height:1.25;font-family:sans-serif;-inkscape-font-specification:sans-serif;letter-spacing:0px;word-spacing:0px"
       x="7.6449523"
       y="5672.042"
       id="text12078-9"><tspan
         sodipodi:role="line"
         id="tspan12076-7"
         x="7.6449523"
         y="5672.042">j1: -100 uA / cm2</tspan></text>
  </g>
  <g
     id="g3">
    <path
       style="fill:none;fill-rule:evenodd;stroke:#000000;stroke-width:1.03994px;stroke-linecap:butt;stroke-linejoin:miter;stroke-opacity:1"
       d="M 574.67736,5952.2125 642.3083,5772.5998"
       id="path481"
       inkscape:connector-type="polyline"
       inkscape:connector-curvature="0" />
    <text
       xml:space="preserve"
       style="font-size:80px;line-height:1.25;font-family:sans-serif;-inkscape-font-specification:sans-serif;letter-spacing:0px;word-spacing:0px"
       x="34.884697"
       y="6030.5869"
       id="text15529"><tspan
         sodipodi:role="line"
         id="tspan15527"
         x="34.884697"
         y="6030.5869">E1: 0.0 V vs RHE</tspan></text>
  </g>
  <g
     id="g4">
    <path
       style="fill:none;fill-rule:evenodd;stroke:#000000;stroke-width:1px;stroke-linecap:butt;stroke-linejoin:miter;stroke-opacity:1"
       d="M 2163.7481,5964.621 2267.416,5771.3762"
       id="path494"
       inkscape:connector-type="polyline"
       inkscape:connector-curvature="0" />
    <text
       xml:space="preserve"
       style="font-size:80px;line-height:1.25;font-family:sans-serif;-inkscape-font-specification:sans-serif;letter-spacing:0px;word-spacing:0px"
       x="1805.3206"
       y="6058.8276"
       id="text15529-1"><tspan
         sodipodi:role="line"
         id="tspan15527-0"
         x="1805.3206"
         y="6058.8276">E2: 1.0 V vs RHE</tspan></text>
  </g>
  <text
     xml:space="preserve"
     style="font-size:80px;line-height:1.25;font-family:sans-serif;-inkscape-font-specification:sans-serif;letter-spacing:0px;word-spacing:0px"
     x="1556.8562"
     y="4523.6978"
     id="text7770"><tspan
       sodipodi:role="line"
       id="tspan7768"
       x="1556.8562"
       y="4523.6978">scan rate: 50 mV / s</tspan></text>
  <text
     xml:space="preserve"
     style="font-size:80px;line-height:1.25;font-family:sans-serif;-inkscape-font-specification:sans-serif;letter-spacing:0px;word-spacing:0px"
     x="1562.9719"
     y="4428.4941"
     id="text9174"><tspan
       sodipodi:role="line"
       x="1562.9719"
       y="4428.4941"
       id="tspan9176">figure: 3</tspan></text>
  <text
     xml:space="preserve"
     style="font-size:80px;line-height:1.25;font-family:sans-serif;-inkscape-font-specification:sans-serif;letter-spacing:0px;word-spacing:0px"
     x="1979.0311"
     y="4418.2822"
     id="text9174-0"><tspan
       sodipodi:role="line"
       x="1979.0311"
       y="4418.2822"
       id="tspan9176-2">tags: BCV</tspan></text>
  <g
     id="g5">
    <text
       xml:space="preserve"
       style="font-size:80px;line-height:1.25;font-family:sans-serif;-inkscape-font-specification:sans-serif;letter-spacing:0px;word-spacing:0px"
       x="1687.7732"
       y="4794.8457"
       id="text9174-9"><tspan
         sodipodi:role="line"
         x="1687.7732"
         y="4794.8457"
         id="tspan6">curve: green</tspan></text>
    <path
       style="fill:none;stroke:#00ffff;stroke-width:3.8"
       d="m 742.23716,5304.2347 c -2.01689,-0.9102 -0.97128,-50.4926 -0.73274,-102.0268 0.23855,-51.5342 -5.39487,-104.5334 6.77897,-108.3443 12.17384,-3.8109 34.98371,0.7129 47.72564,-2.3434 12.74193,-3.0567 17.24367,-0.4664 29.49285,-15.5618 12.24918,-15.0954 14.72114,-84.2142 20.28365,-84.1963 5.56251,0.018 8.15354,77.2341 24.89803,94.0549 16.74449,16.8208 46.76187,8.959 88.04886,10.0539 41.28698,1.0949 99.69558,2.8067 129.82218,10.967 30.1266,8.1604 73.2073,24.2092 94.3104,32.2355 21.1031,8.0264 27.6069,10.7645 64.718,14.8819 18.5555,2.0587 107.1122,6.9725 195.9865,7.4763 88.8744,0.5039 176.9845,-6.6771 197.8926,-11.7679 33.1591,-8.0738 47.2519,-19.5913 107.6273,-30.9015 60.3754,-11.3103 86.5348,-8.2378 114.4668,-14.0985 27.932,-5.8607 39.2842,-4.7931 54.6313,-16.9961 15.3471,-12.203 19.7591,-50.8123 30.3198,-51.4734 10.5607,-0.661 28.2329,79.6824 46.7543,93.4375 18.5214,13.7551 28.5869,22.1538 50.864,23.3475 22.2772,1.1936 56.8796,-2.9231 61.0065,-5.1686 4.1269,-2.2455 3.7439,24.0924 -6.3768,29.3494 -10.1207,5.2569 -81.3622,6.6884 -105.8914,31.4985 -24.5293,24.8102 -43.8937,102.308 -52.8884,102.017 -8.9947,-0.291 -12.6242,-55.698 -41.8841,-63.3363 -29.2599,-7.6383 -44.497,0.027 -92.6095,-8.2447 -48.1125,-8.2716 -99.9237,-33.1455 -194.7993,-43.6435 -94.8756,-10.498 -298.7524,-17.1971 -374.2721,0 -75.5198,17.197 -70.0576,20.4595 -104.9033,32.2054 -34.8458,11.7459 -30.0528,15.995 -76.6002,24.5051 -46.5474,8.5101 -163.83656,4.1917 -186.69709,10.3515 -22.86053,6.1597 -23.01973,90.6228 -31.40207,90.6111 -8.38234,-0.012 -8.19722,-74.3643 -33.17347,-80.4665 -24.97626,-6.1021 -31.73452,-1.7436 -41.87215,5.0191 -10.13763,6.7627 -17.49127,28.3784 -21.52506,26.558 z"
       id="path1"
       sodipodi:nodetypes="sszzzzzzzzssszzzzzzzzzzzzzzzzzzzzs" />
  </g>
</svg>
