<?xml version="1.0" encoding="UTF-8" standalone="no"?>
<svg
   height="6615px"
   version="1.1"
   width="4961px"
   id="svg1"
   sodipodi:docname="briega-martos_2020_hydrogen_135452_f3_blue.svg"
   inkscape:version="1.3.2 (091e20e, 2023-11-25)"
   xmlns:inkscape="http://www.inkscape.org/namespaces/inkscape"
   xmlns:sodipodi="http://sodipodi.sourceforge.net/DTD/sodipodi-0.dtd"
   xmlns:xlink="http://www.w3.org/1999/xlink"
   xmlns="http://www.w3.org/2000/svg"
   xmlns:svg="http://www.w3.org/2000/svg">
  <sodipodi:namedview
     id="namedview1"
     pagecolor="#505050"
     bordercolor="#eeeeee"
     borderopacity="1"
     inkscape:showpageshadow="0"
     inkscape:pageopacity="0"
     inkscape:pagecheckerboard="0"
     inkscape:deskcolor="#505050"
     inkscape:zoom="0.22200977"
     inkscape:cx="817.5316"
     inkscape:cy="4871.4073"
     inkscape:window-width="1440"
     inkscape:window-height="900"
     inkscape:window-x="0"
     inkscape:window-y="0"
     inkscape:window-maximized="0"
     inkscape:current-layer="svg1" />
  <defs
     id="defs1" />
  <image
     height="6615"
     sodipodi:insensitive="true"
     width="4961"
     x="0"
     xlink:href="briega-martos_2020_hydrogen_135452_p3.png"
     y="0"
     id="image1" />
  <g
     id="g1">
    <path
       style="display:inline;fill:none;fill-rule:evenodd;stroke:#000000;stroke-width:1.01318px;stroke-linecap:butt;stroke-linejoin:miter;stroke-opacity:1"
       d="m 527.51859,4533.0396 111.20696,241.3617"
       id="path466"
       inkscape:connector-type="polyline"
       inkscape:connector-curvature="0" />
    <text
       xml:space="preserve"
       style="font-size:80px;line-height:1.25;font-family:sans-serif;-inkscape-font-specification:sans-serif;letter-spacing:0px;word-spacing:0px"
       x="36.215153"
       y="4515.6602"
       id="text12078"><tspan
         sodipodi:role="line"
         id="tspan12076"
         x="36.215153"
         y="4515.6602">j2: 150 uA / cm2</tspan></text>
  </g>
  <g
     id="g2">
    <path
       style="display:inline;fill:none;fill-rule:evenodd;stroke:#000000;stroke-width:1.03582px;stroke-linecap:butt;stroke-linejoin:miter;stroke-opacity:1"
       d="M 457.83907,5596.0281 639.42192,5439.7318"
       id="path451"
       inkscape:connector-type="polyline"
       inkscape:connector-curvature="0" />
    <text
       xml:space="preserve"
       style="font-size:80px;line-height:1.25;font-family:sans-serif;-inkscape-font-specification:sans-serif;letter-spacing:0px;word-spacing:0px"
       x="7.6449523"
       y="5672.042"
       id="text12078-9"><tspan
         sodipodi:role="line"
         id="tspan12076-7"
         x="7.6449523"
         y="5672.042">j1: -100 uA / cm2</tspan></text>
  </g>
  <g
     id="g3">
    <path
       style="fill:none;fill-rule:evenodd;stroke:#000000;stroke-width:1.03994px;stroke-linecap:butt;stroke-linejoin:miter;stroke-opacity:1"
       d="M 574.67736,5952.2125 642.3083,5772.5998"
       id="path481"
       inkscape:connector-type="polyline"
       inkscape:connector-curvature="0" />
    <text
       xml:space="preserve"
       style="font-size:80px;line-height:1.25;font-family:sans-serif;-inkscape-font-specification:sans-serif;letter-spacing:0px;word-spacing:0px"
       x="34.884697"
       y="6030.5869"
       id="text15529"><tspan
         sodipodi:role="line"
         id="tspan15527"
         x="34.884697"
         y="6030.5869">E1: 0.0 V vs RHE</tspan></text>
  </g>
  <g
     id="g4">
    <path
       style="fill:none;fill-rule:evenodd;stroke:#000000;stroke-width:1px;stroke-linecap:butt;stroke-linejoin:miter;stroke-opacity:1"
       d="M 2163.7481,5964.621 2267.416,5771.3762"
       id="path494"
       inkscape:connector-type="polyline"
       inkscape:connector-curvature="0" />
    <text
       xml:space="preserve"
       style="font-size:80px;line-height:1.25;font-family:sans-serif;-inkscape-font-specification:sans-serif;letter-spacing:0px;word-spacing:0px"
       x="1805.3206"
       y="6058.8276"
       id="text15529-1"><tspan
         sodipodi:role="line"
         id="tspan15527-0"
         x="1805.3206"
         y="6058.8276">E2: 1.0 V vs RHE</tspan></text>
  </g>
  <text
     xml:space="preserve"
     style="font-size:80px;line-height:1.25;font-family:sans-serif;-inkscape-font-specification:sans-serif;letter-spacing:0px;word-spacing:0px"
     x="1556.8562"
     y="4523.6978"
     id="text7770"><tspan
       sodipodi:role="line"
       id="tspan7768"
       x="1556.8562"
       y="4523.6978">scan rate: 50 mV / s</tspan></text>
  <text
     xml:space="preserve"
     style="font-size:80px;line-height:1.25;font-family:sans-serif;-inkscape-font-specification:sans-serif;letter-spacing:0px;word-spacing:0px"
     x="1562.9719"
     y="4428.4941"
     id="text9174"><tspan
       sodipodi:role="line"
       x="1562.9719"
       y="4428.4941"
       id="tspan9176">figure: 3</tspan></text>
  <g
     id="g6">
    <text
       xml:space="preserve"
       style="font-size:80px;line-height:1.25;font-family:sans-serif;-inkscape-font-specification:sans-serif;letter-spacing:0px;word-spacing:0px"
       x="1687.7732"
       y="4794.8457"
       id="text9174-9"><tspan
         sodipodi:role="line"
         x="1687.7732"
         y="4794.8457"
         id="tspan9176-7">curve: blue</tspan></text>
    <path
       style="fill:none;stroke:#ff00ff;stroke-width:3.8"
       d="m 892.04333,5252.8296 c -7.23095,0.3125 -13.04676,0.1313 -19.44927,3.4731 -6.40251,3.3418 -15.58344,9.4881 -19.60442,16.5347 -4.02098,7.0466 -5.74039,17.7154 -7.48784,24.3116 -1.74745,6.5962 -1.92624,12.1109 -3.08595,15.4361 -1.15971,3.3252 -2.24853,9.1295 -4.71095,1.6171 -2.46243,-7.5124 -2.78336,-10.7331 -5.16822,-18.9076 -2.38487,-8.1746 -7.72733,-17.4488 -13.58486,-23.3063 -5.85753,-5.8575 -15.28034,-8.3243 -21.76731,-9.7246 -6.48697,-1.4003 -11.22826,-0.6804 -18.06004,0.6946 -6.83178,1.375 -12.4747,4.8191 -18.51889,8.4899 -6.04419,3.6708 -9.83852,8.9674 -12.65604,11.885 -2.81752,2.9176 -4.99715,8.8233 -4.86431,4.9438 0.13284,-3.8795 1.80329,-130.7986 2.19422,-193.7225 -0.0397,-1.8885 7.95795,-3.5368 11.2056,-4.5445 3.24765,-1.0077 12.25957,-2.3803 16.04443,-2.6759 3.78486,-0.2955 14.70746,-0.337 21.07218,-0.6814 6.36472,-0.344 11.84764,-0.7496 17.51559,-1.7797 5.66795,-1.03 13.76107,-2.6457 18.26323,-6.9665 4.50216,-4.3208 10.00351,-9.6514 11.49601,-17.3403 1.49251,-7.6888 3.45556,-14.9951 4.80023,-21.3919 1.34467,-6.3969 1.12681,-13.5556 3.2374,-15.4243 2.11058,-1.8688 2.22161,12.7829 3.22819,18.0974 1.00658,5.3145 1.15025,9.0046 2.26802,13.9758 1.11777,4.9712 3.25008,11.7866 5.45842,16.2905 2.20834,4.5039 3.32416,6.7396 7.71723,10.5314 4.39307,3.7918 10.78247,4.4641 20.69148,6.5802 9.90901,2.1161 24.98379,1.2245 38.32344,1.2811 13.33965,0.057 26.13639,-0.5706 41.31015,-0.037 15.17376,0.5335 33.96245,2.5377 49.70705,3.4893 15.7446,0.9516 27.6621,1.3788 42.37,2.8247 14.7079,1.4459 32.7547,3.2772 45.1553,6.2301 12.4006,2.9529 19.545,7.2558 31.7631,10.9773 12.2181,3.7215 24.2592,7.0886 38.7759,11.8692 14.5167,4.7806 26.6637,9.1911 42.4802,14.0824 15.8165,4.8913 37.8437,12.7022 52.9392,12.8844 15.0955,0.1822 17.923,1.9561 41.4945,4.0636 23.5715,2.1075 67.5621,4.3046 100.0529,4.7243 32.4908,0.4197 59.8365,0.1045 89.7617,-0.6277 29.9252,-0.7322 64.741,-0.011 89.7618,-3.7663 25.0208,-3.7555 42.2725,-10.7955 59.9458,-15.6926 17.6733,-4.8971 28.6755,-10.0798 46.1362,-13.4956 17.4607,-3.4158 43.4846,-3.1913 58.3766,-5.9632 14.892,-2.7719 19.845,-2.3328 34.2794,-4.3494 14.4344,-2.0166 34.3845,-2.9038 52.03,-4.7523 17.6455,-1.8485 36.5343,-4.469 50.2163,-10.0433 13.682,-5.5743 25.3801,-12.7454 31.3852,-20.4004 6.0051,-7.655 7.9594,-18.4327 9.1204,-25.3855 1.161,-6.9528 2.3472,-10.9184 3.563,-17.1878 1.2158,-6.2694 1.6908,-8.5058 3.1754,-13.6247 1.4846,-5.1188 1.904,-7.7794 4.7078,-7.9571 2.8038,-0.1777 3.0842,4.1883 4.7447,10.8559 1.6605,6.6676 2.2651,10.7165 3.3786,18.8312 1.1135,8.1147 1.2263,15.4726 4.2646,25.6801 3.0383,10.2075 9.0966,21.6674 13.8095,30.7576 4.7129,9.0902 7.2816,16.8147 14.1234,23.8527 6.8418,7.038 16.0366,12.6646 26.3636,15.8077 10.327,3.1431 22.8504,3.1616 33.4169,3.421 10.5665,0.2594 20.4146,-0.2542 29.9812,-1.0252 9.5666,-0.771 13.4876,-1.0021 18.7603,-2.0516 5.2727,-1.0495 12.5682,-2.6929 15.0509,-2.9599 2.4828,-0.267 1.7947,28.2318 -0.022,31.5554 -1.8165,3.3236 -11.2081,5.7775 -20.4578,8.3802 -9.2496,2.6027 -24.1126,5.0578 -35.5243,7.1304 -11.4117,2.0726 -21.1982,3.7797 -31.5353,6.6626 -10.3371,2.8829 -17.2384,5.0862 -23.8359,9.4629 -6.5975,4.3767 -8.2304,5.3911 -14.2138,11.2294 -5.9834,5.8383 -14.1316,16.3085 -19.326,26.3155 -5.1944,10.007 -6.9478,22.0228 -10.3571,33.8961 -3.4093,11.8733 -5.26,26.5531 -7.6877,34.3504 -2.4277,7.7973 -2.0851,6.2608 -3.9877,11.9779 -1.9026,5.7171 -5.4951,12.0085 -8.3482,-0.1252 -2.8531,-12.1337 -2.1581,-10.2121 -3.8292,-18.2703 -1.6711,-8.0582 -3.2179,-16.0337 -5.7858,-23.8528 -2.5679,-7.8191 -6.8713,-18.5772 -12.1626,-23.7751 -5.2913,-5.1979 -10.3216,-7.0333 -17.3617,-7.5178 -7.0401,-0.4844 -33.4756,0.343 -45.3499,-0.4061 -11.8743,-0.7491 -6.4095,0.07 -23.5389,-2.5109 -17.1294,-2.5806 -60.2189,-11.6046 -78.7769,-15.3787 -18.558,-3.7741 -24.0264,-3.9915 -32.6407,-6.9048 -8.6143,-2.9133 -7.7805,-2.7625 -24.6057,-8.7805 -16.8252,-6.018 -63.8282,-16.7364 -83.4847,-20.7142 -19.6565,-3.9778 -14.1565,-4.0166 -28.4353,-5.6567 -14.2788,-1.6401 -38.3483,-2.3299 -51.7857,-3.7662 -13.4374,-1.4363 -17.8006,-0.8309 -29.5168,-1.2962 -11.7162,-0.4653 -18.8885,-0.675 -41.65,-0.4872 -22.7615,0.1877 -62.8156,-4.3557 -94.141,-2.8763 -31.3254,1.4794 -70.0857,7.2313 -92.3649,11.8783 -22.2792,4.647 -27.1439,7.33 -41.1146,12.0847 -13.9707,4.7547 -28.5068,10.4628 -42.684,15.3788 -14.1772,4.916 -27.8761,9.9432 -43.1536,14.2801 -15.2775,4.3369 -30.8368,8.3309 -47.2658,12.567 -16.429,4.2361 -28.5295,4.8332 -48.3104,4.5105 -19.7809,-0.3228 -29.1592,0.4269 -50.97592,-0.6092 -21.81671,-1.0361 -49.1085,2.631 -67.25662,2.4633 -18.14811,-0.1676 -28.24188,-0.2166 -35.47283,0.096 z"
       id="path4"
       sodipodi:nodetypes="zzzzzzzzzzzzzczzzzzzzzzzzzzzzzzzzzzzzzzzzzzzzzzzzzzzzzzzzzzzzzzzzzzzzzzzzzzzzzzzzzzzzzzzzzzzzzzzz" />
  </g>
</svg>
