<?xml version="1.0" encoding="UTF-8" standalone="no"?>
<svg
   height="7017px"
   version="1.1"
   width="4959px"
   id="svg6"
   sodipodi:docname="howlett_2006_electrochemistry_1483_p5_f1_dashed-2-1.svg"
   inkscape:version="1.1.1 (3bf5ae0d25, 2021-09-20)"
   xmlns:inkscape="http://www.inkscape.org/namespaces/inkscape"
   xmlns:sodipodi="http://sodipodi.sourceforge.net/DTD/sodipodi-0.dtd"
   xmlns:xlink="http://www.w3.org/1999/xlink"
   xmlns="http://www.w3.org/2000/svg"
   xmlns:svg="http://www.w3.org/2000/svg">
  <sodipodi:namedview
     id="namedview8"
     pagecolor="#ffffff"
     bordercolor="#666666"
     borderopacity="1.0"
     inkscape:pageshadow="2"
     inkscape:pageopacity="0.0"
     inkscape:pagecheckerboard="0"
     showgrid="false"
     inkscape:zoom="1.897107"
     inkscape:cx="2888.8723"
     inkscape:cy="1253.7511"
     inkscape:window-width="1920"
     inkscape:window-height="1017"
     inkscape:window-x="-8"
     inkscape:window-y="284"
     inkscape:window-maximized="1"
     inkscape:current-layer="g41351" />
  <defs
     id="defs2" />
  <image
     height="7017px"
     sodipodi:insensitive="true"
     width="4959px"
     x="0"
     xlink:href="howlett_2006_electrochemistry_1483_p5.png"
     y="0"
     id="image4" />
  <g
     id="g9780">
    <path
       style="fill:none;stroke:#000000;stroke-width:1px;stroke-linecap:butt;stroke-linejoin:miter;stroke-opacity:1"
       d="m 1059.2129,4528.7956 c 158.4673,109.1012 158.4673,109.1012 158.4673,109.1012"
       id="path6849" />
    <text
       xml:space="preserve"
       style="font-size:29.3333px;line-height:1.25;font-family:Arial;-inkscape-font-specification:Arial;letter-spacing:0px;word-spacing:0px"
       x="1158.1256"
       y="4645.4995"
       id="text7887"><tspan
         sodipodi:role="line"
         id="tspan7885"
         x="1158.1256"
         y="4645.4995">E1: -3.5 V vs Fc</tspan></text>
  </g>
  <g
     id="g27407">
    <path
       style="fill:none;stroke:#000000;stroke-width:1px;stroke-linecap:butt;stroke-linejoin:miter;stroke-opacity:1"
       d="M 893.99279,3573.8627 C 482.84045,3042.5273 482.84045,3042.5273 482.84045,3042.5273"
       id="path11519" />
    <path
       style="fill:none;stroke:#000000;stroke-width:1px;stroke-linecap:butt;stroke-linejoin:miter;stroke-opacity:1"
       d="M 893.99279,1659.3687 482.84045,3042.5273"
       id="path11521"
       sodipodi:nodetypes="cc" />
    <text
       xml:space="preserve"
       style="font-size:29.3333px;line-height:1.25;font-family:Arial;-inkscape-font-specification:Arial;letter-spacing:0px;word-spacing:0px"
       x="63.254208"
       y="3041.4731"
       id="text13673"><tspan
         sodipodi:role="line"
         id="tspan13671"
         x="63.254208"
         y="3041.4731">j_scale_bar: 3 mA / cm2</tspan></text>
  </g>
  <g
     id="g27401">
    <path
       style="fill:none;stroke:#000000;stroke-width:1px;stroke-linecap:butt;stroke-linejoin:miter;stroke-opacity:1"
       d="m 2515.409,1220.8062 c 573.5048,250.9083 573.5048,250.9083 573.5048,250.9083"
       id="path25590" />
    <text
       xml:space="preserve"
       style="font-size:29.3333px;line-height:1.25;font-family:Arial;-inkscape-font-specification:Arial;letter-spacing:0px;word-spacing:0px"
       x="3088.9138"
       y="1471.7145"
       id="text26782"><tspan
         sodipodi:role="line"
         id="tspan26780"
         x="3088.9138"
         y="1471.7145">j1: 0 mA / cm2</tspan></text>
  </g>
  <text
     xml:space="preserve"
     style="font-size:29.3333px;line-height:1.25;font-family:Arial;-inkscape-font-specification:Arial;letter-spacing:0px;word-spacing:0px"
     x="3533.4707"
     y="840.87659"
     id="text28225"><tspan
       sodipodi:role="line"
       id="tspan28223"
       x="3533.4707"
       y="840.87659">scan rate: 10 mV / s</tspan></text>
  <text
     xml:space="preserve"
     style="font-size:29.3333px;line-height:1.25;font-family:Arial;-inkscape-font-specification:Arial;letter-spacing:0px;word-spacing:0px"
     x="3479.7979"
     y="966.11353"
     id="text30495"><tspan
       sodipodi:role="line"
       id="tspan30493"
       x="3479.7979"
       y="966.11353">fags: BCV</tspan></text>
  <g
     id="g41351">
    <g
       id="g51211">
      <path
         style="fill:none;stroke:#ff0000;stroke-width:1px;stroke-linecap:butt;stroke-linejoin:miter;stroke-opacity:1"
         d="m 2931.1408,1224.042 c 0,0 -73.6875,1.4496 -168.8556,3.2277 -81.4387,1.5215 -313.2616,6.3399 -349.2712,6.8203 -71.3017,0.9512 -214.3406,20.2782 -230.313,48.4704 -23.8574,42.1095 -36.027,72.979 -97.3432,39.1737 -46.5637,-25.6718 -77.2005,-12.6515 -102.0669,-6.3734 -28.2014,7.12 -45.1901,5.4676 -59.2821,3.4385 -56.1656,-8.0874 -84.54,46.115 -122.2626,99.2718 -37.7226,53.1568 -88.0133,186.0451 -106.5743,242.9104 -15.8437,48.5403 -48.8682,181.6185 -74.3077,230.5732 -36.506,70.2503 -71.7245,6.6637 -105.8548,-18.3209 -27.2077,-19.9172 -48.46,-41.6209 -80.2675,-14.7021 -7.8406,6.6354 -16.8563,-2.184 -30.2696,3.7666 -14.0265,6.2226 -46.0538,41.9274 -52.5256,54.899 -59.6445,119.5465 -113.0552,319.4541 -145.2685,489.6451 -12.6462,66.8133 -21.1338,134.3973 -26.7935,182.6758 -23.5608,200.9804 -31.5296,312.8354 -40.2028,458.3178 -22.6778,380.3917 -29.0509,744.6281 -40.9847,1122.1811 -3.914,123.8277 -11.3207,359.6415 -11.3207,359.6415"
         id="path858"
         sodipodi:nodetypes="csssssszssssssssssc" />
      <text
         xml:space="preserve"
         style="font-size:29.3333px;line-height:1.25;font-family:Arial;-inkscape-font-specification:Arial;letter-spacing:0px;word-spacing:0px"
         x="2743.2854"
         y="1268.7695"
         id="text31291"><tspan
           sodipodi:role="line"
           id="tspan31289"
           x="2743.2854"
           y="1268.7695">curve: dashed2-1</tspan></text>
    </g>
  </g>
  <text
     xml:space="preserve"
     style="font-size:29.3333px;line-height:1.25;font-family:Arial;-inkscape-font-specification:Arial;letter-spacing:0px;word-spacing:0px"
     x="3554.3435"
     y="1255.3512"
     id="text31911"><tspan
       sodipodi:role="line"
       id="tspan31909"
       x="3554.3435"
       y="1255.3512">figure: 1</tspan></text>
  <g
     id="g47519">
    <path
       style="fill:none;stroke:#000000;stroke-width:1px;stroke-linecap:butt;stroke-linejoin:miter;stroke-opacity:1"
       d="m 2917.0732,4529.0012 c 217.1727,-61.1457 217.1727,-61.1457 217.1727,-61.1457"
       id="path45450" />
    <text
       xml:space="preserve"
       style="font-size:29.3333px;line-height:1.25;font-family:Arial;-inkscape-font-specification:Arial;letter-spacing:0px;word-spacing:0px"
       x="3134.2458"
       y="4467.8555"
       id="text46818"><tspan
         sodipodi:role="line"
         id="tspan46816"
         x="3134.2458"
         y="4467.8555">E2: -1.0 V vs Fc</tspan></text>
  </g>
</svg>
