<?xml version="1.0" encoding="UTF-8" standalone="no"?>
<svg
   height="7017px"
   version="1.1"
   width="4959px"
   id="svg6"
   sodipodi:docname="howlett_2006_electrochemistry_1483_f1_Au_solid_positive.svg"
   inkscape:version="1.4.2 (f4327f4, 2025-05-13)"
   xmlns:inkscape="http://www.inkscape.org/namespaces/inkscape"
   xmlns:sodipodi="http://sodipodi.sourceforge.net/DTD/sodipodi-0.dtd"
   xmlns:xlink="http://www.w3.org/1999/xlink"
   xmlns="http://www.w3.org/2000/svg"
   xmlns:svg="http://www.w3.org/2000/svg">
  <sodipodi:namedview
     id="namedview8"
     pagecolor="#ffffff"
     bordercolor="#666666"
     borderopacity="1.0"
     inkscape:pageshadow="2"
     inkscape:pageopacity="0.0"
     inkscape:pagecheckerboard="0"
     showgrid="false"
     inkscape:zoom="0.67072863"
     inkscape:cx="2968.4136"
     inkscape:cy="1262.0603"
     inkscape:window-width="1536"
     inkscape:window-height="953"
     inkscape:window-x="-8"
     inkscape:window-y="-8"
     inkscape:window-maximized="1"
     inkscape:current-layer="g51318"
     inkscape:showpageshadow="2"
     inkscape:deskcolor="#d1d1d1" />
  <defs
     id="defs2" />
  <image
     height="7017px"
     sodipodi:insensitive="true"
     width="4959px"
     x="0"
     xlink:href="howlett_2006_electrochemistry_1483_p5.png"
     y="0"
     id="image4" />
  <g
     id="g9780">
    <path
       style="fill:none;stroke:#000000;stroke-width:1px;stroke-linecap:butt;stroke-linejoin:miter;stroke-opacity:1"
       d="m 1059.2129,4528.7956 c 158.4673,109.1012 158.4673,109.1012 158.4673,109.1012"
       id="path6849" />
    <text
       xml:space="preserve"
       style="font-size:29.3333px;line-height:1.25;font-family:Arial;-inkscape-font-specification:Arial;letter-spacing:0px;word-spacing:0px"
       x="1158.1256"
       y="4645.4995"
       id="text7887"><tspan
         sodipodi:role="line"
         id="tspan7885"
         x="1158.1256"
         y="4645.4995">E1: -3.5 V vs Fc</tspan></text>
  </g>
  <g
     id="g27407">
    <path
       style="fill:none;stroke:#000000;stroke-width:1px;stroke-linecap:butt;stroke-linejoin:miter;stroke-opacity:1"
       d="M 893.99279,3573.8627 C 482.84045,3042.5273 482.84045,3042.5273 482.84045,3042.5273"
       id="path11519" />
    <path
       style="fill:none;stroke:#000000;stroke-width:1px;stroke-linecap:butt;stroke-linejoin:miter;stroke-opacity:1"
       d="M 893.99279,1659.3687 482.84045,3042.5273"
       id="path11521"
       sodipodi:nodetypes="cc" />
    <text
       xml:space="preserve"
       style="font-size:29.3333px;line-height:1.25;font-family:Arial;-inkscape-font-specification:Arial;letter-spacing:0px;word-spacing:0px"
       x="63.254208"
       y="3041.4731"
       id="text13673"><tspan
         sodipodi:role="line"
         id="tspan13671"
         x="63.254208"
         y="3041.4731">j_scale_bar: 3 mA / cm2</tspan></text>
  </g>
  <g
     id="g27401">
    <path
       style="fill:none;stroke:#000000;stroke-width:1px;stroke-linecap:butt;stroke-linejoin:miter;stroke-opacity:1"
       d="m 2515.409,1220.8062 c 573.5048,250.9083 573.5048,250.9083 573.5048,250.9083"
       id="path25590" />
    <text
       xml:space="preserve"
       style="font-size:29.3333px;line-height:1.25;font-family:Arial;-inkscape-font-specification:Arial;letter-spacing:0px;word-spacing:0px"
       x="3088.9138"
       y="1471.7145"
       id="text26782"><tspan
         sodipodi:role="line"
         id="tspan26780"
         x="3088.9138"
         y="1471.7145">j1: 0 mA / cm2</tspan></text>
  </g>
  <text
     xml:space="preserve"
     style="font-size:29.3333px;line-height:1.25;font-family:Arial;-inkscape-font-specification:Arial;letter-spacing:0px;word-spacing:0px"
     x="3533.4707"
     y="840.87659"
     id="text28225"><tspan
       sodipodi:role="line"
       id="tspan28223"
       x="3533.4707"
       y="840.87659">scan rate: 10 mV / s</tspan></text>
  <text
     xml:space="preserve"
     style="font-size:29.3333px;line-height:1.25;font-family:Arial;-inkscape-font-specification:Arial;letter-spacing:0px;word-spacing:0px"
     x="3479.7979"
     y="966.11353"
     id="text30495"><tspan
       sodipodi:role="line"
       id="tspan30493"
       x="3479.7979"
       y="966.11353">tags: BCV</tspan></text>
  <g
     id="g41351">
    <g
       id="g51318">
      <path
         style="fill:none;stroke:#ff0000;stroke-width:1px;stroke-linecap:butt;stroke-linejoin:miter;stroke-opacity:1"
         d="m 1041.4048,4530.8936 c 0,0 8.3241,-428.2811 36.2852,-972.0871 27.4735,-534.3218 67.3124,-1178.3085 118.4613,-1581.9579 4.9373,-38.9636 12.8425,-101.8557 22.0316,-166.9145 18.3982,-130.2591 48.6719,-286.0252 117.6778,-393.5639 21.1488,-32.9583 66.8344,-77.7116 111.9327,-104.1721 95.7033,-56.1522 171.1075,-64.93 171.1075,-64.93 l 5.4521,34.1742 5.2181,-36.9002 c 0,0 77.4488,-11.4637 177.3484,-20.0118 27.2331,-2.3302 56.4823,-2.6032 86.1524,-10.3373 21.5495,-5.6173 59.8095,-3.7117 79.4099,-8.042 22.5708,-4.9866 128.3022,-5.4343 155.0858,-0.6093 26.956,4.8561 42.4701,-0.3846 59.6024,2.153 5.8522,0.8669 20.764,5.4497 38.414,4.4576 12.3318,-0.6933 33.0436,-2.5547 40.618,1.0973 7.2522,3.4966 50.6783,0.5193 76.027,0.356 121.801,-0.7848 240.5673,-7.0579 360.8016,-11.9273 72.5818,-2.9395 217.6738,-10.4365 217.6738,-10.4365 v 0"
         id="path860"
         sodipodi:nodetypes="cssssscccssssssssscc" />
      <text
         xml:space="preserve"
         style="font-size:29.3333px;line-height:1.25;font-family:Arial;-inkscape-font-specification:Arial;letter-spacing:0px;word-spacing:0px"
         x="2743.2854"
         y="1268.7695"
         id="text31291"><tspan
           sodipodi:role="line"
           x="2743.2854"
           y="1268.7695"
           id="tspan2">curve: Au_solid_positive</tspan></text>
    </g>
  </g>
  <text
     xml:space="preserve"
     style="font-size:29.3333px;line-height:1.25;font-family:Arial;-inkscape-font-specification:Arial;letter-spacing:0px;word-spacing:0px"
     x="3554.3435"
     y="1255.3512"
     id="text31911"><tspan
       sodipodi:role="line"
       id="tspan31909"
       x="3554.3435"
       y="1255.3512">figure: 1</tspan></text>
  <g
     id="g47519">
    <path
       style="fill:none;stroke:#000000;stroke-width:1px;stroke-linecap:butt;stroke-linejoin:miter;stroke-opacity:1"
       d="m 2917.0732,4529.0012 c 217.1727,-61.1457 217.1727,-61.1457 217.1727,-61.1457"
       id="path45450" />
    <text
       xml:space="preserve"
       style="font-size:29.3333px;line-height:1.25;font-family:Arial;-inkscape-font-specification:Arial;letter-spacing:0px;word-spacing:0px"
       x="3134.2458"
       y="4467.8555"
       id="text46818"><tspan
         sodipodi:role="line"
         id="tspan46816"
         x="3134.2458"
         y="4467.8555">E2: -1.0 V vs Fc</tspan></text>
  </g>
</svg>
