<?xml version="1.0" encoding="UTF-8" standalone="no"?>
<svg
   height="5553px"
   version="1.1"
   width="3660px"
   id="svg2"
   sodipodi:docname="howlett_2006_electrochemistry_1483_f1_Au_dashed_positive.svg"
   inkscape:version="1.4 (86a8ad7, 2024-10-11)"
   xmlns:inkscape="http://www.inkscape.org/namespaces/inkscape"
   xmlns:sodipodi="http://sodipodi.sourceforge.net/DTD/sodipodi-0.dtd"
   xmlns:xlink="http://www.w3.org/1999/xlink"
   xmlns="http://www.w3.org/2000/svg"
   xmlns:svg="http://www.w3.org/2000/svg">
  <sodipodi:namedview
     id="namedview2"
     pagecolor="#ffffff"
     bordercolor="#000000"
     borderopacity="0.25"
     inkscape:showpageshadow="2"
     inkscape:pageopacity="0.0"
     inkscape:pagecheckerboard="0"
     inkscape:deskcolor="#d1d1d1"
     inkscape:zoom="0.36953428"
     inkscape:cx="1832.0357"
     inkscape:cy="2336.725"
     inkscape:window-width="2880"
     inkscape:window-height="1711"
     inkscape:window-x="-9"
     inkscape:window-y="-9"
     inkscape:window-maximized="1"
     inkscape:current-layer="svg2" />
  <defs
     id="defs1" />
  <g
     class="layer"
     id="image-layer"
     inkscape:groupmode="layer"
     sodipodi:insensitive="1">
    <title
       id="title1">image-layer</title>
    <image
       height="5553"
       width="3660"
       x="0"
       xlink:href="howlett_2006_electrochemistry_1483_p5.png"
       y="0"
       id="image1" />
  </g>
  <text
     xml:space="preserve"
     style="font-size:40px;text-align:start;writing-mode:lr-tb;direction:ltr;text-anchor:start;fill:#00aa00;stroke:#00d400;stroke-width:0.5"
     x="3348.2117"
     y="1766.7672"
     id="text2"
     transform="translate(-106.29315,0.321847)"><tspan
       sodipodi:role="line"
       id="tspan2"
       x="3348.2117"
       y="1766.7672">rotation: 80 min-1</tspan></text>
  <g
     id="g9780"
     transform="translate(-106.29315,0.321847)">
    <path
       style="fill:none;stroke:#000000;stroke-width:1px;stroke-linecap:butt;stroke-linejoin:miter;stroke-opacity:1"
       d="m 1059.2129,4528.7956 c 158.4673,109.1012 158.4673,109.1012 158.4673,109.1012"
       id="path6849" />
    <text
       xml:space="preserve"
       style="font-size:29.3333px;line-height:1.25;font-family:Arial;-inkscape-font-specification:Arial;letter-spacing:0px;word-spacing:0px"
       x="1158.1256"
       y="4645.4995"
       id="text7887"><tspan
         sodipodi:role="line"
         id="tspan7885"
         x="1158.1256"
         y="4645.4995">E1: -3.5 V vs Fc/Fc+</tspan></text>
  </g>
  <g
     id="g27407"
     transform="translate(-106.29315,0.321847)">
    <path
       style="fill:none;stroke:#000000;stroke-width:1px;stroke-linecap:butt;stroke-linejoin:miter;stroke-opacity:1"
       d="M 893.99279,3573.8627 C 482.84045,3042.5273 482.84045,3042.5273 482.84045,3042.5273"
       id="path11519" />
    <path
       style="fill:none;stroke:#000000;stroke-width:1px;stroke-linecap:butt;stroke-linejoin:miter;stroke-opacity:1"
       d="M 893.99279,1659.3687 482.84045,3042.5273"
       id="path11521"
       sodipodi:nodetypes="cc" />
    <text
       xml:space="preserve"
       style="font-size:29.3333px;line-height:1.25;font-family:Arial;-inkscape-font-specification:Arial;letter-spacing:0px;word-spacing:0px"
       x="63.254208"
       y="3041.4731"
       id="text13673"><tspan
         sodipodi:role="line"
         id="tspan13671"
         x="63.254208"
         y="3041.4731">j_scale_bar: 3 mA / cm2</tspan></text>
  </g>
  <g
     id="g27401"
     transform="translate(-106.29315,0.321847)">
    <path
       style="fill:none;stroke:#000000;stroke-width:1px;stroke-linecap:butt;stroke-linejoin:miter;stroke-opacity:1"
       d="m 2515.409,1220.8062 c 573.5048,250.9083 573.5048,250.9083 573.5048,250.9083"
       id="path25590" />
    <text
       xml:space="preserve"
       style="font-size:29.3333px;line-height:1.25;font-family:Arial;-inkscape-font-specification:Arial;letter-spacing:0px;word-spacing:0px"
       x="3088.9138"
       y="1471.7145"
       id="text26782"><tspan
         sodipodi:role="line"
         id="tspan26780"
         x="3088.9138"
         y="1471.7145">j1: 0 mA / cm2</tspan></text>
  </g>
  <text
     xml:space="preserve"
     style="font-size:29.3333px;line-height:1.25;font-family:Arial;-inkscape-font-specification:Arial;letter-spacing:0px;word-spacing:0px"
     x="3427.1777"
     y="841.19843"
     id="text28225"><tspan
       sodipodi:role="line"
       id="tspan28223"
       x="3427.1777"
       y="841.19843">scan rate: 10 mV / s</tspan></text>
  <text
     xml:space="preserve"
     style="font-size:29.3333px;line-height:1.25;font-family:Arial;-inkscape-font-specification:Arial;letter-spacing:0px;word-spacing:0px"
     x="3373.5049"
     y="966.43536"
     id="text30495"><tspan
       sodipodi:role="line"
       id="tspan30493"
       x="3373.5049"
       y="966.43536">tags: BCV</tspan></text>
  <g
     id="g41351"
     transform="translate(-106.29315,0.321847)">
    <text
       xml:space="preserve"
       style="font-size:29.3333px;line-height:1.25;font-family:Arial;-inkscape-font-specification:Arial;letter-spacing:0px;word-spacing:0px"
       x="2743.2854"
       y="1268.7695"
       id="text31291"><tspan
         sodipodi:role="line"
         x="2743.2854"
         y="1268.7695"
         id="tspan51630">curve: Au_dashed</tspan></text>
    <path
       style="fill:none;stroke:#ff0000;stroke-width:1px;stroke-linecap:butt;stroke-linejoin:miter;stroke-opacity:1"
       d="m 2930.8011,1225.0307 c 0,0 -73.6875,1.4496 -168.8556,3.2277 -81.4387,1.5215 -313.2616,6.3399 -349.2712,6.8203 -71.3017,0.9512 -214.3406,20.2782 -230.313,48.4704 -23.8574,42.1095 -36.027,72.979 -97.3432,39.1737 -46.5637,-25.6718 -77.2005,-12.6515 -102.0669,-6.3734 -28.2014,7.12 -45.1901,5.4676 -59.2821,3.4385 -56.1656,-8.0874 -84.54,46.115 -122.2626,99.2718 -37.7226,53.1568 -88.0133,186.0451 -106.5743,242.9104 -15.8437,48.5403 -48.8682,181.6185 -74.3077,230.5732 -36.506,70.2503 -71.7245,6.6637 -105.8548,-18.3209 -27.2077,-19.9172 -48.46,-41.6209 -80.2675,-14.7021 -7.8406,6.6354 -16.8563,-2.184 -30.2696,3.7666 -14.0265,6.2226 -46.0538,41.9274 -52.5256,54.899 -59.6445,119.5465 -113.0552,319.4541 -145.2685,489.6451 -12.6462,66.8133 -21.1338,134.3973 -26.7935,182.6758 -23.5608,200.9804 -31.5296,312.8354 -40.2028,458.3178 -22.6778,380.3917 -29.0509,744.6281 -40.9847,1122.1811 -3.914,123.8277 -11.3207,359.6415 -11.3207,359.6415 l 1.3319,-3.4809 c 0,0 5.7391,-258.7143 18.1548,-625.4303 3.7612,-111.0951 11.5588,-232.8251 16.6394,-359.3296 11.5683,-288.0442 42.4058,-880.8006 84.2495,-1203.5372 21.1346,-163.0096 36.7963,-260.7269 93.5805,-398.2896 17.6866,-42.8465 48.3033,-64.6049 54.6864,-100.1498 6.9419,-38.6568 8.4489,-39.4379 47.3772,-92.3687 70.5802,-95.968 114.5973,-132.9221 120.6596,-150.5446 11.776,-34.2321 28.0753,-58.2242 56.7688,-101.9357 67.2341,-102.424 88.3516,-142.0152 186.1799,-220.3594 33.2903,-26.66 103.2007,-37.3648 133.8617,-37.1737 206.5976,1.2873 282.0619,-11.2362 434.2479,-12.5148 121.7992,-1.0233 249.6276,-13.1265 369.7471,-5.9636 69.2945,4.1321 232.583,-11.9274 232.583,-11.9274"
       id="path858"
       sodipodi:nodetypes="csssssszssssssssssccssssssssssscc" />
  </g>
  <text
     xml:space="preserve"
     style="font-size:29.3333px;line-height:1.25;font-family:Arial;-inkscape-font-specification:Arial;letter-spacing:0px;word-spacing:0px"
     x="3448.0503"
     y="1255.673"
     id="text31911"><tspan
       sodipodi:role="line"
       id="tspan31909"
       x="3448.0503"
       y="1255.673">figure: 1</tspan></text>
  <g
     id="g47519"
     transform="translate(-106.29315,0.321847)">
    <path
       style="fill:none;stroke:#000000;stroke-width:1px;stroke-linecap:butt;stroke-linejoin:miter;stroke-opacity:1"
       d="m 2917.0732,4529.0012 c 217.1727,-61.1457 217.1727,-61.1457 217.1727,-61.1457"
       id="path45450" />
    <text
       xml:space="preserve"
       style="font-size:29.3333px;line-height:1.25;font-family:Arial;-inkscape-font-specification:Arial;letter-spacing:0px;word-spacing:0px"
       x="3134.2458"
       y="4467.8555"
       id="text46818"><tspan
         sodipodi:role="line"
         id="tspan46816"
         x="3134.2458"
         y="4467.8555">E2: -1.0 V vs Fc/Fc+</tspan></text>
  </g>
</svg>
