<?xml version="1.0" encoding="UTF-8" standalone="no"?>
<svg
   height="5553px"
   version="1.1"
   width="3660px"
   id="svg2"
   sodipodi:docname="howlett_2006_electrochemistry_1483_f1_Au_solid.svg"
   inkscape:version="1.4 (86a8ad7, 2024-10-11)"
   xmlns:inkscape="http://www.inkscape.org/namespaces/inkscape"
   xmlns:sodipodi="http://sodipodi.sourceforge.net/DTD/sodipodi-0.dtd"
   xmlns:xlink="http://www.w3.org/1999/xlink"
   xmlns="http://www.w3.org/2000/svg"
   xmlns:svg="http://www.w3.org/2000/svg">
  <sodipodi:namedview
     id="namedview2"
     pagecolor="#ffffff"
     bordercolor="#000000"
     borderopacity="0.25"
     inkscape:showpageshadow="2"
     inkscape:pageopacity="0.0"
     inkscape:pagecheckerboard="0"
     inkscape:deskcolor="#d1d1d1"
     inkscape:zoom="0.18476714"
     inkscape:cx="-519.57291"
     inkscape:cy="4170.1138"
     inkscape:window-width="2880"
     inkscape:window-height="1711"
     inkscape:window-x="-9"
     inkscape:window-y="-9"
     inkscape:window-maximized="1"
     inkscape:current-layer="svg2" />
  <defs
     id="defs1" />
  <g
     class="layer"
     id="image-layer"
     inkscape:groupmode="layer"
     sodipodi:insensitive="1">
    <title
       id="title1">image-layer</title>
    <image
       height="5553"
       width="3660"
       x="0"
       xlink:href="howlett_2006_electrochemistry_1483_p5.png"
       y="0"
       id="image1" />
  </g>
  <g
     id="g9780"
     transform="translate(-104.67789,-1.1579288)">
    <path
       style="fill:none;stroke:#000000;stroke-width:1px;stroke-linecap:butt;stroke-linejoin:miter;stroke-opacity:1"
       d="m 1059.2129,4528.7956 c 158.4673,109.1012 158.4673,109.1012 158.4673,109.1012"
       id="path6849" />
    <text
       xml:space="preserve"
       style="font-size:29.3333px;line-height:1.25;font-family:Arial;-inkscape-font-specification:Arial;letter-spacing:0px;word-spacing:0px"
       x="1158.1256"
       y="4645.4995"
       id="text7887"><tspan
         sodipodi:role="line"
         id="tspan7885"
         x="1158.1256"
         y="4645.4995">E1: -3.5 V vs Fc/Fc+</tspan></text>
  </g>
  <g
     id="g27407"
     transform="translate(-104.67789,-1.1579288)">
    <path
       style="fill:none;stroke:#000000;stroke-width:1px;stroke-linecap:butt;stroke-linejoin:miter;stroke-opacity:1"
       d="M 893.99279,3573.8627 C 482.84045,3042.5273 482.84045,3042.5273 482.84045,3042.5273"
       id="path11519" />
    <path
       style="fill:none;stroke:#000000;stroke-width:1px;stroke-linecap:butt;stroke-linejoin:miter;stroke-opacity:1"
       d="M 893.99279,1659.3687 482.84045,3042.5273"
       id="path11521"
       sodipodi:nodetypes="cc" />
    <text
       xml:space="preserve"
       style="font-size:29.3333px;line-height:1.25;font-family:Arial;-inkscape-font-specification:Arial;letter-spacing:0px;word-spacing:0px"
       x="63.254208"
       y="3041.4731"
       id="text13673"><tspan
         sodipodi:role="line"
         id="tspan13671"
         x="63.254208"
         y="3041.4731">j_scale_bar: 3 mA / cm2</tspan></text>
  </g>
  <g
     id="g27401"
     transform="translate(-104.67789,-1.1579288)">
    <path
       style="fill:none;stroke:#000000;stroke-width:1px;stroke-linecap:butt;stroke-linejoin:miter;stroke-opacity:1"
       d="m 2515.409,1220.8062 c 573.5048,250.9083 573.5048,250.9083 573.5048,250.9083"
       id="path25590" />
    <text
       xml:space="preserve"
       style="font-size:29.3333px;line-height:1.25;font-family:Arial;-inkscape-font-specification:Arial;letter-spacing:0px;word-spacing:0px"
       x="3088.9138"
       y="1471.7145"
       id="text26782"><tspan
         sodipodi:role="line"
         id="tspan26780"
         x="3088.9138"
         y="1471.7145">j1: 0 mA / cm2</tspan></text>
  </g>
  <g
     id="g47519"
     transform="translate(-104.67789,-1.1579288)">
    <path
       style="fill:none;stroke:#000000;stroke-width:1px;stroke-linecap:butt;stroke-linejoin:miter;stroke-opacity:1"
       d="m 2917.0732,4529.0012 c 217.1727,-61.1457 217.1727,-61.1457 217.1727,-61.1457"
       id="path45450" />
    <text
       xml:space="preserve"
       style="font-size:29.3333px;line-height:1.25;font-family:Arial;-inkscape-font-specification:Arial;letter-spacing:0px;word-spacing:0px"
       x="3134.2458"
       y="4467.8555"
       id="text46818"><tspan
         sodipodi:role="line"
         id="tspan46816"
         x="3134.2458"
         y="4467.8555">E2: -1.0 V vs Fc/Fc+</tspan></text>
  </g>
  <g
     id="g1">
    <path
       style="fill:none;stroke:#ff0000;stroke-width:1px;stroke-linecap:butt;stroke-linejoin:miter;stroke-opacity:1"
       d="m 2826.4629,1222.8841 c 0,0 -62.8784,-1.905 -158.0465,-0.1269 -81.4387,1.5215 -187.9196,6.6382 -283.2981,7.9385 -70.4778,0.9607 -138.3833,8.315 -193.4129,13.4339 -30.7428,2.8597 -116.9091,1.0423 -156.6071,7.119 -52.5594,8.0454 -96.0419,19.1106 -123.3124,33.8813 -11.1878,6.0597 -23.5711,11.7988 -31.7002,14.9931 -18.8416,7.4037 -42.6328,-4.9453 -68.1695,-10.0644 -108.7325,-21.7967 -256.0209,-18.8078 -364.8851,30.3177 -81.4454,36.7526 -116.8217,81.7498 -160.6844,129.127 -34.6888,37.4682 -92.5747,98.3934 -119.1128,146.7613 -42.3043,77.1029 -71.7245,262.8433 -84.77,360.1501 -22.6088,168.6409 -35.3353,418.9732 -45.2096,635.1082 -10.9353,239.3586 -13.9509,291.6037 -19.6452,437.2331 -14.771,377.7561 -32.21359,755.1704 -49.94569,1132.7234 -5.8121,123.7532 -19.7546,371.2381 -19.7546,371.2381 v 0 l -13.05103,-1.4984 c 0,0 8.3241,-428.2811 36.2852,-972.0871 27.4735,-534.3218 67.31242,-1178.3085 118.46132,-1581.9579 4.9373,-38.9636 12.8425,-101.8557 22.0316,-166.9145 18.3982,-130.2591 48.6719,-286.0252 117.6778,-393.5639 21.1488,-32.9583 66.8344,-77.7116 111.9327,-104.1721 95.7033,-56.1522 171.1075,-64.93 171.1075,-64.93 l 5.4521,34.1742 5.2181,-36.9002 c 0,0 77.4488,-11.4637 177.3484,-20.0118 27.2331,-2.3302 56.4823,-2.6032 86.1524,-10.3373 21.5495,-5.6173 59.8095,-3.7117 79.4099,-8.042 22.5708,-4.9866 128.3022,-5.4343 155.0858,-0.6093 26.956,4.8561 42.4701,-0.3846 59.6024,2.153 5.8522,0.8669 20.764,5.4497 38.414,4.4576 12.3318,-0.6933 33.0436,-2.5547 40.618,1.0973 7.2522,3.4966 50.6783,0.5193 76.027,0.356 121.801,-0.7848 240.5673,-7.0579 360.8016,-11.9273 72.5818,-2.9395 217.6738,-10.4365 217.6738,-10.4365 v 0"
       id="path858"
       sodipodi:nodetypes="csssssssssssssscccssssscccssssssssscc" />
    <text
       xml:space="preserve"
       style="font-size:29.3333px;line-height:1.25;font-family:Arial;-inkscape-font-specification:Arial;letter-spacing:0px;word-spacing:0px"
       x="2638.6074"
       y="1267.6116"
       id="text31291"><tspan
         sodipodi:role="line"
         id="tspan31289"
         x="2638.6074"
         y="1267.6116">curve: Au_solid</tspan></text>
  </g>
  <text
     xml:space="preserve"
     style="font-size:29.3333px;line-height:1.25;font-family:Arial;-inkscape-font-specification:Arial;letter-spacing:0px;word-spacing:0px"
     x="3428.7927"
     y="839.71869"
     id="text28225"><tspan
       sodipodi:role="line"
       id="tspan28223"
       x="3428.7927"
       y="839.71869">scan rate: 10 mV / s</tspan></text>
  <text
     xml:space="preserve"
     style="font-size:29.3333px;line-height:1.25;font-family:Arial;-inkscape-font-specification:Arial;letter-spacing:0px;word-spacing:0px"
     x="3375.1199"
     y="964.95563"
     id="text30495"><tspan
       sodipodi:role="line"
       id="tspan30493"
       x="3375.1199"
       y="964.95563">tags: BCV</tspan></text>
  <text
     xml:space="preserve"
     style="font-size:29.3333px;line-height:1.25;font-family:Arial;-inkscape-font-specification:Arial;letter-spacing:0px;word-spacing:0px"
     x="3449.6655"
     y="1254.1932"
     id="text31911"><tspan
       sodipodi:role="line"
       id="tspan31909"
       x="3449.6655"
       y="1254.1932">figure: 1</tspan></text>
  <text
     xml:space="preserve"
     style="font-size:40px;text-align:start;writing-mode:lr-tb;direction:ltr;text-anchor:start;fill:#00aa00;stroke:#00d400;stroke-width:0.5"
     x="3008.0344"
     y="1923.0754"
     id="text1"><tspan
       sodipodi:role="line"
       id="tspan1"
       x="3008.0344"
       y="1923.0754">rotation: 30 min-1</tspan></text>
</svg>
