<?xml version="1.0" encoding="UTF-8" standalone="no"?>
<svg
   height="6675px"
   version="1.1"
   width="5062px"
   id="svg6"
   sodipodi:docname="chen_2024_svgdigitizer_4958_f3b_red.svg"
   inkscape:version="1.3.2 (091e20e, 2023-11-25)"
   xmlns:inkscape="http://www.inkscape.org/namespaces/inkscape"
   xmlns:sodipodi="http://sodipodi.sourceforge.net/DTD/sodipodi-0.dtd"
   xmlns:xlink="http://www.w3.org/1999/xlink"
   xmlns="http://www.w3.org/2000/svg"
   xmlns:svg="http://www.w3.org/2000/svg">
  <sodipodi:namedview
     id="namedview8"
     pagecolor="#ffffff"
     bordercolor="#000000"
     borderopacity="0.25"
     inkscape:showpageshadow="2"
     inkscape:pageopacity="0.0"
     inkscape:pagecheckerboard="0"
     inkscape:deskcolor="#d1d1d1"
     showgrid="false"
     inkscape:zoom="0.22237764"
     inkscape:cx="930.849"
     inkscape:cy="5052.2167"
     inkscape:window-width="1440"
     inkscape:window-height="900"
     inkscape:window-x="0"
     inkscape:window-y="0"
     inkscape:window-maximized="0"
     inkscape:current-layer="svg6"
     inkscape:pageshadow="2" />
  <defs
     id="defs2">
    <rect
       x="76.862678"
       y="4480.8094"
       width="392.85369"
       height="62.628849"
       id="rect515" />
    <rect
       x="91.096507"
       y="4361.2453"
       width="464.02283"
       height="119.56417"
       id="rect509" />
    <rect
       x="71.169146"
       y="4230.294"
       width="444.09547"
       height="79.709448"
       id="rect503" />
    <rect
       x="1103.1062"
       y="5720.8534"
       width="326.10072"
       height="74.479797"
       id="rect490" />
    <rect
       x="696.48673"
       y="5690.6589"
       width="341.19798"
       height="86.557603"
       id="rect477" />
    <rect
       x="277.55967"
       y="4627.4179"
       width="345.88205"
       height="65.475615"
       id="rect462" />
    <rect
       x="400.58052"
       y="4452.684"
       width="337.2711"
       height="66.218422"
       id="rect244" />
    <rect
       x="370.38601"
       y="4438.5932"
       width="348.24337"
       height="163.05036"
       id="rect238" />
    <rect
       x="402.59349"
       y="4468.7877"
       width="150.97256"
       height="90.583534"
       id="rect232" />
    <inkscape:perspective
       sodipodi:type="inkscape:persp3d"
       inkscape:vp_x="0 : 3337.5 : 1"
       inkscape:vp_y="0 : 1000 : 0"
       inkscape:vp_z="5062 : 3337.5 : 1"
       inkscape:persp3d-origin="2531 : 2225 : 1"
       id="perspective170" />
    <rect
       x="71.169144"
       y="4230.2939"
       width="444.09546"
       height="79.70945"
       id="rect503-3" />
    <rect
       x="91.096504"
       y="4361.2451"
       width="464.02283"
       height="119.56417"
       id="rect509-3" />
  </defs>
  <image
     height="6675px"
     sodipodi:insensitive="true"
     width="5062px"
     x="0"
     xlink:href="chen_2024_svgdigitizer_4958_p2.png"
     y="0"
     id="image4" />
  <text
     xml:space="preserve"
     style="font-size:80px;line-height:1.25;font-family:sans-serif;-inkscape-font-specification:sans-serif;letter-spacing:0px;word-spacing:0px"
     x="335.91837"
     y="4136.3506"
     id="text7770"><tspan
       sodipodi:role="line"
       id="tspan7768"
       x="335.91837"
       y="4136.3506">scan rate: 50 mV / s</tspan></text>
  <text
     xml:space="preserve"
     style="font-size:80px;line-height:1.25;font-family:sans-serif;-inkscape-font-specification:sans-serif;letter-spacing:0px;word-spacing:0px"
     x="330.22482"
     y="3957.0044"
     id="text9174"><tspan
       sodipodi:role="line"
       x="330.22482"
       y="3957.0044"
       id="tspan9176">figure: 3b</tspan></text>
  <g
     id="g21003">
    <path
       style="fill:none;fill-rule:evenodd;stroke:#000000;stroke-width:1.01318px;stroke-linecap:butt;stroke-linejoin:miter;stroke-opacity:1"
       d="m 713.12398,4614.6134 85.02886,136.6329"
       id="path466"
       inkscape:connector-type="polyline"
       inkscape:connector-curvature="0" />
    <text
       xml:space="preserve"
       style="font-size:80px;line-height:1.25;font-family:sans-serif;-inkscape-font-specification:sans-serif;letter-spacing:0px;word-spacing:0px"
       x="153.72534"
       y="4620.3008"
       id="text12078"><tspan
         sodipodi:role="line"
         id="tspan12076"
         x="153.72534"
         y="4620.3008">j2: 50 uA / cm2</tspan></text>
  </g>
  <g
     id="g14202">
    <path
       style="fill:none;fill-rule:evenodd;stroke:#000000;stroke-width:1.03582px;stroke-linecap:butt;stroke-linejoin:miter;stroke-opacity:1"
       d="M 669.00263,5565.4145 799.92854,5430.9302"
       id="path451"
       inkscape:connector-type="polyline"
       inkscape:connector-curvature="0" />
    <text
       xml:space="preserve"
       style="font-size:80px;line-height:1.25;font-family:sans-serif;-inkscape-font-specification:sans-serif;letter-spacing:0px;word-spacing:0px"
       x="92.746017"
       y="5599.541"
       id="text12078-9"><tspan
         sodipodi:role="line"
         id="tspan12076-7"
         x="92.746017"
         y="5599.541">j1: -50 uA / cm2</tspan></text>
  </g>
  <g
     id="g20959">
    <path
       style="fill:none;fill-rule:evenodd;stroke:#000000;stroke-width:1.03994px;stroke-linecap:butt;stroke-linejoin:miter;stroke-opacity:1"
       d="M 740.79586,5746.0058 808.4268,5566.3931"
       id="path481"
       inkscape:connector-type="polyline"
       inkscape:connector-curvature="0" />
    <text
       xml:space="preserve"
       style="font-size:80px;line-height:1.25;font-family:sans-serif;-inkscape-font-specification:sans-serif;letter-spacing:0px;word-spacing:0px"
       x="146.60843"
       y="5780.3579"
       id="text15529"><tspan
         sodipodi:role="line"
         id="tspan15527"
         x="146.60843"
         y="5780.3579">E1: 0.0 V vs RHE</tspan></text>
  </g>
  <g
     id="g20954">
    <path
       style="fill:none;fill-rule:evenodd;stroke:#000000;stroke-width:1px;stroke-linecap:butt;stroke-linejoin:miter;stroke-opacity:1"
       d="m 1253.0722,5764.1322 103.6679,-193.2448"
       id="path494"
       inkscape:connector-type="polyline"
       inkscape:connector-curvature="0" />
    <text
       xml:space="preserve"
       style="font-size:80px;line-height:1.25;font-family:sans-serif;-inkscape-font-specification:sans-serif;letter-spacing:0px;word-spacing:0px"
       x="1267.2344"
       y="5788.8706"
       id="text15529-1"><tspan
         sodipodi:role="line"
         id="tspan15527-0"
         x="1267.2344"
         y="5788.8706">E2: 0.8 V vs RHE</tspan></text>
  </g>
  <g
     id="g1">
    <text
       xml:space="preserve"
       style="font-size:80px;line-height:1.25;font-family:sans-serif;-inkscape-font-specification:sans-serif;letter-spacing:0px;word-spacing:0px"
       x="1183.8987"
       y="4922.0581"
       id="text3406"><tspan
         sodipodi:role="line"
         id="tspan3404"
         x="1183.8987"
         y="4922.0581">curve: red</tspan></text>
    <path
       style="fill:none;stroke:#00ffff;stroke-width:3.8"
       d="m 873.55078,5103.6387 c 0,0 -0.0638,-109.0199 3.34458,-119.3301 3.40841,-10.3103 24.76549,16.6252 31.17637,26.2489 6.41088,9.6237 16.65943,37.4585 34.61056,37.1191 8.97557,-0.1697 27.3877,-17.1773 35.75558,-52.0207 11.80512,-49.1557 15.25845,-90.0008 19.63859,-142.9801 4.38014,-52.9793 4.88294,-126.1627 10.01764,-129.7941 5.1347,-3.6313 15.6676,35.7019 21.1146,76.1453 5.447,40.4434 6.4032,70.2171 24.6211,78.3292 18.2179,8.1121 8.7673,1.4224 25.5972,10.8643 16.8299,9.4419 21.6047,26.1748 33.6704,54.7136 12.0656,28.5388 14.9368,51.0002 35.3613,64.0697 20.4245,13.0695 42.1952,1.7574 60.7105,7.5998 18.5153,5.8424 32.3019,17.0507 44.0973,23.9649 11.7954,6.9142 18.5295,11.8796 24.5784,9.1881 6.0489,-2.6914 7.5622,13.8611 11.8405,7.5456 4.2782,-6.3155 -4.8699,7.9878 27.3374,4.2148 32.2073,-3.773 38.9927,-23.8653 40.4146,-19.1669 1.4218,4.6984 0.7759,94.2615 -2.1608,94.7504 -2.9367,0.4888 -30.7511,-14.1001 -67.9845,-2.1876 -37.2333,11.9125 -47.3142,33.2751 -72.2794,41.3654 -24.9652,8.0903 -44.7255,0.6314 -70.1319,8.7423 -25.4064,8.1108 -32.0739,50.5106 -43.7186,79.6057 -11.6447,29.0951 -17.5333,53.1254 -31.9048,54.3091 -14.3715,1.1838 -16.1151,-7.4128 -27.2975,-5.1256 -11.1824,2.2872 -18.9934,97.3313 -22.1718,104.4567 -3.1784,7.1254 -7.0439,43.4665 -13.077,42.6743 -6.0331,-0.7922 -6.1073,-147.2679 -17.87695,-198.1361 -11.76973,-50.8682 -23.34118,-111.5139 -43.73194,-112.3547 -20.39076,-0.8408 -26.56687,17.1318 -34.29807,33.1148 -7.7312,15.983 -8.47464,24.6731 -19.40705,34.3057 -10.9324,9.6326 -18.70542,23.3791 -18.54757,23.334"
       id="path1"
       sodipodi:nodetypes="czzsszzzzzzzzzzzzzzzzzzzzzzzzzzc" />
  </g>
</svg>
