<?xml version="1.0" encoding="UTF-8" standalone="no"?>
<svg
   height="6675px"
   version="1.1"
   width="5062px"
   id="svg6"
   sodipodi:docname="chen_2024_svgdigitizer_4958_f3c_green.svg"
   inkscape:version="1.3.2 (091e20e, 2023-11-25)"
   xmlns:inkscape="http://www.inkscape.org/namespaces/inkscape"
   xmlns:sodipodi="http://sodipodi.sourceforge.net/DTD/sodipodi-0.dtd"
   xmlns:xlink="http://www.w3.org/1999/xlink"
   xmlns="http://www.w3.org/2000/svg"
   xmlns:svg="http://www.w3.org/2000/svg">
  <sodipodi:namedview
     id="namedview8"
     pagecolor="#ffffff"
     bordercolor="#000000"
     borderopacity="0.25"
     inkscape:showpageshadow="2"
     inkscape:pageopacity="0.0"
     inkscape:pagecheckerboard="0"
     inkscape:deskcolor="#d1d1d1"
     showgrid="false"
     inkscape:zoom="0.2090468"
     inkscape:cx="1372.8983"
     inkscape:cy="5185.4417"
     inkscape:window-width="1440"
     inkscape:window-height="789"
     inkscape:window-x="0"
     inkscape:window-y="25"
     inkscape:window-maximized="0"
     inkscape:current-layer="svg6"
     inkscape:pageshadow="2" />
  <defs
     id="defs2">
    <rect
       x="76.862678"
       y="4480.8094"
       width="392.85369"
       height="62.628849"
       id="rect515" />
    <rect
       x="91.096507"
       y="4361.2453"
       width="464.02283"
       height="119.56417"
       id="rect509" />
    <rect
       x="71.169146"
       y="4230.294"
       width="444.09547"
       height="79.709448"
       id="rect503" />
    <rect
       x="1103.1062"
       y="5720.8534"
       width="326.10072"
       height="74.479797"
       id="rect490" />
    <rect
       x="696.48673"
       y="5690.6589"
       width="341.19798"
       height="86.557603"
       id="rect477" />
    <rect
       x="277.55967"
       y="4627.4179"
       width="345.88205"
       height="65.475615"
       id="rect462" />
    <rect
       x="400.58052"
       y="4452.684"
       width="337.2711"
       height="66.218422"
       id="rect244" />
    <rect
       x="370.38601"
       y="4438.5932"
       width="348.24337"
       height="163.05036"
       id="rect238" />
    <rect
       x="402.59349"
       y="4468.7877"
       width="150.97256"
       height="90.583534"
       id="rect232" />
    <inkscape:perspective
       sodipodi:type="inkscape:persp3d"
       inkscape:vp_x="0 : 3337.5 : 1"
       inkscape:vp_y="0 : 1000 : 0"
       inkscape:vp_z="5062 : 3337.5 : 1"
       inkscape:persp3d-origin="2531 : 2225 : 1"
       id="perspective170" />
    <rect
       x="71.169144"
       y="4230.2939"
       width="444.09546"
       height="79.70945"
       id="rect503-3" />
    <rect
       x="91.096504"
       y="4361.2451"
       width="464.02283"
       height="119.56417"
       id="rect509-3" />
  </defs>
  <image
     height="6675px"
     sodipodi:insensitive="true"
     width="5062px"
     x="0"
     xlink:href="chen_2024_svgdigitizer_4958_p2.png"
     y="0"
     id="image4" />
  <text
     xml:space="preserve"
     style="font-size:80px;line-height:1.25;font-family:sans-serif;-inkscape-font-specification:sans-serif;letter-spacing:0px;word-spacing:0px"
     x="335.91837"
     y="4136.3506"
     id="text7770"><tspan
       sodipodi:role="line"
       id="tspan7768"
       x="335.91837"
       y="4136.3506">scan rate: 50 mV / s</tspan></text>
  <text
     xml:space="preserve"
     style="font-size:80px;line-height:1.25;font-family:sans-serif;-inkscape-font-specification:sans-serif;letter-spacing:0px;word-spacing:0px"
     x="330.22482"
     y="3957.0044"
     id="text9174"><tspan
       sodipodi:role="line"
       x="330.22482"
       y="3957.0044"
       id="tspan9176">figure: 3c</tspan></text>
  <g
     id="g21003">
    <path
       style="fill:none;fill-rule:evenodd;stroke:#000000;stroke-width:1.01318px;stroke-linecap:butt;stroke-linejoin:miter;stroke-opacity:1"
       d="m 713.12398,4614.6134 85.02886,136.6329"
       id="path466"
       inkscape:connector-type="polyline"
       inkscape:connector-curvature="0" />
    <text
       xml:space="preserve"
       style="font-size:80px;line-height:1.25;font-family:sans-serif;-inkscape-font-specification:sans-serif;letter-spacing:0px;word-spacing:0px"
       x="153.72534"
       y="4620.3008"
       id="text12078"><tspan
         sodipodi:role="line"
         id="tspan12076"
         x="153.72534"
         y="4620.3008">j2: 50 uA / cm2</tspan></text>
  </g>
  <g
     id="g14202">
    <path
       style="fill:none;fill-rule:evenodd;stroke:#000000;stroke-width:1.03582px;stroke-linecap:butt;stroke-linejoin:miter;stroke-opacity:1"
       d="M 669.00263,5565.4145 799.92854,5430.9302"
       id="path451"
       inkscape:connector-type="polyline"
       inkscape:connector-curvature="0" />
    <text
       xml:space="preserve"
       style="font-size:80px;line-height:1.25;font-family:sans-serif;-inkscape-font-specification:sans-serif;letter-spacing:0px;word-spacing:0px"
       x="92.746017"
       y="5599.541"
       id="text12078-9"><tspan
         sodipodi:role="line"
         id="tspan12076-7"
         x="92.746017"
         y="5599.541">j1: -50 uA / cm2</tspan></text>
  </g>
  <g
     id="g20959"
     transform="translate(680.30632,-0.28825131)">
    <path
       style="fill:none;fill-rule:evenodd;stroke:#000000;stroke-width:1.03994px;stroke-linecap:butt;stroke-linejoin:miter;stroke-opacity:1"
       d="M 740.79586,5746.0058 808.4268,5566.3931"
       id="path481"
       inkscape:connector-type="polyline"
       inkscape:connector-curvature="0" />
    <text
       xml:space="preserve"
       style="font-size:80px;line-height:1.25;font-family:sans-serif;-inkscape-font-specification:sans-serif;letter-spacing:0px;word-spacing:0px"
       x="146.60843"
       y="5780.3579"
       id="text15529"><tspan
         sodipodi:role="line"
         id="tspan15527"
         x="146.60843"
         y="5780.3579">E1: 0.0 V vs RHE</tspan></text>
  </g>
  <g
     id="g20954"
     transform="translate(679.7507,-4.9796444)">
    <path
       style="fill:none;fill-rule:evenodd;stroke:#000000;stroke-width:1px;stroke-linecap:butt;stroke-linejoin:miter;stroke-opacity:1"
       d="m 1253.0722,5764.1322 103.6679,-193.2448"
       id="path494"
       inkscape:connector-type="polyline"
       inkscape:connector-curvature="0" />
    <text
       xml:space="preserve"
       style="font-size:80px;line-height:1.25;font-family:sans-serif;-inkscape-font-specification:sans-serif;letter-spacing:0px;word-spacing:0px"
       x="1267.2344"
       y="5788.8706"
       id="text15529-1"><tspan
         sodipodi:role="line"
         id="tspan15527-0"
         x="1267.2344"
         y="5788.8706">E2: 0.8 V vs RHE</tspan></text>
  </g>
  <g
     id="g2">
    <text
       xml:space="preserve"
       style="font-size:80px;line-height:1.25;font-family:sans-serif;-inkscape-font-specification:sans-serif;letter-spacing:0px;word-spacing:0px"
       x="1946.2184"
       y="4812.5122"
       id="text3406"><tspan
         sodipodi:role="line"
         id="tspan3404"
         x="1946.2184"
         y="4812.5122">curve: green</tspan></text>
    <path
       style="fill:none;stroke:#00ffff;stroke-width:3.8"
       d="m 1555.038,4979.5456 c 0,0 4.3073,-5.9614 8.769,-5.8496 4.4617,0.1118 20.288,27.9211 48.5763,28.1118 28.2883,0.1907 45.3648,-44.1707 55.3991,-69.4478 10.0343,-25.2771 16.9383,-53.4627 22.9665,-71.8224 6.0282,-18.3597 7.9785,-38.3222 12.9447,-38.4166 4.9662,-0.094 13.3418,30.1107 29.6476,59.7127 16.3058,29.602 33.8918,53.1051 47.5889,70.8385 13.6971,17.7335 14.2049,27.762 18.805,40.6533 4.6001,12.8913 16.6175,30.7179 27.1422,34.6584 10.5247,3.9405 58.3647,-5.7959 77.2294,-2.9159 18.8647,2.88 27.8844,8.0238 35.3771,9.038 7.4927,1.0141 11.0734,-2.3738 13.4827,-2.0263 2.4094,0.3476 -1.2573,8.2073 1.7659,9.09 3.0232,0.8828 4.8799,-6.4651 7.9718,-6.6957 3.0919,-0.2306 -1.35,7.3329 4.7886,11.1881 6.1386,3.8553 13.9804,3.255 33.9491,2.8676 19.9687,-0.3874 33.7573,-34.057 34.5467,-28.3909 0.7895,5.6661 1.4051,103.3606 -2.6572,108.9635 -4.0623,5.6029 -32.6182,-11.3787 -54.9826,-7.3574 -22.3645,4.0213 -31.3737,15.1383 -44.5421,19.3509 -13.1684,4.2126 -23.9051,8.3824 -48.1573,9.8594 -24.2521,1.4771 -34.8066,-7.7743 -56.6819,-4.1961 -21.8753,3.5783 -34.315,48.4519 -48.2484,69.8911 -13.9334,21.4391 -27.4204,43.9857 -36.573,56.9755 -9.1526,12.9898 -18.641,25.4315 -24.3691,37.9182 -5.728,12.4867 -8.0034,36.5774 -11.3458,36.7114 -3.3425,0.1341 -2.4894,5.5952 -6.8009,4.354 -4.3115,-1.2411 -16.5102,-64.8171 -29.894,-93.2663 -13.3838,-28.4492 -25.9078,-59.5721 -39.5483,-68.9165 -13.6405,-9.3444 -16.8278,-9.3421 -25.5681,-7.8639 -8.7403,1.4782 -26.0439,16.9897 -34.1261,27.0071 -8.0822,10.0174 -17.0117,27.7626 -17.0117,27.7626"
       id="path2"
       sodipodi:nodetypes="czzzzzzzzzzzzzzzzzzzzzzzzzzzzzzzc" />
  </g>
</svg>
