<?xml version="1.0" encoding="UTF-8" standalone="no"?>
<svg
   height="6675px"
   version="1.1"
   width="5062px"
   id="svg6"
   sodipodi:docname="chen_2024_svgdigitizer_4958_f3b_black.svg"
   inkscape:version="1.3.2 (091e20e, 2023-11-25)"
   xmlns:inkscape="http://www.inkscape.org/namespaces/inkscape"
   xmlns:sodipodi="http://sodipodi.sourceforge.net/DTD/sodipodi-0.dtd"
   xmlns:xlink="http://www.w3.org/1999/xlink"
   xmlns="http://www.w3.org/2000/svg"
   xmlns:svg="http://www.w3.org/2000/svg">
  <sodipodi:namedview
     id="namedview8"
     pagecolor="#ffffff"
     bordercolor="#000000"
     borderopacity="0.25"
     inkscape:showpageshadow="2"
     inkscape:pageopacity="0.0"
     inkscape:pagecheckerboard="0"
     inkscape:deskcolor="#d1d1d1"
     showgrid="false"
     inkscape:zoom="0.37279653"
     inkscape:cx="1075.6538"
     inkscape:cy="4946.398"
     inkscape:window-width="1440"
     inkscape:window-height="789"
     inkscape:window-x="0"
     inkscape:window-y="25"
     inkscape:window-maximized="0"
     inkscape:current-layer="svg6"
     inkscape:pageshadow="2" />
  <defs
     id="defs2">
    <rect
       x="76.862678"
       y="4480.8094"
       width="392.85369"
       height="62.628849"
       id="rect515" />
    <rect
       x="91.096507"
       y="4361.2453"
       width="464.02283"
       height="119.56417"
       id="rect509" />
    <rect
       x="71.169146"
       y="4230.294"
       width="444.09547"
       height="79.709448"
       id="rect503" />
    <rect
       x="1103.1062"
       y="5720.8534"
       width="326.10072"
       height="74.479797"
       id="rect490" />
    <rect
       x="696.48673"
       y="5690.6589"
       width="341.19798"
       height="86.557603"
       id="rect477" />
    <rect
       x="277.55967"
       y="4627.4179"
       width="345.88205"
       height="65.475615"
       id="rect462" />
    <rect
       x="400.58052"
       y="4452.684"
       width="337.2711"
       height="66.218422"
       id="rect244" />
    <rect
       x="370.38601"
       y="4438.5932"
       width="348.24337"
       height="163.05036"
       id="rect238" />
    <rect
       x="402.59349"
       y="4468.7877"
       width="150.97256"
       height="90.583534"
       id="rect232" />
    <inkscape:perspective
       sodipodi:type="inkscape:persp3d"
       inkscape:vp_x="0 : 3337.5 : 1"
       inkscape:vp_y="0 : 1000 : 0"
       inkscape:vp_z="5062 : 3337.5 : 1"
       inkscape:persp3d-origin="2531 : 2225 : 1"
       id="perspective170" />
    <rect
       x="71.169144"
       y="4230.2939"
       width="444.09546"
       height="79.70945"
       id="rect503-3" />
    <rect
       x="91.096504"
       y="4361.2451"
       width="464.02283"
       height="119.56417"
       id="rect509-3" />
  </defs>
  <image
     height="6675px"
     sodipodi:insensitive="true"
     width="5062px"
     x="0"
     xlink:href="chen_2024_svgdigitizer_4958_p2.png"
     y="0"
     id="image4" />
  <text
     xml:space="preserve"
     style="font-size:80px;line-height:1.25;font-family:sans-serif;-inkscape-font-specification:sans-serif;letter-spacing:0px;word-spacing:0px"
     x="335.91837"
     y="4136.3506"
     id="text7770"><tspan
       sodipodi:role="line"
       id="tspan7768"
       x="335.91837"
       y="4136.3506">scan rate: 50 mV / s</tspan></text>
  <text
     xml:space="preserve"
     style="font-size:80px;line-height:1.25;font-family:sans-serif;-inkscape-font-specification:sans-serif;letter-spacing:0px;word-spacing:0px"
     x="330.22482"
     y="3957.0044"
     id="text9174"><tspan
       sodipodi:role="line"
       x="330.22482"
       y="3957.0044"
       id="tspan9176">figure: 3b</tspan></text>
  <g
     id="g21003">
    <path
       style="fill:none;fill-rule:evenodd;stroke:#000000;stroke-width:1.01318px;stroke-linecap:butt;stroke-linejoin:miter;stroke-opacity:1"
       d="m 713.12398,4614.6134 85.02886,136.6329"
       id="path466"
       inkscape:connector-type="polyline"
       inkscape:connector-curvature="0" />
    <text
       xml:space="preserve"
       style="font-size:80px;line-height:1.25;font-family:sans-serif;-inkscape-font-specification:sans-serif;letter-spacing:0px;word-spacing:0px"
       x="153.72534"
       y="4620.3008"
       id="text12078"><tspan
         sodipodi:role="line"
         id="tspan12076"
         x="153.72534"
         y="4620.3008">j2: 50 uA / cm2</tspan></text>
  </g>
  <g
     id="g14202">
    <path
       style="fill:none;fill-rule:evenodd;stroke:#000000;stroke-width:1.03582px;stroke-linecap:butt;stroke-linejoin:miter;stroke-opacity:1"
       d="M 669.00263,5565.4145 799.92854,5430.9302"
       id="path451"
       inkscape:connector-type="polyline"
       inkscape:connector-curvature="0" />
    <text
       xml:space="preserve"
       style="font-size:80px;line-height:1.25;font-family:sans-serif;-inkscape-font-specification:sans-serif;letter-spacing:0px;word-spacing:0px"
       x="92.746017"
       y="5599.541"
       id="text12078-9"><tspan
         sodipodi:role="line"
         id="tspan12076-7"
         x="92.746017"
         y="5599.541">j1: -50 uA / cm2</tspan></text>
  </g>
  <g
     id="g20959">
    <path
       style="fill:none;fill-rule:evenodd;stroke:#000000;stroke-width:1.03994px;stroke-linecap:butt;stroke-linejoin:miter;stroke-opacity:1"
       d="M 740.79586,5746.0058 808.4268,5566.3931"
       id="path481"
       inkscape:connector-type="polyline"
       inkscape:connector-curvature="0" />
    <text
       xml:space="preserve"
       style="font-size:80px;line-height:1.25;font-family:sans-serif;-inkscape-font-specification:sans-serif;letter-spacing:0px;word-spacing:0px"
       x="146.60843"
       y="5780.3579"
       id="text15529"><tspan
         sodipodi:role="line"
         id="tspan15527"
         x="146.60843"
         y="5780.3579">E1: 0.0 V vs RHE</tspan></text>
  </g>
  <g
     id="g20954">
    <path
       style="fill:none;fill-rule:evenodd;stroke:#000000;stroke-width:1px;stroke-linecap:butt;stroke-linejoin:miter;stroke-opacity:1"
       d="m 1253.0722,5764.1322 103.6679,-193.2448"
       id="path494"
       inkscape:connector-type="polyline"
       inkscape:connector-curvature="0" />
    <text
       xml:space="preserve"
       style="font-size:80px;line-height:1.25;font-family:sans-serif;-inkscape-font-specification:sans-serif;letter-spacing:0px;word-spacing:0px"
       x="1267.2344"
       y="5788.8706"
       id="text15529-1"><tspan
         sodipodi:role="line"
         id="tspan15527-0"
         x="1267.2344"
         y="5788.8706">E2: 0.8 V vs RHE</tspan></text>
  </g>
  <g
     id="g1">
    <g
       id="g6437">
      <text
         xml:space="preserve"
         style="font-size:80px;line-height:1.25;font-family:sans-serif;-inkscape-font-specification:sans-serif;letter-spacing:0px;word-spacing:0px"
         x="1183.8987"
         y="4922.0581"
         id="text3406"><tspan
           sodipodi:role="line"
           id="tspan3404"
           x="1183.8987"
           y="4922.0581">curve: black</tspan></text>
    </g>
    <path
       style="fill:none;stroke:#00ffff;stroke-width:3.8"
       d="m 847.3947,5057.8213 c 0,0 0.92115,-53.2609 8.51372,-53.7602 7.59257,-0.4993 25.43198,29.2607 38.83799,39.1303 13.40601,9.8696 22.38102,23.9778 44.37533,24.0617 21.99431,0.084 38.98485,-24.0986 50.07653,-62.508 11.09163,-38.4095 15.47233,-59.7539 21.37773,-95.1998 5.9053,-35.446 3.321,-128.6851 9.2095,-128.7118 5.8886,-0.027 4.818,46.3532 11.9345,44.9133 7.1165,-1.4399 12.8348,-50.4037 21.6292,-50.8367 8.7944,-0.4331 20.3242,37.1576 28.3597,45.7671 8.0355,8.6095 8.8971,1.7897 19.4598,14.4546 10.5627,12.6649 17.1851,120.734 43.2584,150.7224 26.0733,29.9885 40.4279,16.8146 67.4467,32.2655 27.0188,15.4509 47.5489,40.4965 75.4612,45.9551 27.9124,5.4586 38.6642,0.1661 54.9459,-5.2244 16.2816,-5.3904 15.2683,-0.9451 22.9806,-3.1658 7.7123,-2.2207 23.024,-21.3144 25.5897,-15.335 2.5657,5.9794 0.2333,72.3051 -0.9197,83.2258 -1.1531,10.9207 -47.7849,-4.6968 -88.2563,-5.9251 -40.4713,-1.2282 -61.8586,34.0494 -81.2987,47.7695 -19.4401,13.7202 -57.5989,16.6684 -72.527,28.2424 -14.9281,11.574 -26.5635,49.9001 -29.7503,75.1173 -3.1867,25.2172 -13.7728,57.5803 -17.5561,68.6479 -3.7833,11.0676 -8.3545,13.2052 -20.9535,24.6511 -12.599,11.446 -18.2511,46.9202 -26.9286,47.1563 -8.6775,0.2361 -18.0298,-53.5901 -23.7252,-52.2992 -5.6953,1.2909 -1.9858,13.7461 -6.5507,13.7896 -4.5649,0.044 -10.2927,-96.306 -17.9127,-128.6178 -7.62,-32.3118 -15.42162,-44.8334 -23.43117,-66.6144 -8.00955,-21.781 -17.97044,-47.108 -36.30102,-53.1064 -18.33059,-5.9983 -25.69223,-4.02 -60.62687,29.0496 -34.93464,33.0697 -36.96422,134.1737 -36.96422,134.1737"
       id="path1"
       sodipodi:nodetypes="czzzzzzzzzzzzzzzzzzzzzzzzzzzzzzc" />
  </g>
</svg>
