<?xml version="1.0" encoding="UTF-8" standalone="no"?>
<svg
   height="6675px"
   version="1.1"
   width="5062px"
   id="svg6"
   sodipodi:docname="chen_2024_svgdigitizer_4958_f3c_olive.svg"
   inkscape:version="1.3.2 (091e20e, 2023-11-25)"
   xmlns:inkscape="http://www.inkscape.org/namespaces/inkscape"
   xmlns:sodipodi="http://sodipodi.sourceforge.net/DTD/sodipodi-0.dtd"
   xmlns:xlink="http://www.w3.org/1999/xlink"
   xmlns="http://www.w3.org/2000/svg"
   xmlns:svg="http://www.w3.org/2000/svg">
  <sodipodi:namedview
     id="namedview8"
     pagecolor="#ffffff"
     bordercolor="#000000"
     borderopacity="0.25"
     inkscape:showpageshadow="2"
     inkscape:pageopacity="0.0"
     inkscape:pagecheckerboard="0"
     inkscape:deskcolor="#d1d1d1"
     showgrid="false"
     inkscape:zoom="0.25741541"
     inkscape:cx="1627.7192"
     inkscape:cy="5100.7048"
     inkscape:window-width="1440"
     inkscape:window-height="789"
     inkscape:window-x="0"
     inkscape:window-y="25"
     inkscape:window-maximized="0"
     inkscape:current-layer="svg6"
     inkscape:pageshadow="2" />
  <defs
     id="defs2">
    <rect
       x="76.862678"
       y="4480.8094"
       width="392.85369"
       height="62.628849"
       id="rect515" />
    <rect
       x="91.096507"
       y="4361.2453"
       width="464.02283"
       height="119.56417"
       id="rect509" />
    <rect
       x="71.169146"
       y="4230.294"
       width="444.09547"
       height="79.709448"
       id="rect503" />
    <rect
       x="1103.1062"
       y="5720.8534"
       width="326.10072"
       height="74.479797"
       id="rect490" />
    <rect
       x="696.48673"
       y="5690.6589"
       width="341.19798"
       height="86.557603"
       id="rect477" />
    <rect
       x="277.55967"
       y="4627.4179"
       width="345.88205"
       height="65.475615"
       id="rect462" />
    <rect
       x="400.58052"
       y="4452.684"
       width="337.2711"
       height="66.218422"
       id="rect244" />
    <rect
       x="370.38601"
       y="4438.5932"
       width="348.24337"
       height="163.05036"
       id="rect238" />
    <rect
       x="402.59349"
       y="4468.7877"
       width="150.97256"
       height="90.583534"
       id="rect232" />
    <inkscape:perspective
       sodipodi:type="inkscape:persp3d"
       inkscape:vp_x="0 : 3337.5 : 1"
       inkscape:vp_y="0 : 1000 : 0"
       inkscape:vp_z="5062 : 3337.5 : 1"
       inkscape:persp3d-origin="2531 : 2225 : 1"
       id="perspective170" />
    <rect
       x="71.169144"
       y="4230.2939"
       width="444.09546"
       height="79.70945"
       id="rect503-3" />
    <rect
       x="91.096504"
       y="4361.2451"
       width="464.02283"
       height="119.56417"
       id="rect509-3" />
  </defs>
  <image
     height="6675px"
     sodipodi:insensitive="true"
     width="5062px"
     x="0"
     xlink:href="chen_2024_svgdigitizer_4958_p2.png"
     y="0"
     id="image4" />
  <text
     xml:space="preserve"
     style="font-size:80px;line-height:1.25;font-family:sans-serif;-inkscape-font-specification:sans-serif;letter-spacing:0px;word-spacing:0px"
     x="335.91837"
     y="4136.3506"
     id="text7770"><tspan
       sodipodi:role="line"
       id="tspan7768"
       x="335.91837"
       y="4136.3506">scan rate: 50 mV / s</tspan></text>
  <text
     xml:space="preserve"
     style="font-size:80px;line-height:1.25;font-family:sans-serif;-inkscape-font-specification:sans-serif;letter-spacing:0px;word-spacing:0px"
     x="330.22482"
     y="3957.0044"
     id="text9174"><tspan
       sodipodi:role="line"
       x="330.22482"
       y="3957.0044"
       id="tspan9176">figure: 3c</tspan></text>
  <g
     id="g21003">
    <path
       style="fill:none;fill-rule:evenodd;stroke:#000000;stroke-width:1.01318px;stroke-linecap:butt;stroke-linejoin:miter;stroke-opacity:1"
       d="m 713.12398,4614.6134 85.02886,136.6329"
       id="path466"
       inkscape:connector-type="polyline"
       inkscape:connector-curvature="0" />
    <text
       xml:space="preserve"
       style="font-size:80px;line-height:1.25;font-family:sans-serif;-inkscape-font-specification:sans-serif;letter-spacing:0px;word-spacing:0px"
       x="153.72534"
       y="4620.3008"
       id="text12078"><tspan
         sodipodi:role="line"
         id="tspan12076"
         x="153.72534"
         y="4620.3008">j2: 50 uA / cm2</tspan></text>
  </g>
  <g
     id="g14202">
    <path
       style="fill:none;fill-rule:evenodd;stroke:#000000;stroke-width:1.03582px;stroke-linecap:butt;stroke-linejoin:miter;stroke-opacity:1"
       d="M 669.00263,5565.4145 799.92854,5430.9302"
       id="path451"
       inkscape:connector-type="polyline"
       inkscape:connector-curvature="0" />
    <text
       xml:space="preserve"
       style="font-size:80px;line-height:1.25;font-family:sans-serif;-inkscape-font-specification:sans-serif;letter-spacing:0px;word-spacing:0px"
       x="92.746017"
       y="5599.541"
       id="text12078-9"><tspan
         sodipodi:role="line"
         id="tspan12076-7"
         x="92.746017"
         y="5599.541">j1: -50 uA / cm2</tspan></text>
  </g>
  <g
     id="g20959"
     transform="translate(680.30632,-0.28825131)">
    <path
       style="fill:none;fill-rule:evenodd;stroke:#000000;stroke-width:1.03994px;stroke-linecap:butt;stroke-linejoin:miter;stroke-opacity:1"
       d="M 740.79586,5746.0058 808.4268,5566.3931"
       id="path481"
       inkscape:connector-type="polyline"
       inkscape:connector-curvature="0" />
    <text
       xml:space="preserve"
       style="font-size:80px;line-height:1.25;font-family:sans-serif;-inkscape-font-specification:sans-serif;letter-spacing:0px;word-spacing:0px"
       x="146.60843"
       y="5780.3579"
       id="text15529"><tspan
         sodipodi:role="line"
         id="tspan15527"
         x="146.60843"
         y="5780.3579">E1: 0.0 V vs RHE</tspan></text>
  </g>
  <g
     id="g20954"
     transform="translate(679.7507,-4.9796444)">
    <path
       style="fill:none;fill-rule:evenodd;stroke:#000000;stroke-width:1px;stroke-linecap:butt;stroke-linejoin:miter;stroke-opacity:1"
       d="m 1253.0722,5764.1322 103.6679,-193.2448"
       id="path494"
       inkscape:connector-type="polyline"
       inkscape:connector-curvature="0" />
    <text
       xml:space="preserve"
       style="font-size:80px;line-height:1.25;font-family:sans-serif;-inkscape-font-specification:sans-serif;letter-spacing:0px;word-spacing:0px"
       x="1267.2344"
       y="5788.8706"
       id="text15529-1"><tspan
         sodipodi:role="line"
         id="tspan15527-0"
         x="1267.2344"
         y="5788.8706">E2: 0.8 V vs RHE</tspan></text>
  </g>
  <g
     id="g2">
    <text
       xml:space="preserve"
       style="font-size:80px;line-height:1.25;font-family:sans-serif;-inkscape-font-specification:sans-serif;letter-spacing:0px;word-spacing:0px"
       x="1946.2184"
       y="4812.5122"
       id="text3406"><tspan
         sodipodi:role="line"
         id="tspan3404"
         x="1946.2184"
         y="4812.5122">curve: olive</tspan></text>
    <path
       style="fill:none;stroke:#00ffff;stroke-width:3.8"
       d="m 1558.4606,4983.4934 c 0,0 18.1814,15.7926 27.6693,22.8696 9.4878,7.077 15.2906,14.1659 33.4406,12.8724 18.15,-1.2935 37.3615,-38.4189 47.522,-70.3959 10.1605,-31.977 16.4026,-64.2713 22.4632,-94.9614 6.0606,-30.6902 9.0338,-89.1902 14.7143,-89.408 5.6805,-0.2177 6.939,28.9784 14.3903,35.3694 7.4514,6.3911 10.6472,1.1043 18.3496,6.9803 7.7024,5.876 14.8994,24.0889 22.5648,35.2488 7.6654,11.1598 14.43,15.8647 23.8986,34.0017 9.4686,18.1369 11.6632,50.2382 20.3989,71.4058 8.7358,21.1676 11.2889,39.7279 25.5711,48.3243 14.2823,8.5965 35.7834,2.7392 52.3661,6.3135 16.5826,3.5742 32.4057,13.1885 49.7937,22.3954 17.388,9.2068 25.8603,19.9883 56.5665,23.5556 30.7062,3.5673 44.6041,-28.4269 47.0816,-22.4632 2.4775,5.9636 -0.6217,82.3973 -0.5462,96.3926 0.076,13.9953 -32.7867,-2.2577 -65.6153,5.5639 -32.8286,7.8216 -48.5823,35.3644 -73.2964,43.3935 -24.7141,8.0291 -45.6513,-0.8928 -66.4706,5.6655 -20.8193,6.5583 -28.9257,63.9524 -40.8995,100.1484 -11.9738,36.1961 -19.1264,40.7725 -27.3792,53.3421 -8.2528,12.5696 -16.2554,36.483 -22.9416,39.3285 -6.6862,2.8455 -9.727,-4.4547 -18.0256,-2.7311 -8.2986,1.7236 -8.7251,30.2892 -15.5167,30.1104 -6.7917,-0.1788 -13.5207,-58.5409 -22.4739,-98.9572 -8.9533,-40.4162 -31.7794,-127.3135 -64.0317,-131.3404 -32.2522,-4.027 -62.2701,59.4164 -62.2701,59.4164"
       id="path1"
       sodipodi:nodetypes="czzzzzzzzzzzzzzzzzzzzzzzzzzc" />
  </g>
</svg>
