<?xml version="1.0" encoding="UTF-8" standalone="no"?>
<svg
   height="6675px"
   version="1.1"
   width="5062px"
   id="svg6"
   sodipodi:docname="chen_2024_deconvolution_4958_f3b_orange.svg"
   inkscape:version="1.3.2 (091e20e, 2023-11-25)"
   xmlns:inkscape="http://www.inkscape.org/namespaces/inkscape"
   xmlns:sodipodi="http://sodipodi.sourceforge.net/DTD/sodipodi-0.dtd"
   xmlns:xlink="http://www.w3.org/1999/xlink"
   xmlns="http://www.w3.org/2000/svg"
   xmlns:svg="http://www.w3.org/2000/svg">
  <sodipodi:namedview
     id="namedview8"
     pagecolor="#ffffff"
     bordercolor="#000000"
     borderopacity="0.25"
     inkscape:showpageshadow="2"
     inkscape:pageopacity="0.0"
     inkscape:pagecheckerboard="0"
     inkscape:deskcolor="#d1d1d1"
     showgrid="false"
     inkscape:zoom="0.35179749"
     inkscape:cx="1068.7967"
     inkscape:cy="4263.8167"
     inkscape:window-width="1440"
     inkscape:window-height="781"
     inkscape:window-x="0"
     inkscape:window-y="25"
     inkscape:window-maximized="0"
     inkscape:current-layer="svg6"
     inkscape:pageshadow="2" />
  <defs
     id="defs2">
    <rect
       x="76.862678"
       y="4480.8094"
       width="392.85369"
       height="62.628849"
       id="rect515" />
    <rect
       x="91.096507"
       y="4361.2453"
       width="464.02283"
       height="119.56417"
       id="rect509" />
    <rect
       x="71.169146"
       y="4230.294"
       width="444.09547"
       height="79.709448"
       id="rect503" />
    <rect
       x="1103.1062"
       y="5720.8534"
       width="326.10072"
       height="74.479797"
       id="rect490" />
    <rect
       x="696.48673"
       y="5690.6589"
       width="341.19798"
       height="86.557603"
       id="rect477" />
    <rect
       x="277.55967"
       y="4627.4179"
       width="345.88205"
       height="65.475615"
       id="rect462" />
    <rect
       x="400.58052"
       y="4452.684"
       width="337.2711"
       height="66.218422"
       id="rect244" />
    <rect
       x="370.38601"
       y="4438.5932"
       width="348.24337"
       height="163.05036"
       id="rect238" />
    <rect
       x="402.59349"
       y="4468.7877"
       width="150.97256"
       height="90.583534"
       id="rect232" />
    <inkscape:perspective
       sodipodi:type="inkscape:persp3d"
       inkscape:vp_x="0 : 3337.5 : 1"
       inkscape:vp_y="0 : 1000 : 0"
       inkscape:vp_z="5062 : 3337.5 : 1"
       inkscape:persp3d-origin="2531 : 2225 : 1"
       id="perspective170" />
    <rect
       x="71.169144"
       y="4230.2939"
       width="444.09546"
       height="79.70945"
       id="rect503-3" />
    <rect
       x="91.096504"
       y="4361.2451"
       width="464.02283"
       height="119.56417"
       id="rect509-3" />
  </defs>
  <image
     height="6675px"
     sodipodi:insensitive="true"
     width="5062px"
     x="0"
     xlink:href="chen_2024_svgdigitizer_4958_p2.png"
     y="0"
     id="image4" />
  <text
     xml:space="preserve"
     style="font-size:80px;line-height:1.25;font-family:sans-serif;-inkscape-font-specification:sans-serif;letter-spacing:0px;word-spacing:0px"
     x="335.91837"
     y="4136.3506"
     id="text7770"><tspan
       sodipodi:role="line"
       id="tspan7768"
       x="335.91837"
       y="4136.3506">scan rate: 50 mV / s</tspan></text>
  <text
     xml:space="preserve"
     style="font-size:80px;line-height:1.25;font-family:sans-serif;-inkscape-font-specification:sans-serif;letter-spacing:0px;word-spacing:0px"
     x="330.22482"
     y="3957.0044"
     id="text9174"><tspan
       sodipodi:role="line"
       x="330.22482"
       y="3957.0044"
       id="tspan9176">figure: 3b</tspan></text>
  <text
     xml:space="preserve"
     style="font-size:80px;line-height:1.25;font-family:sans-serif;-inkscape-font-specification:sans-serif;letter-spacing:0px;word-spacing:0px"
     x="270.79944"
     y="3839.9424"
     id="text9174-8"><tspan
       sodipodi:role="line"
       x="270.79944"
       y="3839.9424"
       id="tspan9176-0">tags: BCV</tspan></text>
  <g
     id="g21003">
    <path
       style="fill:none;fill-rule:evenodd;stroke:#000000;stroke-width:1.01318px;stroke-linecap:butt;stroke-linejoin:miter;stroke-opacity:1"
       d="m 713.12398,4614.6134 85.02886,136.6329"
       id="path466"
       inkscape:connector-type="polyline"
       inkscape:connector-curvature="0" />
    <text
       xml:space="preserve"
       style="font-size:80px;line-height:1.25;font-family:sans-serif;-inkscape-font-specification:sans-serif;letter-spacing:0px;word-spacing:0px"
       x="153.72534"
       y="4620.3008"
       id="text12078"><tspan
         sodipodi:role="line"
         id="tspan12076"
         x="153.72534"
         y="4620.3008">j2: 50 uA / cm2</tspan></text>
  </g>
  <g
     id="g14202">
    <path
       style="fill:none;fill-rule:evenodd;stroke:#000000;stroke-width:1.03582px;stroke-linecap:butt;stroke-linejoin:miter;stroke-opacity:1"
       d="M 669.00263,5565.4145 799.92854,5430.9302"
       id="path451"
       inkscape:connector-type="polyline"
       inkscape:connector-curvature="0" />
    <text
       xml:space="preserve"
       style="font-size:80px;line-height:1.25;font-family:sans-serif;-inkscape-font-specification:sans-serif;letter-spacing:0px;word-spacing:0px"
       x="92.746017"
       y="5599.541"
       id="text12078-9"><tspan
         sodipodi:role="line"
         id="tspan12076-7"
         x="92.746017"
         y="5599.541">j1: -50 uA / cm2</tspan></text>
  </g>
  <g
     id="g20959">
    <path
       style="fill:none;fill-rule:evenodd;stroke:#000000;stroke-width:1.03994px;stroke-linecap:butt;stroke-linejoin:miter;stroke-opacity:1"
       d="M 740.79586,5746.0058 808.4268,5566.3931"
       id="path481"
       inkscape:connector-type="polyline"
       inkscape:connector-curvature="0" />
    <text
       xml:space="preserve"
       style="font-size:80px;line-height:1.25;font-family:sans-serif;-inkscape-font-specification:sans-serif;letter-spacing:0px;word-spacing:0px"
       x="146.60843"
       y="5780.3579"
       id="text15529"><tspan
         sodipodi:role="line"
         id="tspan15527"
         x="146.60843"
         y="5780.3579">E1: 0.0 V vs RHE</tspan></text>
  </g>
  <g
     id="g20954">
    <path
       style="fill:none;fill-rule:evenodd;stroke:#000000;stroke-width:1px;stroke-linecap:butt;stroke-linejoin:miter;stroke-opacity:1"
       d="m 1253.0722,5764.1322 103.6679,-193.2448"
       id="path494"
       inkscape:connector-type="polyline"
       inkscape:connector-curvature="0" />
    <text
       xml:space="preserve"
       style="font-size:80px;line-height:1.25;font-family:sans-serif;-inkscape-font-specification:sans-serif;letter-spacing:0px;word-spacing:0px"
       x="1267.2344"
       y="5788.8706"
       id="text15529-1"><tspan
         sodipodi:role="line"
         id="tspan15527-0"
         x="1267.2344"
         y="5788.8706">E2: 0.8 V vs RHE</tspan></text>
  </g>
  <g
     id="g1">
    <text
       xml:space="preserve"
       style="font-size:80px;line-height:1.25;font-family:sans-serif;-inkscape-font-specification:sans-serif;letter-spacing:0px;word-spacing:0px"
       x="1183.8987"
       y="4922.0581"
       id="text3406"><tspan
         sodipodi:role="line"
         id="tspan3404"
         x="1183.8987"
         y="4922.0581">curve: orange</tspan></text>
    <path
       style="fill:none;stroke:#00ffff;stroke-width:3.8"
       d="m 874.71087,5037.1683 c 0,0 1.07785,-15.669 3.19549,-18.6762 2.11764,-3.0072 21.20415,13.0757 32.167,22.8525 10.96284,9.7768 13.07429,19.4814 31.11553,19.1493 18.04124,-0.3321 36.79428,-34.3214 44.90183,-69.3937 8.10755,-35.0723 14.51308,-88.2742 20.66618,-122.1719 6.153,-33.8976 10.5429,-82.1008 15.7683,-81.9195 5.2254,0.1813 5.9352,29.2331 12.8291,29.4211 6.8939,0.1881 13.5063,-15.9329 20.1301,-15.4335 3.3119,0.2497 16.607,17.3613 23.4651,28.5269 6.9492,11.3138 11.8816,14.0841 19.3604,23.9164 14.9576,19.6647 28.828,111.2533 39.9805,129.4965 11.1525,18.2432 45.0345,17.4237 64.2368,26.7617 19.2022,9.338 37.5619,21.0907 50.6419,29.803 13.08,8.7123 10.6618,0.5879 14.5785,0.5831 3.9167,0 1.5294,16.2294 4.3932,16.5606 2.8638,0.3313 2.7418,-10.1571 6.6472,-9.5314 3.9054,0.6256 -5.3916,16.094 28.03,17.4627 33.4216,1.3687 50.5984,-22.2271 50.4142,-14.5863 -0.1842,7.6408 -0.3498,47.6001 -0.2798,57.833 0.07,10.2329 -2.3047,18.7838 -6.1269,17.9988 -3.8222,-0.7849 -46.633,-5.3476 -70.5364,2.5652 -23.9034,7.9128 -38.2749,31.1789 -66.1669,46.9939 -27.8919,15.815 -37.3021,4.4988 -61.2533,13.9875 -23.9512,9.4887 -31.0847,52.347 -36.7378,77.5577 -5.6531,25.2107 -11.3075,45.0599 -17.7662,60.5288 -6.4587,15.4689 -12.3619,23.9939 -20.138,32.1905 -7.7761,8.1966 -12.7194,32.4505 -22.1672,32.6324 -9.4478,0.1818 -10.5215,-26.2335 -20.1458,-25.9459 -9.6243,0.2876 -7.4322,20.2589 -13.6685,20.138 -6.2363,-0.1209 -14.4416,-67.144 -19.8267,-95.0519 -5.38508,-27.9079 -6.18531,-49.5004 -14.28863,-73.0391 -8.10331,-23.5387 -16.28327,-53.7022 -27.18934,-66.7681 -10.90607,-13.0659 -14.58844,-16.0662 -22.66754,-15.8913 -8.0791,0.1749 -13.19861,4.8695 -32.1444,23.9804 -18.94578,19.1108 -32.87414,42.9374 -32.87414,42.9374"
       id="path1"
       sodipodi:nodetypes="czzzzzzzssszzzzzzzzzzzzzzzzzzzzzzzzc" />
  </g>
</svg>
