<?xml version="1.0" encoding="UTF-8" standalone="no"?>
<svg
   height="6615px"
   version="1.1"
   width="4961px"
   id="svg2"
   sodipodi:docname="schouten_2013_the_6_f1_upperleft.svg"
   inkscape:version="1.4.3 (0d15f75, 2025-12-25)"
   xmlns:inkscape="http://www.inkscape.org/namespaces/inkscape"
   xmlns:sodipodi="http://sodipodi.sourceforge.net/DTD/sodipodi-0.dtd"
   xmlns:xlink="http://www.w3.org/1999/xlink"
   xmlns="http://www.w3.org/2000/svg"
   xmlns:svg="http://www.w3.org/2000/svg">
  <sodipodi:namedview
     id="namedview2"
     pagecolor="#ffffff"
     bordercolor="#000000"
     borderopacity="0.25"
     inkscape:showpageshadow="2"
     inkscape:pageopacity="0.0"
     inkscape:pagecheckerboard="0"
     inkscape:deskcolor="#d1d1d1"
     inkscape:zoom="0.32752459"
     inkscape:cx="1958.6316"
     inkscape:cy="1804.4447"
     inkscape:window-width="1920"
     inkscape:window-height="1010"
     inkscape:window-x="3449"
     inkscape:window-y="-6"
     inkscape:window-maximized="1"
     inkscape:current-layer="digitization-layer" />
  <defs
     id="defs1" />
  <g
     class="layer"
     id="image-layer"
     inkscape:groupmode="layer"
     sodipodi:insensitive="1">
    <title
       id="title1">image-layer</title>
    <image
       height="6615"
       width="4961"
       x="0"
       xlink:href="schouten_2013_the_6_p3.png"
       y="0"
       id="image1" />
  </g>
  <g
     class="layer"
     id="digitization-layer"
     inkscape:groupmode="layer">
    <title
       id="title2">digitization-layer</title>
    <g
       id="g11"
       transform="translate(668.60287,354.38955)"
       inkscape:label="E1">
      <text
         xml:space="preserve"
         style="font-style:normal;font-variant:normal;font-weight:normal;font-stretch:normal;font-size:42.6667px;line-height:0;font-family:sans-serif;-inkscape-font-specification:sans-serif;text-align:start;writing-mode:lr-tb;direction:ltr;text-anchor:start;fill:#000000;stroke-width:2"
         x="319.00269"
         y="2013.4805"
         id="text5"><tspan
           sodipodi:role="line"
           id="tspan5"
           x="319.00269"
           y="2013.4805">E1: -0.3 V vs RHE</tspan></text>
      <path
         style="fill:#000000;fill-opacity:1;stroke:#000000;stroke-width:2;stroke-opacity:1"
         d="m 597.45799,1899.0069 88.03937,98.1202"
         id="path9" />
    </g>
    <g
       id="g3"
       inkscape:label="E2"
       transform="translate(1201.3895,687.52714)">
      <text
         xml:space="preserve"
         style="font-style:normal;font-variant:normal;font-weight:normal;font-stretch:normal;font-size:42.6667px;line-height:0;font-family:sans-serif;-inkscape-font-specification:sans-serif;text-align:start;writing-mode:lr-tb;direction:ltr;text-anchor:start;fill:#000000;stroke-width:2"
         x="1138.9113"
         y="2009.0001"
         id="text6"
         transform="translate(-458.77585,-334.5653)"><tspan
           sodipodi:role="line"
           id="tspan6"
           x="1138.9113"
           y="2009.0001">E2: 0.4 V vs RHE</tspan></text>
      <path
         style="fill:#000000;fill-opacity:1;stroke:#000000;stroke-width:2;stroke-opacity:1"
         d="m 1143.0517,1993.3707 75.7177,-93.9343"
         id="path10"
         transform="translate(-458.77585,-334.5653)" />
    </g>
    <g
       id="g2"
       transform="translate(614.21449,228.99235)"
       inkscape:label="j1"
       inkscape:transform-center-x="-64.227653"
       inkscape:transform-center-y="-18.860682">
      <text
         xml:space="preserve"
         style="font-style:normal;font-variant:normal;font-weight:normal;font-stretch:normal;font-size:42.6667px;line-height:0;font-family:sans-serif;-inkscape-font-specification:sans-serif;text-align:start;writing-mode:lr-tb;direction:ltr;text-anchor:start;fill:#000000;stroke-width:2"
         x="101.67587"
         y="1842.6377"
         id="text1"><tspan
           id="tspan1"
           x="101.67587"
           y="1842.6377"
           sodipodi:role="line"
           style="font-size:42.6667px">j1: -0.4 A / m2</tspan></text>
      <path
         style="fill:#000000;fill-opacity:1;stroke:#000000;stroke-width:2;stroke-opacity:1"
         d="m 429.59483,1832.7478 105.81465,54.4914"
         id="path8" />
    </g>
    <g
       id="g14"
       transform="translate(627.02251,927.45889)"
       inkscape:label="j2">
      <text
         xml:space="preserve"
         style="font-style:normal;font-variant:normal;font-weight:normal;font-stretch:normal;font-size:42.6667px;line-height:0;font-family:sans-serif;-inkscape-font-specification:sans-serif;text-align:start;writing-mode:lr-tb;direction:ltr;text-anchor:start;fill:#000000;stroke-width:2"
         x="187.69908"
         y="521.82312"
         id="text2"
         transform="translate(-49.986726,53.2753)"><tspan
           sodipodi:role="line"
           id="tspan2"
           x="187.69908"
           y="521.82312">j2: 0.4 A / m2</tspan></text>
      <path
         style="fill:#000000;fill-opacity:1;stroke:#000000;stroke-width:2.19273;stroke-opacity:1"
         d="m 495.16181,510.82767 76.81582,54.50038"
         id="path7"
         sodipodi:nodetypes="cc"
         transform="translate(-49.986726,53.2753)" />
    </g>
    <text
       xml:space="preserve"
       style="font-size:42.6667px;line-height:0;font-family:sans-serif;-inkscape-font-specification:sans-serif;text-align:start;writing-mode:lr-tb;direction:ltr;text-anchor:start;fill:#000000;stroke:#000000;stroke-width:2"
       x="155.02477"
       y="1809.1188"
       id="text8"
       inkscape:label="scan rate"><tspan
         sodipodi:role="line"
         id="tspan8"
         x="155.02477"
         y="1809.1188"
         style="stroke:none">scan rate: 50 mV / s </tspan></text>
    <text
       xml:space="preserve"
       style="font-size:42.6667px;line-height:0;font-family:sans-serif;-inkscape-font-specification:sans-serif;text-align:start;writing-mode:lr-tb;direction:ltr;text-anchor:start;fill:#000000;stroke:none;stroke-width:2"
       x="251.65367"
       y="1885.3636"
       id="text10"
       inkscape:label="figure"><tspan
         sodipodi:role="line"
         id="tspan10"
         x="251.65367"
         y="1885.3636">figure: 1</tspan></text>
    <text
       xml:space="preserve"
       style="font-size:42.6667px;line-height:0;font-family:sans-serif;-inkscape-font-specification:sans-serif;text-align:start;writing-mode:lr-tb;direction:ltr;text-anchor:start;fill:none;stroke:#000000;stroke-width:0.5;stroke-dasharray:none;stroke-opacity:1"
       x="242.93394"
       y="1943.8845"
       id="text15"
       inkscape:label="tags"><tspan
         sodipodi:role="line"
         id="tspan15"
         x="242.93394"
         y="1943.8845"
         style="fill:#000000;fill-opacity:1;stroke:#000000;stroke-opacity:1">tags: BCV</tspan></text>
    <g
       id="g4">
      <path
         style="fill:none;stroke:#ee1024"
         d="m 297.0516,1069.4473 c 0,0 16.78752,-72.85515 22.6689,-119.41654 3.21563,-25.45729 15.18867,-76.76355 20.9147,-76.7774 8.68045,-0.021 18.68225,59.01554 23.6135,81.0953 7.29871,32.68009 14.96814,65.30354 26.8518,88.11194 13.01812,24.9858 27.40782,39.7972 64.3635,54.7831 32.62097,13.2281 69.3728,15.6393 104.5738,15.6619 48.45393,0.031 91.35599,-6.4398 131.2907,-49.1255 20.56498,-21.9816 33.41025,-50.9344 50.4652,-74.88834 14.64291,-20.56617 22.41545,-66.68962 36.7021,-66.2525 9.758,0.29856 22.91333,29.21666 30.495,29.5505 14.90302,0.65622 21.44148,-52.82868 21.7244,-49.9256 0.24896,2.55457 -1.08692,143.09284 -1.6192,216.02924 -0.31056,42.5556 -1.85912,83.7918 -6.3419,127.5126 -1.67322,16.319 -6.74354,45.1527 -17.8113,45.8775 -2.995,0.1961 -4.82556,-3.3762 -7.8262,-3.3078 -11.79442,0.2684 -16.86728,25.9607 -24.423,40.0098 -14.66983,27.2771 -19.6528,97.8519 -27.5265,97.6922 -7.59228,-0.154 -13.9597,-57.5638 -17.2716,-86.0879 -3.55316,-30.6019 -6.47424,-64.4525 -23.2086,-89.4611 -14.29192,-21.3585 -21.76324,-33.6298 -36.98451,-40.8027 -17.13832,-8.0762 -20.44743,-11.631 -42.91249,-24.9534 -14.957,-8.8699 -69.42179,-9.9277 -88.3656,-10.2117 -41.73004,-0.6255 -91.29214,3.5974 -123.63218,23.0737 -31.89226,19.2066 -48.17195,43.923 -59.87792,93.914 -7.51727,32.1029 -11.63098,65.1423 -16.327,97.5572 -4.27221,29.4895 -11.61492,87.7694 -17.9462,87.5721 -10.61363,-0.3307 -13.32189,-118.7167 -21.25209,-174.8069 0,0 -7.11083,-54.1008 -14.64031,-80.2182 -10.70073,-37.1175 -40.9614,-43.2204 -68.4115,-48.7111 -23.3272,-4.6661 -71.78269,-1.5641 -107.6773,-1.3494 -67.020547,0.4008 -94.686179,13.2919 -98.6366965,10.6598 -1.7312315,-1.1534 -1.6230875,-50.3539 -0.8096035,-50.6002 4.366053,-1.3219 6.975422,-5.1874 7.9611,-5.2624 2.192077,-0.1669 4.305043,3.5051 5.6673,3.3733 34.694002,-3.3558 104.30331,-6.04 128.0522,-5.3974 82.39711,2.2297 90.81293,-6.7471 98.097,-7.8261 39.44956,-5.844 47.9015,-40.885 47.9015,-40.885"
         id="path1"
         sodipodi:nodetypes="cssssssssssssssssssssssssssssssssssssc"
         transform="translate(1201.3895,687.52714)" />
      <text
         xml:space="preserve"
         style="font-size:42.6667px;line-height:0;font-family:sans-serif;-inkscape-font-specification:sans-serif;text-align:start;writing-mode:lr-tb;direction:ltr;text-anchor:start;fill:#000000;stroke:#000000;stroke-width:2"
         x="226.17467"
         y="1731.8304"
         id="text7"
         inkscape:label="curve"><tspan
           sodipodi:role="line"
           id="tspan7"
           x="226.17467"
           y="1731.8304"
           style="stroke:none">curve: black</tspan></text>
    </g>
  </g>
</svg>
