<?xml version="1.0" encoding="UTF-8" standalone="no"?>
<svg
   height="6615px"
   version="1.1"
   width="4961px"
   id="svg2"
   sodipodi:docname="schouten_2013_the_6_f1_uppermiddle.svg"
   inkscape:version="1.4.3 (0d15f75, 2025-12-25)"
   xmlns:inkscape="http://www.inkscape.org/namespaces/inkscape"
   xmlns:sodipodi="http://sodipodi.sourceforge.net/DTD/sodipodi-0.dtd"
   xmlns:xlink="http://www.w3.org/1999/xlink"
   xmlns="http://www.w3.org/2000/svg"
   xmlns:svg="http://www.w3.org/2000/svg">
  <sodipodi:namedview
     id="namedview2"
     pagecolor="#ffffff"
     bordercolor="#000000"
     borderopacity="0.25"
     inkscape:showpageshadow="2"
     inkscape:pageopacity="0.0"
     inkscape:pagecheckerboard="0"
     inkscape:deskcolor="#d1d1d1"
     inkscape:zoom="0.32752459"
     inkscape:cx="1995.27"
     inkscape:cy="1489.9645"
     inkscape:window-width="1920"
     inkscape:window-height="1010"
     inkscape:window-x="3449"
     inkscape:window-y="-6"
     inkscape:window-maximized="1"
     inkscape:current-layer="g3" />
  <defs
     id="defs1" />
  <g
     class="layer"
     id="image-layer"
     inkscape:groupmode="layer"
     sodipodi:insensitive="1">
    <title
       id="title1">image-layer</title>
    <image
       height="6615"
       width="4961"
       x="0"
       xlink:href="schouten_2013_the_6_p3.png"
       y="0"
       id="image1" />
  </g>
  <g
     class="layer"
     id="digitization-layer"
     inkscape:groupmode="layer">
    <title
       id="title2">digitization-layer</title>
    <g
       id="g11"
       transform="translate(1574.5168,354.46434)"
       inkscape:label="E1">
      <text
         xml:space="preserve"
         style="font-style:normal;font-variant:normal;font-weight:normal;font-stretch:normal;font-size:42.6667px;line-height:0;font-family:sans-serif;-inkscape-font-specification:sans-serif;text-align:start;writing-mode:lr-tb;direction:ltr;text-anchor:start;fill:#000000;stroke-width:2"
         x="319.00269"
         y="2013.4805"
         id="text5"><tspan
           sodipodi:role="line"
           id="tspan5"
           x="319.00269"
           y="2013.4805">E1: -0.2 V vs RHE</tspan></text>
      <path
         style="fill:#000000;fill-opacity:1;stroke:#000000;stroke-width:2;stroke-opacity:1"
         d="m 597.45799,1899.0069 88.03937,98.1202"
         id="path9" />
    </g>
    <g
       id="g3"
       inkscape:label="E2"
       transform="translate(2108.5607,688.2455)">
      <text
         xml:space="preserve"
         style="font-style:normal;font-variant:normal;font-weight:normal;font-stretch:normal;font-size:42.6667px;line-height:0;font-family:sans-serif;-inkscape-font-specification:sans-serif;text-align:start;writing-mode:lr-tb;direction:ltr;text-anchor:start;fill:#000000;stroke-width:2"
         x="1138.9113"
         y="2009.0001"
         id="text6"
         transform="translate(-458.7758,-334.5653)"><tspan
           sodipodi:role="line"
           id="tspan6"
           x="1138.9113"
           y="2009.0001">E2: 0.4 V vs RHE</tspan></text>
      <path
         style="fill:#000000;fill-opacity:1;stroke:#000000;stroke-width:2;stroke-opacity:1"
         d="m 1143.0517,1993.3707 75.7177,-93.9343"
         id="path10"
         transform="translate(-458.7758,-334.5653)" />
    </g>
    <g
       id="g2"
       transform="translate(614.30051,-613.43307)"
       inkscape:label="j1"
       inkscape:transform-center-x="-64.227653"
       inkscape:transform-center-y="-18.860682">
      <text
         xml:space="preserve"
         style="font-style:normal;font-variant:normal;font-weight:normal;font-stretch:normal;font-size:42.6667px;line-height:0;font-family:sans-serif;-inkscape-font-specification:sans-serif;text-align:start;writing-mode:lr-tb;direction:ltr;text-anchor:start;fill:#000000;stroke-width:2"
         x="101.67587"
         y="1842.6377"
         id="text1"><tspan
           id="tspan1"
           x="101.67587"
           y="1842.6377"
           sodipodi:role="line"
           style="font-size:42.6667px">j1: -0.4 A / m2</tspan></text>
      <path
         style="fill:#000000;fill-opacity:1;stroke:#000000;stroke-width:2;stroke-opacity:1"
         d="m 429.59483,1832.7478 105.81465,54.4914"
         id="path8" />
    </g>
    <g
       id="g14"
       transform="translate(628.0365,86.081156)"
       inkscape:label="j2">
      <text
         xml:space="preserve"
         style="font-style:normal;font-variant:normal;font-weight:normal;font-stretch:normal;font-size:42.6667px;line-height:0;font-family:sans-serif;-inkscape-font-specification:sans-serif;text-align:start;writing-mode:lr-tb;direction:ltr;text-anchor:start;fill:#000000;stroke-width:2"
         x="187.69908"
         y="521.82312"
         id="text2"
         transform="translate(-49.986726,53.2753)"><tspan
           sodipodi:role="line"
           id="tspan2"
           x="187.69908"
           y="521.82312">j2: 0.4 A / m2</tspan></text>
      <path
         style="fill:#000000;fill-opacity:1;stroke:#000000;stroke-width:2.19273;stroke-opacity:1"
         d="m 495.16181,510.82767 76.81582,54.50038"
         id="path7"
         sodipodi:nodetypes="cc"
         transform="translate(-49.986726,53.2753)" />
    </g>
    <text
       xml:space="preserve"
       style="font-size:42.6667px;line-height:0;font-family:sans-serif;-inkscape-font-specification:sans-serif;text-align:start;writing-mode:lr-tb;direction:ltr;text-anchor:start;fill:#000000;stroke:#000000;stroke-width:2"
       x="237.06458"
       y="885.09137"
       id="text8"
       inkscape:label="scan rate"><tspan
         sodipodi:role="line"
         id="tspan8"
         x="237.06458"
         y="885.09137"
         style="stroke:none">scan rate: 50 mV / s </tspan></text>
    <text
       xml:space="preserve"
       style="font-size:42.6667px;line-height:0;font-family:sans-serif;-inkscape-font-specification:sans-serif;text-align:start;writing-mode:lr-tb;direction:ltr;text-anchor:start;fill:#000000;stroke:none;stroke-width:2"
       x="333.69348"
       y="961.33624"
       id="text10"
       inkscape:label="figure"><tspan
         sodipodi:role="line"
         id="tspan10"
         x="333.69348"
         y="961.33624">figure: 1</tspan></text>
    <text
       xml:space="preserve"
       style="font-size:42.6667px;line-height:0;font-family:sans-serif;-inkscape-font-specification:sans-serif;text-align:start;writing-mode:lr-tb;direction:ltr;text-anchor:start;fill:none;stroke:#000000;stroke-width:0.5;stroke-dasharray:none;stroke-opacity:1"
       x="324.97375"
       y="1019.8571"
       id="text15"
       inkscape:label="tags"><tspan
         sodipodi:role="line"
         id="tspan15"
         x="324.97375"
         y="1019.8571"
         style="fill:#000000;fill-opacity:1;stroke:#000000;stroke-opacity:1">tags: BCV</tspan></text>
    <g
       id="g1">
      <text
         xml:space="preserve"
         style="font-size:42.6667px;line-height:0;font-family:sans-serif;-inkscape-font-specification:sans-serif;text-align:start;writing-mode:lr-tb;direction:ltr;text-anchor:start;fill:#000000;stroke:#000000;stroke-width:2"
         x="308.21448"
         y="807.80304"
         id="text7"
         inkscape:label="curve"><tspan
           sodipodi:role="line"
           id="tspan7"
           x="308.21448"
           y="807.80304"
           style="stroke:none">curve: black</tspan></text>
      <path
         style="fill:none;stroke:#ee1024"
         d="m 2403.9826,963.42813 c 0,0 78.083,5.48455 247.4688,3.23841 65.4333,-0.86768 80.6526,-10.30375 113.0746,-13.49339 20.5495,-2.02164 55.4611,-16.4111 58.2914,-21.8593 7.2116,-13.88161 28.2556,-56.60263 35.3527,-56.94211 2.049,-0.098 3.5807,3.23637 5.1275,1.88908 22.5998,-19.6843 20.92,-32.23143 25.6374,-43.98846 5.0075,-12.48 8.7624,-35.77405 14.8428,-35.89241 9.4957,-0.18485 18.552,27.87462 23.7483,28.60598 2.8686,0.40374 6.3611,-6.27712 7.8262,-3.77815 3.3057,5.63848 -0.3858,146.0895 0,219.13272 0.1319,24.9712 -5.9232,66.2204 -8.9056,68.8162 -14.103,12.2749 -28.2354,76.1928 -36.1623,76.3726 -9.42,0.2137 -8.1539,-55.7121 -26.4471,-80.1507 -28.8002,-38.4755 -49.1238,-38.1172 -59.101,-47.2269 -1.8374,-1.6776 -4.9602,2.5017 -7.2865,1.6192 -10.1784,-3.8612 -10.3792,-20.0132 -19.1606,-26.447 -14.6362,-10.7233 -64.9089,-8.9322 -78.5315,-11.8742 -15.5106,-3.3499 -48.2741,-3.6805 -88.4694,-2.8482 -40.1953,0.8324 -80.7662,1.6246 -89.3735,2.0386 -46.1466,2.2194 -104.3676,3.9864 -133.0448,8.9056 -57.1636,9.8057 -90.4392,28.2275 -117.9323,108.217 -13.2045,38.4176 -28.9065,124.5613 -41.5596,124.4091 -18.0693,-0.2174 -29.6216,-109.4195 -44.5282,-163.8098 -7.3755,-26.9115 -17.0723,-63.8764 -71.515,-70.9752 0,0 0.7724,-38.38308 2.1589,-40.48018 1.7783,-2.68958 39.9275,-11.02902 58.5614,-39.13083 22.9984,-34.68392 25.0408,-78.00932 35.6225,-116.85277 7.8953,-28.98224 17.5181,-81.45746 33.1938,-82.30968 13.1474,-0.71476 31.6352,81.16127 49.3858,131.42563 8.7582,24.80071 23.587,49.5908 45.0679,64.76828 17.52,12.37891 62.0696,17.00167 62.0696,17.00167"
         id="path1"
         sodipodi:nodetypes="cssssssssssssssssssssssssssssssc" />
    </g>
  </g>
</svg>
