<?xml version="1.0" encoding="UTF-8" standalone="no"?>
<svg
   height="6591px"
   version="1.1"
   width="4961px"
   id="svg6"
   sodipodi:docname="hu_2015_an_877_f1d_solid.svg"
   inkscape:version="1.1.1 (3bf5ae0d25, 2021-09-20)"
   xmlns:inkscape="http://www.inkscape.org/namespaces/inkscape"
   xmlns:sodipodi="http://sodipodi.sourceforge.net/DTD/sodipodi-0.dtd"
   xmlns:xlink="http://www.w3.org/1999/xlink"
   xmlns="http://www.w3.org/2000/svg"
   xmlns:svg="http://www.w3.org/2000/svg">
  <sodipodi:namedview
     id="namedview8"
     pagecolor="#ffffff"
     bordercolor="#666666"
     borderopacity="1.0"
     inkscape:pageshadow="2"
     inkscape:pageopacity="0.0"
     inkscape:pagecheckerboard="0"
     showgrid="false"
     inkscape:zoom="0.50493099"
     inkscape:cx="3964.8983"
     inkscape:cy="4752.1346"
     inkscape:window-width="1920"
     inkscape:window-height="1017"
     inkscape:window-x="1912"
     inkscape:window-y="-8"
     inkscape:window-maximized="1"
     inkscape:current-layer="svg6" />
  <defs
     id="defs2" />
  <image
     height="6591px"
     sodipodi:insensitive="true"
     width="4961px"
     x="0"
     xlink:href="hu_2015_an_877_p1.png"
     y="0"
     id="image4" />
  <g
     id="g34729">
    <text
       xml:space="preserve"
       style="font-style:normal;font-variant:normal;font-weight:normal;font-stretch:normal;font-size:29.3333px;line-height:1.25;font-family:Arial;-inkscape-font-specification:Arial;letter-spacing:0px;word-spacing:0px;fill:#000000;fill-opacity:1;stroke:none"
       x="2809.2083"
       y="5455.9697"
       id="text1707"><tspan
         sodipodi:role="line"
         id="tspan1705"
         x="2809.2083"
         y="5455.9697">E1: 0.0 V vs Li/Li+</tspan></text>
    <path
       style="fill:none;stroke:#000000;stroke-width:1px;stroke-linecap:butt;stroke-linejoin:miter;stroke-opacity:1"
       d="m 2785.5293,5310.627 c 70.3067,141.6034 69.3164,141.6035 69.3164,141.6035"
       id="path34090"
       sodipodi:nodetypes="cc" />
  </g>
  <g
     id="g34724">
    <text
       xml:space="preserve"
       style="font-style:normal;font-variant:normal;font-weight:normal;font-stretch:normal;font-size:29.3333px;line-height:1.25;font-family:Arial;-inkscape-font-specification:Arial;letter-spacing:0px;word-spacing:0px;fill:#000000;fill-opacity:1;stroke:none"
       x="3912.7256"
       y="5423.7603"
       id="text3647"><tspan
         sodipodi:role="line"
         id="tspan3645"
         x="3912.7256"
         y="5423.7603">E2: 3.0 V vs Li/Li+</tspan></text>
    <path
       style="fill:none;stroke:#000000;stroke-width:1px;stroke-linecap:butt;stroke-linejoin:miter;stroke-opacity:1"
       d="m 3996.5859,5411.6309 c 165.3692,-101.0039 165.3692,-101.9942 165.3692,-101.9942"
       id="path34092" />
  </g>
  <g
     id="g34719">
    <text
       xml:space="preserve"
       style="font-style:normal;font-variant:normal;font-weight:normal;font-stretch:normal;font-size:29.3333px;line-height:1.25;font-family:Arial;-inkscape-font-specification:Arial;letter-spacing:0px;word-spacing:0px;fill:#000000;fill-opacity:1;stroke:none"
       x="4447.6797"
       y="5013.4424"
       id="text28411"><tspan
         sodipodi:role="line"
         id="tspan28409"
         x="4447.6797"
         y="5013.4424">j_scale_bar: 100 uA / cm2</tspan></text>
    <path
       style="fill:none;stroke:#000000;stroke-width:1px;stroke-linecap:butt;stroke-linejoin:miter;stroke-opacity:1"
       d="m 3811.4121,5088.8145 c 647.6133,-84.17 647.6133,-84.17 647.6133,-84.17"
       id="path34572" />
    <path
       style="fill:none;stroke:#000000;stroke-width:1px;stroke-linecap:butt;stroke-linejoin:miter;stroke-opacity:1"
       d="m 3812.4023,5171.9941 c 646.6231,-167.3496 646.6231,-167.3496 646.6231,-167.3496"
       id="path34574" />
  </g>
  <g
     id="g34713"
     transform="translate(-5.4917817,561.05155)">
    <text
       xml:space="preserve"
       style="font-style:normal;font-variant:normal;font-weight:normal;font-stretch:normal;font-size:29.3333px;line-height:1.25;font-family:Arial;-inkscape-font-specification:Arial;letter-spacing:0px;word-spacing:0px;fill:#000000;fill-opacity:1;stroke:none"
       x="4456.082"
       y="4271.229"
       id="text23281"><tspan
         sodipodi:role="line"
         id="tspan23279"
         x="4456.082"
         y="4271.229">j1: 0.0 uA / cm2</tspan></text>
    <path
       style="fill:none;stroke:#000000;stroke-width:1px;stroke-linecap:butt;stroke-linejoin:miter;stroke-opacity:1"
       d="m 4164.9258,4187.7012 c 302.0215,75.2578 302.0215,75.2578 302.0215,75.2578"
       id="path34628" />
  </g>
  <g
     id="g42086"
     transform="translate(-3.6387219,548.25374)">
    <path
       style="fill:none;stroke:#ff0000;stroke-width:1px;stroke-linecap:butt;stroke-linejoin:miter;stroke-opacity:1"
       d="m 4161.9587,4204.0886 c -21.4838,2.6543 -34.0835,2.7796 -82.9,4.4618 -46.1911,1.5918 -106.6334,0.9082 -158.3832,0.5625 -199.2804,-1.3313 -371.1982,4.4084 -460.2474,8.233 -73.7619,3.168 -69.7897,4.1486 -118.9354,4.0496 -185.4264,-0.3736 -202.1968,23.8584 -231.2706,44.7161 -9.9698,7.1524 -32.6736,35.1521 -47.7334,50.023 -10.6173,10.4842 -41.9964,-1.5771 -51.4386,10.5762 -19.3102,24.8545 -25.0667,16.0173 -32.6734,7.6868 -8.9108,-9.7587 -9.5095,-33.8899 -34.8077,-27.2758 -8.875,2.3203 -15.9164,8.5176 -22.537,6.208 -20.0407,-6.9913 -33.0428,1.7867 -47.5925,14.1389 -14.0464,11.9248 -36.1518,13.8334 -44.0129,30.9944 -33.6753,73.5132 -27.295,187.2351 -38.3295,274.604 m 75.6218,-2.1006 c 14.2112,-127.0137 18.4462,-250.3726 47.5158,-372.5423 6.7264,-28.2686 22.6424,-33.7237 32.8477,-50.1045 10.4277,-16.7376 12.5695,-19.8945 23.8926,-9.9705 7.7866,6.8245 19.1936,-2.932 27.1492,-8.0805 10.6053,-6.8633 14.3422,-10.4573 32.6528,-2.3644 19.4647,8.603 70.049,2.3937 115.8691,-0.8298 80.4306,-5.6585 84.0257,-18.6689 93.9446,-61.1101 17.3777,-74.3561 13.7586,-68.1595 33.8021,12.0284 11.7057,46.8313 148.4711,45.3505 197.8972,46.1209 89.7289,1.3988 433.2171,0.9834 520.6904,6.8732 30.8153,2.0749 120.4491,-13.7209 170.3363,-10.2173"
       id="path34764"
       sodipodi:nodetypes="cssssssssssssccssssssssssc" />
    <text
       xml:space="preserve"
       style="font-style:normal;font-variant:normal;font-weight:normal;font-stretch:normal;font-size:29.3333px;line-height:1.25;font-family:Arial;-inkscape-font-specification:Arial;letter-spacing:0px;word-spacing:0px;fill:#000000;fill-opacity:1;stroke:none"
       x="3934.782"
       y="4163.0479"
       id="text41723"><tspan
         sodipodi:role="line"
         id="tspan41721"
         x="3934.782"
         y="4163.0479">curve: solid</tspan></text>
  </g>
  <text
     xml:space="preserve"
     style="font-style:normal;font-variant:normal;font-weight:normal;font-stretch:normal;font-size:29.3333px;line-height:1.25;font-family:Arial;-inkscape-font-specification:Arial;letter-spacing:0px;word-spacing:0px;fill:#000000;fill-opacity:1;stroke:none"
     x="4479.8203"
     y="4057.9805"
     id="text43080"><tspan
       sodipodi:role="line"
       id="tspan43078"
       x="4479.8203"
       y="4057.9805">scan rate: 50 mV / s</tspan></text>
  <text
     xml:space="preserve"
     style="font-style:normal;font-variant:normal;font-weight:normal;font-stretch:normal;font-size:29.3333px;line-height:1.25;font-family:Arial;-inkscape-font-specification:Arial;letter-spacing:0px;word-spacing:0px;fill:#000000;fill-opacity:1;stroke:none"
     x="4489.7227"
     y="4113.4336"
     id="text44602"><tspan
       sodipodi:role="line"
       id="tspan44600"
       x="4489.7227"
       y="4113.4336">figure: 1a</tspan></text>
  <text
     xml:space="preserve"
     style="font-style:normal;font-variant:normal;font-weight:normal;font-stretch:normal;font-size:29.3333px;line-height:1.25;font-family:Arial;-inkscape-font-specification:Arial;letter-spacing:0px;word-spacing:0px;fill:#000000;fill-opacity:1;stroke:none"
     x="4489.7227"
     y="4160.9648"
     id="text46540"><tspan
       sodipodi:role="line"
       id="tspan46538"
       x="4489.7227"
       y="4160.9648">tags: BCV</tspan></text>
</svg>
