<?xml version="1.0" encoding="UTF-8" standalone="no"?>
<svg
   height="6671px"
   version="1.1"
   width="5063px"
   id="svg2"
   sodipodi:docname="tiwari_2020_fingerprint_1450_f1_bluebottom.svg"
   inkscape:version="1.4.2 (f4327f4, 2025-05-13)"
   xmlns:inkscape="http://www.inkscape.org/namespaces/inkscape"
   xmlns:sodipodi="http://sodipodi.sourceforge.net/DTD/sodipodi-0.dtd"
   xmlns:xlink="http://www.w3.org/1999/xlink"
   xmlns="http://www.w3.org/2000/svg"
   xmlns:svg="http://www.w3.org/2000/svg">
  <sodipodi:namedview
     id="namedview2"
     pagecolor="#ffffff"
     bordercolor="#000000"
     borderopacity="0.25"
     inkscape:showpageshadow="2"
     inkscape:pageopacity="0.0"
     inkscape:pagecheckerboard="0"
     inkscape:deskcolor="#d1d1d1"
     inkscape:zoom="0.32477518"
     inkscape:cx="2644.9066"
     inkscape:cy="1316.2952"
     inkscape:window-width="2880"
     inkscape:window-height="1694"
     inkscape:window-x="-11"
     inkscape:window-y="-11"
     inkscape:window-maximized="1"
     inkscape:current-layer="g14" />
  <defs
     id="defs1" />
  <g
     class="layer"
     id="image-layer"
     inkscape:groupmode="layer"
     sodipodi:insensitive="1">
    <title
       id="title1">image-layer</title>
    <image
       height="6671"
       width="5063"
       x="0"
       xlink:href="tiwari_2020_fingerprint_1450_p2.png"
       y="0"
       id="image1" />
  </g>
  <g
     class="layer"
     id="digitization-layer"
     inkscape:groupmode="layer">
    <title
       id="title2">digitization-layer</title>
    <text
       xml:space="preserve"
       style="font-size:42.6667px;line-height:0;font-family:sans-serif;-inkscape-font-specification:sans-serif;text-align:start;writing-mode:lr-tb;direction:ltr;text-anchor:start;fill:#000000;stroke:#000000;stroke-width:2"
       x="4410.2021"
       y="1080.5354"
       id="text8"
       inkscape:label="scan rate"><tspan
         sodipodi:role="line"
         id="tspan8"
         x="4410.2021"
         y="1080.5354"
         style="stroke:none">scan rate: 50 mV / s </tspan></text>
    <text
       xml:space="preserve"
       style="font-size:42.6667px;line-height:0;font-family:sans-serif;-inkscape-font-specification:sans-serif;text-align:start;writing-mode:lr-tb;direction:ltr;text-anchor:start;fill:#000000;stroke:none;stroke-width:2"
       x="4468.0581"
       y="1148.1641"
       id="text10"
       inkscape:label="figure"><tspan
         sodipodi:role="line"
         id="tspan10"
         x="4468.0581"
         y="1148.1641">figure: 1</tspan></text>
    <text
       xml:space="preserve"
       style="font-size:42.6667px;line-height:0;font-family:sans-serif;-inkscape-font-specification:sans-serif;text-align:start;writing-mode:lr-tb;direction:ltr;text-anchor:start;fill:none;stroke:#000000;stroke-width:0.5;stroke-dasharray:none;stroke-opacity:1"
       x="4476.5708"
       y="1202.3767"
       id="text15"
       inkscape:label="tags"><tspan
         sodipodi:role="line"
         id="tspan15"
         x="4476.5708"
         y="1202.3767"
         style="fill:#000000;fill-opacity:1;stroke:#000000;stroke-opacity:1">tags: BCV</tspan></text>
    <g
       id="g14"
       transform="translate(771.21153,902.89194)"
       inkscape:label="j2">
      <text
         xml:space="preserve"
         style="font-style:normal;font-variant:normal;font-weight:normal;font-stretch:normal;font-size:42.6667px;line-height:0;font-family:sans-serif;-inkscape-font-specification:sans-serif;text-align:start;writing-mode:lr-tb;direction:ltr;text-anchor:start;fill:#000000;stroke-width:2"
         x="187.69908"
         y="521.82312"
         id="text2"><tspan
           sodipodi:role="line"
           id="tspan2"
           x="187.69908"
           y="521.82312">j2: 0.1 mA / cm2</tspan></text>
      <path
         style="fill:#000000;fill-opacity:1;stroke:#000000;stroke-width:2.19273;stroke-opacity:1"
         d="m 495.16181,510.82767 76.81582,54.50038"
         id="path7"
         sodipodi:nodetypes="cc" />
    </g>
    <g
       id="g2"
       transform="translate(808.20804,86.742345)"
       inkscape:label="j1">
      <text
         xml:space="preserve"
         style="font-style:normal;font-variant:normal;font-weight:normal;font-stretch:normal;font-size:42.6667px;line-height:0;font-family:sans-serif;-inkscape-font-specification:sans-serif;text-align:start;writing-mode:lr-tb;direction:ltr;text-anchor:start;fill:#000000;stroke-width:2"
         x="101.67587"
         y="1842.6377"
         id="text1"><tspan
           id="tspan1"
           x="101.67587"
           y="1842.6377"
           sodipodi:role="line"
           style="font-size:42.6667px">j1: -0.1 mA / cm2</tspan></text>
      <path
         style="fill:#000000;fill-opacity:1;stroke:#000000;stroke-width:2;stroke-opacity:1"
         d="m 429.59483,1832.7478 105.81465,54.4914"
         id="path8" />
    </g>
    <g
       id="g11"
       transform="translate(1671.056,281.92094)"
       inkscape:label="E1">
      <text
         xml:space="preserve"
         style="font-style:normal;font-variant:normal;font-weight:normal;font-stretch:normal;font-size:42.6667px;line-height:0;font-family:sans-serif;-inkscape-font-specification:sans-serif;text-align:start;writing-mode:lr-tb;direction:ltr;text-anchor:start;fill:#000000;stroke-width:2"
         x="319.00269"
         y="2013.4805"
         id="text5"><tspan
           sodipodi:role="line"
           id="tspan5"
           x="319.00269"
           y="2013.4805">E1: -0.2 V vs RHE</tspan></text>
      <path
         style="fill:#000000;fill-opacity:1;stroke:#000000;stroke-width:2;stroke-opacity:1"
         d="m 597.45799,1899.0069 88.03937,98.1202"
         id="path9" />
    </g>
    <g
       id="g3"
       inkscape:label="E2"
       transform="translate(1711.9458,280.1984)">
      <text
         xml:space="preserve"
         style="font-style:normal;font-variant:normal;font-weight:normal;font-stretch:normal;font-size:42.6667px;line-height:0;font-family:sans-serif;-inkscape-font-specification:sans-serif;text-align:start;writing-mode:lr-tb;direction:ltr;text-anchor:start;fill:#000000;stroke-width:2"
         x="1138.9113"
         y="2009.0001"
         id="text6"><tspan
           sodipodi:role="line"
           id="tspan6"
           x="1138.9113"
           y="2009.0001">E2: 0.4 V vs RHE</tspan></text>
      <path
         style="fill:#000000;fill-opacity:1;stroke:#000000;stroke-width:2;stroke-opacity:1"
         d="m 1143.0517,1993.3707 75.7177,-93.9343"
         id="path10" />
    </g>
    <g
       id="g5">
      <text
         xml:space="preserve"
         style="font-size:42.6667px;line-height:0;font-family:sans-serif;-inkscape-font-specification:sans-serif;text-align:start;writing-mode:lr-tb;direction:ltr;text-anchor:start;fill:#000000;stroke:#000000;stroke-width:2"
         x="4451.1953"
         y="1033.4036"
         id="text7"
         inkscape:label="curve"><tspan
           sodipodi:role="line"
           id="tspan7"
           x="4451.1953"
           y="1033.4036"
           style="stroke:none">curve: bluebottom</tspan></text>
      <path
         style="fill:none;stroke:#f91a24"
         d="m 2768.8385,1741.5894 c 0,0 -152.2026,-1.84 -242.1606,11.0255 -71.936,10.2881 -86.917,15.7028 -153.4977,44.3975 -2.074,0.8938 -29.4029,0.4945 -31.9452,0.3849 -10.1861,-0.4393 -38.5868,-23.1475 -40.9899,-26.5569 -11.2236,-15.9234 -31.1589,-20.1202 -32.1857,-22.3231 -1.8707,-4.0135 -2.0485,-11.2772 -1.9725,-13.2784 0.075,-1.9761 0.099,-7.6397 4.4962,-13.0226 0.1357,-0.1661 6.3496,-0.2458 6.4729,-0.2558 6.3614,-0.5156 23.8971,-16.3839 33.7734,-24.6325 9.8763,-8.2486 22.7581,-21.0428 44.2614,-22.708 21.5033,-1.6652 45.7807,13.1551 75.3405,24.44 49.9139,19.0553 161.6798,29.9127 240.2624,30.2132 45.1065,0.1725 63.4501,2.152 98.2246,1.2014 111.5499,-3.0494 133.6288,-6.5994 160.031,-24.4867 1.5505,-1.0505 17.8988,-0.1797 20.3987,-0.5774 15.0817,-2.399 24.4246,-28.1983 30.2132,-39.6428 6.0671,-11.9952 11.8012,-19.9009 13.8558,-27.519 10.4052,-38.5807 14.5555,-207.8487 24.6461,-207.6436 8.2244,0.1672 15.1039,191.214 23.2716,252.0974 0.4824,3.5961 0.2261,42.0847 -0.3849,47.148 -1.8138,15.0303 -3.7966,20.6094 -9.622,33.0999 -10.3467,22.1847 -14.6253,74.269 -18.0894,120.8528 -3.2323,43.4659 -5.0586,140.161 -10.1994,138.9423 -4.8529,-1.1504 -2.6859,-30.7354 -10.3918,-37.1411 -8.2795,-6.8825 -8.126,-58.1596 -11.8226,-74.1331 -4.8482,-20.9499 -10.2019,-61.2218 -15.4072,-88.6317 -5.5271,-29.1043 -15.342,-48.2242 -36.8297,-51.5813 -8.2045,-1.2818 -18.6406,-20.598 -72.7659,-22.6379 -27.2406,-1.0267 -87.3682,-0.8729 -87.3682,-0.8729"
         id="path3"
         sodipodi:nodetypes="cssssssssssssssssssssssssssssc" />
    </g>
  </g>
</svg>
