<?xml version="1.0" encoding="UTF-8" standalone="no"?>
<svg
   height="6601px"
   version="1.1"
   width="5100px"
   id="svg6"
   sodipodi:docname="borisenko_2006_in_6250_f1_b.svg"
   inkscape:version="1.1.1 (3bf5ae0d25, 2021-09-20)"
   xmlns:inkscape="http://www.inkscape.org/namespaces/inkscape"
   xmlns:sodipodi="http://sodipodi.sourceforge.net/DTD/sodipodi-0.dtd"
   xmlns:xlink="http://www.w3.org/1999/xlink"
   xmlns="http://www.w3.org/2000/svg"
   xmlns:svg="http://www.w3.org/2000/svg">
  <sodipodi:namedview
     id="namedview8"
     pagecolor="#ffffff"
     bordercolor="#666666"
     borderopacity="1.0"
     inkscape:pageshadow="2"
     inkscape:pageopacity="0.0"
     inkscape:pagecheckerboard="0"
     showgrid="false"
     inkscape:snap-text-baseline="true"
     inkscape:zoom="0.35649924"
     inkscape:cx="1035.0653"
     inkscape:cy="1370.2694"
     inkscape:window-width="1920"
     inkscape:window-height="1017"
     inkscape:window-x="-8"
     inkscape:window-y="284"
     inkscape:window-maximized="1"
     inkscape:current-layer="g11676" />
  <defs
     id="defs2" />
  <image
     height="6601px"
     sodipodi:insensitive="true"
     width="5100px"
     x="0"
     xlink:href="borisenko_2006_in_6250_p2.png"
     y="0"
     id="image4" />
  <text
     xml:space="preserve"
     style="font-style:normal;font-weight:normal;font-size:40px;line-height:1.25;font-family:sans-serif;fill:#000000;fill-opacity:1;stroke:none"
     x="147.2654"
     y="1604.4916"
     id="text5109"><tspan
       sodipodi:role="line"
       id="tspan5107"
       x="147.2654"
       y="1604.4916">figure: 1</tspan></text>
  <path
     style="fill:none;stroke:#000000;stroke-width:1px;stroke-linecap:butt;stroke-linejoin:miter;stroke-opacity:1"
     d="M 835.58003,1351.933 H 1959.0046"
     id="path6784" />
  <text
     xml:space="preserve"
     style="font-style:normal;font-weight:normal;font-size:40px;line-height:1.25;font-family:sans-serif;fill:#000000;fill-opacity:1;stroke:none"
     x="-1567.9358"
     y="1791.0765"
     id="text8540"><tspan
       sodipodi:role="line"
       id="tspan8538"
       x="-1567.9358"
       y="1791.0765">comment: Baseline of the y-axis was not given and therby it was selected by the curator. The original data is very noisy. </tspan></text>
  <g
     id="g9345">
    <text
       xml:space="preserve"
       style="font-size:53.3333px;line-height:1.25;font-family:sans-serif;-inkscape-font-specification:sans-serif;letter-spacing:0px;word-spacing:0px"
       x="2293.1323"
       y="2178.7759"
       id="text8123-6"><tspan
         sodipodi:role="line"
         id="tspan8121-8"
         x="2293.1323"
         y="2178.7759">E2: 3 V vs. Fc/Fc+</tspan></text>
    <path
       style="fill:none;stroke:#000000;stroke-width:1px;stroke-linecap:butt;stroke-linejoin:miter;stroke-opacity:1"
       d="m 2381.3458,1979.6925 -88.2135,199.0834"
       id="path9260" />
  </g>
  <g
     id="g19570"
     transform="translate(109.39715,-272.09034)">
    <text
       xml:space="preserve"
       style="font-style:normal;font-weight:normal;font-size:40px;line-height:1.25;font-family:sans-serif;fill:#000000;fill-opacity:1;stroke:none"
       x="206.28125"
       y="1400.3323"
       id="text2212"><tspan
         sodipodi:role="line"
         id="tspan2210"
         x="206.28125"
         y="1400.3323">I1: 0 uA</tspan></text>
    <path
       style="fill:none;stroke:#000000;stroke-width:1px;stroke-linecap:butt;stroke-linejoin:miter;stroke-opacity:1"
       d="m 323.30619,1400.3323 402.87669,223.691"
       id="path27499" />
  </g>
  <g
     id="g27740">
    <text
       xml:space="preserve"
       style="font-style:normal;font-weight:normal;font-size:40px;line-height:1.25;font-family:sans-serif;fill:#000000;fill-opacity:1;stroke:none"
       x="-162.64482"
       y="938.18298"
       id="text26676"><tspan
         sodipodi:role="line"
         id="tspan26674"
         x="-162.64482"
         y="938.18298">I_scale_bar: 100 uA</tspan></text>
    <path
       style="fill:none;stroke:#000000;stroke-width:1px;stroke-linecap:butt;stroke-linejoin:miter;stroke-opacity:1"
       d="m 237.70674,938.18298 442.93461,64.40092"
       id="path27619" />
    <path
       style="fill:none;stroke:#000000;stroke-width:1px;stroke-linecap:butt;stroke-linejoin:miter;stroke-opacity:1"
       d="M 237.70674,938.18298 680.57937,1121.9022"
       id="path27654" />
  </g>
  <g
     id="g11676"
     transform="translate(-8.4151652,-269.28529)"
     style="stroke:#ff0000;stroke-opacity:1">
    <text
       xml:space="preserve"
       style="font-size:53.3333px;line-height:1.25;font-family:sans-serif;-inkscape-font-specification:sans-serif;letter-spacing:0px;word-spacing:0px;stroke:#ff0000;stroke-opacity:1"
       x="1377.5223"
       y="1560.0018"
       id="text10301"><tspan
         sodipodi:role="line"
         id="tspan10299"
         x="1377.5223"
         y="1560.0018">curve: b</tspan></text>
    <path
       style="fill:none;stroke:#ff0000;stroke-width:1px;stroke-linecap:butt;stroke-linejoin:miter;stroke-opacity:1"
       d="m 2021.0422,1607.9978 c 0,0 -20.1944,3.6184 -29.4531,4.5582 -23.7211,2.4079 -69.4251,1.0519 -69.4251,1.0519 -37.5544,0 -116.9505,4.8245 -153.9273,4.9089 -134.4673,0.3068 -306.2914,-1.3272 -363.956,10.5189 -42.3625,8.7026 -50.4584,13.717 -82.0478,35.7645 -42.4825,29.6503 -56.5926,1.0089 -75.3859,-1.4025 -5.9027,-0.7574 -39.8532,-8.5645 -45.9501,-12.1629 -8.2609,-4.8756 -43.1104,-1.8624 -43.1104,-1.8624 0,0 5.424,-5.7852 13.2826,-8.5335 5.6351,-1.9707 13.5442,-0.8468 16.866,-2.014 7.4277,-2.6098 10.7859,3.8506 37.9044,-1.0472 24.4751,-4.4204 49.729,-7.3205 65.1871,-12.9495 28.9246,-10.5328 83.6676,-4.9928 125.5262,-7.0127 57.4842,-2.7739 151.0734,2.9179 172.5109,-7.0126 6.6465,-3.0789 10.4321,-7.9555 32.9555,-7.0751 40.1816,1.5706 130.6903,-1.6725 147.2693,3.5688 8.9938,2.8433 23.8417,2.645 53.6467,-2.4544 29.805,-5.0994 32.6301,-3.6839 80.9959,1.0518 17.0971,1.6741 45.0578,0.1466 70.4771,0.1388 24.4323,-0.01 46.634,1.965 46.634,1.965 z"
       id="path19860"
       sodipodi:nodetypes="cssssssscsssssssszssc" />
  </g>
  <text
     xml:space="preserve"
     style="font-size:53.3333px;line-height:1.25;font-family:sans-serif;-inkscape-font-specification:sans-serif;letter-spacing:0px;word-spacing:0px"
     x="1705.7872"
     y="1761.3243"
     id="text17610"><tspan
       sodipodi:role="line"
       id="tspan17608"
       x="1705.7872"
       y="1761.3243">scan rate: 10 mV / s</tspan></text>
  <g
     id="g19558">
    <text
       xml:space="preserve"
       style="font-size:53.3333px;line-height:1.25;font-family:sans-serif;-inkscape-font-specification:sans-serif;letter-spacing:0px;word-spacing:0px"
       x="112.2022"
       y="2115.0115"
       id="text8123"><tspan
         sodipodi:role="line"
         id="tspan8121"
         x="112.2022"
         y="2115.0115">E1: -4 V vs. Fc/Fc+</tspan></text>
    <path
       style="fill:none;stroke:#000000;stroke-width:1px;stroke-linecap:butt;stroke-linejoin:miter;stroke-opacity:1"
       d="m 498.3352,2115.0115 272.86408,-135.567"
       id="path9258" />
  </g>
</svg>
