<?xml version="1.0" encoding="UTF-8" standalone="no"?>
<svg
   height="6601px"
   version="1.1"
   width="5100px"
   id="svg6"
   sodipodi:docname="borisenko_2006_in_6250_f1_a.svg"
   inkscape:version="1.4 (86a8ad7, 2024-10-11)"
   xmlns:inkscape="http://www.inkscape.org/namespaces/inkscape"
   xmlns:sodipodi="http://sodipodi.sourceforge.net/DTD/sodipodi-0.dtd"
   xmlns:xlink="http://www.w3.org/1999/xlink"
   xmlns="http://www.w3.org/2000/svg"
   xmlns:svg="http://www.w3.org/2000/svg">
  <sodipodi:namedview
     id="namedview8"
     pagecolor="#ffffff"
     bordercolor="#666666"
     borderopacity="1.0"
     inkscape:pageshadow="2"
     inkscape:pageopacity="0.0"
     inkscape:pagecheckerboard="0"
     showgrid="false"
     inkscape:snap-text-baseline="true"
     inkscape:zoom="0.50416606"
     inkscape:cx="928.26558"
     inkscape:cy="1439.01"
     inkscape:window-width="2880"
     inkscape:window-height="1711"
     inkscape:window-x="-9"
     inkscape:window-y="-9"
     inkscape:window-maximized="1"
     inkscape:current-layer="svg6"
     inkscape:showpageshadow="2"
     inkscape:deskcolor="#d1d1d1" />
  <defs
     id="defs2" />
  <image
     height="6601px"
     sodipodi:insensitive="true"
     width="5100px"
     x="0"
     xlink:href="borisenko_2006_in_6250_p2.png"
     y="0"
     id="image4" />
  <text
     xml:space="preserve"
     style="font-style:normal;font-weight:normal;font-size:40px;line-height:1.25;font-family:sans-serif;fill:#000000;fill-opacity:1;stroke:none"
     x="147.2654"
     y="1604.4916"
     id="text5109"><tspan
       sodipodi:role="line"
       id="tspan5107"
       x="147.2654"
       y="1604.4916">figure: 1</tspan></text>
  <path
     style="fill:none;stroke:#000000;stroke-width:1px;stroke-linecap:butt;stroke-linejoin:miter;stroke-opacity:1"
     d="M 978.63784,919.95452 H 2102.0624"
     id="path6784" />
  <text
     xml:space="preserve"
     style="stroke:none;stroke-opacity:1;text-align:start;writing-mode:lr-tb;direction:ltr;text-anchor:start;fill:#0000aa;stroke-width:3.77953;fill-opacity:1"
     x="286.10144"
     y="769.12061"
     id="text1"
     transform="translate(-8.4151652,-269.28529)"><tspan
       sodipodi:role="line"
       id="tspan1"
       x="286.10144"
       y="769.12061">tags: BCV</tspan></text>
  <text
     xml:space="preserve"
     style="font-style:normal;font-weight:normal;font-size:40px;line-height:1.25;font-family:sans-serif;fill:#000000;fill-opacity:1;stroke:none"
     x="64.462868"
     y="343.1409"
     id="text8540"><tspan
       sodipodi:role="line"
       id="tspan8538"
       x="64.462868"
       y="343.1409">comment: Baseline of the y-axis was not given and therby it was selected by the curator. The original data is very noisy. </tspan></text>
  <g
     id="g9345">
    <text
       xml:space="preserve"
       style="font-size:53.3333px;line-height:1.25;font-family:sans-serif;-inkscape-font-specification:sans-serif;letter-spacing:0px;word-spacing:0px"
       x="2293.1323"
       y="2178.7759"
       id="text8123-6"><tspan
         sodipodi:role="line"
         id="tspan8121-8"
         x="2293.1323"
         y="2178.7759">E2: 3 V vs. Fc/Fc+</tspan></text>
    <path
       style="fill:none;stroke:#000000;stroke-width:1px;stroke-linecap:butt;stroke-linejoin:miter;stroke-opacity:1"
       d="m 2381.3458,1979.6925 -88.2135,199.0834"
       id="path9260" />
  </g>
  <g
     id="g19570"
     transform="translate(109.39715,-272.09034)">
    <text
       xml:space="preserve"
       style="font-style:normal;font-weight:normal;font-size:40px;line-height:1.25;font-family:sans-serif;fill:#000000;fill-opacity:1;stroke:none"
       x="293.55408"
       y="984.79456"
       id="text2212"><tspan
         sodipodi:role="line"
         id="tspan2210"
         x="293.55408"
         y="984.79456">I1: 0 uA</tspan></text>
    <path
       style="fill:none;stroke:#000000;stroke-width:1px;stroke-linecap:butt;stroke-linejoin:miter;stroke-opacity:1"
       d="M 466.364,968.35382 869.24069,1192.0448"
       id="path27499" />
  </g>
  <g
     id="g27740">
    <text
       xml:space="preserve"
       style="font-style:normal;font-weight:normal;font-size:40px;line-height:1.25;font-family:sans-serif;fill:#000000;fill-opacity:1;stroke:none"
       x="-162.64482"
       y="938.18298"
       id="text26676"><tspan
         sodipodi:role="line"
         id="tspan26674"
         x="-162.64482"
         y="938.18298">I_scale_bar: 100 uA</tspan></text>
    <path
       style="fill:none;stroke:#000000;stroke-width:1px;stroke-linecap:butt;stroke-linejoin:miter;stroke-opacity:1"
       d="m 237.70674,938.18298 442.93461,64.40092"
       id="path27619" />
    <path
       style="fill:none;stroke:#000000;stroke-width:1px;stroke-linecap:butt;stroke-linejoin:miter;stroke-opacity:1"
       d="M 237.70674,938.18298 680.57937,1121.9022"
       id="path27654" />
  </g>
  <g
     id="g1">
    <text
       xml:space="preserve"
       style="font-size:53.3333px;line-height:1.25;font-family:sans-serif;-inkscape-font-specification:sans-serif;letter-spacing:0px;word-spacing:0px;stroke:#ff0000;stroke-opacity:1"
       x="1369.1072"
       y="1290.7166"
       id="text10301"><tspan
         sodipodi:role="line"
         id="tspan10299"
         x="1369.1072"
         y="1290.7166">curve: a</tspan></text>
    <path
       style="fill:none;stroke:#ff0000;stroke-width:1px;stroke-linecap:butt;stroke-linejoin:miter;stroke-opacity:1"
       d="m 1637.4509,924.13191 c -24.2045,0 -40.481,-0.4215 -61.0564,0.4921 -47.1867,2.0952 -88.3122,8.782 -88.3122,8.782 -19.8257,8.7845 -30.8126,2.5106 -40.0306,1.0679 -26.2332,-4.106 -40.4987,-2.6665 -54.9913,0.3107 -42.3625,8.7026 -44.3184,6.2053 -75.0352,29.4531 -35.4698,26.8453 -51.3994,14.8406 -69.0745,9.1165 -25.2904,-8.1904 -73.9469,-3.8156 -102.2994,9.2896 -16.0321,7.4104 -24.9697,7.8729 -35.3711,1.5288 -25.4798,-15.5412 -55.4751,-2.0937 -66.2275,5.174 -11.8461,8.007 -25.425,3.7397 -40.8663,6.308 -14.54809,2.4198 -30.9857,11.69509 -41.69469,18.05289 -27.57325,16.37 -49.99592,55.8716 -57.18349,75.9469 -40.17629,112.2146 -67.99931,263.7847 -67.99931,263.7847 0,0 60.60018,-307.9995 93.22667,-356.36029 27.50991,-40.7767 71.85872,-64.4846 113.02132,-68.2524 55.6454,-5.0933 113.8135,-3.3381 134.5605,-3.888 72.0712,-1.9101 202.9005,-6.5923 247.5517,-5.5816 66.6075,1.5078 104.0511,-7.3281 179.5197,-4.9713 21.5621,0.6734 59.1835,-7.883 87.8718,-12.7173 24.7879,-4.177 41.8402,-4.3311 48.8785,-8.2581 6.6713,-3.7222 21.8252,-14.1919 38.2712,-40.4523 19.4886,-31.1188 34.4367,-22.7379 48.3349,-25.1158 7.1955,-1.2311 24.784,-2.2712 41.713,-0.9005 15.6164,1.2643 30.6716,5.1027 36.49,0.7401 14.0755,-10.5536 43.7857,-2.2506 58.1928,7.5235 15.0653,10.2208 21.4188,7.1411 41.6967,12.0769 23.2583,5.6612 36.8912,4.0208 51.2208,9.0999 18.7402,6.6423 29.5522,5.7178 71.2335,4.0364 42.3893,-1.7099 81.0467,-15.2584 112.9199,-43.1566 37.8187,-33.1022 86.1838,-188.22809 86.1838,-188.22809 0,0 -36.7497,187.90369 -98.0958,246.94299 -47.084,45.3135 -232.8119,38.0494 -251.1336,44.4321 -18.7257,6.5234 -58.2049,0.3506 -58.2049,0.3506 -37.5544,0 -126.7682,3.422 -163.745,3.5064 -26.5162,0.061 -80.0304,-1.5291 -115.3579,26.5143"
       id="path19860"
       sodipodi:nodetypes="csssssssssssscsssssssssssssssscssssc" />
  </g>
  <text
     xml:space="preserve"
     style="font-size:53.3333px;line-height:1.25;font-family:sans-serif;-inkscape-font-specification:sans-serif;letter-spacing:0px;word-spacing:0px"
     x="1705.7872"
     y="1761.3243"
     id="text17610"><tspan
       sodipodi:role="line"
       id="tspan17608"
       x="1705.7872"
       y="1761.3243">scan rate: 10 mV / s</tspan></text>
  <g
     id="g19558">
    <text
       xml:space="preserve"
       style="font-size:53.3333px;line-height:1.25;font-family:sans-serif;-inkscape-font-specification:sans-serif;letter-spacing:0px;word-spacing:0px"
       x="112.2022"
       y="2115.0115"
       id="text8123"><tspan
         sodipodi:role="line"
         id="tspan8121"
         x="112.2022"
         y="2115.0115">E1: -4 V vs. Fc/Fc+</tspan></text>
    <path
       style="fill:none;stroke:#000000;stroke-width:1px;stroke-linecap:butt;stroke-linejoin:miter;stroke-opacity:1"
       d="m 498.3352,2115.0115 272.86408,-135.567"
       id="path9258" />
  </g>
</svg>
