<?xml version="1.0" encoding="UTF-8" standalone="no"?>
<svg
   height="6600px"
   version="1.1"
   width="5100px"
   id="svg1"
   sodipodi:docname="wan_1999_situ_6978_f2_solid.svg"
   inkscape:version="1.4.2 (f4327f4, 2025-05-13)"
   xmlns:inkscape="http://www.inkscape.org/namespaces/inkscape"
   xmlns:sodipodi="http://sodipodi.sourceforge.net/DTD/sodipodi-0.dtd"
   xmlns:xlink="http://www.w3.org/1999/xlink"
   xmlns="http://www.w3.org/2000/svg"
   xmlns:svg="http://www.w3.org/2000/svg">
  <sodipodi:namedview
     id="namedview1"
     pagecolor="#ffffff"
     bordercolor="#000000"
     borderopacity="0.25"
     inkscape:showpageshadow="2"
     inkscape:pageopacity="0.0"
     inkscape:pagecheckerboard="0"
     inkscape:deskcolor="#d1d1d1"
     inkscape:zoom="0.39545454"
     inkscape:cx="1287.1265"
     inkscape:cy="919.19541"
     inkscape:window-width="2880"
     inkscape:window-height="1694"
     inkscape:window-x="-11"
     inkscape:window-y="-11"
     inkscape:window-maximized="1"
     inkscape:current-layer="g14" />
  <defs
     id="defs1" />
  <image
     height="6600"
     sodipodi:insensitive="true"
     width="5100"
     x="0"
     xlink:href="wan_1999_in_6978_p2.png"
     y="0"
     id="image1" />
  <g
     id="g13"
     transform="translate(194.7603,108.33868)">
    <text
       xml:space="preserve"
       style="font-style:normal;font-variant:normal;font-weight:normal;font-stretch:normal;font-size:42.6667px;line-height:0;font-family:sans-serif;-inkscape-font-specification:sans-serif;text-align:start;writing-mode:lr-tb;direction:ltr;text-anchor:start;fill:#000000;stroke-width:2"
       x="101.67587"
       y="1842.6377"
       id="text1"><tspan
         id="tspan1"
         x="101.67587"
         y="1842.6377"
         sodipodi:role="line"
         style="font-size:42.6667px">j1: -500 uA / cm2</tspan></text>
    <path
       style="fill:#000000;fill-opacity:1;stroke:#000000;stroke-width:2;stroke-opacity:1"
       d="m 429.59483,1832.7478 105.81465,54.4914"
       id="path8" />
  </g>
  <g
     id="g14"
     transform="translate(195.1856,-58.257761)">
    <text
       xml:space="preserve"
       style="font-style:normal;font-variant:normal;font-weight:normal;font-stretch:normal;font-size:42.6667px;line-height:0;font-family:sans-serif;-inkscape-font-specification:sans-serif;text-align:start;writing-mode:lr-tb;direction:ltr;text-anchor:start;fill:#000000;stroke-width:2"
       x="187.69908"
       y="521.82312"
       id="text2"><tspan
         sodipodi:role="line"
         id="tspan2"
         x="187.69908"
         y="521.82312">j2: 500 uA / cm2</tspan></text>
    <path
       style="fill:#000000;fill-opacity:1;stroke:#000000;stroke-width:2;stroke-opacity:1"
       d="m 494.85776,510.69828 40.86853,85.22198"
       id="path7"
       sodipodi:nodetypes="cc" />
  </g>
  <text
     xml:space="preserve"
     style="font-size:42.6667px;line-height:0;font-family:sans-serif;-inkscape-font-specification:sans-serif;text-align:start;writing-mode:lr-tb;direction:ltr;text-anchor:start;fill:#000000;stroke:#000000;stroke-width:2"
     x="41.708332"
     y="1059.4167"
     id="text8"><tspan
       sodipodi:role="line"
       id="tspan8"
       x="41.708332"
       y="1059.4167"
       style="stroke:none">scan rate: 50 mV / s </tspan></text>
  <text
     xml:space="preserve"
     style="font-size:42.6667px;line-height:0;font-family:sans-serif;-inkscape-font-specification:sans-serif;text-align:start;writing-mode:lr-tb;direction:ltr;text-anchor:start;fill:#000000;stroke:none;stroke-width:2"
     x="149.41147"
     y="1145.2939"
     id="text10"><tspan
       sodipodi:role="line"
       id="tspan10"
       x="149.41147"
       y="1145.2939">figure: 2</tspan></text>
  <text
     xml:space="preserve"
     style="font-size:42.6667px;line-height:0;font-family:sans-serif;-inkscape-font-specification:sans-serif;text-align:start;writing-mode:lr-tb;direction:ltr;text-anchor:start;fill:none;stroke:#000000;stroke-width:0.5;stroke-dasharray:none;stroke-opacity:1"
     x="90.958336"
     y="1218.8334"
     id="text15"><tspan
       sodipodi:role="line"
       id="tspan15"
       x="90.958336"
       y="1218.8334"
       style="fill:#000000;fill-opacity:1;stroke:#000000;stroke-opacity:1">tags: BCV</tspan></text>
  <g
     id="g11"
     transform="translate(230.64099,231.64941)">
    <text
       xml:space="preserve"
       style="font-style:normal;font-variant:normal;font-weight:normal;font-stretch:normal;font-size:42.6667px;line-height:0;font-family:sans-serif;-inkscape-font-specification:sans-serif;text-align:start;writing-mode:lr-tb;direction:ltr;text-anchor:start;fill:#000000;stroke-width:2"
       x="319.00269"
       y="2013.4805"
       id="text5"><tspan
         sodipodi:role="line"
         id="tspan5"
         x="319.00269"
         y="2013.4805">E1: 0.0 V vs RHE</tspan></text>
    <path
       style="fill:#000000;fill-opacity:1;stroke:#000000;stroke-width:2;stroke-opacity:1"
       d="m 597.45799,1899.0069 88.03937,98.1202"
       id="path9" />
  </g>
  <g
     id="g3"
     transform="translate(1049.7124,230.83218)">
    <text
       xml:space="preserve"
       style="font-style:normal;font-variant:normal;font-weight:normal;font-stretch:normal;font-size:42.6667px;line-height:0;font-family:sans-serif;-inkscape-font-specification:sans-serif;text-align:start;writing-mode:lr-tb;direction:ltr;text-anchor:start;fill:#000000;stroke-width:2"
       x="1138.9113"
       y="2009.0001"
       id="text6"><tspan
         sodipodi:role="line"
         id="tspan6"
         x="1138.9113"
         y="2009.0001">E2: 1.5 V vs RHE</tspan></text>
    <path
       style="fill:#000000;fill-opacity:1;stroke:#000000;stroke-width:2;stroke-opacity:1"
       d="m 1143.0517,1993.3707 75.7177,-93.9343"
       id="path10" />
  </g>
  <g
     id="g2">
    <text
       xml:space="preserve"
       style="font-size:42.6667px;line-height:0;font-family:sans-serif;-inkscape-font-specification:sans-serif;text-align:start;writing-mode:lr-tb;direction:ltr;text-anchor:start;fill:#000000;stroke:#000000;stroke-width:2"
       x="78.568962"
       y="983.37933"
       id="text7"
       transform="translate(147.24354,36.03736)"><tspan
         sodipodi:role="line"
         id="tspan7"
         x="78.568962"
         y="983.37933"
         style="stroke:none">curve: solid</tspan></text>
    <path
       style="fill:none;stroke:#e4260f;stroke-width:0.5;stroke-opacity:1"
       d="m 1359.5905,1270.6106 c 0,0 -356.6815,3.1815 -375.67527,6.5589 -36.44134,6.4799 -47.41554,34.5866 -56.81753,96.092 -12.7589,83.4655 -18.93888,125.7035 -24.96342,265.491 -6.09002,141.3066 -7.78446,382.4981 -10.75497,382.3395 -6.9467,-0.3708 -3.93376,-546.692 -16.59482,-547.9408 -9.95548,-0.982 -7.44877,93.2345 -11.85345,93.0844 -2.25872,-0.077 -2.63545,-332.9049 -2.0546,-337.4281 5.08298,-39.5824 10.00347,-77.7102 12.01149,-116.796 9.46268,-184.18936 4.13029,-550.60721 9.9569,-549.68391 9.89089,1.56734 6.11533,437.79311 34.45402,601.83911 8.3282,48.21 41.24242,91.2281 83.92245,92.1408 283.5677,6.0638 581.9011,-0.165 594.2528,-0.9483 30.5452,-1.937 321.1248,-8.7388 361.9253,-17.3851 12.4145,-2.6309 62.1218,-9.5684 99.569,-35.4023 11.682,-8.0591 35.7603,-15.8486 54.6839,-15.3304 35.4137,0.9697 34.7428,19.7991 55.9483,19.7557 72.4534,-0.1482 71.8589,-68.3639 73.0172,-71.5948 28.9756,-80.8196 25.7499,-212.75364 26.7098,-212.72988 2.2527,0.0557 -0.8731,199.46938 -1.4224,202.93108 -7.9799,50.2906 -10.0623,130.9094 -92.1408,133.2327 -82.3758,2.3317 -164.508,-0.3515 -247.0259,9.9569 -31.4178,3.9248 -52.8825,20.4219 -92.1408,23.0747 -33.5528,2.2673 -65.9046,1.0623 -100.8333,3.319 -12.2263,0.7899 -27.3575,5.799 -32.7155,16.7529 -3.2083,6.5591 -8.3551,15.7152 -15.6466,15.3304 -16.7659,-0.8847 -8.4906,-34.7478 -72.069,-39.8276 -21.6565,-1.7303 -299.8132,-6.6379 -299.8132,-6.6379"
       id="path1"
       sodipodi:nodetypes="cssssssssssssssssssssssssssc" />
  </g>
</svg>
