<?xml version="1.0" encoding="UTF-8" standalone="no"?>
<svg
   height="6600px"
   version="1.1"
   width="5100px"
   id="svg1"
   sodipodi:docname="wan_1999_situ_6978_f1a_solid.svg"
   inkscape:version="1.4.2 (f4327f4, 2025-05-13)"
   xmlns:inkscape="http://www.inkscape.org/namespaces/inkscape"
   xmlns:sodipodi="http://sodipodi.sourceforge.net/DTD/sodipodi-0.dtd"
   xmlns:xlink="http://www.w3.org/1999/xlink"
   xmlns="http://www.w3.org/2000/svg"
   xmlns:svg="http://www.w3.org/2000/svg">
  <sodipodi:namedview
     id="namedview1"
     pagecolor="#ffffff"
     bordercolor="#000000"
     borderopacity="0.25"
     inkscape:showpageshadow="2"
     inkscape:pageopacity="0.0"
     inkscape:pagecheckerboard="0"
     inkscape:deskcolor="#d1d1d1"
     inkscape:zoom="0.55925718"
     inkscape:cx="3266.8333"
     inkscape:cy="1138.1168"
     inkscape:window-width="2880"
     inkscape:window-height="1694"
     inkscape:window-x="-11"
     inkscape:window-y="-11"
     inkscape:window-maximized="1"
     inkscape:current-layer="g14" />
  <defs
     id="defs1" />
  <image
     height="6600"
     sodipodi:insensitive="true"
     width="5100"
     x="0"
     xlink:href="wan_1999_in_6978_p1.png"
     y="0"
     id="image1" />
  <g
     id="g14"
     transform="translate(2561.921,15.391166)">
    <text
       xml:space="preserve"
       style="font-style:normal;font-variant:normal;font-weight:normal;font-stretch:normal;font-size:42.6667px;line-height:0;font-family:sans-serif;-inkscape-font-specification:sans-serif;text-align:start;writing-mode:lr-tb;direction:ltr;text-anchor:start;fill:#000000;stroke-width:2"
       x="187.69908"
       y="521.82312"
       id="text2"><tspan
         sodipodi:role="line"
         id="tspan2"
         x="187.69908"
         y="521.82312">j2: 100 uA / cm2</tspan></text>
    <path
       style="fill:#000000;fill-opacity:1;stroke:#000000;stroke-width:2;stroke-opacity:1"
       d="m 494.85776,510.69828 40.86853,85.22198"
       id="path7"
       sodipodi:nodetypes="cc" />
  </g>
  <g
     id="g13"
     transform="translate(2560.6553,-529.54938)">
    <text
       xml:space="preserve"
       style="font-style:normal;font-variant:normal;font-weight:normal;font-stretch:normal;font-size:42.6667px;line-height:0;font-family:sans-serif;-inkscape-font-specification:sans-serif;text-align:start;writing-mode:lr-tb;direction:ltr;text-anchor:start;fill:#000000;stroke-width:2"
       x="101.67587"
       y="1842.6377"
       id="text1"><tspan
         id="tspan1"
         x="101.67587"
         y="1842.6377"
         sodipodi:role="line"
         style="font-size:42.6667px">j1: -100 uA / cm2</tspan></text>
    <path
       style="fill:#000000;fill-opacity:1;stroke:#000000;stroke-width:2;stroke-opacity:1"
       d="m 429.59483,1832.7478 105.81465,54.4914"
       id="path8" />
  </g>
  <text
     xml:space="preserve"
     style="font-size:42.6667px;line-height:0;font-family:sans-serif;-inkscape-font-specification:sans-serif;text-align:start;writing-mode:lr-tb;direction:ltr;text-anchor:start;fill:#000000;stroke:#000000;stroke-width:2"
     x="2542.2485"
     y="840.70404"
     id="text8"><tspan
       sodipodi:role="line"
       id="tspan8"
       x="2542.2485"
       y="840.70404"
       style="stroke:none">scan rate: 50 mV / s </tspan></text>
  <text
     xml:space="preserve"
     style="font-size:42.6667px;line-height:0;font-family:sans-serif;-inkscape-font-specification:sans-serif;text-align:start;writing-mode:lr-tb;direction:ltr;text-anchor:start;fill:#000000;stroke:none;stroke-width:2"
     x="2618.6521"
     y="902.78595"
     id="text10"><tspan
       sodipodi:role="line"
       id="tspan10"
       x="2618.6521"
       y="902.78595">figure: 1a</tspan></text>
  <text
     xml:space="preserve"
     style="font-size:42.6667px;line-height:0;font-family:sans-serif;-inkscape-font-specification:sans-serif;text-align:start;writing-mode:lr-tb;direction:ltr;text-anchor:start;fill:none;stroke:#000000;stroke-width:0.5;stroke-dasharray:none;stroke-opacity:1"
     x="2611.4294"
     y="954.18964"
     id="text15"><tspan
       sodipodi:role="line"
       id="tspan15"
       x="2611.4294"
       y="954.18964"
       style="fill:#000000;fill-opacity:1;stroke:#000000;stroke-opacity:1">tags: BCV</tspan></text>
  <g
     id="g11"
     transform="translate(2658.3299,-280.1403)">
    <text
       xml:space="preserve"
       style="font-style:normal;font-variant:normal;font-weight:normal;font-stretch:normal;font-size:42.6667px;line-height:0;font-family:sans-serif;-inkscape-font-specification:sans-serif;text-align:start;writing-mode:lr-tb;direction:ltr;text-anchor:start;fill:#000000;stroke-width:2"
       x="319.00269"
       y="2013.4805"
       id="text5"><tspan
         sodipodi:role="line"
         id="tspan5"
         x="319.00269"
         y="2013.4805">E1: 0.0 V vs RHE</tspan></text>
    <path
       style="fill:#000000;fill-opacity:1;stroke:#000000;stroke-width:2;stroke-opacity:1"
       d="m 597.45799,1899.0069 88.03937,98.1202"
       id="path9" />
  </g>
  <g
     id="g3"
     transform="translate(2987.8576,-280.72762)">
    <text
       xml:space="preserve"
       style="font-style:normal;font-variant:normal;font-weight:normal;font-stretch:normal;font-size:42.6667px;line-height:0;font-family:sans-serif;-inkscape-font-specification:sans-serif;text-align:start;writing-mode:lr-tb;direction:ltr;text-anchor:start;fill:#000000;stroke-width:2"
       x="1138.9113"
       y="2009.0001"
       id="text6"><tspan
         sodipodi:role="line"
         id="tspan6"
         x="1138.9113"
         y="2009.0001">E2: 1.0 V vs RHE</tspan></text>
    <path
       style="fill:#000000;fill-opacity:1;stroke:#000000;stroke-width:2;stroke-opacity:1"
       d="m 1143.0517,1993.3707 75.7177,-93.9343"
       id="path10" />
  </g>
  <g
     id="g1">
    <text
       xml:space="preserve"
       style="font-size:42.6667px;line-height:0;font-family:sans-serif;-inkscape-font-specification:sans-serif;text-align:start;writing-mode:lr-tb;direction:ltr;text-anchor:start;fill:#000000;stroke:#000000;stroke-width:2"
       x="2639.9316"
       y="773.34393"
       id="text7"><tspan
         sodipodi:role="line"
         id="tspan7"
         x="2639.9316"
         y="773.34393"
         style="stroke:none">curve: solid</tspan></text>
    <path
       style="fill:none;stroke:#f02222;stroke-width:0.5;stroke-opacity:1"
       d="m 3279.9662,1514.5884 c -0.4504,-0.015 1.1399,-99.7138 1.2415,-133.0517 0.5062,-166.0958 0.6982,-534.22352 1.9419,-550.71542 2.7546,-36.52605 21.1981,-134.37896 36.1049,-135.25578 8.6441,-0.50844 17.2274,78.27434 73.9821,75.54664 22.0085,-1.05775 47.1702,-13.55212 64.0279,-12.96363 42.1083,1.46997 44.3256,46.48978 68.8413,112.64943 27.7749,74.95509 27.9984,98.25503 99.2388,96.55665 2.6589,-0.0634 216.8303,0.37078 219.9346,0.22351 62.9525,-2.98657 173.9433,-10.94126 218.817,-31.96204 32.8457,-15.38634 43.4282,-79.41557 54.3132,-122.26039 18.2108,-71.68038 17.9649,-182.25108 29.5034,-183.05531 12.0152,-0.83746 13.3961,88.28723 20.7865,132.31837 6.5191,38.84036 3.6483,93.34671 32.1855,112.87294 1.7512,1.19827 0.6056,98.55048 0.447,101.25037 -1.3544,23.05069 -13.967,50.69506 -30.6209,62.13596 -58.2621,40.0247 -40.4621,203.7396 -57.6658,204.0654 -14.5227,0.2751 -17.0109,-112.1507 -32.1856,-165.1745 -8.899,-31.0951 -10.1656,-58.8998 -60.3479,-63.03 -35.21,-2.8979 -71.3131,-7.4903 -107.0616,-6.7054 -2.7588,0.061 -268.5592,-0.754 -271.5656,-0.6705 -65.5779,1.8211 -86.579,43.0166 -110.4143,89.6278 -20.2736,39.646 -38.3982,138.6758 -69.5119,138.5767 -19.5676,-0.062 -36.8633,-18.576 -56.3247,-16.5398 -37.4614,3.9195 -75.8874,37.4786 -86.2751,121.1428 -2.1659,17.4448 -17.5259,27.0612 -22.3511,42.2436 -12.6515,39.8078 -13.719,132.2874 -17.0411,132.1743 z"
       id="path1"
       sodipodi:nodetypes="sssssssssssssssssssssssssss" />
  </g>
</svg>
