<?xml version="1.0" encoding="UTF-8" standalone="no"?>
<svg
   height="7017px"
   version="1.1"
   width="4959px"
   id="svg2"
   sodipodi:docname="huang_2017_electrochemical_1749_sf2b_black.svg"
   inkscape:version="1.4.3 (0d15f75, 2025-12-25)"
   xmlns:inkscape="http://www.inkscape.org/namespaces/inkscape"
   xmlns:sodipodi="http://sodipodi.sourceforge.net/DTD/sodipodi-0.dtd"
   xmlns:xlink="http://www.w3.org/1999/xlink"
   xmlns="http://www.w3.org/2000/svg"
   xmlns:svg="http://www.w3.org/2000/svg">
  <sodipodi:namedview
     id="namedview2"
     pagecolor="#ffffff"
     bordercolor="#000000"
     borderopacity="0.25"
     inkscape:showpageshadow="2"
     inkscape:pageopacity="0.0"
     inkscape:pagecheckerboard="0"
     inkscape:deskcolor="#d1d1d1"
     inkscape:zoom="0.43665384"
     inkscape:cx="1524.0906"
     inkscape:cy="3579.4945"
     inkscape:window-width="1728"
     inkscape:window-height="1010"
     inkscape:window-x="-6"
     inkscape:window-y="-6"
     inkscape:window-maximized="1"
     inkscape:current-layer="digitization-layer" />
  <defs
     id="defs1" />
  <g
     class="layer"
     id="image-layer"
     inkscape:groupmode="layer"
     sodipodi:insensitive="1">
    <title
       id="title1">image-layer</title>
    <image
       height="7017"
       width="4959"
       x="0"
       xlink:href="huang_2017_electrochemical_1749_SI_p4.png"
       y="0"
       id="image1" />
  </g>
  <g
     class="layer"
     id="digitization-layer"
     inkscape:groupmode="layer">
    <title
       id="title2">digitization-layer</title>
    <g
       id="g11"
       transform="translate(1533.4106,1973.892)"
       inkscape:label="E1">
      <text
         xml:space="preserve"
         style="font-style:normal;font-variant:normal;font-weight:normal;font-stretch:normal;font-size:42.6667px;line-height:0;font-family:sans-serif;-inkscape-font-specification:sans-serif;text-align:start;writing-mode:lr-tb;direction:ltr;text-anchor:start;fill:#000000;stroke-width:2"
         x="319.00269"
         y="2013.4805"
         id="text5"><tspan
           sodipodi:role="line"
           id="tspan5"
           x="319.00269"
           y="2013.4805">E1: -0.4 V vs RHE</tspan></text>
      <path
         style="fill:#000000;fill-opacity:1;stroke:#000000;stroke-width:2;stroke-opacity:1"
         d="m 597.45799,1899.0069 88.03937,98.1202"
         id="path9" />
    </g>
    <g
       id="g3"
       inkscape:label="E2"
       transform="translate(2100.9201,2306.8126)">
      <text
         xml:space="preserve"
         style="font-style:normal;font-variant:normal;font-weight:normal;font-stretch:normal;font-size:42.6667px;line-height:0;font-family:sans-serif;-inkscape-font-specification:sans-serif;text-align:start;writing-mode:lr-tb;direction:ltr;text-anchor:start;fill:#000000;stroke-width:2"
         x="1138.9113"
         y="2009.0001"
         id="text6"
         transform="translate(-458.7759,-334.5653)"><tspan
           sodipodi:role="line"
           id="tspan6"
           x="1138.9113"
           y="2009.0001">E2: 0.4 V vs RHE</tspan></text>
      <path
         style="fill:#000000;fill-opacity:1;stroke:#000000;stroke-width:2;stroke-opacity:1"
         d="m 1143.0517,1993.3707 75.7177,-93.9343"
         id="path10"
         transform="translate(-458.7759,-334.5653)" />
    </g>
    <g
       id="g2"
       transform="translate(1592.6606,1925.9887)"
       inkscape:label="j1"
       inkscape:transform-center-x="-64.227653"
       inkscape:transform-center-y="-18.860682">
      <text
         xml:space="preserve"
         style="font-style:normal;font-variant:normal;font-weight:normal;font-stretch:normal;font-size:42.6667px;line-height:0;font-family:sans-serif;-inkscape-font-specification:sans-serif;text-align:start;writing-mode:lr-tb;direction:ltr;text-anchor:start;fill:#000000;stroke-width:2"
         x="101.67587"
         y="1842.6377"
         id="text1"><tspan
           id="tspan1"
           x="101.67587"
           y="1842.6377"
           sodipodi:role="line"
           style="font-size:42.6667px">j1: -0.5 A / m2</tspan></text>
      <path
         style="fill:#000000;fill-opacity:1;stroke:#000000;stroke-width:2;stroke-opacity:1"
         d="m 429.59483,1832.7478 105.81465,54.4914"
         id="path8" />
    </g>
    <g
       id="g14"
       transform="translate(1605.6723,2635.4234)"
       inkscape:label="j2">
      <text
         xml:space="preserve"
         style="font-style:normal;font-variant:normal;font-weight:normal;font-stretch:normal;font-size:42.6667px;line-height:0;font-family:sans-serif;-inkscape-font-specification:sans-serif;text-align:start;writing-mode:lr-tb;direction:ltr;text-anchor:start;fill:#000000;stroke-width:2"
         x="187.69908"
         y="521.82312"
         id="text2"
         transform="translate(-49.986726,53.2753)"><tspan
           sodipodi:role="line"
           id="tspan2"
           x="187.69908"
           y="521.82312">j2: 0.5 A / m2</tspan></text>
      <path
         style="fill:#000000;fill-opacity:1;stroke:#000000;stroke-width:2.19273;stroke-opacity:1"
         d="m 495.16181,510.82767 76.81582,54.50038"
         id="path7"
         sodipodi:nodetypes="cc"
         transform="translate(-49.986726,53.2753)" />
    </g>
    <text
       xml:space="preserve"
       style="font-size:42.6667px;line-height:0;font-family:sans-serif;-inkscape-font-specification:sans-serif;text-align:start;writing-mode:lr-tb;direction:ltr;text-anchor:start;fill:#000000;stroke:#000000;stroke-width:2"
       x="261.9585"
       y="3442.4507"
       id="text8"
       inkscape:label="scan rate"><tspan
         sodipodi:role="line"
         id="tspan8"
         x="261.9585"
         y="3442.4507"
         style="stroke:none">scan rate: 50 mV / s </tspan></text>
    <text
       xml:space="preserve"
       style="font-size:42.6667px;line-height:0;font-family:sans-serif;-inkscape-font-specification:sans-serif;text-align:start;writing-mode:lr-tb;direction:ltr;text-anchor:start;fill:#000000;stroke:none;stroke-width:2"
       x="358.5874"
       y="3518.6956"
       id="text10"
       inkscape:label="figure"><tspan
         sodipodi:role="line"
         id="tspan10"
         x="358.5874"
         y="3518.6956">figure: 2b</tspan></text>
    <text
       xml:space="preserve"
       style="font-size:42.6667px;line-height:0;font-family:sans-serif;-inkscape-font-specification:sans-serif;text-align:start;writing-mode:lr-tb;direction:ltr;text-anchor:start;fill:none;stroke:#000000;stroke-width:0.5;stroke-dasharray:none;stroke-opacity:1"
       x="349.86768"
       y="3577.2163"
       id="text15"
       inkscape:label="tags"><tspan
         sodipodi:role="line"
         id="tspan15"
         x="349.86768"
         y="3577.2163"
         style="fill:#000000;fill-opacity:1;stroke:#000000;stroke-opacity:1">tags: BCV</tspan></text>
    <g
       id="g1">
      <text
         xml:space="preserve"
         style="font-size:42.6667px;line-height:0;font-family:sans-serif;-inkscape-font-specification:sans-serif;text-align:start;writing-mode:lr-tb;direction:ltr;text-anchor:start;fill:#000000;stroke:#000000;stroke-width:2"
         x="333.1084"
         y="3365.1624"
         id="text7"
         inkscape:label="curve"><tspan
           sodipodi:role="line"
           id="tspan7"
           x="333.1084"
           y="3365.1624"
           style="stroke:none">curve: black</tspan></text>
      <path
         style="fill:none;stroke:#ee1024"
         d="m 2183.0794,3694.5742 c 0,0 22.8017,-83.9863 127.6755,-102.1977 59.8983,-10.4014 144.2183,-23.3554 171.7607,-66.9867 21.096,-33.4193 19.9796,-99.0962 41.5089,-99.9075 23.7065,-0.8933 9.3053,73.3034 66.9867,81.0138 9.6273,1.2869 19.7759,-4.8321 29.4856,-4.5803 25.5059,0.6614 58.128,24.3822 97.6174,24.3328 32.2289,-0.04 72.3011,-10.6732 95.8998,-12.3095 71.0276,-4.925 68.8214,-53.7708 75.2884,-77.8649 14.7566,-54.9786 14.8024,-170.013 18.6074,-169.7569 2.7144,0.1827 -4.5064,156.7333 -10.0193,240.4651 -3.015,45.7929 -12.794,137.1472 -24.9053,135.4047 -10.6088,-1.5263 -11.1327,-37.8791 -24.6191,-48.3792 -28.2264,-21.9761 -52.0635,-16.1312 -109.0681,-8.0155 -41.2613,5.8744 -82.1129,14.4828 -122.8089,23.4739 -21.8075,4.818 -22.7476,-3.1258 -64.9829,16.3173 -6.0368,2.7791 -49.8251,-8.0231 -70.1356,90.4607 -8.5919,41.6613 -17.8672,124.9171 -30.3444,123.954 -9.9244,-0.7661 -15.5667,-67.7392 -19.4662,-102.1977 -3.4375,-30.3755 -3.6774,-100.0561 -35.4972,-97.9036 -13.7408,0.9295 -10.8581,7.7467 -44.2393,8.6806 -11.6817,0.3268 -10.4595,-0.7394 -21.3161,-0.6651 -7.1659,0.049 -20.9621,2.6237 -26.3411,2.1707 -16.4477,-1.3853 -18.2836,-7.9618 -33.2027,-6.751 -61.8783,5.0223 -93.7821,89.6933 -95.8997,87.8843 -1.2493,-1.0672 3.7215,-22.3289 3.7215,-22.3289"
         id="path1"
         sodipodi:nodetypes="cssssssssssssssssssssssssc" />
    </g>
  </g>
</svg>
