<?xml version="1.0" encoding="UTF-8" standalone="no"?>
<svg
   height="6612px"
   version="1.1"
   width="4931px"
   id="svg53"
   sodipodi:docname="pajkossy_1996_impedance_209_f1a_solid.svg"
   inkscape:version="1.4.2 (f4327f4, 2025-05-13)"
   xmlns:inkscape="http://www.inkscape.org/namespaces/inkscape"
   xmlns:sodipodi="http://sodipodi.sourceforge.net/DTD/sodipodi-0.dtd"
   xmlns:xlink="http://www.w3.org/1999/xlink"
   xmlns="http://www.w3.org/2000/svg"
   xmlns:svg="http://www.w3.org/2000/svg"
   xmlns:rdf="http://www.w3.org/1999/02/22-rdf-syntax-ns#"
   xmlns:cc="http://creativecommons.org/ns#"
   xmlns:dc="http://purl.org/dc/elements/1.1/">
  <metadata
     id="metadata28">
    <rdf:RDF>
      <cc:Work
         rdf:about="">
        <dc:format>image/svg+xml</dc:format>
        <dc:type
           rdf:resource="http://purl.org/dc/dcmitype/StillImage" />
      </cc:Work>
    </rdf:RDF>
  </metadata>
  <sodipodi:namedview
     id="namedview55"
     pagecolor="#ffffff"
     bordercolor="#666666"
     borderopacity="1.0"
     inkscape:pageshadow="2"
     inkscape:pageopacity="0.0"
     inkscape:pagecheckerboard="0"
     showgrid="false"
     inkscape:zoom="0.8892922"
     inkscape:cx="1793.5612"
     inkscape:cy="5321.6479"
     inkscape:window-width="2880"
     inkscape:window-height="1694"
     inkscape:window-x="-11"
     inkscape:window-y="-11"
     inkscape:window-maximized="1"
     inkscape:current-layer="svg53"
     inkscape:showpageshadow="2"
     inkscape:deskcolor="#d1d1d1" />
  <defs
     id="defs49" />
  <image
     xlink:href="pajkossy_1996_impedance_209_p3.png"
     id="image51"
     y="0"
     x="0"
     width="4931px"
     sodipodi:insensitive="true"
     height="6612px" />
  <g
     id="g10864">
    <path
       style="fill:none;stroke:#000000;stroke-width:1px;stroke-linecap:butt;stroke-linejoin:miter;stroke-opacity:1"
       d="M 1282.4373,4943.7898 882.10748,4889.8139"
       id="path208" />
    <text
       xml:space="preserve"
       style="font-size:85.3333px;line-height:1.25;font-family:sans-serif"
       x="309.27679"
       y="4898.8232"
       id="text6060"><tspan
         sodipodi:role="line"
         id="tspan6058"
         x="309.27679"
         y="4898.8232">j2: 2 uA / cm2</tspan></text>
  </g>
  <g
     id="g10859">
    <path
       style="fill:none;stroke:#000000;stroke-width:1px;stroke-linecap:butt;stroke-linejoin:miter;stroke-opacity:1"
       d="m 1284.6857,5359.8151 -355.36194,24.7541"
       id="path206" />
    <text
       xml:space="preserve"
       style="font-size:85.3333px;line-height:1.25;font-family:sans-serif"
       x="337.89426"
       y="5420.3677"
       id="text7120"><tspan
         sodipodi:role="line"
         id="tspan7118"
         x="337.89426"
         y="5420.3677">j1: 0 uA / cm2</tspan></text>
  </g>
  <g
     id="g10854">
    <path
       style="fill:none;stroke:#000000;stroke-width:1px;stroke-linecap:butt;stroke-linejoin:miter;stroke-opacity:1"
       d="m 1426.3346,5568.981 -258.6232,110.1857"
       id="path210" />
    <text
       xml:space="preserve"
       style="font-size:85.3333px;line-height:1.25;font-family:sans-serif"
       x="706.82245"
       y="5744.8105"
       id="text8186"><tspan
         sodipodi:role="line"
         id="tspan8184"
         x="706.82245"
         y="5744.8105">E1: -0.6 V vs SCE</tspan></text>
  </g>
  <g
     id="g10849">
    <path
       style="fill:none;stroke:#000000;stroke-width:1px;stroke-linecap:butt;stroke-linejoin:miter;stroke-opacity:1"
       d="m 2283.999,5571.2148 -6.7452,170.9358"
       id="path212" />
    <text
       xml:space="preserve"
       style="font-size:85.3333px;line-height:1.25;font-family:sans-serif"
       x="2093.5029"
       y="5814.6724"
       id="text9510"><tspan
         sodipodi:role="line"
         id="tspan9508"
         x="2093.5029"
         y="5814.6724">E2: 0.6 V vs SCE</tspan></text>
  </g>
  <text
     xml:space="preserve"
     style="font-size:85.3333px;line-height:1.25;font-family:sans-serif"
     x="1354.9177"
     y="4827.3286"
     id="text26380"><tspan
       sodipodi:role="line"
       id="tspan26378"
       x="1354.9177"
       y="4827.3286">scan rate: 10 mV / s</tspan></text>
  <text
     xml:space="preserve"
     style="font-size:80px;line-height:1.25;font-family:sans-serif;-inkscape-font-specification:sans-serif;letter-spacing:0px;word-spacing:0px"
     x="-832.12244"
     y="4623.9019"
     id="text2712"><tspan
       sodipodi:role="line"
       id="tspan2710"
       x="-832.12244"
       y="4623.9019">Figure: 1a</tspan></text>
  <text
     xml:space="preserve"
     style="font-size:80px;line-height:1.25;font-family:sans-serif;-inkscape-font-specification:sans-serif;letter-spacing:0px;word-spacing:0px"
     x="-800.63672"
     y="4826.3101"
     id="text3640"><tspan
       sodipodi:role="line"
       id="tspan3638"
       x="-800.63672"
       y="4826.3101">Tags: BCV</tspan></text>
  <g
     id="g1">
    <text
       xml:space="preserve"
       style="font-size:85.3333px;line-height:1.25;font-family:sans-serif"
       x="1314.229"
       y="4669.772"
       id="text12342"><tspan
         sodipodi:role="line"
         id="tspan12340"
         x="1314.229"
         y="4669.772">curve: solid</tspan></text>
    <path
       style="fill:none;stroke:#ff0000;stroke-width:3.4"
       d="m 1286.925,5343.3029 c 73.2991,-0.2555 77.4157,-0.1648 116.0896,-1.5903 44.1795,-1.6284 88.3787,-3.7685 132.3898,-7.9513 31.6641,-3.0094 62.8757,-10.3476 94.621,-12.3246 25.7922,-1.6063 51.7355,2.0381 77.5256,0.3976 23.0815,-1.4682 45.8925,-5.811 68.7792,-9.1441 58.6858,-8.5468 112.4197,-9.9942 175.7246,-27.8297 27.3448,-7.7041 52.1248,-24.6293 73.1524,-43.7324 17.6114,-15.9995 28.4572,-25.7212 45.9814,-31.4037 19.1264,-6.202 50.3771,-26.95 66.0775,-31.8301 19.1526,-5.9531 26.9665,-0.929 45.8747,-5.3466 25.8253,-6.0335 37.6998,-3.6105 52.8764,-17.7911 33.6589,-31.4497 47.9328,-94.3377 56.9516,-124.5379 2.4558,31.6827 5.6919,232.8533 0.5963,346.8774 -3.5898,21.8345 -13.945,40.4991 -21.0711,66.9901 -7.4308,27.6235 -39.7757,41.407 -51.6837,42.7384 -31.7847,3.5537 -48.2751,-5.5695 -71.5621,-0.3975 -22.048,4.8968 -38.644,28.6087 -61.2254,29.0224 -19.4249,0.3559 -58.4263,-10.5674 -68.3815,-18.6857 -18.6594,-15.2164 -52.9898,-40.0773 -84.2843,-46.1178 -47.5314,-9.1746 -79.2689,-13.8832 -119.2701,-17.8905 -46.7396,-4.6824 -93.7926,-5.5551 -140.7388,-7.1562 -129.5512,-4.4184 -281.4729,-4.0409 -388.8207,-6.7587 0,0 -3.6101,-75.5237 0.3976,-75.5377 z"
       id="path1"
       sodipodi:nodetypes="ssssssssssssccssssssssss" />
  </g>
</svg>
