<?xml version="1.0" encoding="UTF-8" standalone="no"?>
<svg
   height="6612px"
   version="1.1"
   width="4931px"
   id="svg14147"
   sodipodi:docname="pajkossy_1996_impedance_209_f3a_a.svg"
   inkscape:version="1.4.2 (f4327f4, 2025-05-13)"
   xmlns:inkscape="http://www.inkscape.org/namespaces/inkscape"
   xmlns:sodipodi="http://sodipodi.sourceforge.net/DTD/sodipodi-0.dtd"
   xmlns:xlink="http://www.w3.org/1999/xlink"
   xmlns="http://www.w3.org/2000/svg"
   xmlns:svg="http://www.w3.org/2000/svg"
   xmlns:rdf="http://www.w3.org/1999/02/22-rdf-syntax-ns#"
   xmlns:cc="http://creativecommons.org/ns#"
   xmlns:dc="http://purl.org/dc/elements/1.1/">
  <metadata
     id="metadata28">
    <rdf:RDF>
      <cc:Work
         rdf:about="">
        <dc:format>image/svg+xml</dc:format>
        <dc:type
           rdf:resource="http://purl.org/dc/dcmitype/StillImage" />
      </cc:Work>
    </rdf:RDF>
  </metadata>
  <sodipodi:namedview
     id="namedview14149"
     pagecolor="#ffffff"
     bordercolor="#666666"
     borderopacity="1.0"
     inkscape:pageshadow="2"
     inkscape:pageopacity="0.0"
     inkscape:pagecheckerboard="0"
     showgrid="false"
     inkscape:zoom="0.88929222"
     inkscape:cx="3538.7693"
     inkscape:cy="832.68467"
     inkscape:window-width="2880"
     inkscape:window-height="1694"
     inkscape:window-x="-11"
     inkscape:window-y="-11"
     inkscape:window-maximized="1"
     inkscape:current-layer="svg14147"
     inkscape:showpageshadow="2"
     inkscape:deskcolor="#d1d1d1" />
  <defs
     id="defs14143" />
  <image
     xlink:href="pajkossy_1996_impedance_209_p4.png"
     id="image14145"
     y="0"
     x="0"
     width="4931px"
     sodipodi:insensitive="true"
     height="6612px" />
  <g
     id="g19913">
    <path
       style="fill:none;stroke:#000000;stroke-width:1px;stroke-linecap:butt;stroke-linejoin:miter;stroke-opacity:1"
       d="M 2973.6315,715.6836 2753.231,621.24376"
       id="path14264" />
    <text
       xml:space="preserve"
       style="font-size:85.3333px;line-height:1.25;font-family:sans-serif"
       x="2256.2778"
       y="614.5058"
       id="text17460"><tspan
         sodipodi:role="line"
         id="tspan17458"
         x="2256.2778"
         y="614.5058">j2: 6 uA / cm2</tspan></text>
  </g>
  <g
     id="g19918">
    <path
       style="fill:none;stroke:#000000;stroke-width:1px;stroke-linecap:butt;stroke-linejoin:miter;stroke-opacity:1"
       d="m 2975.88,1408.3627 -166.3814,29.2219"
       id="path14266" />
    <text
       xml:space="preserve"
       style="font-size:85.3333px;line-height:1.25;font-family:sans-serif"
       x="2348.4622"
       y="1514.0443"
       id="text19048"><tspan
         sodipodi:role="line"
         id="tspan19046"
         x="2348.4622"
         y="1514.0443">j1: -2 uA / cm2</tspan></text>
  </g>
  <g
     id="g25786">
    <path
       style="fill:none;stroke:#000000;stroke-width:1px;stroke-linecap:butt;stroke-linejoin:miter;stroke-opacity:1"
       d="m 3158.0577,1581.5323 -281.1072,128.1659"
       id="path19953" />
    <text
       xml:space="preserve"
       style="font-size:85.3333px;line-height:1.25;font-family:sans-serif"
       x="2496.9111"
       y="1763.6741"
       id="text21522"><tspan
         sodipodi:role="line"
         id="tspan21520"
         x="2496.9111"
         y="1763.6741">E1: -0.6 V vs SCE</tspan></text>
  </g>
  <g
     id="g25781">
    <path
       style="fill:none;stroke:#000000;stroke-width:1px;stroke-linecap:butt;stroke-linejoin:miter;stroke-opacity:1"
       d="m 4239.8217,1577.0283 56.2099,155.1899"
       id="path19990" />
    <text
       xml:space="preserve"
       style="font-size:85.3333px;line-height:1.25;font-family:sans-serif"
       x="4222.8984"
       y="1805.3923"
       id="text24004"><tspan
         sodipodi:role="line"
         id="tspan24002"
         x="4222.8984"
         y="1805.3923">E2: 0.6 V vs SCE</tspan></text>
  </g>
  <text
     xml:space="preserve"
     style="font-size:85.3333px;line-height:1.25;font-family:sans-serif"
     x="3253.0259"
     y="509.28476"
     id="text31607"><tspan
       sodipodi:role="line"
       id="tspan31605"
       x="3253.0259"
       y="509.28476">scan rate: 10 mV / s</tspan></text>
  <text
     xml:space="preserve"
     style="font-size:80px;line-height:1.25;font-family:sans-serif;-inkscape-font-specification:sans-serif;letter-spacing:0px;word-spacing:0px"
     x="5139.7485"
     y="337.13696"
     id="text2720"><tspan
       sodipodi:role="line"
       id="tspan2718"
       x="5139.7485"
       y="337.13696">Figure: 3a</tspan></text>
  <text
     xml:space="preserve"
     style="font-size:80px;line-height:1.25;font-family:sans-serif;-inkscape-font-specification:sans-serif;letter-spacing:0px;word-spacing:0px"
     x="5184.2759"
     y="496.16385"
     id="text4066"><tspan
       sodipodi:role="line"
       id="tspan4064"
       x="5184.2759"
       y="496.16385">Tags: BCV, SHA</tspan></text>
  <g
     id="g1">
    <text
       xml:space="preserve"
       style="font-size:85.3333px;line-height:1.25;font-family:sans-serif"
       x="2893.4695"
       y="222.061"
       id="text32589"><tspan
         sodipodi:role="line"
         id="tspan32587"
         x="2893.4695"
         y="222.061">curve: a</tspan></text>
    <path
       style="fill:none;stroke:#ff0000;stroke-width:3.4"
       d="m 3340.3594,1218.5434 c 47.6788,-0.8306 78.6463,1.9556 117.6798,-1.9879 28.0326,-2.8321 57.0932,-9.8139 83.0916,-15.5051 24.7429,-5.4164 43.0171,-27.0513 62.418,-43.3348 16.8676,-14.1573 39.5595,-35.3496 46.5154,-46.9129 34.8323,-57.9046 27.5783,-197.16002 36.1786,-197.59091 4.0362,-0.20222 -3.7276,24.0836 9.9392,53.47278 10.0017,20.13902 12.2204,41.83283 16.3002,62.61683 3.7251,13.9116 9.2629,37.9477 19.4808,38.564 39.644,2.3912 64.1569,3.5752 115.2945,1.1927 15.8814,-0.7399 67.4731,51.2529 102.1748,75.5378 24.336,17.0308 33.7932,26.4382 82.694,38.3652 28.9243,6.964 54.5869,5.1207 86.6696,4.9696 19.2771,-0.091 44.7573,-14.3572 54.8642,-18.2881 8.0424,-3.128 10.4543,17.5582 19.0833,17.493 41.523,-0.3136 42.1719,3.886 99.3918,9.9391 33.6835,3.5633 43.5956,-2.7042 92.8319,0.994 -0.2845,12.5789 0.7302,25.7819 -0.5964,38.7628 -3.5132,13.9748 -18.2138,17.5997 -28.4261,22.8601 -31.6079,16.2814 -65.9441,25.9798 -101.1808,26.8358 -23.0726,0.5605 -50.9963,9.2479 -73.7486,13.1197 -13.5731,2.3097 -11.9879,14.5876 -14.9088,14.71 -3.2779,0.1374 -15.614,-13.4622 -25.0468,-17.0954 -6.3661,-2.452 -18.8341,-5.542 -25.6431,-5.9635 -31.0858,-1.9242 -57.375,-0.9553 -88.0611,4.3732 -26.5089,4.6031 -55.2683,9.5004 -76.3329,26.2394 -24.9305,19.8111 -32.2029,27.0346 -69.9718,58.0448 -14.887,12.0219 -39.1929,29.783 -47.7081,31.9048 -15.3661,3.8289 -100.0719,0.1592 -139.1485,-0.099 -4.3174,-0.029 -13.8247,6.7456 -32.0041,7.852 -19.906,1.2115 -23.1863,-9.7067 -33.1969,-8.6471 -5.3369,0.5649 -5.2718,5.9614 -10.6349,5.7647 -9.825,-0.3603 -37.0968,-92.368 -71.2639,-122.2519 -15.2865,-13.3702 -98.9029,-20.7927 -149.4852,-27.0346 -19.7502,-2.4372 -35.2368,-0.076 -59.8339,-3.5781 1.1728,-12.4793 1.7445,-35.2276 2.5842,-45.3226 z"
       id="path1"
       sodipodi:nodetypes="csssssssssssssssccsssssssssssssssscc" />
  </g>
</svg>
