<?xml version="1.0" encoding="UTF-8" standalone="no"?>
<svg
   height="6612px"
   version="1.1"
   width="4931px"
   id="svg47954"
   sodipodi:docname="pajkossy_1996_impedance_209_f8a_a.svg"
   inkscape:version="1.4.2 (f4327f4, 2025-05-13)"
   xmlns:inkscape="http://www.inkscape.org/namespaces/inkscape"
   xmlns:sodipodi="http://sodipodi.sourceforge.net/DTD/sodipodi-0.dtd"
   xmlns:xlink="http://www.w3.org/1999/xlink"
   xmlns="http://www.w3.org/2000/svg"
   xmlns:svg="http://www.w3.org/2000/svg"
   xmlns:rdf="http://www.w3.org/1999/02/22-rdf-syntax-ns#"
   xmlns:cc="http://creativecommons.org/ns#"
   xmlns:dc="http://purl.org/dc/elements/1.1/">
  <metadata
     id="metadata28">
    <rdf:RDF>
      <cc:Work
         rdf:about="">
        <dc:format>image/svg+xml</dc:format>
        <dc:type
           rdf:resource="http://purl.org/dc/dcmitype/StillImage" />
      </cc:Work>
    </rdf:RDF>
  </metadata>
  <sodipodi:namedview
     id="namedview47956"
     pagecolor="#ffffff"
     bordercolor="#666666"
     borderopacity="1.0"
     inkscape:pageshadow="2"
     inkscape:pageopacity="0.0"
     inkscape:pagecheckerboard="0"
     showgrid="false"
     inkscape:zoom="0.91107077"
     inkscape:cx="1207.3705"
     inkscape:cy="1289.1424"
     inkscape:window-width="2880"
     inkscape:window-height="1694"
     inkscape:window-x="-11"
     inkscape:window-y="-11"
     inkscape:window-maximized="1"
     inkscape:current-layer="svg47954"
     inkscape:showpageshadow="2"
     inkscape:deskcolor="#d1d1d1" />
  <defs
     id="defs47950" />
  <image
     xlink:href="pajkossy_1996_impedance_209_p7.png"
     id="image47952"
     y="0"
     x="0"
     width="4931px"
     sodipodi:insensitive="true"
     height="6612px" />
  <g
     id="g58784"
     transform="translate(4.6555788,3.0838549)">
    <path
       style="fill:none;stroke:#000000;stroke-width:1px;stroke-linecap:butt;stroke-linejoin:miter;stroke-opacity:1"
       d="M 678.19777,721.6372 498.18307,423.6021"
       id="path48032" />
    <text
       xml:space="preserve"
       style="font-size:85.3333px;line-height:1.25;font-family:sans-serif"
       x="187.65356"
       y="336.6586"
       id="text49708"><tspan
         sodipodi:role="line"
         id="tspan49706"
         x="187.65356"
         y="336.6586">j2: 7.5 uA / cm2</tspan></text>
  </g>
  <g
     id="g58779"
     transform="translate(0,-1.5419274)">
    <path
       style="fill:none;stroke:#000000;stroke-width:1px;stroke-linecap:butt;stroke-linejoin:miter;stroke-opacity:1"
       d="M 684.40527,1466.725 572.67195,1814.3996"
       id="path47991" />
    <text
       xml:space="preserve"
       style="font-size:85.3333px;line-height:1.25;font-family:sans-serif"
       x="274.55725"
       y="1845.4364"
       id="text52946"><tspan
         sodipodi:role="line"
         id="tspan52944"
         x="274.55725"
         y="1845.4364">j1: -2.5 uA / cm2</tspan></text>
  </g>
  <g
     id="g58774"
     transform="translate(-4.6555313)">
    <path
       style="fill:none;stroke:#000000;stroke-width:1px;stroke-linecap:butt;stroke-linejoin:miter;stroke-opacity:1"
       d="m 864.41997,1640.5126 -31.03713,403.5809"
       id="path47993" />
    <text
       xml:space="preserve"
       style="font-size:85.3333px;line-height:1.25;font-family:sans-serif"
       x="833.38281"
       y="2044.0935"
       id="text54006"><tspan
         sodipodi:role="line"
         id="tspan54004"
         x="833.38281"
         y="2044.0935">E1: -0.8 V vs SCE</tspan></text>
  </g>
  <g
     id="g58769"
     transform="translate(1.5518754,3.1086773)">
    <path
       style="fill:none;stroke:#000000;stroke-width:1px;stroke-linecap:butt;stroke-linejoin:miter;stroke-opacity:1"
       d="m 2068.9754,1640.5126 198.637,229.7932"
       id="path47995" />
    <text
       xml:space="preserve"
       style="font-size:85.3333px;line-height:1.25;font-family:sans-serif"
       x="2267.6123"
       y="1870.3058"
       id="text55726"><tspan
         sodipodi:role="line"
         id="tspan55724"
         x="2267.6123"
         y="1870.3058">E2: 0.6 V vs SCE</tspan></text>
  </g>
  <text
     xml:space="preserve"
     style="font-size:85.3333px;line-height:1.25;font-family:sans-serif"
     x="761.27502"
     y="525.37915"
     id="text65744"><tspan
       sodipodi:role="line"
       id="tspan65742"
       x="761.27502"
       y="525.37915">scan rate: 10 mV / s</tspan></text>
  <text
     xml:space="preserve"
     style="font-size:80px;line-height:1.25;font-family:sans-serif;-inkscape-font-specification:sans-serif;letter-spacing:0px;word-spacing:0px"
     x="-1229.3855"
     y="471.88531"
     id="text3538"><tspan
       sodipodi:role="line"
       id="tspan3536"
       x="-1229.3855"
       y="471.88531">Figure: 8a</tspan></text>
  <text
     xml:space="preserve"
     style="font-size:80px;line-height:1.25;font-family:sans-serif;-inkscape-font-specification:sans-serif;letter-spacing:0px;word-spacing:0px"
     x="-1346.3966"
     y="167.83231"
     id="text3538-9"><tspan
       sodipodi:role="line"
       id="tspan3536-4"
       x="-1346.3966"
       y="167.83231">comment: Main peak does not fit the y-axis limits.</tspan></text>
  <text
     xml:space="preserve"
     style="font-size:80px;line-height:1.25;font-family:sans-serif;-inkscape-font-specification:sans-serif;letter-spacing:0px;word-spacing:0px"
     x="-1204.5494"
     y="670.57391"
     id="text4378"><tspan
       sodipodi:role="line"
       id="tspan4376"
       x="-1204.5494"
       y="670.57391">Tags: BCV, SHA</tspan></text>
  <g
     id="g1">
    <text
       xml:space="preserve"
       style="font-size:85.3333px;line-height:1.25;font-family:sans-serif"
       x="568.76593"
       y="444.70267"
       id="text60130"><tspan
         sodipodi:role="line"
         id="tspan60128"
         x="568.76593"
         y="444.70267">curve: a</tspan></text>
    <path
       style="fill:none;stroke:#ff0000;stroke-width:3.4"
       d="m 947.26464,1277.2933 c 17.67148,-9.6896 34.86647,-14.5587 52.10888,-14.4935 91.05958,0.3444 149.53588,-2.827 223.91238,-9.8785 25.2146,-2.3905 52.4178,-10.6682 77.5146,-14.0806 23.2029,-3.1549 36.804,-4.3598 70.4743,-10.7211 12.9075,-2.4387 19.9646,-27.3657 38.0559,-48.7381 12.4814,-14.7451 27.7112,-29.9029 33.3399,-46.6484 12.3009,-36.5957 14.8206,-109.5655 15.7781,-165.19026 1.5978,-92.82019 5.6703,-186.43597 8.5065,-279.34164 1.6202,-53.0718 2.5382,-141.18002 3.5672,-157.50697 3.7127,0 6.6972,-0.37339 9.9471,-0.0686 2.179,62.80505 2.072,127.39758 2.9498,188.85745 1.0063,70.4515 8.2403,140.86561 6.0369,211.28984 -1.9001,60.72925 -1.2457,80.08398 2.4696,119.63948 2.4735,26.3339 0.5746,78.6905 15.641,85.6136 44.1521,20.2881 95.1408,46.6944 140.2196,71.3445 8.4895,-55.8329 8.536,-122.951 9.5355,-183.095 10.5888,45.921 2.1581,119.0214 14.3375,181.4486 3.3769,17.3086 16.8939,36.0781 34.1631,39.6512 49.9892,10.3429 128.9175,9.2876 177.4011,8.6436 20.3309,-0.27 25.2103,7.7295 46.374,5.7624 20.4041,-1.8964 53.8001,2.3735 63.2498,-8.0947 8.6687,-9.603 8.4285,-81.5942 15.9153,-124.9904 8.4514,30.534 0.8296,59.8614 14.9549,83.0067 8.5647,14.0338 20.9359,20.6213 36.4956,25.9311 29.8423,1.9963 62.767,5.4558 92.748,6.86 -0.07,13.5079 0.9419,18.6806 0.5488,27.7147 -12.5089,17.2895 -29.2501,12.9324 -42.8068,18.9337 -11.0466,4.8902 -21.9141,15.392 -32.3795,17.013 -9.3116,1.4423 -41.1954,8.1619 -56.9384,18.385 -25.2453,16.3936 -30.2887,54.1908 -36.084,54.0572 -8.4817,-0.1954 -6.4307,-33.617 -10.29,-56.6641 -2.6167,-15.6261 2.0709,-34.5231 -25.6567,-34.5747 -99.8603,-0.1856 -254.371,3.9788 -277.1464,11.6621 -6.0171,2.0299 -11.4221,9.0928 -14.6805,14.5433 -6.5574,10.9687 -8.5733,22.6203 -8.3693,35.398 1.2715,79.6407 -4.6834,152.5186 -10.4273,235.986 -3.6794,-70.2316 1.2046,-176.9341 -4.1161,-248.0597 -39.5491,15.9455 -76.4506,39.0791 -102.7141,47.7779 -46.4768,15.3937 -80.038,27.8377 -108.3013,32.8964 -47.0999,8.4301 -100.8994,-2.3053 -142.0072,-9.3354 -45.5846,-7.7958 -81.658,-82.4121 -138.3797,-104.2083 -35.5921,-13.6769 -115.7333,-5.7998 -149.9369,-3.989 -29.85822,1.5807 -34.67489,15.799 -46.59468,12.2069 -0.2624,-12.2782 -0.0193,-24.928 0.58352,-34.9437 z"
       id="path1"
       sodipodi:nodetypes="cssssssssccssssccssssscssccsssssssssccssssscc" />
  </g>
</svg>
