<?xml version="1.0" encoding="UTF-8" standalone="no"?>
<svg
   height="6612px"
   version="1.1"
   width="4931px"
   id="svg53"
   sodipodi:docname="pajkossy_1996_impedance_209_f1a_dotted.svg"
   inkscape:version="1.4.2 (f4327f4, 2025-05-13)"
   xmlns:inkscape="http://www.inkscape.org/namespaces/inkscape"
   xmlns:sodipodi="http://sodipodi.sourceforge.net/DTD/sodipodi-0.dtd"
   xmlns:xlink="http://www.w3.org/1999/xlink"
   xmlns="http://www.w3.org/2000/svg"
   xmlns:svg="http://www.w3.org/2000/svg"
   xmlns:rdf="http://www.w3.org/1999/02/22-rdf-syntax-ns#"
   xmlns:cc="http://creativecommons.org/ns#"
   xmlns:dc="http://purl.org/dc/elements/1.1/">
  <metadata
     id="metadata28">
    <rdf:RDF>
      <cc:Work
         rdf:about="">
        <dc:format>image/svg+xml</dc:format>
        <dc:type
           rdf:resource="http://purl.org/dc/dcmitype/StillImage" />
      </cc:Work>
    </rdf:RDF>
  </metadata>
  <sodipodi:namedview
     id="namedview55"
     pagecolor="#ffffff"
     bordercolor="#666666"
     borderopacity="1.0"
     inkscape:pageshadow="2"
     inkscape:pageopacity="0.0"
     inkscape:pagecheckerboard="0"
     showgrid="false"
     inkscape:zoom="0.62882454"
     inkscape:cx="1704.7681"
     inkscape:cy="5080.1134"
     inkscape:window-width="2880"
     inkscape:window-height="1694"
     inkscape:window-x="-11"
     inkscape:window-y="-11"
     inkscape:window-maximized="1"
     inkscape:current-layer="svg53"
     inkscape:showpageshadow="2"
     inkscape:deskcolor="#d1d1d1" />
  <defs
     id="defs49" />
  <image
     xlink:href="pajkossy_1996_impedance_209_p3.png"
     height="6612px"
     sodipodi:insensitive="true"
     width="4931px"
     x="0"
     y="0"
     id="image51" />
  <g
     id="g10864">
    <path
       style="fill:none;stroke:#000000;stroke-width:1px;stroke-linecap:butt;stroke-linejoin:miter;stroke-opacity:1"
       d="M 1282.4373,4943.7898 882.10748,4889.8139"
       id="path208"
       inkscape:connector-curvature="0" />
    <text
       xml:space="preserve"
       style="font-size:85.3333px;line-height:1.25;font-family:sans-serif"
       x="309.27679"
       y="4898.8232"
       id="text6060"><tspan
         sodipodi:role="line"
         id="tspan6058"
         x="309.27679"
         y="4898.8232">j2: 2 uA / cm2</tspan></text>
  </g>
  <g
     id="g10859">
    <path
       style="fill:none;stroke:#000000;stroke-width:1px;stroke-linecap:butt;stroke-linejoin:miter;stroke-opacity:1"
       d="m 1284.6857,5359.8151 -355.36194,24.7541"
       id="path206"
       inkscape:connector-curvature="0" />
    <text
       xml:space="preserve"
       style="font-size:85.3333px;line-height:1.25;font-family:sans-serif"
       x="337.89426"
       y="5420.3677"
       id="text7120"><tspan
         sodipodi:role="line"
         id="tspan7118"
         x="337.89426"
         y="5420.3677">j1: 0 uA / cm2</tspan></text>
  </g>
  <g
     id="g862">
    <path
       style="fill:none;stroke:#000000;stroke-width:1px;stroke-linecap:butt;stroke-linejoin:miter;stroke-opacity:1"
       d="m 1426.3346,5568.981 -258.6232,110.1857"
       id="path210"
       inkscape:connector-curvature="0" />
    <text
       xml:space="preserve"
       style="font-size:85.3333px;line-height:1.25;font-family:sans-serif"
       x="706.82245"
       y="5744.8105"
       id="text8186"><tspan
         sodipodi:role="line"
         id="tspan8184"
         x="706.82245"
         y="5744.8105">E1: -0.6 V vs SCE</tspan></text>
  </g>
  <g
     id="g10849">
    <path
       style="fill:none;stroke:#000000;stroke-width:1px;stroke-linecap:butt;stroke-linejoin:miter;stroke-opacity:1"
       d="m 2283.999,5571.2148 -6.7452,170.9358"
       id="path212"
       inkscape:connector-curvature="0" />
    <text
       xml:space="preserve"
       style="font-size:85.3333px;line-height:1.25;font-family:sans-serif"
       x="2093.5029"
       y="5814.6724"
       id="text9510"><tspan
         sodipodi:role="line"
         id="tspan9508"
         x="2093.5029"
         y="5814.6724">E2: 0.6 V vs SCE</tspan></text>
  </g>
  <text
     xml:space="preserve"
     style="font-size:85.3333px;line-height:1.25;font-family:sans-serif"
     x="1354.9177"
     y="4827.3286"
     id="text26380"><tspan
       sodipodi:role="line"
       id="tspan26378"
       x="1354.9177"
       y="4827.3286">scan rate: 10 mV / s</tspan></text>
  <text
     xml:space="preserve"
     style="font-size:80px;line-height:1.25;font-family:sans-serif;-inkscape-font-specification:sans-serif;letter-spacing:0px;word-spacing:0px"
     x="-683.68982"
     y="4646.3916"
     id="text4096"><tspan
       sodipodi:role="line"
       id="tspan4094"
       x="-683.68982"
       y="4646.3916">Figure: 1a</tspan></text>
  <text
     xml:space="preserve"
     style="font-size:80px;line-height:1.25;font-family:sans-serif;-inkscape-font-specification:sans-serif;letter-spacing:0px;word-spacing:0px"
     x="-683.68982"
     y="4826.3101"
     id="text5024"><tspan
       sodipodi:role="line"
       id="tspan5022"
       x="-683.68982"
       y="4826.3101">Tags: BCV</tspan></text>
  <g
     id="g1">
    <text
       xml:space="preserve"
       style="font-size:85.3333px;line-height:1.25;font-family:sans-serif"
       x="1314.229"
       y="4669.772"
       id="text12342"><tspan
         sodipodi:role="line"
         id="tspan12340"
         x="1314.229"
         y="4669.772">curve: dotted</tspan></text>
    <path
       style="fill:none;stroke:#ff0000;stroke-width:3.4"
       d="m 1646.2531,5324.178 c 48.6964,-2.0512 98.8936,3.0826 147.8704,-2.5301 53.3185,-6.1102 106.5151,-16.7635 157.4285,-33.7346 40.7308,-13.5769 70.0159,-25.9257 116.947,-53.9756 14.7616,-8.8228 32.7514,-10.6204 49.4775,-14.6183 11.5838,-2.7688 23.2701,-7.4395 35.1403,-6.4658 24.1224,1.9788 22.6119,15.5566 34.8592,21.6464 10.5182,5.23 21.439,10.0371 32.8913,12.6505 23.5575,5.3757 41.5725,5.0124 72.2485,5.9036 1.3789,0.04 -0.8531,184.292 -2.8112,185.2597 -27.1699,13.4269 -41.742,24.7563 -61.2847,39.076 -16.3655,11.9917 -27.3752,32.7923 -46.6663,39.076 -15.8958,5.1778 -33.359,-2.2625 -50.0398,-3.3735 -14.2428,-0.9486 -28.4566,-2.7176 -42.7306,-2.8112 -8.9144,-0.058 -17.9506,-0.2679 -26.7067,1.4056 -8.6446,1.6522 -16.3506,9.9506 -25.0199,8.4337 -18.2491,-3.1932 -44.4398,-24.4899 -67.1882,-35.7026 -33.2506,-16.3892 -65.4067,-36.4731 -101.2041,-46.104 -36.0073,-9.6874 -74.1008,-8.7797 -111.3245,-10.9638 -39.2967,-2.3057 -69.0473,-0.3805 -112.7301,-2.249 -2.626,-0.1123 -0.7558,-100.8556 0.8434,-100.923 z"
       id="path1"
       sodipodi:nodetypes="sssssssssssssssssssss" />
  </g>
</svg>
