<?xml version="1.0" encoding="UTF-8" standalone="no"?>
<svg
   height="6520px"
   version="1.1"
   width="4961px"
   id="svg6"
   sodipodi:docname="bi_2018_minimizing_9-5222_p4_f3b_red_6.svg"
   inkscape:version="1.1.2 (b8e25be833, 2022-02-05)"
   xmlns:inkscape="http://www.inkscape.org/namespaces/inkscape"
   xmlns:sodipodi="http://sodipodi.sourceforge.net/DTD/sodipodi-0.dtd"
   xmlns:xlink="http://www.w3.org/1999/xlink"
   xmlns="http://www.w3.org/2000/svg"
   xmlns:svg="http://www.w3.org/2000/svg">
  <sodipodi:namedview
     id="namedview8"
     pagecolor="#ffffff"
     bordercolor="#666666"
     borderopacity="1.0"
     inkscape:pageshadow="2"
     inkscape:pageopacity="0.0"
     inkscape:pagecheckerboard="0"
     showgrid="false"
     inkscape:zoom="0.49570552"
     inkscape:cx="3450.6374"
     inkscape:cy="1320.3403"
     inkscape:window-width="1920"
     inkscape:window-height="1001"
     inkscape:window-x="-9"
     inkscape:window-y="-9"
     inkscape:window-maximized="1"
     inkscape:current-layer="svg6" />
  <defs
     id="defs2" />
  <image
     height="6520px"
     sodipodi:insensitive="true"
     width="4961px"
     x="0"
     xlink:href="bi_2018_minimizing_9-5222_p4.png"
     y="0"
     id="image4" />
  <g
     id="g955">
    <path
       style="fill:none;stroke:#000000;stroke-width:1px;stroke-linecap:butt;stroke-linejoin:miter;stroke-opacity:1"
       d="m 3355.995,1293.0427 c 0,0 53.1947,-0.4989 190.1553,-24.8983 29.2378,-5.2087 82.8603,-11.0598 104.7996,-11.2807 21.3656,-0.2151 56.0937,0.1929 77.6924,-8.3437 20.9982,-8.2992 45.814,-14.3246 62.5119,-30.5597 11.7745,-11.4482 35.1327,-30.77 45.7254,-39.2243 9.0903,-7.2551 23.5095,-30.216 23.5095,-30.216 0,0 -10.5862,56.1458 -16.6831,70.8816 -14.5049,35.0578 -42.7048,62.2437 -90.5498,69.6065 -49.6637,7.6426 -166.8576,15.3605 -192.6398,26.6115 -23.7639,10.3702 -78.2667,15.256 -131.1053,11.0044 -18.0782,-1.4546 -67.218,-0.5372 -88.2006,-5.4219 -31.2133,-7.2665 -40.8502,-9.6997 -66.4457,-10.5438 -26.1857,-0.8635 -49.1562,-3.911 -68.7329,-3.0274 -15.7503,0.7109 -29.6423,2.2564 -36.5098,-0.2327 -14.3044,-5.1846 -37.7972,-3.9685 -71.1021,-2.2008 -40.5896,2.1544 -68.7943,9.4377 -91.3854,13.9735 -18.1361,3.6413 -49.5164,22.626 -105.1956,25.073 -18.6158,0.8182 -31.3228,3.4724 -45.9086,6.3553 -29.3375,5.7988 -53.9873,14.0593 -63.5872,20.919 -21.3087,15.2266 -31.5238,54.3184 -31.5238,54.3184 0,0 18.8921,-69.3539 46.1895,-90.1303 8.1654,-6.2148 46.0904,-16.943 80.7284,-19.9033 59.9811,-5.1263 113.3867,-8.7392 134.3698,-14.7368 29.5793,-8.4549 35.904,-8.9144 61.801,-9.2156 45.7411,-0.5319 116.7055,0.011 170.0508,-1.3415 54.3131,-1.3769 99.6801,-6.1575 99.6801,-6.1575"
       id="path858"
       sodipodi:nodetypes="cssssscssssssssssssscsssssc" />
    <text
       xml:space="preserve"
       style="font-size:21.3333px;line-height:1.25;font-family:sans-serif;letter-spacing:0px;word-spacing:0px"
       x="2843.5054"
       y="1401.8849"
       id="text7618"><tspan
         sodipodi:role="line"
         id="tspan7616"
         x="2843.5054"
         y="1401.8849">curve: red</tspan></text>
  </g>
  <text
     xml:space="preserve"
     style="font-size:21.3333px;line-height:1.25;font-family:sans-serif;letter-spacing:0px;word-spacing:0px"
     x="3126.8826"
     y="1102.4308"
     id="text8612"><tspan
       sodipodi:role="line"
       id="tspan8610"
       x="3126.8826"
       y="1102.4308">Figure: 3 a</tspan></text>
  <text
     xml:space="preserve"
     style="font-size:21.3333px;line-height:1.25;font-family:sans-serif;letter-spacing:0px;word-spacing:0px"
     x="2905.7805"
     y="912.71082"
     id="text13602"><tspan
       sodipodi:role="line"
       id="tspan13600"
       x="2905.7805"
       y="912.71082">tags: BCV</tspan></text>
  <text
     xml:space="preserve"
     style="font-size:21.3333px;line-height:1.25;font-family:sans-serif;letter-spacing:0px;word-spacing:0px"
     x="3417.8816"
     y="824.26996"
     id="text15538"><tspan
       sodipodi:role="line"
       id="tspan15536"
       x="3417.8816"
       y="824.26996">scan rate: 100 mV / s</tspan></text>
  <g
     id="g25139"
     transform="translate(1528.5491,1.8670345)">
    <path
       style="fill:none;stroke:#000000;stroke-width:1px;stroke-linecap:butt;stroke-linejoin:miter;stroke-opacity:1"
       d="M 1185.3928,546.33626 C 964.29062,621.93893 964.29062,621.93893 964.29062,621.93893"
       id="path17025" />
    <path
       style="fill:none;stroke:#000000;stroke-width:1px;stroke-linecap:butt;stroke-linejoin:miter;stroke-opacity:1"
       d="M 1183.9663,639.05651 C 964.29062,621.93893 964.29062,621.93893 964.29062,621.93893"
       id="path17140" />
    <text
       xml:space="preserve"
       style="font-size:21.3333px;line-height:1.25;font-family:sans-serif;letter-spacing:0px;word-spacing:0px"
       x="777.42365"
       y="621.9389"
       id="text18310"><tspan
         sodipodi:role="line"
         id="tspan18308"
         x="777.42365"
         y="621.9389">j_scale_bar: 0.5 mA / cm2</tspan></text>
  </g>
  <path
     style="fill:none;stroke:#000000;stroke-width:1px;stroke-linecap:butt;stroke-linejoin:miter;stroke-opacity:1"
     d="m 2657.0463,1295.407 c 1303.6357,0 1305.2158,0 1305.2158,0"
     id="path21510" />
  <g
     id="g25133"
     transform="translate(1540.6531,187.04328)">
    <path
       style="fill:none;stroke:#000000;stroke-width:1px;stroke-linecap:butt;stroke-linejoin:miter;stroke-opacity:1"
       d="m 847.40893,1052.1579 c 268.98417,56.2057 268.98417,56.2057 268.98417,56.2057"
       id="path21625" />
    <text
       xml:space="preserve"
       style="font-size:21.3333px;line-height:1.25;font-family:sans-serif;letter-spacing:0px;word-spacing:0px"
       x="733.20325"
       y="1025.6285"
       id="text22267"><tspan
         sodipodi:role="line"
         id="tspan22265"
         x="733.20325"
         y="1025.6285">j1: 0.0 mA / cm2</tspan></text>
  </g>
  <text
     xml:space="preserve"
     style="font-size:21.3333px;line-height:1.25;font-family:sans-serif;letter-spacing:0px;word-spacing:0px"
     x="2323.7825"
     y="1118.1218"
     id="text22755"><tspan
       sodipodi:role="line"
       id="tspan22753"
       x="2323.7825"
       y="1118.1218">comments: zero of j-axis not given. estimated by curator.</tspan></text>
  <g
     id="g29434"
     transform="translate(1472.0813,1.8670345)">
    <path
       style="fill:none;stroke:#000000;stroke-width:1px;stroke-linecap:butt;stroke-linejoin:miter;stroke-opacity:1"
       d="m 1300.9365,1529.1709 c -174.0288,149.7789 -174.0288,148.3524 -174.0288,148.3524"
       id="path25046" />
    <text
       xml:space="preserve"
       style="font-size:21.3333px;line-height:1.25;font-family:sans-serif;letter-spacing:0px;word-spacing:0px"
       x="995.67285"
       y="1716.0378"
       id="text25962"><tspan
         sodipodi:role="line"
         id="tspan25960"
         x="995.67285"
         y="1716.0378">E1: -2.0 V vs Ag</tspan></text>
  </g>
  <g
     id="g29429"
     transform="translate(1726.2471,-0.15029223)">
    <path
       style="fill:none;stroke:#000000;stroke-width:1px;stroke-linecap:butt;stroke-linejoin:miter;stroke-opacity:1"
       d="m 2235.2713,1529.1709 c 135.5142,212.5434 135.5142,212.5434 135.5142,212.5434"
       id="path25048" />
    <text
       xml:space="preserve"
       style="font-size:21.3333px;line-height:1.25;font-family:sans-serif;letter-spacing:0px;word-spacing:0px"
       x="2370.7854"
       y="1741.7144"
       id="text28804"><tspan
         sodipodi:role="line"
         id="tspan28802"
         x="2370.7854"
         y="1741.7144">E2: 2.0 V vs Ag</tspan></text>
  </g>
</svg>
