<?xml version="1.0" encoding="UTF-8" standalone="no"?>
<svg
   height="6600px"
   version="1.1"
   width="5100px"
   id="svg2"
   sodipodi:docname="wang_2001_in_2809_f2b_black.svg"
   inkscape:version="1.4.3 (0d15f75, 2025-12-25)"
   xmlns:inkscape="http://www.inkscape.org/namespaces/inkscape"
   xmlns:sodipodi="http://sodipodi.sourceforge.net/DTD/sodipodi-0.dtd"
   xmlns:xlink="http://www.w3.org/1999/xlink"
   xmlns="http://www.w3.org/2000/svg"
   xmlns:svg="http://www.w3.org/2000/svg">
  <sodipodi:namedview
     id="namedview2"
     pagecolor="#ffffff"
     bordercolor="#000000"
     borderopacity="0.25"
     inkscape:showpageshadow="2"
     inkscape:pageopacity="0.0"
     inkscape:pagecheckerboard="0"
     inkscape:deskcolor="#d1d1d1"
     inkscape:zoom="0.46424244"
     inkscape:cx="3800.8158"
     inkscape:cy="1783.5509"
     inkscape:window-width="1728"
     inkscape:window-height="1010"
     inkscape:window-x="-6"
     inkscape:window-y="-6"
     inkscape:window-maximized="1"
     inkscape:current-layer="svg2" />
  <defs
     id="defs1" />
  <g
     class="layer"
     id="image-layer"
     inkscape:groupmode="layer">
    <title
       id="title1">image-layer</title>
    <image
       height="6600"
       width="5100"
       x="0"
       xlink:href="wang_2001_in_2809_p3.png"
       y="0"
       id="image1" />
  </g>
  <g
     id="g14"
     transform="translate(2585.8133,873.35624)"
     inkscape:label="j2">
    <text
       xml:space="preserve"
       style="font-style:normal;font-variant:normal;font-weight:normal;font-stretch:normal;font-size:42.6667px;line-height:0;font-family:sans-serif;-inkscape-font-specification:sans-serif;text-align:start;writing-mode:lr-tb;direction:ltr;text-anchor:start;fill:#000000;stroke-width:2"
       x="187.69908"
       y="521.82312"
       id="text2"><tspan
         sodipodi:role="line"
         id="tspan2"
         x="187.69908"
         y="521.82312">j2: 0.1 A / m2</tspan></text>
    <path
       style="fill:#000000;fill-opacity:1;stroke:#000000;stroke-width:2.19273;stroke-opacity:1"
       d="m 495.16181,510.82767 76.81582,54.50038"
       id="path7"
       sodipodi:nodetypes="cc" />
  </g>
  <g
     id="g11"
     transform="translate(2657.685,394.87565)"
     inkscape:label="E1">
    <text
       xml:space="preserve"
       style="font-style:normal;font-variant:normal;font-weight:normal;font-stretch:normal;font-size:42.6667px;line-height:0;font-family:sans-serif;-inkscape-font-specification:sans-serif;text-align:start;writing-mode:lr-tb;direction:ltr;text-anchor:start;fill:#000000;stroke-width:2"
       x="319.00269"
       y="2013.4805"
       id="text5"><tspan
         sodipodi:role="line"
         id="tspan5"
         x="319.00269"
         y="2013.4805">E1: 0.0 V vs RHE</tspan></text>
    <path
       style="fill:#000000;fill-opacity:1;stroke:#000000;stroke-width:2;stroke-opacity:1"
       d="m 597.45799,1899.0069 88.03937,98.1202"
       id="path9" />
  </g>
  <g
     id="g2"
     transform="translate(2622.0775,365.1382)"
     inkscape:label="j1">
    <text
       xml:space="preserve"
       style="font-style:normal;font-variant:normal;font-weight:normal;font-stretch:normal;font-size:42.6667px;line-height:0;font-family:sans-serif;-inkscape-font-specification:sans-serif;text-align:start;writing-mode:lr-tb;direction:ltr;text-anchor:start;fill:#000000;stroke-width:2"
       x="101.67587"
       y="1842.6377"
       id="text1"><tspan
         id="tspan1"
         x="101.67587"
         y="1842.6377"
         sodipodi:role="line"
         style="font-size:42.6667px">j1: -0.4 A / m2</tspan></text>
    <path
       style="fill:#000000;fill-opacity:1;stroke:#000000;stroke-width:2;stroke-opacity:1"
       d="m 429.59483,1832.7478 105.81465,54.4914"
       id="path8" />
  </g>
  <g
     id="g3"
     inkscape:label="E2"
     transform="translate(3220.9665,384.5285)">
    <text
       xml:space="preserve"
       style="font-style:normal;font-variant:normal;font-weight:normal;font-stretch:normal;font-size:42.6667px;line-height:0;font-family:sans-serif;-inkscape-font-specification:sans-serif;text-align:start;writing-mode:lr-tb;direction:ltr;text-anchor:start;fill:#000000;stroke-width:2"
       x="1138.9113"
       y="2009.0001"
       id="text6"><tspan
         sodipodi:role="line"
         id="tspan6"
         x="1138.9113"
         y="2009.0001">E2: 1.2 V vs RHE</tspan></text>
    <path
       style="fill:#000000;fill-opacity:1;stroke:#000000;stroke-width:2;stroke-opacity:1"
       d="m 1143.0517,1993.3707 75.7177,-93.9343"
       id="path10" />
  </g>
  <text
     xml:space="preserve"
     style="font-size:42.6667px;line-height:0;font-family:sans-serif;-inkscape-font-specification:sans-serif;text-align:start;writing-mode:lr-tb;direction:ltr;text-anchor:start;fill:#000000;stroke:#000000;stroke-width:2"
     x="4572.2822"
     y="2032.1938"
     id="text8"
     inkscape:label="scan rate"><tspan
       sodipodi:role="line"
       id="tspan8"
       x="4572.2822"
       y="2032.1938"
       style="stroke:none">scan rate: 10 mV / s </tspan></text>
  <text
     xml:space="preserve"
     style="font-size:42.6667px;line-height:0;font-family:sans-serif;-inkscape-font-specification:sans-serif;text-align:start;writing-mode:lr-tb;direction:ltr;text-anchor:start;fill:#000000;stroke:none;stroke-width:2"
     x="4630.1382"
     y="2099.8225"
     id="text10"
     inkscape:label="figure"><tspan
       sodipodi:role="line"
       id="tspan10"
       x="4630.1382"
       y="2099.8225">figure: 2b</tspan></text>
  <text
     xml:space="preserve"
     style="font-size:42.6667px;line-height:0;font-family:sans-serif;-inkscape-font-specification:sans-serif;text-align:start;writing-mode:lr-tb;direction:ltr;text-anchor:start;fill:none;stroke:#000000;stroke-width:0.5;stroke-dasharray:none;stroke-opacity:1"
     x="4638.6509"
     y="2154.0352"
     id="text15"
     inkscape:label="tags"><tspan
       sodipodi:role="line"
       id="tspan15"
       x="4638.6509"
       y="2154.0352"
       style="fill:#000000;fill-opacity:1;stroke:#000000;stroke-opacity:1">tags: BCV</tspan></text>
  <g
     id="g1">
    <text
       xml:space="preserve"
       style="font-size:42.6667px;line-height:0;font-family:sans-serif;-inkscape-font-specification:sans-serif;text-align:start;writing-mode:lr-tb;direction:ltr;text-anchor:start;fill:#000000;stroke:#000000;stroke-width:2"
       x="4613.2754"
       y="1985.062"
       id="text7"
       inkscape:label="curve"><tspan
         sodipodi:role="line"
         id="tspan7"
         x="4613.2754"
         y="1985.062"
         style="stroke:none">curve: black</tspan></text>
    <path
       style="fill:none;stroke:#f31515;stroke-opacity:1"
       d="m 3363.5444,1600.9954 c 0,0 145.0207,-5.7468 195.4798,-26.9255 56.9079,-23.8854 120.6588,-27.2786 182.017,-33.9263 16.9621,-1.8377 34.1137,-2.3658 51.1586,-1.6155 78.7933,3.4686 189.3304,24.6241 266.0248,26.9256 67.8244,2.0353 240.7834,-2.1005 240.7147,1.077 -0.6161,28.4781 -62.8656,27.2182 -96.3936,29.6181 -96.019,6.8729 -207.5243,-1.407 -311.2598,5.3852 -35.553,2.3279 -69.2336,5.2371 -102.8557,29.0796 -22.5027,15.9574 -44.0443,40.7741 -71.6221,41.4654 -40.5122,1.0155 -86.6221,-27.2909 -126.0117,-23.6945 -30.4596,2.7811 -62.151,12.825 -82.3923,40.3884 -17.7126,24.1199 -35.0102,78.1477 -45.235,77.5457 -13.0971,-0.7711 -24.6865,-95.5905 -55.736,-113.8953 -13.1568,-7.7565 -27.8917,-9.0514 -44.3372,-9.7155 -39.1941,-1.5828 -82.7646,16.5731 -104.716,53.6908 -27.7269,46.8836 -39.7833,101.9854 -50.6444,155.3604 -27.7719,136.4808 -45.8829,432.2054 -42.648,431.4297 5.7811,-1.3863 34.1173,-364.2894 80.7265,-540.3343 12.9586,-48.9452 29.7056,-97.484 54.8331,-141.6522 22.0566,-38.7703 48.6044,-51.9405 72.3492,-57.8793 28.8108,-7.2058 54.4494,1.0961 87.1998,-18.2777 27.2268,-16.1063 43.8476,-69.7101 63.5912,-70.4453 15.832,-0.5896 37.4824,78.3033 107.0007,95.4194 20.4962,5.0464 42.1022,4.2444 63.2103,4.3464 53.2365,0.2571 84.333,-13.2636 126.8015,-12.566 45.4467,0.7466 89.9322,13.5723 135.1788,17.8969 38.6046,3.6898 77.374,5.7764 116.1395,6.8542 75.6206,2.1025 227.3221,-4.114 226.9481,-0.7616 -3.1669,28.3893 -57.7682,27.0449 -88.9923,29.8781 -103.4951,9.3911 -246.7382,-3.3841 -344.7222,7.8197 -35.9864,4.1148 -71.0202,21.6333 -96.3387,50.2636 -13.0221,14.7255 -30.6263,31.7343 -50.2636,30.8436 -33.4005,-1.515 -80.8181,-36.4711 -123.7553,-35.7938 -18.5423,0.2925 -37.5771,6.7325 -52.9291,17.1353 -39.2912,26.6243 -73.5541,106.9275 -79.5841,106.6199 -13.294,-0.6781 -25.9975,-101.3153 -65.8759,-116.5203 -24.4946,-9.3394 -59.7854,-8.7225 -74.2531,-7.6157 -13.8974,1.0632 -39.8531,18.2778 -53.31,34.6515"
       id="path1"
       sodipodi:nodetypes="csssssssssssssssssssssssssssssssssssssc" />
  </g>
</svg>
