<?xml version="1.0" encoding="UTF-8" standalone="no"?>
<svg
   height="6600px"
   version="1.1"
   width="5100px"
   id="svg2"
   sodipodi:docname="wang_2001_in_2809_f2c_solid.svg"
   inkscape:version="1.4.3 (0d15f75, 2025-12-25)"
   xmlns:inkscape="http://www.inkscape.org/namespaces/inkscape"
   xmlns:sodipodi="http://sodipodi.sourceforge.net/DTD/sodipodi-0.dtd"
   xmlns:xlink="http://www.w3.org/1999/xlink"
   xmlns="http://www.w3.org/2000/svg"
   xmlns:svg="http://www.w3.org/2000/svg">
  <sodipodi:namedview
     id="namedview2"
     pagecolor="#ffffff"
     bordercolor="#000000"
     borderopacity="0.25"
     inkscape:showpageshadow="2"
     inkscape:pageopacity="0.0"
     inkscape:pagecheckerboard="0"
     inkscape:deskcolor="#d1d1d1"
     inkscape:zoom="0.65653793"
     inkscape:cx="4480.32"
     inkscape:cy="2791.9179"
     inkscape:window-width="1728"
     inkscape:window-height="1010"
     inkscape:window-x="-6"
     inkscape:window-y="-6"
     inkscape:window-maximized="1"
     inkscape:current-layer="svg2" />
  <defs
     id="defs1" />
  <g
     class="layer"
     id="image-layer"
     inkscape:groupmode="layer"
     sodipodi:insensitive="1">
    <title
       id="title1">image-layer</title>
    <image
       height="6600"
       width="5100"
       x="0"
       xlink:href="wang_2001_in_2809_p3.png"
       y="0"
       id="image1" />
  </g>
  <g
     id="g14"
     transform="translate(2583.5286,1867.2059)"
     inkscape:label="j2">
    <text
       xml:space="preserve"
       style="font-style:normal;font-variant:normal;font-weight:normal;font-stretch:normal;font-size:42.6667px;line-height:0;font-family:sans-serif;-inkscape-font-specification:sans-serif;text-align:start;writing-mode:lr-tb;direction:ltr;text-anchor:start;fill:#000000;stroke-width:2"
       x="187.69908"
       y="521.82312"
       id="text2"><tspan
         sodipodi:role="line"
         id="tspan2"
         x="187.69908"
         y="521.82312">j2: 0.5 A / m2</tspan></text>
    <path
       style="fill:#000000;fill-opacity:1;stroke:#000000;stroke-width:2.19273;stroke-opacity:1"
       d="m 495.16181,510.82767 76.81582,54.50038"
       id="path7"
       sodipodi:nodetypes="cc" />
  </g>
  <g
     id="g11"
     transform="translate(2656.608,1359.8887)"
     inkscape:label="E1">
    <text
       xml:space="preserve"
       style="font-style:normal;font-variant:normal;font-weight:normal;font-stretch:normal;font-size:42.6667px;line-height:0;font-family:sans-serif;-inkscape-font-specification:sans-serif;text-align:start;writing-mode:lr-tb;direction:ltr;text-anchor:start;fill:#000000;stroke-width:2"
       x="319.00269"
       y="2013.4805"
       id="text5"><tspan
         sodipodi:role="line"
         id="tspan5"
         x="319.00269"
         y="2013.4805">E1: 0.0 V vs RHE</tspan></text>
    <path
       style="fill:#000000;fill-opacity:1;stroke:#000000;stroke-width:2;stroke-opacity:1"
       d="m 597.45799,1899.0069 88.03937,98.1202"
       id="path9" />
  </g>
  <g
     id="g2"
     transform="translate(2620.5544,1308.7242)"
     inkscape:label="j1">
    <text
       xml:space="preserve"
       style="font-style:normal;font-variant:normal;font-weight:normal;font-stretch:normal;font-size:42.6667px;line-height:0;font-family:sans-serif;-inkscape-font-specification:sans-serif;text-align:start;writing-mode:lr-tb;direction:ltr;text-anchor:start;fill:#000000;stroke-width:2"
       x="101.67587"
       y="1842.6377"
       id="text1"><tspan
         id="tspan1"
         x="101.67587"
         y="1842.6377"
         sodipodi:role="line"
         style="font-size:42.6667px">j1: -1.0 A / m2</tspan></text>
    <path
       style="fill:#000000;fill-opacity:1;stroke:#000000;stroke-width:2;stroke-opacity:1"
       d="m 429.59483,1832.7478 105.81465,54.4914"
       id="path8" />
  </g>
  <g
     id="g3"
     inkscape:label="E2"
     transform="translate(3220.9665,1351.7232)">
    <text
       xml:space="preserve"
       style="font-style:normal;font-variant:normal;font-weight:normal;font-stretch:normal;font-size:42.6667px;line-height:0;font-family:sans-serif;-inkscape-font-specification:sans-serif;text-align:start;writing-mode:lr-tb;direction:ltr;text-anchor:start;fill:#000000;stroke-width:2"
       x="1138.9113"
       y="2009.0001"
       id="text6"><tspan
         sodipodi:role="line"
         id="tspan6"
         x="1138.9113"
         y="2009.0001">E2: 1.2 V vs RHE</tspan></text>
    <path
       style="fill:#000000;fill-opacity:1;stroke:#000000;stroke-width:2;stroke-opacity:1"
       d="m 1143.0517,1993.3707 75.7177,-93.9343"
       id="path10" />
  </g>
  <text
     xml:space="preserve"
     style="font-size:42.6667px;line-height:0;font-family:sans-serif;-inkscape-font-specification:sans-serif;text-align:start;writing-mode:lr-tb;direction:ltr;text-anchor:start;fill:#000000;stroke:#000000;stroke-width:2"
     x="4581.4209"
     y="2454.104"
     id="text8"
     inkscape:label="scan rate"><tspan
       sodipodi:role="line"
       id="tspan8"
       x="4581.4209"
       y="2454.104"
       style="stroke:none">scan rate: 10 mV / s </tspan></text>
  <text
     xml:space="preserve"
     style="font-size:42.6667px;line-height:0;font-family:sans-serif;-inkscape-font-specification:sans-serif;text-align:start;writing-mode:lr-tb;direction:ltr;text-anchor:start;fill:#000000;stroke:none;stroke-width:2"
     x="4639.2769"
     y="2521.7327"
     id="text10"
     inkscape:label="figure"><tspan
       sodipodi:role="line"
       id="tspan10"
       x="4639.2769"
       y="2521.7327">figure: 2c</tspan></text>
  <text
     xml:space="preserve"
     style="font-size:42.6667px;line-height:0;font-family:sans-serif;-inkscape-font-specification:sans-serif;text-align:start;writing-mode:lr-tb;direction:ltr;text-anchor:start;fill:none;stroke:#000000;stroke-width:0.5;stroke-dasharray:none;stroke-opacity:1"
     x="4647.7896"
     y="2575.9453"
     id="text15"
     inkscape:label="tags"><tspan
       sodipodi:role="line"
       id="tspan15"
       x="4647.7896"
       y="2575.9453"
       style="fill:#000000;fill-opacity:1;stroke:#000000;stroke-opacity:1">tags: BCV</tspan></text>
  <g
     id="g1">
    <text
       xml:space="preserve"
       style="font-size:42.6667px;line-height:0;font-family:sans-serif;-inkscape-font-specification:sans-serif;text-align:start;writing-mode:lr-tb;direction:ltr;text-anchor:start;fill:#000000;stroke:#000000;stroke-width:2"
       x="4622.4141"
       y="2406.9722"
       id="text7"
       inkscape:label="curve"><tspan
         sodipodi:role="line"
         id="tspan7"
         x="4622.4141"
         y="2406.9722"
         style="stroke:none">curve: solid</tspan></text>
    <path
       style="fill:none;stroke:#d51435;stroke-opacity:1"
       d="m 3329.0797,2805.6462 c 0,0 38.2846,-88.8977 93.1625,-117.934 40.585,-21.4738 79.2158,-14.8066 115.7801,-46.0428 32.3918,-27.6717 50.6777,-130.4559 68.9294,-130.5891 15.3821,-0.1123 27.219,73.8363 37.4266,104.2021 9.4342,28.0648 19.8743,50.3905 74.0454,50.8893 30.8687,0.2843 37.5197,-8.8396 56.5437,-8.0777 26.457,1.0596 27.1517,14.5671 136.782,14.5398 137.8966,-0.034 350.5072,-13.049 350.5711,-9.1547 0.187,11.4047 -58.4043,15.5534 -130.6931,19.0846 -72.2887,3.5313 -156.3542,5.0328 -218.2624,10.2643 -35.3701,2.989 -83.2769,2.5966 -118.0173,14.307 -34.7404,11.7104 -53.9259,36.1534 -66.6923,37.1209 -13.2065,1.0008 -20.1481,-21.1841 -33.3877,-21.5405 -10.1268,-0.2726 -16.2704,15.6061 -26.3871,15.0784 -12.6771,-0.6612 -9.0847,-28.1137 -47.1198,-30.1567 -19.7999,-1.0635 -76.8268,-1.7074 -93.6398,3.6339 -19.7079,6.261 -29.7872,10.0098 -45.027,48.0632 -4.9384,12.3312 -12.11,41.0141 -14.5398,43.8888 -24.9612,29.5321 -29.0808,77.3764 -38.2343,117.1262 -10.4375,45.3261 -18.4528,141.9977 -24.7716,142.1671 -9.5713,0.2566 -6.4511,-136.6737 -11.3087,-202.4804 -2.6404,-35.7698 -1.8707,-105.4291 -9.6932,-107.1638 -16.0602,-3.5616 -54.9282,73.2376 -54.9282,73.2376"
       id="path1"
       sodipodi:nodetypes="cssssssssssssssssssssssc" />
  </g>
</svg>
