<?xml version="1.0" encoding="UTF-8" standalone="no"?>
<svg
   height="6615px"
   version="1.1"
   width="4961px"
   id="svg6"
   sodipodi:docname="gnahm_2011_the_250_f1_solid_1.svg"
   inkscape:version="1.4 (86a8ad7, 2024-10-11)"
   xmlns:inkscape="http://www.inkscape.org/namespaces/inkscape"
   xmlns:sodipodi="http://sodipodi.sourceforge.net/DTD/sodipodi-0.dtd"
   xmlns:xlink="http://www.w3.org/1999/xlink"
   xmlns="http://www.w3.org/2000/svg"
   xmlns:svg="http://www.w3.org/2000/svg">
  <sodipodi:namedview
     id="namedview8"
     pagecolor="#ffffff"
     bordercolor="#666666"
     borderopacity="1.0"
     inkscape:pageshadow="2"
     inkscape:pageopacity="0.0"
     inkscape:pagecheckerboard="0"
     showgrid="false"
     inkscape:zoom="0.50309902"
     inkscape:cx="1472.8711"
     inkscape:cy="5159.0242"
     inkscape:window-width="2880"
     inkscape:window-height="1711"
     inkscape:window-x="-9"
     inkscape:window-y="-9"
     inkscape:window-maximized="1"
     inkscape:current-layer="svg6"
     inkscape:showpageshadow="2"
     inkscape:deskcolor="#d1d1d1" />
  <defs
     id="defs2" />
  <image
     height="6615px"
     sodipodi:insensitive="true"
     width="4961px"
     x="0"
     xlink:href="gnahm_2011_the_250_p1.png"
     y="0"
     id="image4" />
  <g
     id="g2194">
    <path
       style="fill:none;stroke:#000000;stroke-width:1px;stroke-linecap:butt;stroke-linejoin:miter;stroke-opacity:1"
       d="m 758.97119,4553.8272 c -337.32053,59.0311 -337.32053,59.0311 -337.32053,59.0311"
       id="path868" />
    <text
       xml:space="preserve"
       style="font-size:29.3333px;line-height:1.25;font-family:Arial;-inkscape-font-specification:Arial;letter-spacing:0px;word-spacing:0px"
       x="309.21048"
       y="4615.6694"
       id="text1730"><tspan
         sodipodi:role="line"
         id="tspan1728"
         x="309.21048"
         y="4615.6694">j2: 15 uA / cm2</tspan></text>
  </g>
  <g
     id="g5159">
    <path
       style="fill:none;stroke:#000000;stroke-width:1px;stroke-linecap:butt;stroke-linejoin:miter;stroke-opacity:1"
       d="M 756.16019,5762.5591 C 432.89468,5745.693 432.89468,5745.693 432.89468,5745.693"
       id="path866" />
    <text
       xml:space="preserve"
       style="font-size:29.3333px;line-height:1.25;font-family:Arial;-inkscape-font-specification:Arial;letter-spacing:0px;word-spacing:0px"
       x="286.72705"
       y="5758.9062"
       id="text1730-3"><tspan
         sodipodi:role="line"
         id="tspan1728-0"
         x="286.72705"
         y="5758.9062">j1: -20 uA / cm2</tspan></text>
  </g>
  <g
     id="g7628">
    <path
       style="fill:none;stroke:#000000;stroke-width:1px;stroke-linecap:butt;stroke-linejoin:miter;stroke-opacity:1"
       d="M 865.78936,5762.5591 C 618.42097,5889.0543 618.42097,5889.0543 618.42097,5889.0543"
       id="path862" />
    <text
       xml:space="preserve"
       style="font-size:29.3333px;line-height:1.25;font-family:Arial;-inkscape-font-specification:Arial;letter-spacing:0px;word-spacing:0px"
       x="559.38989"
       y="5908.7314"
       id="text5977"><tspan
         sodipodi:role="line"
         id="tspan5975"
         x="559.38989"
         y="5908.7314">E1: -2.0 V vs Ag/AgCl</tspan></text>
  </g>
  <g
     id="g7633">
    <path
       style="fill:none;stroke:#000000;stroke-width:1px;stroke-linecap:butt;stroke-linejoin:miter;stroke-opacity:1"
       d="m 2141.9854,5762.5591 c 137.7392,70.2751 137.7392,70.2751 137.7392,70.2751"
       id="path864" />
    <text
       xml:space="preserve"
       style="font-size:29.3333px;line-height:1.25;font-family:Arial;-inkscape-font-specification:Arial;letter-spacing:0px;word-spacing:0px"
       x="2279.7246"
       y="5832.834"
       id="text7213"><tspan
         sodipodi:role="line"
         id="tspan7211"
         x="2279.7246"
         y="5832.834">E2: 1.0 V vs Ag/AgCl</tspan></text>
  </g>
  <text
     xml:space="preserve"
     style="font-size:29.3333px;line-height:1.25;font-family:Arial;-inkscape-font-specification:Arial;letter-spacing:0px;word-spacing:0px"
     x="2431.2942"
     y="4998.7168"
     id="text8407"><tspan
       sodipodi:role="line"
       id="tspan8405"
       x="2431.2942"
       y="4998.7168">Figure: 1</tspan></text>
  <text
     xml:space="preserve"
     style="font-size:29.3333px;line-height:1.25;font-family:Arial;-inkscape-font-specification:Arial;letter-spacing:0px;word-spacing:0px"
     x="2453.7822"
     y="5268.5728"
     id="text9269"><tspan
       sodipodi:role="line"
       id="tspan9267"
       x="2453.7822"
       y="5268.5728">tags: BCV</tspan></text>
  <text
     xml:space="preserve"
     style="font-size:29.3333px;line-height:1.25;font-family:Arial;-inkscape-font-specification:Arial;letter-spacing:0px;word-spacing:0px"
     x="2479.0811"
     y="5518.7524"
     id="text9977"><tspan
       sodipodi:role="line"
       id="tspan9975"
       x="2479.0811"
       y="5518.7524">Scan rate: 50 mV / s</tspan></text>
  <g
     id="g19515">
    <text
       xml:space="preserve"
       style="font-size:29.3333px;line-height:1.25;font-family:Arial;-inkscape-font-specification:Arial;letter-spacing:0px;word-spacing:0px"
       x="1256.519"
       y="5543.3008"
       id="text11983"><tspan
         sodipodi:role="line"
         id="tspan11981"
         x="1256.519"
         y="5543.3008">curve: solid</tspan></text>
    <path
       style="fill:none;stroke:#ff0000;stroke-width:1px;stroke-linecap:butt;stroke-linejoin:miter;stroke-opacity:1"
       d="m 952.0136,5237.9756 c 0,0 -6.14275,-62.3161 15.09025,-103.8599 19.55825,-38.2671 66.70665,-62.0702 136.36625,-68.9508 39.0634,-3.8585 52.9197,-6.6202 83.0525,-14.2108 40.0204,-10.0813 100.1446,-0.097 167.5587,-16.1029 44.9853,-10.6804 75.209,-4.0384 111.2825,-14.3095 48.4961,-13.8081 95.1617,-18.8647 112.4643,-26.2212 55.9905,-23.8052 75.5005,-19.0274 120.3282,-13.7572 47.8404,5.6245 115.7243,4.1576 207.1404,-8.4456 42.3896,-5.8442 108.3248,3.2923 155.3808,-21.0629 38.5173,-19.9358 82.0419,-22.0264 82.0419,-22.0264 0,0 0.5426,16.6028 -1.5378,101.7102 -1.342,54.9007 -8.9886,52.9202 -26.4502,82.7122 -14.9671,25.536 -18.1759,15.5718 -52.9235,2.3594 -23.6268,-8.9839 -46.6162,-14.9038 -80.3769,-7.0238 -46.9468,10.9578 -85.9256,12.254 -113.7169,9.902 -10.7025,-0.9058 -28.389,-1.1219 -54.4666,-2.6609 -19.004,-1.1216 -44.3072,3.374 -55.9409,7.6451 -35.0603,12.8718 -72.3806,13.5651 -77.8884,35.5145 -4.2624,16.9861 -24.9028,32.4427 -33.8894,70.512 -6.8707,29.1059 -11.221,59.1587 -28.8994,39.8438 -4.4682,-4.8818 -11.6425,-12.5004 -16.3556,-30.0051 -20.0519,-74.4744 -30.4823,-74.0204 -50.4353,-74.7447 -20.4126,-0.7409 -25.5977,6.7214 -46.5497,-14.8725 -8.1576,-8.4075 -17.4062,-0.4451 -32.1386,-10.0788 -19.1289,-12.5087 -39.3908,-6.0184 -52.144,15.7498 -16.6003,28.3348 -19.4035,17.0521 -46.9321,-1.6447 -14.4488,-9.8133 -10.2183,-20.8025 -97.4294,-20.2853 -67.3499,0.3994 -79.7501,3.953 -104.2228,4.3701 -51.7924,0.8827 -81.0436,16.1668 -120.3008,33.1677 -33.4185,14.4724 -51.82532,29.5459 -63.29285,43.4893 -8.33261,10.1317 -9.84047,18.3014 -19.52612,23.7027 -12.76121,7.1165 -15.28853,-0.4155 -15.28853,-0.4155 z"
       id="path12172"
       sodipodi:nodetypes="cssssssssscssssssssssssssssssssscc" />
  </g>
</svg>
