<?xml version="1.0" encoding="UTF-8" standalone="no"?>
<svg
   height="6192px"
   version="1.1"
   width="4534px"
   id="svg1"
   sodipodi:docname="foelske_2002_initial_10_f2a_solid.svg"
   inkscape:version="1.4.3 (0d15f75, 2025-12-25)"
   xmlns:inkscape="http://www.inkscape.org/namespaces/inkscape"
   xmlns:sodipodi="http://sodipodi.sourceforge.net/DTD/sodipodi-0.dtd"
   xmlns:xlink="http://www.w3.org/1999/xlink"
   xmlns="http://www.w3.org/2000/svg"
   xmlns:svg="http://www.w3.org/2000/svg">
  <sodipodi:namedview
     id="namedview1"
     pagecolor="#ffffff"
     bordercolor="#000000"
     borderopacity="0.25"
     inkscape:showpageshadow="2"
     inkscape:pageopacity="0.0"
     inkscape:pagecheckerboard="0"
     inkscape:deskcolor="#d1d1d1"
     inkscape:zoom="0.42151163"
     inkscape:cx="720.02758"
     inkscape:cy="1428.1931"
     inkscape:window-width="1920"
     inkscape:window-height="1010"
     inkscape:window-x="3449"
     inkscape:window-y="-6"
     inkscape:window-maximized="1"
     inkscape:current-layer="svg1" />
  <defs
     id="defs1" />
  <image
     height="6192"
     sodipodi:insensitive="true"
     width="4534"
     x="0"
     xlink:href="foelske_2002_initial_10_p3.png"
     y="0"
     id="image1" />
  <text
     xml:space="preserve"
     style="font-size:42.6667px;line-height:0;font-family:sans-serif;-inkscape-font-specification:sans-serif;text-align:start;writing-mode:lr-tb;direction:ltr;text-anchor:start;fill:none;stroke:#000000;stroke-width:0.5;stroke-dasharray:none;stroke-opacity:1"
     x="105.95834"
     y="1212.8334"
     id="text15"><tspan
       sodipodi:role="line"
       id="tspan15"
       x="105.95834"
       y="1212.8334"
       style="fill:#000000;fill-opacity:1;stroke:#000000;stroke-opacity:1">tags: BCV</tspan></text>
  <text
     xml:space="preserve"
     style="font-size:42.6667px;line-height:0;font-family:sans-serif;-inkscape-font-specification:sans-serif;text-align:start;writing-mode:lr-tb;direction:ltr;text-anchor:start;fill:#000000;stroke:none;stroke-width:2"
     x="97.232277"
     y="1151.8617"
     id="text10"><tspan
       sodipodi:role="line"
       id="tspan10"
       x="97.232277"
       y="1151.8617">figure: 2a</tspan></text>
  <text
     xml:space="preserve"
     style="font-size:42.6667px;line-height:0;font-family:sans-serif;-inkscape-font-specification:sans-serif;text-align:start;writing-mode:lr-tb;direction:ltr;text-anchor:start;fill:#000000;stroke:#000000;stroke-width:2"
     x="56.459267"
     y="1090.0291"
     id="text8"><tspan
       sodipodi:role="line"
       id="tspan8"
       x="56.459267"
       y="1090.0291"
       style="stroke:none">scan rate: 5 mV / s </tspan></text>
  <g
     id="g14"
     transform="translate(81.15536,200.99818)">
    <text
       xml:space="preserve"
       style="font-style:normal;font-variant:normal;font-weight:normal;font-stretch:normal;font-size:42.6667px;line-height:0;font-family:sans-serif;-inkscape-font-specification:sans-serif;text-align:start;writing-mode:lr-tb;direction:ltr;text-anchor:start;fill:#000000;stroke-width:2"
       x="187.69908"
       y="521.82312"
       id="text2"><tspan
         sodipodi:role="line"
         id="tspan2"
         x="187.69908"
         y="521.82312">j2: 3.0 A / m2</tspan></text>
    <path
       style="fill:#000000;fill-opacity:1;stroke:#000000;stroke-width:2;stroke-opacity:1"
       d="m 494.85776,510.69828 40.86853,85.22198"
       id="path7"
       sodipodi:nodetypes="cc" />
  </g>
  <g
     id="g13"
     transform="translate(82.156029,-339.9908)">
    <text
       xml:space="preserve"
       style="font-style:normal;font-variant:normal;font-weight:normal;font-stretch:normal;font-size:42.6667px;line-height:0;font-family:sans-serif;-inkscape-font-specification:sans-serif;text-align:start;writing-mode:lr-tb;direction:ltr;text-anchor:start;fill:#000000;stroke-width:2"
       x="101.67587"
       y="1842.6377"
       id="text1"><tspan
         id="tspan1"
         x="101.67587"
         y="1842.6377"
         sodipodi:role="line"
         style="font-size:42.6667px">j1: -3.0 A / m2</tspan></text>
    <path
       style="fill:#000000;fill-opacity:1;stroke:#000000;stroke-width:2;stroke-opacity:1"
       d="m 429.59483,1832.7478 105.81465,54.4914"
       id="path8" />
  </g>
  <g
     id="g11"
     transform="translate(97.875438,-351.04764)">
    <text
       xml:space="preserve"
       style="font-style:normal;font-variant:normal;font-weight:normal;font-stretch:normal;font-size:42.6667px;line-height:0;font-family:sans-serif;-inkscape-font-specification:sans-serif;text-align:start;writing-mode:lr-tb;direction:ltr;text-anchor:start;fill:#000000;stroke-width:2"
       x="319.00269"
       y="2013.4805"
       id="text5"><tspan
         sodipodi:role="line"
         id="tspan5"
         x="319.00269"
         y="2013.4805">E1: -1.2 V vs SHE</tspan></text>
    <path
       style="fill:#000000;fill-opacity:1;stroke:#000000;stroke-width:2;stroke-opacity:1"
       d="m 597.45799,1899.0069 88.03937,98.1202"
       id="path9" />
  </g>
  <g
     id="g3"
     transform="translate(672.17684,-352.2154)">
    <text
       xml:space="preserve"
       style="font-style:normal;font-variant:normal;font-weight:normal;font-stretch:normal;font-size:42.6667px;line-height:0;font-family:sans-serif;-inkscape-font-specification:sans-serif;text-align:start;writing-mode:lr-tb;direction:ltr;text-anchor:start;fill:#000000;stroke-width:2"
       x="1138.9113"
       y="2009.0001"
       id="text6"><tspan
         sodipodi:role="line"
         id="tspan6"
         x="1138.9113"
         y="2009.0001">E2: 0.8 V vs SHE</tspan></text>
    <path
       style="fill:#000000;fill-opacity:1;stroke:#000000;stroke-width:2;stroke-opacity:1"
       d="m 1143.0517,1993.3707 75.7177,-93.9343"
       id="path10" />
  </g>
  <g
     id="g1">
    <text
       xml:space="preserve"
       style="font-size:42.6667px;line-height:0;font-family:sans-serif;-inkscape-font-specification:sans-serif;text-align:start;writing-mode:lr-tb;direction:ltr;text-anchor:start;fill:#000000;stroke:#000000;stroke-width:2"
       x="25.812498"
       y="1016.4167"
       id="text7"><tspan
         sodipodi:role="line"
         id="tspan7"
         x="25.812498"
         y="1016.4167"
         style="stroke:none">curve: solid</tspan></text>
    <path
       style="fill:none;stroke:#e4260f;stroke-width:0.5"
       d="m 837.3138,1488.9862 c -17.3383,-0.9603 -22.71285,-31.2873 -19.42414,-48.3379 0.29793,-1.5446 2.97774,-1.8632 3.26207,-3.4104 0.37639,-2.0482 -0.37186,-71.3841 -0.14828,-73.6931 3.18687,-32.9132 32.62137,-75.9086 52.34138,-85.4069 0.72277,-0.3481 -0.24152,-4.7549 0.14828,-5.1896 0.96722,-1.0786 14.86714,0.5281 16.16207,-0.1483 2.7278,-1.4248 2.22891,-6.0409 4.59655,-8.0069 4.95464,-4.1142 15.82207,-0.4061 18.23793,-6.3759 0.9873,-2.4397 -0.56398,-16.3508 0.44483,-18.3862 1.42669,-2.8785 5.13878,-4.3399 8.30344,-4.8931 18.44578,-3.2242 38.57456,-8.4644 56.34483,-14.531 36.95504,-12.6161 36.23244,-48.8979 55.60344,-52.3414 7.2789,-1.2939 17.396,10.6825 22.8345,7.8586 17.1728,-8.9169 22.1278,-71.6966 24.3172,-75.3241 17.5687,-29.108 23.0322,-82.7361 30.8414,-82.7379 8.9348,0 17.6686,41.9634 32.0315,54.4152 2.8195,2.4444 3.0693,8.6719 5.1858,21.502 2.5517,15.4682 16.6904,27.5957 29.5069,36.6242 21.541,15.1744 34.9028,7.1304 45.2241,16.3103 1.7169,1.5271 5.5145,-12.083 22.9352,-1.3903 4.0839,2.5066 114.0474,3.6452 197.2544,14.4386 9.4282,1.223 39.3304,0.08 58.6895,1.0196 19.3592,0.9394 53.7772,-0.057 67.6415,-4.5783 5.3131,-1.7328 31.3659,0.082 36.0311,-25.9482 0.1656,-0.9239 7.8621,0.1649 9.0448,-0.1483 13.6183,-3.6061 13.2272,-42.5947 26.3931,-60.0517 30.863,-40.9221 28.1762,-80.04195 31.5828,-84.07244 13.7056,-16.21557 22.1749,-170.0394 32.3241,-171.55517 7.9727,-1.19072 14.0845,64.71384 19.5029,132.23405 5.4183,67.52016 6.5845,135.17326 26.0178,146.67286 7.7609,4.5925 11.0218,15.5564 19.4242,18.831 3.4551,1.3465 7.7799,-1.9058 11.1207,-0.2965 3.1793,1.5315 2.8925,7.8856 6.3758,8.4517 2.8417,0.4618 4.2658,-5.29 7.1173,-4.8931 4.4502,0.6194 4.1347,9.88 8.6,10.3793 6.1993,0.6932 8.7112,-12.6427 14.8276,-11.4172 3.1257,0.6262 1.5698,8.0178 4.7448,8.3034 4.4311,0.3986 30.3131,0.47 32.7689,-0.2965 5.5619,-1.7359 10.6626,-5.2691 14.6794,-9.4897 34.7551,-36.5184 40.7758,-138.63793 40.7758,-138.63793 -1.7218,-0.41435 -0.5474,203.25943 -44.786,210.93373 -3.9268,0.6812 -1.8011,8.9133 -6.3692,10.1456 -1.1802,0.3184 -8.5913,-0.5714 -10.6758,-0.5931 -3.2858,-0.034 -4.1205,5.4728 -7.1173,6.8207 -2.2076,0.9929 -7.4669,-1.0433 -10.9724,0 -2.7724,0.8251 -4.3848,4.4828 -7.2655,4.7448 -29.6224,2.6946 -102.3486,4.8483 -156.7276,27.431 -18.9761,7.8805 -16.2784,19.2037 -33.8378,31.4162 -5.4332,3.7787 -13.2163,41.7851 -18.207,42.1287 -6.6817,0.46 -9.7629,-69.9215 -23.4276,-85.7035 -9.6424,-11.1364 -26.5133,-14.0679 -41.0724,-16.3103 -8.3461,-1.2855 -22.1491,9.5101 -84.8138,10.6758 -27.846,0.518 -55.4833,-6.4953 -83.331,-6.0793 -67.4348,1.0073 -78.4656,14.1891 -91.9311,17.7931 -34.2216,9.1592 -71.2729,19.4923 -111.0586,21.3517 -22.2595,1.0403 -44.2793,-10.3279 -66.131,-9.7862 -33.3377,0.8264 -60.9605,17.188 -137.1552,29.6552 -41.50745,6.7916 -72.44254,52.0803 -86.74138,91.6345 -12.95455,35.8356 -18.50974,130.1161 -52.04482,128.2586 z"
       id="path1"
       sodipodi:nodetypes="ssssssssssssssssssssssssssssssssssssssssssssssssssssssssssss" />
  </g>
</svg>
