<?xml version="1.0" encoding="UTF-8" standalone="no"?>
<svg
   height="6192px"
   version="1.1"
   width="4534px"
   id="svg1"
   sodipodi:docname="foelske_2002_initial_10_f1_solid.svg"
   inkscape:version="1.4 (86a8ad7, 2024-10-11)"
   xmlns:inkscape="http://www.inkscape.org/namespaces/inkscape"
   xmlns:sodipodi="http://sodipodi.sourceforge.net/DTD/sodipodi-0.dtd"
   xmlns:xlink="http://www.w3.org/1999/xlink"
   xmlns="http://www.w3.org/2000/svg"
   xmlns:svg="http://www.w3.org/2000/svg">
  <sodipodi:namedview
     id="namedview1"
     pagecolor="#ffffff"
     bordercolor="#000000"
     borderopacity="0.25"
     inkscape:showpageshadow="2"
     inkscape:pageopacity="0.0"
     inkscape:pagecheckerboard="0"
     inkscape:deskcolor="#d1d1d1"
     inkscape:zoom="0.59610746"
     inkscape:cx="1071.1156"
     inkscape:cy="4280.2685"
     inkscape:window-width="1920"
     inkscape:window-height="974"
     inkscape:window-x="-11"
     inkscape:window-y="-11"
     inkscape:window-maximized="1"
     inkscape:current-layer="svg1" />
  <defs
     id="defs1" />
  <image
     height="6192"
     sodipodi:insensitive="true"
     width="4534"
     x="0"
     xlink:href="foelske_2002_initial_10_p1.png"
     y="0"
     id="image1" />
  <g
     id="g14"
     transform="translate(72.885575,3581.2897)"
     inkscape:label="j2">
    <text
       xml:space="preserve"
       style="font-style:normal;font-variant:normal;font-weight:normal;font-stretch:normal;font-size:42.6667px;line-height:0;font-family:sans-serif;-inkscape-font-specification:sans-serif;text-align:start;writing-mode:lr-tb;direction:ltr;text-anchor:start;fill:#000000;stroke-width:2"
       x="187.69908"
       y="521.82312"
       id="text2"><tspan
         sodipodi:role="line"
         id="tspan2"
         x="187.69908"
         y="521.82312">j2: 4.0 A / m2</tspan></text>
    <path
       style="fill:#000000;fill-opacity:1;stroke:#000000;stroke-width:2;stroke-opacity:1"
       d="m 494.85776,510.69828 40.86853,85.22198"
       id="path7"
       sodipodi:nodetypes="cc" />
  </g>
  <g
     id="g13"
     transform="translate(72.826792,3234.137)"
     inkscape:label="j1">
    <text
       xml:space="preserve"
       style="font-style:normal;font-variant:normal;font-weight:normal;font-stretch:normal;font-size:42.6667px;line-height:0;font-family:sans-serif;-inkscape-font-specification:sans-serif;text-align:start;writing-mode:lr-tb;direction:ltr;text-anchor:start;fill:#000000;stroke-width:2"
       x="101.67587"
       y="1842.6377"
       id="text1"><tspan
         id="tspan1"
         x="101.67587"
         y="1842.6377"
         sodipodi:role="line"
         style="font-size:42.6667px">j1: -4.0 A / m2</tspan></text>
    <path
       style="fill:#000000;fill-opacity:1;stroke:#000000;stroke-width:2;stroke-opacity:1"
       d="m 429.59483,1832.7478 105.81465,54.4914"
       id="path8" />
  </g>
  <g
     id="g11"
     transform="translate(11.370079,3222.9983)"
     inkscape:label="E1">
    <text
       xml:space="preserve"
       style="font-style:normal;font-variant:normal;font-weight:normal;font-stretch:normal;font-size:42.6667px;line-height:0;font-family:sans-serif;-inkscape-font-specification:sans-serif;text-align:start;writing-mode:lr-tb;direction:ltr;text-anchor:start;fill:#000000;stroke-width:2"
       x="319.00269"
       y="2013.4805"
       id="text5"><tspan
         sodipodi:role="line"
         id="tspan5"
         x="319.00269"
         y="2013.4805">E1: -1.0 V vs SHE</tspan></text>
    <path
       style="fill:#000000;fill-opacity:1;stroke:#000000;stroke-width:2;stroke-opacity:1"
       d="m 597.45799,1899.0069 88.03937,98.1202"
       id="path9" />
  </g>
  <g
     id="g3"
     transform="translate(847.00003,3223.2598)"
     inkscape:label="E2">
    <text
       xml:space="preserve"
       style="font-style:normal;font-variant:normal;font-weight:normal;font-stretch:normal;font-size:42.6667px;line-height:0;font-family:sans-serif;-inkscape-font-specification:sans-serif;text-align:start;writing-mode:lr-tb;direction:ltr;text-anchor:start;fill:#000000;stroke-width:2"
       x="1138.9113"
       y="2009.0001"
       id="text6"><tspan
         sodipodi:role="line"
         id="tspan6"
         x="1138.9113"
         y="2009.0001">E2: 1.0 V vs SHE</tspan></text>
    <path
       style="fill:#000000;fill-opacity:1;stroke:#000000;stroke-width:2;stroke-opacity:1"
       d="m 1143.0517,1993.3707 75.7177,-93.9343"
       id="path10" />
  </g>
  <text
     xml:space="preserve"
     style="font-size:42.6667px;line-height:0;font-family:sans-serif;-inkscape-font-specification:sans-serif;text-align:start;writing-mode:lr-tb;direction:ltr;text-anchor:start;fill:#000000;stroke:#000000;stroke-width:2"
     x="15.553181"
     y="4407.8535"
     id="text8"
     inkscape:label="scan rate"><tspan
       sodipodi:role="line"
       id="tspan8"
       x="15.553181"
       y="4407.8535"
       style="stroke:none">scan rate: 5 mV / s </tspan></text>
  <text
     xml:space="preserve"
     style="font-size:42.6667px;line-height:0;font-family:sans-serif;-inkscape-font-specification:sans-serif;text-align:start;writing-mode:lr-tb;direction:ltr;text-anchor:start;fill:#000000;stroke:none;stroke-width:2"
     x="63.264896"
     y="4486.3843"
     id="text10"
     inkscape:label="figure"><tspan
       sodipodi:role="line"
       id="tspan10"
       x="63.264896"
       y="4486.3843">figure: 1</tspan></text>
  <text
     xml:space="preserve"
     style="font-size:42.6667px;line-height:0;font-family:sans-serif;-inkscape-font-specification:sans-serif;text-align:start;writing-mode:lr-tb;direction:ltr;text-anchor:start;fill:none;stroke:#000000;stroke-width:0.5;stroke-dasharray:none;stroke-opacity:1"
     x="86.05629"
     y="4559.2339"
     id="text15"
     inkscape:label="tags"><tspan
       sodipodi:role="line"
       id="tspan15"
       x="86.05629"
       y="4559.2339"
       style="fill:#000000;fill-opacity:1;stroke:#000000;stroke-opacity:1">tags: BCV</tspan></text>
  <g
     id="g1"
     inkscape:label="curve">
    <text
       xml:space="preserve"
       style="font-size:42.6667px;line-height:0;font-family:sans-serif;-inkscape-font-specification:sans-serif;text-align:start;writing-mode:lr-tb;direction:ltr;text-anchor:start;fill:#000000;stroke:#000000;stroke-width:2"
       x="77.522736"
       y="4335.6943"
       id="text7"
       inkscape:label="curve"><tspan
         sodipodi:role="line"
         id="tspan7"
         x="77.522736"
         y="4335.6943"
         style="stroke:none">curve: solid</tspan></text>
    <path
       style="fill:none;stroke:#e4260f;stroke-width:0.5"
       d="m 614.45517,5009.9448 c 0,0 5.99034,-21.4356 8.46437,-35.5654 3.83521,-21.9039 -2.55918,-58.6813 3.3977,-74.4553 16.57113,-43.8809 37.91167,-163.3229 106.46207,-209.3655 31.15475,-20.9254 92.3607,-32.9718 133.15173,-59.9034 6.61228,-4.3657 41.08118,2.3901 53.67586,-5.6345 16.4049,-10.4523 35.32017,-41.2352 40.92414,-65.2414 5.19403,-22.2501 22.46455,-46.9871 44.77926,-51.8965 6.7427,-1.4835 27.8153,9.1347 31.2353,12.9437 10.8204,12.0515 21.4622,15.5842 22.1441,16.4149 57.501,70.0392 221.1923,73.0748 345.4827,80.6621 38.0548,2.323 101.3097,-10.311 112.6897,-19.5725 43.3037,-35.2421 45.3749,-266.8788 52.7862,-266.6 6.0742,0.2285 0.3752,123.4642 13.6414,183.269 1.6574,7.4714 7.5028,-7.7477 15.819,41.8796 0.6731,4.0168 10.7484,12.7862 16.2085,17.7273 1.155,1.0452 12.0529,1.3706 18.9794,9.4897 0.949,1.1124 10.6069,-0.6099 11.5655,0 2.5215,1.6042 4.5743,4.1095 7.4138,5.0413 2.5376,0.8328 5.4125,-0.3375 8.0069,0.2966 4.0376,0.9868 7.2372,4.3275 11.2689,5.3379 7.872,1.9728 22.1751,-0.1569 24.3173,1.1862 1.3633,0.8548 1.9511,3.1884 3.5586,3.2621 3.1863,0.146 37.0174,0.2285 45.0759,0.2966 4.2088,0.035 8.2463,-2.0395 12.4551,-2.0759 4.6971,-0.041 9.2416,2.164 13.938,2.0759 6.4356,-0.1207 7.0376,-3.4323 18.9793,-3.5587 12.0987,-0.128 55.698,-24.722 70.2827,-39.1448 6.5702,-6.4973 6.488,-21.2557 12.7517,-24.6138 17.9258,-9.6102 37.2557,-148.8433 39.1449,-148.5724 3.1933,0.4579 -7.1116,134.679 -24.0207,174.669 -8.9204,21.0969 -4.5562,40.0346 -8.0069,47.1517 -11.9387,24.6237 -26.4478,44.7867 -61.5151,54.3659 -1.5665,0.4279 -72.0279,0.9692 -73.3928,0.6291 -2.5959,-0.6469 -4.8743,-2.7905 -7.5489,-2.726 -2.7252,0.066 -4.8235,3.0952 -7.549,3.1454 -106.2019,1.9542 -108.1862,12.255 -110.0892,12.0574 -33.9938,-3.5298 -38.2211,58.2027 -40.5757,57.9802 -1.466,-0.1385 -20.0761,-60.1114 -21.063,-61.1972 -4.454,-4.9002 -13.9541,-11.4325 -28.0053,-12.5101 -8.8975,-0.6823 -61.2894,9.3861 -95.7253,9.7508 -33.6798,0.3567 -92.2441,-6.0361 -119.106,-6.7102 -27.3128,-0.6854 -19.5526,12.5192 -271.9728,18.0336 -59.68271,1.3038 -90.16076,-13.5479 -135.46216,-11.9525 -71.04635,2.502 -98.63528,8.5845 -136.09123,30.825 -0.95923,0.5696 1.64213,6.2177 -14.25917,15.727 -9.73971,5.8245 -34.16726,68.2131 -40.2612,135.4622 -0.0444,0.49 -6.69602,13.7696 -10.08129,34.208 -3.24593,19.5973 -10.63375,43.003 -16.48514,60.8046 -2.68059,8.1551 -1.52645,31.7406 -12.6463,31.8521 -12.80648,0.1285 -19.89769,-31.6192 -33.3413,-26.8408 -10.41304,3.7012 -33.34131,51.7943 -33.34131,51.7943"
       id="path1"
       sodipodi:nodetypes="cssssssssssssssssssssssssssssssssssssssssssssssssssc" />
  </g>
</svg>
