<?xml version="1.0" encoding="UTF-8" standalone="no"?>
<svg
   width="4959"
   height="7009.000000000002"
   version="1.1"
   id="svg2"
   sodipodi:docname="cuesta_2000_the_5684_f1a_black.svg"
   inkscape:version="1.4 (86a8ad7, 2024-10-11)"
   xmlns:inkscape="http://www.inkscape.org/namespaces/inkscape"
   xmlns:sodipodi="http://sodipodi.sourceforge.net/DTD/sodipodi-0.dtd"
   xmlns:xlink="http://www.w3.org/1999/xlink"
   xmlns="http://www.w3.org/2000/svg"
   xmlns:svg="http://www.w3.org/2000/svg">
  <defs
     id="defs2" />
  <sodipodi:namedview
     id="namedview2"
     pagecolor="#ffffff"
     bordercolor="#000000"
     borderopacity="0.25"
     inkscape:showpageshadow="2"
     inkscape:pageopacity="0.0"
     inkscape:pagecheckerboard="0"
     inkscape:deskcolor="#d1d1d1"
     inkscape:zoom="0.29276985"
     inkscape:cx="2028.8974"
     inkscape:cy="1508.0105"
     inkscape:window-width="2880"
     inkscape:window-height="1711"
     inkscape:window-x="-9"
     inkscape:window-y="-9"
     inkscape:window-maximized="1"
     inkscape:current-layer="svg2" />
  <image
     height="7009"
     id="svg_1"
     width="4959"
     x="0"
     xlink:href="cuesta_2000_adsorption_5684_p1.png"
     y="0" />
  <text
     fill="#ff00ff"
     font-family="Serif"
     font-size="54px"
     id="svg_19"
     stroke="#ff00ff"
     stroke-width="0"
     text-anchor="middle"
     x="1081.48"
     xml:space="preserve"
     y="841">curve: black</text>
  <text
     fill="#ff00ff"
     font-family="Serif"
     font-size="54px"
     id="svg_20"
     stroke="#ff00ff"
     stroke-width="0"
     text-anchor="middle"
     x="293.38"
     xml:space="preserve"
     y="152.89999">Figure: 1a</text>
  <text
     fill="#ff00ff"
     font-family="Serif"
     font-size="54px"
     id="svg_21"
     stroke="#ff00ff"
     stroke-width="0"
     text-anchor="middle"
     x="286.23999"
     xml:space="preserve"
     y="236.24001">tags: BCV</text>
  <text
     fill="#ff00ff"
     font-family="Serif"
     font-size="54px"
     id="svg_22"
     stroke="#ff00ff"
     stroke-width="0"
     text-anchor="middle"
     x="957.66998"
     xml:space="preserve"
     y="469.57001">scan rate: 10 mV s⁻¹</text>
  <path
     d="m 754.3,934.69 c 16.28,-5.39 32.98,-4.8 43.53,-5.38 10.55,-0.58 73.46,-0.47 111.71,-0.35 l 189.36,-7.65 c 43.96,-3.7 97.15,-6.55 114,-8.28 16.85,-1.73 88.78,-6.74 113.2,-22.73 24.42,-15.99 32.39,-33.83 38.29,-45.79 5.9,-11.96 12.4,-30.92 17.57,-54.59 10.34,-47.34 15.25,-88.75 23.31,-99.82 8.06,-11.07 9.09,-29.14 12.83,-37.96 3.74,-8.82 5.17,-47.62 6.98,-68.05 1.96,-36.55 2.54,-64.94 3.23,-91.68 0.69,-26.74 2.09,-45.76 2.22,-51.41 0.27,-11.3 2.24,-53.71 6.57,-53.27 2.44,-0.29 5.05,112.28 5.03,124.31 -0.02,12.03 2.63,74.72 3.2,114.21 0.58,39.49 4.49,111.02 6.09,119.35 1.59,8.33 9.26,12.32 13,15.71 3.75,3.39 9.06,17.71 11.38,26.54 2.32,8.82 4.74,13.73 9.22,16.05 4.48,2.32 12.59,12.71 34.4,12.4 21.8,-0.31 34.73,-0.71 50.86,3.08 16.13,3.79 26.03,4.26 75.03,29.68 49,25.42 78.11,38.86 124.34,46.63 46.23,7.78 46.12,7.97 65.67,9.39 19.55,1.42 38.66,2.59 41.74,1.86 3.08,-0.73 8.05,-1.34 8.77,-5.51 2.88,-16.65 3.93,-492.97 5.8,-492.9 1.86,0.06 0.7,123.96 2.21,246.92 1.51,122.96 2.72,225.31 3.7,233.95 0.98,8.64 -0.24,11.28 3.24,15.08 3.48,3.81 4.62,-5.85 8.86,0.09 4.25,5.94 5.98,11.21 22.48,13.53 16.49,2.32 41.79,2.98 57.31,2.87 15.52,-0.11 67.94,-0.43 67.92,-0.72 -0.02,-0.29 0.57,45.47 -0.55,45.36 -1.12,-0.11 -29.55,1.15 -55.53,2.13 -25.98,0.98 -50.31,2.09 -64.68,3.69 -28.72,3.18 -34.26,11.96 -37.93,15.88 -3.68,3.91 -11.77,-18.61 -19.82,8.01 -8.05,26.62 -7.57,350.68 -10.02,350.7 -2.46,0.03 -2.7,-359.38 -6.24,-360.11 -3.53,-0.73 -12.74,-0.93 -56.16,3.81 -43.41,4.74 -68.75,13.38 -102.73,25.27 -33.98,11.89 -81.61,41.62 -118.26,52.82 -36.64,11.2 -87.7,4.44 -113.45,0.26 -25.74,-4.19 -57.17,-5.1 -74.53,1.64 -17.37,6.74 -32.79,24.58 -39.46,35.61 -13.34,22.06 -22.37,28.96 -33.41,31.08 -11.03,2.11 -19.8,-1.97 -22.38,-5.48 -5.15,-7.02 -21.8,-53.58 -27.46,-64.87 -5.66,-11.29 -22.14,-54.29 -60.59,-66.75 -38.45,-12.46 -77.76,-15.95 -85.78,-17.2 -8.02,-1.25 -89.69,-9.75 -156.06,-12.29 -66.37,-2.53 -149.84,-4.98 -165.67,-4.34 -15.83,0.64 -30.87,0.87 -42.03,3.53 l -10.38,3.4 0.06,-37.69 z"
     fill="#000000"
     fill-opacity="0"
     id="svg_23"
     stroke="#ff00ff"
     stroke-width="5" />
  <g
     id="svg_2">
    <path
       d="M 607.58,392 474.91,391.13 Z"
       fill="#ff00ff"
       id="svg_6"
       stroke="#ff00ff"
       stroke-width="5" />
    <text
       fill="#ff00ff"
       font-family="Serif"
       font-size="54px"
       id="svg_18"
       stroke="#ff00ff"
       stroke-width="0"
       text-anchor="middle"
       x="307.23999"
       xml:space="preserve"
       y="401.79001">j2: 6 µA cm⁻²</text>
  </g>
  <g
     id="svg_3">
    <path
       d="m 608.3,1224.2 -122.16,0.26 z"
       fill="#ff00ff"
       id="svg_7"
       stroke="#ff00ff"
       stroke-width="5" />
    <text
       fill="#ff00ff"
       font-family="Serif"
       font-size="54px"
       id="svg_17"
       stroke="#ff00ff"
       stroke-width="0"
       text-anchor="middle"
       x="311.32999"
       xml:space="preserve"
       y="1234.66">j1: -3 µA cm⁻²</text>
  </g>
  <g
     id="svg_4">
    <path
       d="m 709.75,1408.8 -16,94.33 z"
       fill="#ff00ff"
       id="svg_8"
       stroke="#ff00ff"
       stroke-width="5" />
    <text
       fill="#ff00ff"
       font-family="Serif"
       font-size="54px"
       id="svg_15"
       stroke="#ff00ff"
       stroke-width="0"
       text-anchor="middle"
       x="694.12"
       xml:space="preserve"
       y="1550.38">E1: -0.4 V vs. SCE</text>
  </g>
  <g
     id="svg_5">
    <path
       d="m 2310.01,1408.44 -0.64,104.06 z"
       fill="#ff00ff"
       id="svg_9"
       stroke="#ff00ff"
       stroke-width="5" />
    <text
       fill="#ff00ff"
       font-family="Serif"
       font-size="54px"
       id="svg_16"
       stroke="#ff00ff"
       stroke-width="0"
       text-anchor="middle"
       x="2311.6599"
       xml:space="preserve"
       y="1559.09">E2: 1.2 V vs. SCE</text>
  </g>
</svg>
