<?xml version="1.0" encoding="UTF-8" standalone="no"?>
<svg
   height="6591px"
   version="1.1"
   width="4961px"
   id="svg6"
   sodipodi:docname="berger_2017_lithium_261_f1_pink.svg"
   inkscape:version="1.2 (dc2aedaf03, 2022-05-15)"
   xmlns:inkscape="http://www.inkscape.org/namespaces/inkscape"
   xmlns:sodipodi="http://sodipodi.sourceforge.net/DTD/sodipodi-0.dtd"
   xmlns:xlink="http://www.w3.org/1999/xlink"
   xmlns="http://www.w3.org/2000/svg"
   xmlns:svg="http://www.w3.org/2000/svg">
  <sodipodi:namedview
     id="namedview8"
     pagecolor="#ffffff"
     bordercolor="#666666"
     borderopacity="1.0"
     inkscape:pageshadow="2"
     inkscape:pageopacity="0.0"
     inkscape:pagecheckerboard="0"
     showgrid="false"
     inkscape:zoom="0.69348175"
     inkscape:cx="2051.9646"
     inkscape:cy="3526.4086"
     inkscape:window-width="3456"
     inkscape:window-height="2036"
     inkscape:window-x="-12"
     inkscape:window-y="-12"
     inkscape:window-maximized="1"
     inkscape:current-layer="svg6"
     inkscape:showpageshadow="2"
     inkscape:deskcolor="#d1d1d1" />
  <defs
     id="defs2" />
  <image
     height="6591px"
     sodipodi:insensitive="true"
     width="4961px"
     x="0"
     xlink:href="berger_2017_lithium_261_p1.png"
     y="0"
     id="image4" />
  <g
     id="g9666">
    <text
       xml:space="preserve"
       style="font-size:26.6667px;line-height:1.25;font-family:sans-serif;letter-spacing:0px;word-spacing:0px"
       x="1788.4613"
       y="4054.1177"
       id="text3911"><tspan
         sodipodi:role="line"
         id="tspan3909"
         x="1788.4613"
         y="4054.1177">E2: 0 V vs Pt</tspan></text>
    <path
       style="fill:none;stroke:#000000;stroke-width:1px;stroke-linecap:butt;stroke-linejoin:miter;stroke-opacity:1"
       d="m 1852.9687,4039.0392 c 4.326,-108.8709 4.326,-108.8709 4.326,-108.8709"
       id="path9560" />
  </g>
  <g
     id="g9661">
    <text
       xml:space="preserve"
       style="font-size:26.6667px;line-height:1.25;font-family:sans-serif;letter-spacing:0px;word-spacing:0px"
       x="650.53497"
       y="4078.5891"
       id="text1839"><tspan
         sodipodi:role="line"
         id="tspan1837"
         x="650.53497"
         y="4078.5891">E1: -3 V vs Pt</tspan></text>
    <path
       style="fill:none;stroke:#000000;stroke-width:1px;stroke-linecap:butt;stroke-linejoin:miter;stroke-opacity:1"
       d="M 759.21248,4070.7632 C 947.39335,3930.1683 947.39335,3930.1683 947.39335,3930.1683"
       id="path9562" />
  </g>
  <g
     id="g9656">
    <text
       xml:space="preserve"
       style="font-size:26.6667px;line-height:1.25;font-family:sans-serif;letter-spacing:0px;word-spacing:0px"
       x="495.54855"
       y="3756.3806"
       id="text7059"><tspan
         sodipodi:role="line"
         id="tspan7057"
         x="495.54855"
         y="3756.3806">j1: -1000 uA cm-2</tspan></text>
    <path
       style="fill:none;stroke:#000000;stroke-width:1px;stroke-linecap:butt;stroke-linejoin:miter;stroke-opacity:1"
       d="m 700.81152,3749.9184 c 95.17193,-99.4979 95.17193,-99.4979 95.17193,-99.4979"
       id="path9564" />
  </g>
  <g
     id="g9651">
    <text
       xml:space="preserve"
       style="font-size:26.6667px;line-height:1.25;font-family:sans-serif;letter-spacing:0px;word-spacing:0px"
       x="505.74503"
       y="3063.0205"
       id="text8917"><tspan
         sodipodi:role="line"
         id="tspan8915"
         x="505.74503"
         y="3063.0205">j2: 0 uA cm-2</tspan></text>
    <path
       style="fill:none;stroke:#000000;stroke-width:1px;stroke-linecap:butt;stroke-linejoin:miter;stroke-opacity:1"
       d="m 669.08754,3051.2699 c 125.45392,39.655 125.45392,39.655 125.45392,39.655"
       id="path9566" />
  </g>
  <g
     id="g15849">
    <path
       style="fill:none;stroke:#000000;stroke-width:1px;stroke-linecap:butt;stroke-linejoin:miter;stroke-opacity:1"
       d="m 1914.2537,3095.9719 c 0,0 -20.0458,-1.0129 -41.1387,5.2025 -22.6053,6.661 -32.7746,27.9405 -47.5443,27.2425 -25.8023,-1.2194 -20.8648,-23.9896 -107.4289,-26.677 -84.6792,-2.6289 -162.6127,-8.1531 -203.3219,-0.721 -67.987,12.4121 -84.4719,68.258 -120.4069,75.7049 -39.3267,8.1497 -75.4864,-45.8965 -152.8519,-31.724 -56.7566,10.3971 -55.6145,225.9385 -103.8239,333.1018 -8.6964,19.331 -41.6853,33.7606 -59.6966,58.6884 -21.5164,29.7791 -37.6383,93.4425 -37.6383,93.4425 -13.4521,15.0049 -32.3012,27.6824 -62.00597,14.42 0,0 25.39147,-1.6043 27.36237,-102.9859 1.5284,-78.6202 15.4349,-201.5718 36.8066,-256.0719 22.8826,-58.353 60.9223,-145.1338 96.6139,-174.4818 41.8599,-34.4199 276.5034,-5.4565 387.8978,-26.677 73.8007,-14.0589 54.8429,-60.5698 87.2409,-61.285 33.0721,-0.7301 82.984,46.5994 182.4129,33.887 37.7745,-4.8296 69.0087,1.5691 105.2659,-7.21 9.6939,-2.3472 30.9966,2.5436 51.121,-0.9132 20.1244,-3.4568 51.3593,-14.8646 67.8439,-16.3908 45.3403,-4.1977 108.8709,2.884 108.8709,2.884 0,0 -5.6484,17.8881 -79.3099,37.492 -38.5484,10.2591 -122.5699,17.304 -122.5699,17.304 v 0"
       id="path9701"
       sodipodi:nodetypes="cssssssssssssssssssscscc" />
    <text
       xml:space="preserve"
       style="font-size:26.6667px;line-height:1.25;font-family:sans-serif;letter-spacing:0px;word-spacing:0px"
       x="1692.1858"
       y="2980.6121"
       id="text15324"><tspan
         sodipodi:role="line"
         id="tspan15322"
         x="1692.1858"
         y="2980.6121">curve: pink</tspan></text>
  </g>
  <text
     xml:space="preserve"
     style="font-size:53.3333px;fill:#000000"
     x="258.11783"
     y="2842.1802"
     id="text184"><tspan
       sodipodi:role="line"
       id="tspan182"
       x="258.11783"
       y="2842.1802"
       style="font-size:53.3333px">Figure: 1</tspan></text>
  <text
     xml:space="preserve"
     style="font-size:53.3333px;fill:#000000"
     x="263.88583"
     y="2886.8821"
     id="text188"><tspan
       sodipodi:role="line"
       id="tspan186"
       x="263.88583"
       y="2886.8821">Tags: BCV</tspan></text>
  <text
     xml:space="preserve"
     style="font-size:53.3333px;fill:#000000"
     x="177.36588"
     y="2969.0759"
     id="text192"><tspan
       sodipodi:role="line"
       id="tspan190"
       x="177.36588"
       y="2969.0759">Scan rate: 50 mV / s</tspan></text>
</svg>
