<?xml version="1.0" encoding="UTF-8" standalone="no"?>
<svg
   height="6497px"
   version="1.1"
   width="4961px"
   id="svg6"
   sodipodi:docname="ganassin_2015_non_8349_p2_f2a_red.svg"
   inkscape:version="1.1.2 (b8e25be833, 2022-02-05)"
   xmlns:inkscape="http://www.inkscape.org/namespaces/inkscape"
   xmlns:sodipodi="http://sodipodi.sourceforge.net/DTD/sodipodi-0.dtd"
   xmlns:xlink="http://www.w3.org/1999/xlink"
   xmlns="http://www.w3.org/2000/svg"
   xmlns:svg="http://www.w3.org/2000/svg">
  <sodipodi:namedview
     id="namedview8"
     pagecolor="#ffffff"
     bordercolor="#666666"
     borderopacity="1.0"
     inkscape:pageshadow="2"
     inkscape:pageopacity="0.0"
     inkscape:pagecheckerboard="0"
     showgrid="false"
     inkscape:zoom="0.22933662"
     inkscape:cx="1515.2399"
     inkscape:cy="1643.8718"
     inkscape:window-width="1920"
     inkscape:window-height="1017"
     inkscape:window-x="1912"
     inkscape:window-y="-8"
     inkscape:window-maximized="1"
     inkscape:current-layer="g8038" />
  <defs
     id="defs2" />
  <image
     height="6497px"
     sodipodi:insensitive="true"
     width="4961px"
     x="0"
     xlink:href="ganassin_2015_non_8349_p2.png"
     y="0"
     id="image4" />
  <g
     id="g8043">
    <text
       xml:space="preserve"
       style="font-size:80px;line-height:1.25;font-family:sans-serif;-inkscape-font-specification:sans-serif;letter-spacing:0px;word-spacing:0px"
       x="185.31709"
       y="586.47418"
       id="text1773"><tspan
         sodipodi:role="line"
         id="tspan1771"
         x="185.31709"
         y="586.47418">j2: 90 uA / cm2</tspan></text>
    <path
       style="fill:none;stroke:#000000;stroke-width:1px;stroke-linecap:butt;stroke-linejoin:miter;stroke-opacity:1"
       d="m 752.31796,554.98866 165.82213,9.0571"
       id="path6607" />
  </g>
  <g
     id="g8038">
    <text
       xml:space="preserve"
       style="font-size:80px;line-height:1.25;font-family:sans-serif;-inkscape-font-specification:sans-serif;letter-spacing:0px;word-spacing:0px"
       x="116.43583"
       y="1271.3156"
       id="text1773-7"><tspan
         sodipodi:role="line"
         id="tspan1771-6"
         x="116.43583"
         y="1271.3156">j1: -90 uA / cm2</tspan></text>
    <path
       style="fill:none;stroke:#000000;stroke-width:1px;stroke-linecap:butt;stroke-linejoin:miter;stroke-opacity:1"
       d="m 682.94437,1248.7245 235.29207,17.6324"
       id="path6609" />
  </g>
  <g
     id="g8033">
    <text
       xml:space="preserve"
       style="font-size:80px;line-height:1.25;font-family:sans-serif;-inkscape-font-specification:sans-serif;letter-spacing:0px;word-spacing:0px"
       x="430.89636"
       y="1559.1478"
       id="text1773-7-8"><tspan
         sodipodi:role="line"
         id="tspan1771-6-1"
         x="430.89636"
         y="1559.1478">E1: 0.2 V vs. RHE</tspan></text>
    <path
       style="fill:none;stroke:#000000;stroke-width:1px;stroke-linecap:butt;stroke-linejoin:miter;stroke-opacity:1"
       d="m 1038.8659,1527.231 61.727,-163.5151"
       id="path6724" />
  </g>
  <g
     id="g8028">
    <text
       xml:space="preserve"
       style="font-size:80px;line-height:1.25;font-family:sans-serif;-inkscape-font-specification:sans-serif;letter-spacing:0px;word-spacing:0px"
       x="2099.3616"
       y="1561.5962"
       id="text1773-7-8-8"><tspan
         sodipodi:role="line"
         id="tspan1771-6-1-6"
         x="2099.3616"
         y="1561.5962">E2: 1 V vs. RHE</tspan></text>
    <path
       style="fill:none;stroke:#000000;stroke-width:1px;stroke-linecap:butt;stroke-linejoin:miter;stroke-opacity:1"
       d="m 2098.1654,1533.1562 -34.6867,-168.0383"
       id="path7943" />
  </g>
  <text
     xml:space="preserve"
     style="font-size:80px;line-height:1.25;font-family:sans-serif;-inkscape-font-specification:sans-serif;letter-spacing:0px;word-spacing:0px"
     x="1002.0629"
     y="126.41408"
     id="text8589"><tspan
       sodipodi:role="line"
       id="tspan8587"
       x="1002.0629"
       y="126.41408">figure: 2a</tspan></text>
  <text
     xml:space="preserve"
     style="font-size:80px;line-height:1.25;font-family:sans-serif;-inkscape-font-specification:sans-serif;letter-spacing:0px;word-spacing:0px"
     x="1032.8956"
     y="231.24527"
     id="text12245"><tspan
       sodipodi:role="line"
       id="tspan12243"
       x="1032.8956"
       y="231.24527">tags: BCV</tspan></text>
  <text
     xml:space="preserve"
     style="font-size:80px;line-height:1.25;font-family:sans-serif;-inkscape-font-specification:sans-serif;letter-spacing:0px;word-spacing:0px"
     x="1520.0522"
     y="132.58063"
     id="text13679"><tspan
       sodipodi:role="line"
       id="tspan13677"
       x="1520.0522"
       y="132.58063">scan rate: 50 mV / s</tspan></text>
  <g
     id="g11698">
    <text
       xml:space="preserve"
       style="font-size:80px;line-height:1.25;font-family:sans-serif;-inkscape-font-specification:sans-serif;letter-spacing:0px;word-spacing:0px"
       x="1026.729"
       y="667.52802"
       id="text22445"><tspan
         sodipodi:role="line"
         id="tspan22443"
         x="1026.729"
         y="667.52802">curve: red</tspan></text>
    <path
       style="fill:none;stroke:#000000;stroke-width:1px;stroke-linecap:butt;stroke-linejoin:miter;stroke-opacity:1"
       d="m 948.93263,808.30965 c 0.6924,-6.01083 23.50479,-6.95045 33.5206,-12.80869 19.43037,-11.36482 19.08697,-24.96434 23.70967,-25.07231 4.5474,-0.10621 9.9288,16.78237 19.4856,20.30313 18.5256,6.82489 39.4045,2.66159 59.1379,3.2703 28.2389,0.87108 55.1792,1.23312 83.3927,0.95383 5.5966,-0.0554 11.6452,-3.35322 17.1692,-2.45272 7.6887,1.25338 13.0906,7.1446 19.758,11.17353 9.3072,5.62408 18.2133,12.03083 28.0701,16.62403 4.9739,2.31781 10.7867,2.69797 15.5339,5.45051 12.3684,7.17151 20.2289,20.61835 32.4305,28.07009 5.6002,3.42017 11.729,8.00361 18.2592,7.35818 20.269,-2.00332 26.9894,-17.56931 40.6062,-26.16242 23.4401,-14.79222 35.7515,-17.80683 54.4446,-19.73186 17.5308,-1.80534 33.6604,1.24532 49.9326,8.01328 6.0647,2.52246 10.9727,6.83654 17.0231,5.28802 11.8055,-3.02148 10.2456,-282.47152 13.4213,-282.23972 3.4981,0.25534 1.5291,206.10726 6.8915,269.59352 4.3142,51.07651 12.5516,70.41944 34.0657,79.57735 16.2015,6.8965 49.6116,8.32034 74.6719,9.81091 38.3609,2.28168 76.9446,1.34139 115.2781,-1.36263 28.8749,-2.03682 57.6108,-8.53815 86.5034,-10.30636 26.7489,-1.63702 53.2268,-1.25289 80.0095,-0.32212 20.2853,0.70497 40.476,3.95279 60.7731,3.81535 13.119,-0.0888 26.2961,-0.8814 39.2436,-2.99778 15.3512,-2.50929 29.7774,-9.74683 45.2392,-11.44605 15.6281,-1.7175 48.2068,1.36262 48.2068,1.36262 0.5375,5.22736 -0.2332,21.92278 -1.6877,31.56617 -0.5946,3.9421 -18.3662,9.26616 -29.0775,11.76533 -48.9486,11.42075 -100.2222,8.07864 -150.4339,10.35596 -33.1311,1.50264 -66.397,-3.42309 -99.4717,2.1802 -21.6508,3.66793 -31.8918,14.83635 -38.6985,14.98889 -6.0821,0.1363 -12.9946,-9.85883 -19.6715,-13.56297 -13.4266,-7.44866 -18.0595,-7.7317 -28.1333,-8.17292 -23.0621,-1.0101 -53.9269,-3.72758 -81.0996,-3.09413 -30.5298,0.71171 -72.7366,2.43332 -91.296,6.57083 -42.4988,9.47442 -42.4479,33.3304 -44.9336,56.44577 -12.0939,112.46663 -8.9904,336.36333 -13.8822,336.70693 -3.5217,0.2473 -0.4637,-183.9188 -4.1375,-283.8701 -0.5518,-15.012 0.5302,-45.3478 -4.0879,-45.5118 -6.4213,-0.2279 -14.042,10.2553 -26.1624,13.0813 -13.4964,3.1468 -27.3732,4.4278 -41.2311,4.3136 -18.8659,-0.1554 -34.5562,-6.7717 -52.1321,-17.8133 -13.0618,-8.20579 -21.846,-25.39596 -37.1763,-27.10655 -13.0084,-1.45151 -25.3849,8.29512 -35.7008,16.35151 -5.5102,4.30329 -10.9678,11.95464 -17.4595,16.11074 -6.8501,4.3856 -14.7324,6.6314 -22.0732,10.1343 -16.0291,7.6487 -32.9298,21.1934 -45.3988,23.3634 -27.4945,4.7849 -89.3614,-1.1469 -133.9744,1.5582 -7.8616,0.4767 -16.2998,0.2807 -23.4371,3.611 -8.8548,4.1317 -16.3537,20.1064 -21.7339,19.3492 -3.80672,-0.5357 -7.11384,-10.2585 -11.7186,-15.1251 -6.28238,-6.6397 -15.59959,-10.8383 -25.2767,-11.1735 -14.48193,-0.5017 -21.7426,12.029 -21.73388,9.8789 0.31757,-78.31147 -1.8907,-178.48246 5.04171,-238.66385 z"
       id="path878"
       sodipodi:nodetypes="sssssssssssssssssssssssssssssssssssssssssssssssssssssss" />
  </g>
</svg>
