<?xml version="1.0" encoding="UTF-8" standalone="no"?>
<svg
   height="6497px"
   version="1.1"
   width="4961px"
   id="svg6"
   sodipodi:docname="ganassin_2015_non_8349_p2_f2a_black.svg"
   inkscape:version="1.1.2 (b8e25be833, 2022-02-05)"
   xmlns:inkscape="http://www.inkscape.org/namespaces/inkscape"
   xmlns:sodipodi="http://sodipodi.sourceforge.net/DTD/sodipodi-0.dtd"
   xmlns:xlink="http://www.w3.org/1999/xlink"
   xmlns="http://www.w3.org/2000/svg"
   xmlns:svg="http://www.w3.org/2000/svg">
  <sodipodi:namedview
     id="namedview8"
     pagecolor="#ffffff"
     bordercolor="#666666"
     borderopacity="1.0"
     inkscape:pageshadow="2"
     inkscape:pageopacity="0.0"
     inkscape:pagecheckerboard="0"
     showgrid="false"
     inkscape:zoom="0.64866191"
     inkscape:cx="904.16901"
     inkscape:cy="810.90009"
     inkscape:window-width="1920"
     inkscape:window-height="1017"
     inkscape:window-x="1912"
     inkscape:window-y="-8"
     inkscape:window-maximized="1"
     inkscape:current-layer="g8038" />
  <defs
     id="defs2" />
  <image
     height="6497px"
     sodipodi:insensitive="true"
     width="4961px"
     x="0"
     xlink:href="ganassin_2015_non_8349_p2.png"
     y="0"
     id="image4" />
  <g
     id="g8043">
    <text
       xml:space="preserve"
       style="font-size:80px;line-height:1.25;font-family:sans-serif;-inkscape-font-specification:sans-serif;letter-spacing:0px;word-spacing:0px"
       x="185.31709"
       y="586.47418"
       id="text1773"><tspan
         sodipodi:role="line"
         id="tspan1771"
         x="185.31709"
         y="586.47418">j2: 90 uA / cm2</tspan></text>
    <path
       style="fill:none;stroke:#000000;stroke-width:1px;stroke-linecap:butt;stroke-linejoin:miter;stroke-opacity:1"
       d="m 752.31796,554.98866 165.82213,9.0571"
       id="path6607" />
  </g>
  <g
     id="g8038">
    <text
       xml:space="preserve"
       style="font-size:80px;line-height:1.25;font-family:sans-serif;-inkscape-font-specification:sans-serif;letter-spacing:0px;word-spacing:0px"
       x="116.43583"
       y="1271.3156"
       id="text1773-7"><tspan
         sodipodi:role="line"
         id="tspan1771-6"
         x="116.43583"
         y="1271.3156">j1: -90 uA / cm2</tspan></text>
    <path
       style="fill:none;stroke:#000000;stroke-width:1px;stroke-linecap:butt;stroke-linejoin:miter;stroke-opacity:1"
       d="m 682.94437,1248.7245 235.29207,17.6324"
       id="path6609" />
  </g>
  <g
     id="g8033">
    <text
       xml:space="preserve"
       style="font-size:80px;line-height:1.25;font-family:sans-serif;-inkscape-font-specification:sans-serif;letter-spacing:0px;word-spacing:0px"
       x="430.89636"
       y="1559.1478"
       id="text1773-7-8"><tspan
         sodipodi:role="line"
         id="tspan1771-6-1"
         x="430.89636"
         y="1559.1478">E1: 0.2 V vs. RHE</tspan></text>
    <path
       style="fill:none;stroke:#000000;stroke-width:1px;stroke-linecap:butt;stroke-linejoin:miter;stroke-opacity:1"
       d="m 1038.8659,1527.231 61.727,-163.5151"
       id="path6724" />
  </g>
  <g
     id="g8028">
    <text
       xml:space="preserve"
       style="font-size:80px;line-height:1.25;font-family:sans-serif;-inkscape-font-specification:sans-serif;letter-spacing:0px;word-spacing:0px"
       x="2099.3616"
       y="1561.5962"
       id="text1773-7-8-8"><tspan
         sodipodi:role="line"
         id="tspan1771-6-1-6"
         x="2099.3616"
         y="1561.5962">E2: 1 V vs. RHE</tspan></text>
    <path
       style="fill:none;stroke:#000000;stroke-width:1px;stroke-linecap:butt;stroke-linejoin:miter;stroke-opacity:1"
       d="m 2098.1654,1533.1562 -34.6867,-168.0383"
       id="path7943" />
  </g>
  <text
     xml:space="preserve"
     style="font-size:80px;line-height:1.25;font-family:sans-serif;-inkscape-font-specification:sans-serif;letter-spacing:0px;word-spacing:0px"
     x="1002.0629"
     y="126.41408"
     id="text8589"><tspan
       sodipodi:role="line"
       id="tspan8587"
       x="1002.0629"
       y="126.41408">figure: 2a</tspan></text>
  <text
     xml:space="preserve"
     style="font-size:80px;line-height:1.25;font-family:sans-serif;-inkscape-font-specification:sans-serif;letter-spacing:0px;word-spacing:0px"
     x="1032.8956"
     y="231.24527"
     id="text12245"><tspan
       sodipodi:role="line"
       id="tspan12243"
       x="1032.8956"
       y="231.24527">tags: BCV</tspan></text>
  <text
     xml:space="preserve"
     style="font-size:80px;line-height:1.25;font-family:sans-serif;-inkscape-font-specification:sans-serif;letter-spacing:0px;word-spacing:0px"
     x="1520.0522"
     y="132.58063"
     id="text13679"><tspan
       sodipodi:role="line"
       id="tspan13677"
       x="1520.0522"
       y="132.58063">scan rate: 50 mV / s</tspan></text>
  <g
     id="g6929">
    <text
       xml:space="preserve"
       style="font-size:80px;line-height:1.25;font-family:sans-serif;-inkscape-font-specification:sans-serif;letter-spacing:0px;word-spacing:0px"
       x="1026.729"
       y="667.52802"
       id="text22445"><tspan
         sodipodi:role="line"
         id="tspan22443"
         x="1026.729"
         y="667.52802">curve: black</tspan></text>
    <path
       style="fill:none;stroke:#00ff00;stroke-width:1px;stroke-linecap:butt;stroke-linejoin:miter;stroke-opacity:1"
       d="m 947.3348,804.54084 c 0.06,-2.64372 14.90881,-1.32548 23.50993,-7.70818 5.45615,-4.04887 15.22994,-3.6859 21.39019,-6.55194 11.66398,-5.42661 14.03338,-17.30478 23.70258,-17.5361 10.2747,-0.2458 7.9503,15.97946 23.3173,17.5361 33.9356,3.43759 75.9041,-1.71539 113.6956,1.15623 43.8394,3.33117 44.9085,5.90409 61.6654,14.64552 7.1314,3.72021 14.2528,6.03473 21.0048,10.40605 28.2794,18.30848 51.7982,47.35655 78.8161,63.20704 25.2253,14.79878 87.5024,20.13759 132.3879,21.9683 34.389,1.40259 69.6662,0.17956 102.7114,-9.44251 29.1321,-8.48266 53.9795,-28.27627 81.3213,-41.43145 24.2614,-11.67306 48.3521,-24.18055 73.9985,-32.37434 22.1287,-7.06991 51.9871,-4.72849 68.0246,-14.83824 18.9627,-11.95373 30.8694,-34.35933 36.4211,-56.07697 13.4792,-52.72907 5.4041,-191.38453 13.2967,-191.35547 8.6016,0.0317 -0.3755,182.12355 16.3798,271.13508 3.8598,20.50502 12.5838,43.14712 29.6765,55.11346 21.1644,14.81688 50.3092,8.46824 76.1183,9.63522 30.7182,1.38895 62.1844,-1.34284 91.7273,-2.31246 9.8207,-0.32232 21.5133,-4.54632 29.8691,-6.93735 0,0 2.5503,23.54696 -3.0833,31.98892 -5.9462,8.91052 -16.0559,8.86239 -26.5932,10.79146 -34.1709,6.25569 -82.1682,-0.88032 -122.7526,6.35924 -18.1709,3.24136 -41.999,8.20924 -55.1135,21.19749 -14.5803,14.43987 -19.2056,36.91647 -24.0881,56.84776 -10.7039,43.6955 -9.4629,93.1761 -12.3331,139.9034 -3.6253,59.0205 -0.4711,177.6398 -6.9841,178.2419 -6.5937,0.6096 -0.2764,-146.8938 -6.8906,-219.4806 -1.4377,-15.7776 -0.151,-29.7322 -6.5051,-44.2451 -5.826,-13.3066 -14.5446,-27.273 -26.9787,-34.783 -16.4769,-9.9518 -38.1921,-8.6856 -57.2001,-11.722 -13.548,-2.1642 -25.7138,-2.9589 -38.6732,-7.463 -25.4318,-8.8391 -47.5212,-28.55992 -71.4408,-40.91949 -22.4947,-11.62333 -45.2912,-23.54723 -69.759,-30.06189 -28.4884,-7.58517 -57.0425,-9.25567 -86.5106,-8.38548 -32.8722,0.97071 -65.1755,2.1899 -91.1822,7.27601 -22.2197,4.34548 -45.6838,11.83522 -65.0019,26.91249 -15.5876,12.16563 -28.7587,25.10068 -44.8203,36.63326 -16.2861,11.6938 -32.8274,23.9125 -51.6448,30.8327 -13.8162,5.0809 -28.8932,5.9641 -43.5512,7.3227 -28.0194,2.597 -56.2651,2.8037 -84.4045,2.9043 -11.5629,0.041 -23.4218,-2.9937 -34.6868,-0.3854 -20.421,4.7283 -24.0778,17.4718 -28.9056,18.2932 -4.0489,0.6889 -11.84217,-15.5735 -20.38195,-20.6057 -4.77861,-2.8159 -10.64108,-2.6316 -16.18716,-2.5596 -16.72257,0.2172 -29.20209,24.2357 -28.95042,13.1447 z"
       id="path878"
       sodipodi:nodetypes="ssssssssssssssssssssssssssssssssssssssssssssssss" />
  </g>
</svg>
